<svg width="41" height="46" viewBox="0 0 41 46" fill="none" xmlns="http://www.w3.org/2000/svg">
<rect y="4" width="36" height="36" rx="18" fill="#0AAD2E"/>
<path d="M29.839 20.3001C29.7688 20.1251 29.5354 19.9427 29.3346 19.9188C27.7375 19.7275 26.1404 19.5362 24.5432 19.3451C22.9193 19.1509 21.2956 18.9563 19.6715 18.7616C18.0757 18.5705 16.4799 18.3796 14.8841 18.1885C14.5778 18.1517 14.2711 18.1146 13.965 18.0783C13.7646 18.0546 13.652 18.171 13.7254 18.3537C13.7956 18.5285 14.0292 18.7116 14.2296 18.7353C15.7926 18.9206 17.3572 19.109 18.9215 19.2969C20.5395 19.4912 22.157 19.6846 23.7748 19.8782C25.384 20.0707 26.9932 20.2631 28.603 20.4565C28.9355 20.4964 29.2676 20.5361 29.5998 20.5757C29.7265 20.5909 29.8179 20.5501 29.8498 20.472C29.8681 20.4259 29.8663 20.3677 29.839 20.3001Z" fill="white"/>
<path d="M30.0964 20.4975C29.98 20.3049 29.7211 20.1471 29.534 20.1609C28.0203 20.2728 26.509 20.3887 24.9961 20.5022C23.4955 20.6149 21.9949 20.7276 20.4947 20.8406C19.038 20.9505 17.5814 21.0602 16.124 21.1693C15.2859 21.2324 14.4474 21.2955 13.6088 21.3586C13.4216 21.3727 13.3585 21.5393 13.4772 21.736C13.5931 21.9287 13.8522 22.087 14.0399 22.0729C15.4465 21.9666 16.8532 21.861 18.2605 21.7552C19.7413 21.6434 21.2224 21.5324 22.7031 21.4209C24.2053 21.3078 25.7076 21.1947 27.2093 21.0817C28.1282 21.013 29.0453 20.9424 29.9645 20.8745C30.0557 20.8676 30.1178 20.8247 30.1433 20.7595C30.1705 20.6913 30.1575 20.5984 30.0964 20.4975Z" fill="white"/>
<path d="M30.2809 20.1009C30.2754 19.9424 30.0909 19.7329 29.8759 19.6532C29.0849 19.3594 28.3005 19.1261 27.5159 18.8837C26.6937 18.6298 25.872 18.3816 25.0487 18.1243C23.3561 17.5951 21.655 17.008 19.9589 16.4566C19.0868 16.1729 18.2179 15.9033 17.3533 15.6647C17.1347 15.6045 16.9189 15.5505 16.7021 15.4966C16.6168 15.4756 16.5333 15.4572 16.4493 15.4401C16.3461 15.4191 16.2408 15.3941 16.1396 15.3789C16.0342 15.3634 15.9289 15.3478 15.8235 15.3323C15.7004 15.3141 15.5811 15.3069 15.4607 15.295C15.264 15.2756 15.0735 15.2715 14.8986 15.2907C14.6833 15.3144 14.5127 15.3866 14.3959 15.5133C14.2892 15.6293 14.2535 15.7968 14.2073 15.9513C14.1738 16.0625 14.1407 16.1742 14.1073 16.2854C14.0472 16.4856 13.9855 16.6849 13.9249 16.8848C13.8655 17.0796 13.8076 17.2756 13.7357 17.4633C13.692 17.576 13.6432 17.686 13.6059 17.8022C13.5793 17.8849 13.5787 17.9818 13.649 18.0938C13.7053 18.1832 13.7942 18.264 13.8964 18.3249C14.1043 18.4489 14.3221 18.4321 14.3704 18.2998C14.3786 18.2773 14.3818 18.253 14.3803 18.2274C14.409 18.1417 14.4448 18.06 14.4772 17.9762C14.5135 17.8814 14.547 17.7852 14.5807 17.6887C14.638 17.5225 14.6864 17.351 14.7383 17.1816C14.7852 17.0269 14.8323 16.8726 14.8791 16.7182C14.9084 16.6206 14.9375 16.5234 14.9671 16.4263C15 16.3163 15.0294 16.2043 15.076 16.1021C15.0843 16.0864 15.0938 16.0713 15.1041 16.0567C15.1157 16.0438 15.1284 16.0315 15.1418 16.02C15.1529 16.0117 15.1652 16.004 15.1777 15.9969C15.1962 15.9881 15.2161 15.9807 15.2363 15.9738C15.2707 15.9651 15.3058 15.958 15.3425 15.9518C15.3991 15.9465 15.4562 15.9436 15.5154 15.9424C15.7004 15.9481 15.8919 15.9686 16.0831 15.9872C16.189 16.0028 16.2944 16.0181 16.4002 16.0339C16.4651 16.0436 16.5341 16.0609 16.5998 16.0745C16.6634 16.0874 16.7269 16.1006 16.7901 16.1132C16.9629 16.1559 17.1357 16.1961 17.3101 16.244C17.5244 16.3029 17.7391 16.361 17.9543 16.4235C18.3807 16.5478 18.8073 16.6741 19.2357 16.81C20.1122 17.0878 20.9905 17.38 21.8689 17.6699C22.6934 17.9419 23.5199 18.2231 24.3436 18.4874C25.1993 18.7621 26.0518 19.0186 26.9057 19.2822C27.3208 19.4105 27.7358 19.5381 28.1511 19.6672C28.5439 19.7888 28.9374 19.91 29.3319 20.0428C29.52 20.1071 29.7084 20.1739 29.8973 20.2442C30.0755 20.3102 30.2263 20.2806 30.2693 20.1754C30.2776 20.1538 30.282 20.129 30.2809 20.1009Z" fill="white"/>
<path d="M30.3847 21.0345C30.3573 20.8434 30.1239 20.6188 29.9021 20.5512C29.719 20.4953 29.5895 20.5498 29.5551 20.6683C29.5554 20.6636 29.5555 20.6592 29.5558 20.6545C29.5552 20.6559 29.5548 20.657 29.5538 20.6581C29.5589 20.6477 29.564 20.637 29.569 20.6266C29.5737 20.6209 29.578 20.6152 29.5826 20.6098C29.5496 20.6464 29.5136 20.68 29.4771 20.7134C29.3763 20.7901 29.2716 20.8619 29.1643 20.9328C29.0564 21.0036 28.9359 21.063 28.8201 21.1261C28.6628 21.1957 28.5058 21.2656 28.3488 21.3357C28.301 21.3571 28.2489 21.3736 28.1985 21.3923C28.0772 21.4377 27.9559 21.4827 27.8346 21.5281C27.5409 21.638 27.2431 21.7423 26.9477 21.8498C26.2642 22.0987 25.579 22.3454 24.8859 22.583C24.2573 22.7986 23.6067 22.9868 22.9678 23.1889C22.3037 23.3992 21.6501 23.6223 20.9848 23.8304C20.4334 24.0029 19.8775 24.1696 19.3159 24.3286C19.3297 24.3248 19.3431 24.3207 19.3569 24.3169C18.6458 24.5139 17.9339 24.7091 17.2399 24.9276C16.9295 25.0257 16.6268 25.1335 16.3181 25.2341C15.9697 25.3471 15.6195 25.4577 15.2661 25.5649C15.0583 25.6278 14.8483 25.6882 14.6382 25.7479C14.2565 25.8508 13.8717 25.9497 13.4771 26.0351C13.2796 26.078 13.0807 26.1187 12.8804 26.1578C12.7913 26.1754 12.703 26.1938 12.6139 26.2114C12.6139 26.2059 12.6141 26.2001 12.6141 26.1946C12.6316 25.9238 12.6622 25.6603 12.7082 25.4037C12.7572 25.1324 12.8145 24.8651 12.8722 24.5982C12.9824 24.0885 13.0883 23.5765 13.2078 23.0722C13.2074 23.0733 13.2074 23.0747 13.2068 23.0761C13.2449 22.9199 13.2736 22.7544 13.3369 22.613C13.4019 22.4669 13.2391 22.2112 13.0239 22.0789C12.9176 22.0137 12.8028 21.9786 12.7087 21.9823C12.6078 21.9862 12.5468 22.0341 12.5143 22.1071C12.4794 22.185 12.4588 22.2726 12.4365 22.358C12.399 22.502 12.3648 22.6481 12.3312 22.7942C12.2629 23.089 12.2019 23.3876 12.137 23.6841C11.9988 24.3156 11.8446 24.9406 11.7824 25.6116C11.7754 25.6879 11.7709 25.7658 11.7687 25.8441C11.7647 26.0015 11.7554 26.1567 11.7899 26.3294C11.8256 26.5094 11.9742 26.7418 12.1905 26.8752C12.3051 26.9457 12.4189 26.9916 12.5322 27.0143C12.6385 27.0353 12.7313 27.0255 12.8199 27.0132C12.9835 26.9906 13.14 26.9556 13.2976 26.9244C13.4798 26.8882 13.662 26.852 13.8433 26.8142C14.5275 26.6726 15.186 26.4946 15.8303 26.2997C16.3408 26.1453 16.8446 25.9829 17.3453 25.8162C17.8193 25.6577 18.3 25.5083 18.7865 25.3656C19.4842 25.1726 20.1833 24.9813 20.871 24.7754C21.5594 24.569 22.2343 24.3453 22.91 24.1236C23.5434 23.9156 24.1903 23.725 24.8272 23.5213C25.4938 23.3084 26.1499 23.083 26.7974 22.8473C27.475 22.6006 28.1556 22.358 28.8283 22.1062C28.9695 22.0535 29.1029 21.9925 29.238 21.9326C29.3074 21.9018 29.3764 21.8709 29.4459 21.8398C29.5408 21.7977 29.6256 21.7429 29.7139 21.6935C29.8457 21.6207 29.9723 21.5414 30.0882 21.4523C30.1552 21.4009 30.2199 21.3488 30.2809 21.2927C30.3207 21.2561 30.3541 21.217 30.3726 21.1685C30.3868 21.1301 30.3921 21.0865 30.3847 21.0345Z" fill="white"/>
<path d="M16.6319 23.4455C16.6293 23.368 16.5838 23.2859 16.5145 23.2024C16.4906 23.1738 16.4668 23.1459 16.443 23.117C16.4545 23.1309 16.4659 23.1447 16.4773 23.1586C16.2181 22.8454 15.9358 22.5407 15.6473 22.2373C15.4354 22.0146 15.2222 21.7927 15.0045 21.5726C14.7838 21.3492 14.5579 21.1281 14.3356 20.9052C14.3346 20.9041 14.3336 20.9032 14.3326 20.902C14.3303 20.8962 14.3272 20.8899 14.3244 20.8838C14.241 20.7103 14.0045 20.5445 13.8108 20.5306C13.7459 20.5259 13.6924 20.5352 13.6491 20.559C13.5781 20.5977 13.5625 20.6729 13.5764 20.76C13.5928 20.8629 13.6884 20.9818 13.7809 21.0832C13.835 21.1423 13.8955 21.2011 13.9537 21.2585C14.154 21.4553 14.3517 21.6524 14.5483 21.8509C14.8353 22.1445 15.119 22.44 15.3965 22.7378C15.5687 22.9228 15.736 23.1094 15.8932 23.2993C15.8865 23.2915 15.8802 23.2836 15.8738 23.276C15.9053 23.3139 15.9372 23.3519 15.9691 23.39C16.1125 23.5616 16.3795 23.6552 16.5215 23.6066C16.5694 23.5899 16.6033 23.5591 16.6204 23.518C16.6288 23.4966 16.6329 23.4719 16.6319 23.4455Z" fill="white"/>
<path d="M29.4777 19.9786C29.2861 19.7835 29.0202 19.7058 28.8757 19.7897C28.3242 20.1097 27.8158 20.4764 27.3245 20.8559C27.0713 21.0511 26.8162 21.2443 26.5547 21.431C26.2917 21.6189 26.0215 21.7994 25.7559 21.9845C25.2346 22.3476 24.7372 22.7336 24.2173 23.0975C23.6802 23.4734 23.1365 23.8418 22.6134 24.2308C22.2144 24.5272 21.8133 24.8208 21.3887 25.0921C21.1826 25.2239 20.9723 25.3515 20.7649 25.4824C20.5625 25.6101 20.3667 25.7437 20.1574 25.8645C20.0887 25.8965 20.0177 25.9248 19.9422 25.9485C19.9191 25.9542 19.895 25.9584 19.8701 25.9619C19.8603 25.9628 19.8502 25.9632 19.8397 25.9633C19.8305 25.9628 19.8212 25.9622 19.812 25.9617C19.8085 25.9613 19.8046 25.9606 19.8011 25.9601C19.7973 25.9592 19.7934 25.9582 19.7897 25.9569C19.7921 25.9576 19.7943 25.9587 19.7966 25.9595L19.7957 25.9592C19.7865 25.9559 19.777 25.9517 19.7679 25.948C19.7525 25.9404 19.7366 25.9325 19.721 25.924C19.7001 25.9114 19.6793 25.8986 19.6586 25.8855C19.333 25.6599 19.0136 25.4205 18.6942 25.1853C18.3528 24.9336 18.0156 24.6764 17.6788 24.4181C17.4629 24.2525 17.2048 24.2412 17.1228 24.3744C17.0361 24.5145 17.1545 24.7547 17.3699 24.9201C17.8066 25.2549 18.2453 25.5857 18.689 25.9103C18.896 26.0618 19.1028 26.2128 19.3116 26.3612C19.5273 26.5146 19.7517 26.6398 19.9781 26.7017C20.2424 26.7742 20.4547 26.7269 20.6418 26.6618C20.853 26.5884 21.0257 26.4658 21.2003 26.3522C21.331 26.2673 21.4613 26.1822 21.5934 26.099C21.8741 25.9224 22.1579 25.7488 22.4307 25.5642C22.6915 25.3878 22.9422 25.2018 23.1935 25.0157C23.469 24.8116 23.7472 24.6098 24.0285 24.4111C24.2966 24.2222 24.5693 24.038 24.8381 23.8499C25.0995 23.6663 25.3539 23.4762 25.6103 23.2877C26.128 22.9064 26.6617 22.5408 27.1921 22.1714C27.7031 21.8158 28.1719 21.4197 28.684 21.0655C28.9705 20.8668 29.2601 20.6709 29.5671 20.4928C29.6014 20.4728 29.6249 20.444 29.6383 20.4087C29.6799 20.2962 29.6183 20.1216 29.4777 19.9786Z" fill="white"/>
<path d="M7.43009 16.9783L10.3828 19.1387" stroke="#FE3B49" stroke-width="1.5" stroke-linecap="round"/>
<path d="M5.76332 22.5073L9.7439 22.5043" stroke="#FE3B49" stroke-width="1.5" stroke-linecap="round"/>
<path d="M6.91317 28.7417L9.68496 26.1877" stroke="#FE3B49" stroke-width="1.5" stroke-linecap="round"/>
</svg>
