<svg width="53" height="53" viewBox="0 0 53 53" fill="none" xmlns="http://www.w3.org/2000/svg">
<rect width="53" height="53" rx="10" fill="#FDEAEB"/>
<path d="M39.6956 18.6335C39.5466 17.8528 38.9896 17.199 38.2146 16.9406L28.3507 13.6527C28.362 13.5594 28.3684 13.4647 28.3684 13.3684C28.3684 12.0624 27.306 11 26 11C24.694 11 23.6316 12.0624 23.6316 13.3684C23.6316 13.4647 23.638 13.5594 23.6493 13.6527L13.7854 16.9407C13.0104 17.199 12.4534 17.8529 12.3043 18.6335C11.5552 18.8262 11 19.5073 11 20.3158V39.2631C11 40.2208 11.7791 41 12.7368 41H39.2632C40.2209 41 41 40.2208 41 39.2632V20.3158C41 19.5073 40.4448 18.8262 39.6956 18.6335ZM26 11.9473C26.7836 11.9473 27.4211 12.5848 27.4211 13.3684C27.4211 14.1519 26.7836 14.7895 26 14.7895C25.2164 14.7895 24.5789 14.152 24.5789 13.3684C24.5789 12.5849 25.2164 11.9473 26 11.9473ZM14.085 17.8394L23.9494 14.5513C24.3594 15.2592 25.1247 15.7368 26 15.7368C26.8753 15.7368 27.6406 15.2592 28.0505 14.5513L37.915 17.8395C38.2805 17.9613 38.5617 18.2363 38.6983 18.579H13.3017C13.4383 18.2363 13.7195 17.9613 14.085 17.8394ZM40.0527 39.2632C40.0527 39.6985 39.6985 40.0527 39.2632 40.0527H12.7368C12.3015 40.0527 11.9473 39.6985 11.9473 39.2632V20.3158C11.9473 19.8804 12.3015 19.5263 12.7368 19.5263H39.2632C39.6985 19.5263 40.0527 19.8804 40.0527 20.3158V39.2632Z" fill="#FE3B49"/>
<path d="M17.6849 28.5758C17.9355 28.6514 18.1996 28.5089 18.2747 28.2583L18.7313 26.7365H21.2688L21.7253 28.2583C21.7869 28.4635 21.9751 28.5959 22.1788 28.5959C22.2238 28.5959 22.2697 28.5894 22.3151 28.5758C22.5657 28.5007 22.7079 28.2366 22.6327 27.986L21.4369 24.0002C21.2575 23.402 20.7172 23 20.0927 23H19.9072C19.2827 23 18.7424 23.402 18.563 24.0001L17.3672 27.9859C17.2921 28.2366 17.4343 28.5007 17.6849 28.5758ZM19.4705 24.2724C19.5288 24.078 19.7043 23.9474 19.9073 23.9474H20.0928C20.2957 23.9474 20.4712 24.0779 20.5296 24.2724L20.9846 25.7892H19.0156L19.4705 24.2724Z" fill="#FE3B49"/>
<path d="M17.7896 36.5789H21.1054C21.976 36.5789 22.6843 35.8705 22.6843 34.9999C22.6843 34.3903 22.3367 33.8606 21.8295 33.5976C21.9711 33.361 22.0527 33.0846 22.0527 32.7894C22.0527 31.9187 21.3444 31.2104 20.4738 31.2104H17.7896C17.528 31.2104 17.3159 31.4224 17.3159 31.6841V33.8946V36.1051C17.3159 36.3669 17.528 36.5789 17.7896 36.5789ZM18.2633 32.1579H20.4738C20.8221 32.1579 21.1054 32.4412 21.1054 32.7894C21.1054 33.1377 20.8221 33.421 20.4738 33.421H18.2633V32.1579ZM18.2633 34.3684H21.1054C21.4536 34.3684 21.7369 34.6517 21.7369 34.9999C21.7369 35.3482 21.4536 35.6315 21.1054 35.6315H18.2633V34.3684Z" fill="#FE3B49"/>
<path d="M37.3685 21.1055H14.6316C14.0222 21.1055 13.5264 21.6013 13.5264 22.2107V37.3686C13.5264 37.9781 14.0222 38.4739 14.6316 38.4739H37.3685C37.9779 38.4739 38.4737 37.978 38.4737 37.3686V22.2107C38.4737 21.6013 37.9779 21.1055 37.3685 21.1055ZM25.5264 37.5265H14.6316C14.5446 37.5265 14.4737 37.4558 14.4737 37.3686V30.2634H25.5264V37.5265ZM25.5264 29.316H14.4737V22.2107C14.4737 22.1237 14.5446 22.0528 14.6316 22.0528H25.5264V29.316ZM37.5264 37.3686C37.5264 37.4557 37.4555 37.5265 37.3685 37.5265H26.4737V22.0529H37.3685C37.4555 22.0529 37.5264 22.1237 37.5264 22.2108V37.3686Z" fill="#FE3B49"/>
<path d="M31.0528 27.939H32.9475C33.3829 27.939 33.737 28.2932 33.737 28.7285C33.737 28.9902 33.9491 29.2022 34.2107 29.2022C34.4723 29.2022 34.6843 28.9902 34.6843 28.7285C34.6843 27.7709 33.9052 26.9917 32.9475 26.9917H31.0528C30.095 26.9917 29.3159 27.7709 29.3159 28.7285V30.8506C29.3159 31.8083 30.095 32.5875 31.0528 32.5875H32.9475C33.9052 32.5875 34.6843 31.8083 34.6843 30.8506C34.6843 30.5889 34.4722 30.377 34.2107 30.377C33.949 30.377 33.737 30.5889 33.737 30.8506C33.737 31.286 33.3829 31.6401 32.9475 31.6401H31.0528C30.6174 31.6401 30.2633 31.286 30.2633 30.8506V28.7285C30.2633 28.2932 30.6174 27.939 31.0528 27.939Z" fill="#FE3B49"/>
</svg>
