<svg width="35" height="35" viewBox="0 0 35 35" fill="none" xmlns="http://www.w3.org/2000/svg">
<circle cx="17.5" cy="17.5" r="17.5" fill="white"/>
<path d="M17.6667 7C15.5571 7 13.4948 7.62559 11.7406 8.79767C9.98648 9.96974 8.6193 11.6357 7.81196 13.5848C7.00462 15.5338 6.79338 17.6786 7.20496 19.7477C7.61654 21.8169 8.63245 23.7175 10.1242 25.2093C11.616 26.701 13.5166 27.7169 15.5858 28.1285C17.6549 28.5401 19.7996 28.3288 21.7487 27.5215C23.6978 26.7142 25.3637 25.347 26.5358 23.5929C27.7079 21.8387 28.3335 19.7764 28.3335 17.6667C28.3301 14.8388 27.2052 12.1276 25.2056 10.1279C23.2059 8.12822 20.4947 7.00334 17.6667 7ZM21.2614 21.2614C21.0796 21.4432 20.833 21.5453 20.5758 21.5453C20.3187 21.5453 20.0721 21.4432 19.8903 21.2614L16.9812 18.3523C16.7993 18.1705 16.6971 17.9239 16.697 17.6667V11.8485C16.697 11.5913 16.7992 11.3447 16.9811 11.1628C17.1629 10.981 17.4096 10.8788 17.6667 10.8788C17.9239 10.8788 18.1706 10.981 18.3524 11.1628C18.5343 11.3447 18.6364 11.5913 18.6364 11.8485V17.2653L21.2614 19.8903C21.4432 20.0721 21.5453 20.3187 21.5453 20.5758C21.5453 20.833 21.4432 21.0796 21.2614 21.2614Z" fill="black"/>
</svg>
