<svg width="71" height="45" viewBox="0 0 71 45" fill="none" xmlns="http://www.w3.org/2000/svg">
<path d="M31.762 44.6999C31.1822 44.6949 30.6038 44.6571 30.0269 44.605C29.4827 44.5558 28.9464 44.4745 28.4073 44.3932C27.8403 44.3083 27.2783 44.2178 26.7163 44.1008C25.8748 43.9268 25.0432 43.6922 24.2373 43.3941C23.7752 43.2229 23.3131 43.0524 22.8509 42.8813C21.0652 42.2216 19.3735 41.2973 17.8003 40.2311C16.8959 39.6171 16.033 38.9446 15.22 38.2136C14.4426 37.5139 13.7295 36.7558 13.0655 35.9478C12.3944 35.132 11.8003 34.2583 11.2512 33.3569C10.6992 32.4511 10.2356 31.4926 9.87048 30.4963C9.50035 29.4829 9.27357 28.4203 9.13378 27.3512C8.99044 26.2587 8.98901 25.1525 9.08885 24.0564C9.18941 22.9574 9.43759 21.8712 9.76066 20.8171C10.0809 19.7724 10.4838 18.7525 10.9559 17.7669C11.4273 16.782 11.9751 15.8364 12.5734 14.9242C13.1611 14.0292 13.7958 13.1648 14.4854 12.3454C15.8711 10.6965 17.4779 9.22737 19.1981 7.93439C19.9326 7.3824 20.7036 6.86749 21.4959 6.4025C22.0137 6.09869 22.5314 5.79488 23.0499 5.49107C23.3694 5.3035 23.7018 5.13948 24.0298 4.9676C24.3179 4.81712 24.6053 4.66664 24.8942 4.51616C25.0275 4.44627 25.1595 4.37424 25.2971 4.31219C25.2786 4.32075 25.2608 4.3286 25.2429 4.33716C25.9326 4.02193 26.6229 3.70529 27.3133 3.39078C27.6299 3.251 27.9594 3.13689 28.281 3.01065C28.6818 2.85376 29.0819 2.69757 29.482 2.53996C29.5583 2.51001 29.6389 2.4879 29.7174 2.46223C29.962 2.38164 30.2066 2.30033 30.4512 2.22046C30.8727 2.08139 31.2949 1.94161 31.7164 1.80254C32.0395 1.69556 32.3768 1.62638 32.7056 1.5408C33.1292 1.43097 33.5528 1.32043 33.9771 1.21203C34.0577 1.19135 34.1405 1.17923 34.2218 1.16354C34.4742 1.11433 34.7281 1.06583 34.9806 1.01662C35.4178 0.932466 35.8542 0.847602 36.2914 0.763447C36.6351 0.697122 36.9846 0.651476 37.3312 0.600128C37.8176 0.528098 38.3047 0.46748 38.7939 0.418984C39.7916 0.319853 40.7986 0.277059 41.8006 0.297028C42.2749 0.306299 42.7492 0.341251 43.2213 0.384041C43.4752 0.406863 43.7305 0.426825 43.9822 0.464624C44.433 0.530949 44.883 0.597279 45.333 0.663604C46.7494 0.872563 48.1572 1.15427 49.5207 1.59715C50.4179 1.88812 51.2858 2.27822 52.0974 2.75961C52.4547 2.97143 52.807 3.21819 53.1023 3.51059C53.3334 3.73881 53.5766 4.01694 53.6493 4.34286C53.6728 4.44841 53.6721 4.55467 53.6493 4.65451C53.9724 4.86918 54.2897 5.09169 54.5985 5.32561C55.1755 5.76208 55.7039 6.25915 56.2253 6.75909C56.7559 7.26687 57.2801 7.79462 57.7322 8.37372C58.6793 9.5854 59.4709 10.9026 60.1042 12.304C60.4116 12.983 60.6776 13.684 60.8787 14.4022C60.9836 14.7766 61.0834 15.1517 61.1797 15.529C61.2767 15.9098 61.3444 16.3006 61.4222 16.6857C61.7181 18.1649 61.8743 19.6761 61.8978 21.1844C61.9093 21.9383 61.88 22.6921 61.7937 23.4409C61.706 24.2104 61.5912 24.9771 61.4015 25.7288C61.2025 26.5147 60.9886 27.2999 60.7154 28.0637C60.7254 28.0352 60.7361 28.0066 60.7454 27.9781C60.6141 28.3468 60.49 28.7191 60.3417 29.0807C60.2604 29.2789 60.1784 29.4772 60.0964 29.6755C60.0201 29.8609 59.9281 30.0406 59.8439 30.2232C59.6728 30.5926 59.4816 30.9506 59.2955 31.3122C59.2178 31.462 59.1265 31.6053 59.0409 31.7515C58.9567 31.897 58.8754 32.0439 58.7834 32.1844C58.5609 32.5267 58.3391 32.8683 58.1023 33.2007C57.9754 33.379 57.8492 33.5565 57.7222 33.7348C57.6117 33.8903 57.4826 34.0351 57.3642 34.1849C57.253 34.3239 57.1467 34.468 57.0255 34.5978C56.8636 34.7718 56.701 34.9465 56.5384 35.1205C56.2716 35.4072 55.9792 35.6683 55.6932 35.9364C55.4165 36.1967 55.1127 36.4306 54.8225 36.6745C54.5115 36.9356 54.1806 37.173 53.8583 37.4184C53.5566 37.6494 53.2385 37.8584 52.9276 38.0759C52.6366 38.2785 52.3392 38.4674 52.039 38.6579C51.7359 38.8497 51.4363 39.0458 51.1254 39.2248C50.7538 39.4395 50.3822 39.6542 50.0107 39.8681C49.8802 39.943 49.7433 40.0093 49.6092 40.0799C49.3567 40.2133 49.1028 40.3474 48.8496 40.4807C48.5687 40.6291 48.2827 40.7646 47.996 40.9029C47.6544 41.067 47.3163 41.2453 46.9676 41.395C46.5354 41.5805 46.1018 41.7652 45.6696 41.9506C44.9629 42.253 44.2326 42.4962 43.5108 42.7586C43.1878 42.8756 42.8483 42.9583 42.5195 43.0546C42.2713 43.128 42.0224 43.2015 41.7743 43.2742C41.6666 43.3063 41.5596 43.3434 41.4498 43.3691C41.0097 43.4732 40.5697 43.5795 40.129 43.6843C39.8537 43.7499 39.5798 43.8184 39.3017 43.8719C38.7961 43.9682 38.2904 44.0644 37.7848 44.16C37.5002 44.2142 37.2157 44.2534 36.9283 44.2934C36.4511 44.3597 35.974 44.426 35.4969 44.4916C35.1788 44.5358 34.8536 44.5465 34.5327 44.5722C34.1362 44.6043 33.7389 44.6357 33.3424 44.6678C33.0878 44.6885 32.8297 44.6877 32.5743 44.6935C32.3932 44.6977 32.2128 44.6992 32.0316 44.6992C31.9432 44.7006 31.8526 44.7006 31.762 44.6999ZM33.1192 43.2728C33.4508 43.2564 33.7824 43.2229 34.1134 43.1965C34.507 43.1644 34.9 43.133 35.2929 43.1016C35.37 43.0959 35.447 43.081 35.524 43.0703C35.7651 43.0368 36.0061 43.0032 36.2479 42.9697C36.5973 42.9212 36.9468 42.8727 37.2955 42.8242C37.8233 42.7222 38.3517 42.6231 38.8802 42.5226C39.3017 42.442 39.7175 42.3378 40.134 42.2387C40.5569 42.1374 40.9819 42.0447 41.3998 41.9213C41.9276 41.7652 42.4546 41.6111 42.9824 41.4542C43.5893 41.2346 44.1962 41.0128 44.8031 40.7924C44.878 40.7653 44.9507 40.7289 45.0249 40.6975C45.2125 40.617 45.4 40.5364 45.5883 40.4565C45.8807 40.331 46.1731 40.2047 46.4662 40.0807C46.8499 39.8959 47.2336 39.7112 47.6166 39.5272C47.9218 39.3796 48.2206 39.2234 48.5202 39.0651C48.8468 38.8932 49.1777 38.7263 49.4972 38.5423C49.8788 38.3227 50.2596 38.1016 50.6426 37.8827C51.1703 37.5482 51.6995 37.2194 52.2123 36.8621C52.4754 36.6788 52.745 36.5019 53.0003 36.308C53.297 36.0812 53.593 35.8551 53.8896 35.6283C53.8839 35.6333 53.8775 35.6383 53.8718 35.6433C54.2291 35.3438 54.5885 35.0485 54.9294 34.729C55.1077 34.5621 55.2939 34.4009 55.46 34.2219C55.6405 34.0287 55.8216 33.834 56.002 33.64C56.2067 33.3832 56.4114 33.1265 56.6154 32.8698C56.7109 32.7499 56.7944 32.6194 56.8835 32.4946C56.972 32.3691 57.0618 32.2443 57.151 32.1188C57.3856 31.7586 57.6195 31.4021 57.8356 31.0305C57.9333 30.8629 58.0353 30.6974 58.1245 30.5249C58.245 30.2916 58.3655 30.0577 58.486 29.8238C58.4718 29.8509 58.4582 29.878 58.444 29.9058C58.5645 29.6455 58.685 29.3852 58.8048 29.1249C58.8683 28.9858 58.9211 28.841 58.9795 28.6998C59.0302 28.5772 59.0865 28.4552 59.1314 28.3304C59.1215 28.359 59.1108 28.3875 59.1015 28.416C59.2013 28.135 59.3012 27.854 59.4017 27.5737C59.5223 27.1965 59.6457 26.8206 59.7562 26.4405C59.871 26.0461 59.973 25.6496 60.0736 25.2517C60.1463 24.9072 60.2183 24.5649 60.2732 24.2175C60.3353 23.8246 60.3816 23.4316 60.4273 23.0365C60.4544 22.6607 60.4794 22.287 60.4893 21.9104C60.4993 21.5317 60.4922 21.1538 60.4872 20.7751C60.4744 20.5326 60.4622 20.2908 60.4494 20.0483C60.4358 19.788 60.4052 19.5292 60.3838 19.2696C60.341 18.7682 60.2647 18.2683 60.1934 17.7698C60.1042 17.2741 60.0136 16.7792 59.906 16.2864C59.7911 15.7565 59.6535 15.2344 59.5066 14.7124C59.396 14.3565 59.2869 13.9985 59.1471 13.6533C59.0017 13.2946 58.8512 12.9416 58.6929 12.5893C58.5581 12.3204 58.4247 12.0508 58.2828 11.7855C58.1287 11.4967 57.9654 11.2136 57.8014 10.9297C57.606 10.6231 57.4077 10.3193 57.2038 10.0169C57.0119 9.7316 56.7972 9.4613 56.5854 9.18958C56.3009 8.85724 56.0092 8.53488 55.7039 8.22037C55.3994 7.90801 55.0813 7.60847 54.7626 7.31037C54.7861 7.33176 54.8096 7.35316 54.8332 7.37456C54.5828 7.14563 54.3304 6.92169 54.0715 6.70275C53.8197 6.48951 53.5509 6.29695 53.2834 6.1044C52.2451 5.39479 51.161 4.75508 50.0749 4.12249C49.7575 3.9385 49.647 3.51985 49.8096 3.19893C49.6919 3.15114 49.5728 3.10479 49.4537 3.06057C48.7084 2.79812 47.9461 2.59131 47.1751 2.42086C47.1787 2.42158 47.1822 2.42228 47.1858 2.423C47.1815 2.42228 47.178 2.42086 47.1737 2.42015C47.1487 2.41444 47.123 2.40874 47.0981 2.40375C47.1181 2.40803 47.1387 2.41302 47.1587 2.41729C46.6837 2.31602 46.2052 2.21476 45.7245 2.14415C45.4578 2.10493 45.1918 2.0657 44.9258 2.02647C44.6091 1.9794 44.2925 1.93305 43.9765 1.88669C43.6813 1.84319 43.386 1.8111 43.0886 1.78257C42.1629 1.7027 41.2394 1.68344 40.3108 1.72124C40.3408 1.72053 40.3707 1.7191 40.4007 1.71767C39.7795 1.74548 39.1605 1.79256 38.5429 1.86102C37.8967 1.93234 37.2527 2.03075 36.6116 2.13416C35.8492 2.2825 35.0868 2.42728 34.3259 2.57634C34.241 2.59274 34.1569 2.61912 34.0734 2.64123C33.816 2.70755 33.5592 2.77388 33.3025 2.84091C32.9316 2.93648 32.5601 3.03276 32.1892 3.12904C31.4596 3.37366 30.7279 3.61185 29.9962 3.85219C29.9049 3.88215 29.8151 3.9228 29.7259 3.95775C29.4763 4.05545 29.2267 4.15316 28.9771 4.25086C28.5955 4.40063 28.2126 4.54897 27.831 4.70016C27.8503 4.6916 27.8695 4.68233 27.8895 4.67377C27.8824 4.67734 27.8745 4.6809 27.8674 4.68375C27.1756 4.99969 26.4845 5.31705 25.7921 5.63227C25.8199 5.61944 25.8477 5.60732 25.8755 5.59448C25.7849 5.63584 25.6972 5.68719 25.6088 5.73354C25.3877 5.84908 25.1666 5.96462 24.9462 6.08015C24.5961 6.26344 24.2459 6.44672 23.8957 6.6293C23.7938 6.68207 23.6968 6.74554 23.5976 6.80402C23.3794 6.93239 23.1612 7.06005 22.9422 7.18842C22.5892 7.39595 22.2305 7.59635 21.8839 7.81458C21.3975 8.12267 20.9168 8.43718 20.4476 8.76952C19.9334 9.13324 19.4377 9.52334 18.952 9.92343C17.9629 10.75 17.025 11.6322 16.1535 12.5814C15.4261 13.3887 14.7564 14.2403 14.1353 15.1317C13.5291 16.0139 12.9714 16.9246 12.4771 17.8746C12.0678 18.6805 11.7083 19.5078 11.4002 20.3564C11.1471 21.076 10.9253 21.8049 10.7577 22.5494C10.6307 23.1492 10.5344 23.7533 10.476 24.3637C10.4325 24.9293 10.4203 25.4941 10.4396 26.0611C10.4681 26.6452 10.5316 27.2243 10.6257 27.8012C10.7249 28.3611 10.8504 28.9152 11.0108 29.4615C11.1827 30.0064 11.3888 30.5377 11.6227 31.059C11.9358 31.7315 12.2953 32.3762 12.6882 33.0053C13.1875 33.7898 13.728 34.5421 14.32 35.2582C14.3171 35.2546 14.3143 35.251 14.3114 35.2475C14.8534 35.8908 15.4332 36.497 16.0501 37.0682C16.7875 37.7365 17.567 38.3533 18.3822 38.9253C19.2701 39.5372 20.1937 40.0942 21.15 40.592C21.9138 40.98 22.7005 41.3287 23.5042 41.6254C23.9442 41.788 24.3843 41.9513 24.8243 42.1139C25.494 42.3393 26.1665 42.5425 26.8568 42.6966C27.2056 42.7707 27.5572 42.8456 27.9102 42.8977C28.1484 42.9333 28.3859 42.969 28.6241 43.0047C28.8837 43.0432 29.1426 43.0824 29.4021 43.1209C29.7117 43.1673 30.024 43.1958 30.3364 43.2243C31.26 43.2978 32.1885 43.307 33.1192 43.2728Z" fill="black"/>
<path d="M24.5411 28.7577C23.5006 28.6692 22.4957 28.3811 21.5572 27.9247C20.66 27.4882 19.8599 26.8535 19.2444 26.0676C18.6154 25.2638 18.2053 24.3196 17.8879 23.3554C17.3359 21.6808 17.2853 19.8772 17.7061 18.1678C17.9079 17.3476 18.2153 16.546 18.6439 15.8171C19.1046 15.0355 19.673 14.3195 20.2977 13.6626C21.4274 12.4745 22.8373 11.5139 24.4441 11.1159C24.6238 11.0717 24.8036 11.0268 24.9833 10.9825C25.1366 10.9447 25.2949 10.9233 25.4497 10.8948C25.7122 10.8449 25.986 10.8264 26.2556 10.8171C26.3925 10.6338 26.6129 10.514 26.8504 10.5361C27.2248 10.571 27.5999 10.616 27.9686 10.6923C28.3345 10.7686 28.7075 10.8485 29.0591 10.9761C29.8008 11.2464 30.4904 11.6194 31.1679 12.0224C31.8262 12.4139 32.4452 12.8739 33.0336 13.3638C33.3452 13.6234 33.6319 13.9044 33.9136 14.1961C34.1718 14.4628 34.3993 14.7567 34.6289 15.0483C34.8636 15.3472 35.0704 15.6681 35.2786 15.9862C35.4862 16.3028 35.6566 16.643 35.8285 16.9796C35.907 17.1337 35.9654 17.3013 36.0332 17.4603C36.2236 17.9103 36.3441 18.3924 36.4269 18.8731C36.5331 19.4921 36.536 20.134 36.4782 20.7594C36.4376 21.2016 36.3919 21.6409 36.3035 22.0759C36.2143 22.511 36.0703 22.9296 35.887 23.334C35.7572 23.6192 35.5903 23.8895 35.4348 24.1613C34.9934 24.9343 34.4278 25.6118 33.7403 26.1788C33.3802 26.4755 32.9922 26.7365 32.5964 26.9826C32.2819 27.178 31.956 27.3663 31.6158 27.5146C31.2107 27.6907 30.8042 27.8569 30.3927 28.0167C30.0475 28.1507 29.6974 28.2741 29.3429 28.3768C28.8416 28.523 28.3345 28.62 27.8174 28.6885C27.4395 28.7377 27.0558 28.7712 26.6749 28.784C26.3576 28.7947 26.0416 28.8026 25.7257 28.8026C25.3306 28.804 24.9369 28.7919 24.5411 28.7577ZM25.9211 27.4041C26.0694 27.3991 26.2178 27.3941 26.3661 27.3891C26.5031 27.3848 26.6428 27.3876 26.7791 27.3748C27.152 27.3413 27.5243 27.3106 27.8952 27.2607C28.2354 27.2079 28.5684 27.1338 28.9007 27.0432C29.4556 26.8799 29.9926 26.6652 30.5311 26.4555C30.7172 26.3742 30.9033 26.2929 31.0895 26.2123C31.277 26.1303 31.4568 26.0219 31.6372 25.9242C31.9902 25.7038 32.3404 25.4821 32.6734 25.2317C32.8802 25.0684 33.0778 24.898 33.2682 24.7161C33.4437 24.5357 33.6091 24.3474 33.7646 24.1491C34.0099 23.8147 34.2175 23.4609 34.4236 23.1022C34.5234 22.9175 34.6175 22.7321 34.701 22.5388C34.7687 22.3634 34.8258 22.1858 34.8757 22.0046C34.9456 21.7101 34.9898 21.4141 35.0326 21.1153C35.0704 20.6931 35.1039 20.2723 35.1068 19.8473C35.1004 19.644 35.0847 19.4422 35.0597 19.2397C35.0198 18.9879 34.9684 18.7404 34.9021 18.4937C34.8543 18.3354 34.8015 18.1785 34.7445 18.023C34.6874 17.8882 34.6304 17.7534 34.5733 17.6179C34.5077 17.4631 34.4193 17.3148 34.3423 17.1657C34.2217 16.9611 34.1005 16.7585 33.9707 16.5603C33.8295 16.3449 33.6811 16.1374 33.5314 15.9284C33.3937 15.753 33.2568 15.5782 33.1106 15.4106C32.9516 15.2281 32.7868 15.0548 32.6185 14.8807C32.4502 14.7246 32.2826 14.5698 32.1057 14.4229C31.9253 14.2724 31.7406 14.1276 31.5545 13.9829C31.3191 13.8124 31.0823 13.6448 30.8427 13.4808C30.6173 13.3275 30.3806 13.1898 30.1467 13.0507C29.7102 12.8068 29.2702 12.5786 28.8109 12.3825C28.582 12.2998 28.3516 12.2285 28.1163 12.165C27.7597 12.083 27.4024 12.0159 27.0394 11.9681C26.9224 12.1115 26.7527 12.2099 26.5608 12.2142C26.2713 12.2206 25.9853 12.2463 25.6979 12.2791C25.556 12.3048 25.4119 12.3254 25.2728 12.3597C25.091 12.4046 24.9098 12.4503 24.7287 12.4945C24.4299 12.5843 24.1375 12.6863 23.8486 12.8033C23.6133 12.9067 23.3844 13.0215 23.1604 13.147C22.883 13.3118 22.6177 13.4929 22.3602 13.6869C22.0486 13.9329 21.7533 14.1961 21.4695 14.4749C21.1015 14.8494 20.7599 15.2473 20.4375 15.6631C20.2179 15.9569 20.0146 16.26 19.8278 16.5752C19.668 16.8627 19.5282 17.1572 19.4027 17.461C19.2765 17.7898 19.1695 18.1235 19.0789 18.4637C18.9962 18.806 18.9306 19.1505 18.8849 19.4992C18.8457 19.8651 18.8286 20.2317 18.83 20.599C18.8386 20.9363 18.8643 21.2708 18.9092 21.6052C18.9598 21.9212 19.0254 22.2328 19.1082 22.5424C19.2316 22.9653 19.3756 23.3811 19.5439 23.7883C19.6709 24.0764 19.8078 24.3581 19.9626 24.632C20.0767 24.8174 20.1979 24.9978 20.3277 25.1725C20.4575 25.3359 20.5937 25.4913 20.7385 25.6418C20.9096 25.8087 21.0887 25.9642 21.2769 26.1111C21.4709 26.2509 21.6699 26.3799 21.8753 26.5019C22.1406 26.6481 22.413 26.7779 22.6933 26.8934C22.9893 27.0075 23.2888 27.1031 23.5955 27.183C23.8672 27.2464 24.1396 27.2964 24.417 27.332C24.9177 27.3848 25.4176 27.4041 25.9211 27.4041Z" fill="black"/>
<path d="M28.1356 22.1822C27.9936 22.0581 27.9216 21.8926 27.8974 21.7086C27.7576 20.656 27.6135 19.6041 27.4652 18.5529C27.4695 18.5828 27.4737 18.6128 27.4787 18.6427C27.3582 17.8176 27.2348 16.9917 27.0751 16.1737C27.0016 15.7972 27.2391 15.4206 27.6185 15.34C27.9894 15.2623 28.378 15.5076 28.4515 15.8834C28.6362 16.8263 28.7746 17.7783 28.9086 18.7297C29.0427 19.6854 29.1732 20.6417 29.3002 21.5974C29.3501 21.9782 29.0213 22.3248 28.6548 22.3548C28.6369 22.3562 28.6184 22.3569 28.6005 22.3569C28.4301 22.3562 28.2632 22.2942 28.1356 22.1822Z" fill="black"/>
<path d="M41.1302 27.4975C39.1733 27.1815 37.3818 26.0091 36.4112 24.2682C36.1865 23.866 36.046 23.4138 35.9248 22.9717C35.7893 22.4753 35.7194 21.9611 35.6738 21.4497C35.5825 20.4149 35.6916 19.3815 35.9818 18.386C36.133 17.8675 36.3498 17.3704 36.5645 16.8755C36.6808 16.6073 36.7991 16.3449 36.9289 16.0838C37.0659 15.8093 37.1957 15.5311 37.3518 15.2665C37.5401 14.947 37.7213 14.6218 37.9231 14.3095C38.3681 13.6163 38.873 12.9637 39.4372 12.3639C39.9942 11.7713 40.6282 11.2742 41.3449 10.8891C41.7036 10.6958 42.0902 10.5503 42.4739 10.4184C42.8461 10.29 43.2305 10.1888 43.6156 10.1089C44.0236 10.024 44.4429 9.99334 44.8594 10.0069C44.8637 10.0069 44.868 10.0069 44.8723 10.0076C45.0078 9.73303 45.3166 9.57542 45.6311 9.62391C46.382 9.74016 47.1209 9.91204 47.8419 10.1517C48.5465 10.387 49.2198 10.7386 49.8424 11.1394C50.4664 11.5409 51.0433 12.023 51.5939 12.5194C51.8934 12.789 52.1801 13.0693 52.459 13.3609C53.0088 13.9372 53.4752 14.5969 53.7748 15.3379C53.9695 15.82 54.1414 16.3006 54.2441 16.812C54.3296 17.2406 54.3603 17.6892 54.376 18.1256C54.3831 18.3232 54.3874 18.5179 54.381 18.7154C54.3753 18.9151 54.3553 19.1105 54.3353 19.3088C54.2469 20.171 53.9338 20.9947 53.4952 21.7364C53.334 22.0082 53.1393 22.2592 52.9468 22.5095C52.7635 22.747 52.5795 22.9823 52.3841 23.2099C51.9904 23.6677 51.5376 24.06 51.0854 24.4565C50.9478 24.5777 50.7923 24.684 50.6475 24.7974C50.5099 24.9036 50.3744 25.0099 50.231 25.1076C50.0363 25.2403 49.8409 25.3743 49.6455 25.507C49.4886 25.614 49.3139 25.7017 49.1499 25.7972C49.0115 25.8771 48.876 25.967 48.7319 26.0376C48.5101 26.146 48.2883 26.2544 48.0665 26.3635C47.7014 26.5418 47.3206 26.6866 46.9454 26.8427C46.5946 26.9882 46.228 27.1009 45.8628 27.205C45.3479 27.352 44.8273 27.4575 44.2974 27.5331C43.8182 27.6016 43.3311 27.6358 42.844 27.6358C42.2692 27.6358 41.6944 27.5887 41.1302 27.4975ZM42.9681 26.2244C43.3917 26.2137 43.8125 26.1802 44.2325 26.1232C44.6412 26.059 45.0427 25.9713 45.4421 25.8643C45.8443 25.748 46.2401 25.6147 46.6259 25.4542C46.8399 25.3658 47.0538 25.2766 47.2678 25.1875C47.5509 25.0484 47.8348 24.9101 48.1186 24.771C48.2356 24.7139 48.3475 24.6391 48.4602 24.5734C48.5857 24.5007 48.712 24.4279 48.8375 24.3545C49.0785 24.1897 49.3203 24.0257 49.5614 23.8617C49.6491 23.7939 49.7368 23.7262 49.8238 23.6577C49.9336 23.5721 50.0506 23.4916 50.1554 23.4003C50.4307 23.1599 50.7074 22.9224 50.9684 22.6664C51.3257 22.2991 51.641 21.9019 51.9533 21.4968C52.1017 21.2943 52.2429 21.0896 52.372 20.8735C52.4697 20.6945 52.5581 20.5119 52.6373 20.3244C52.7086 20.1375 52.7713 19.9478 52.8248 19.7545C52.8683 19.5755 52.9033 19.3958 52.9318 19.2139C52.9439 19.0963 52.9561 18.9779 52.9682 18.8602C52.981 18.7304 52.9782 18.5978 52.9803 18.4673C52.9653 18.0743 52.9382 17.6842 52.8969 17.2919C52.8648 17.0923 52.8241 16.8961 52.7728 16.7C52.6858 16.4069 52.5752 16.1231 52.4604 15.8392C52.3784 15.6602 52.2907 15.4848 52.1944 15.3129C52.0896 15.1396 51.9783 14.9727 51.8578 14.8101C51.651 14.5534 51.427 14.318 51.1995 14.0805C50.7089 13.6077 50.1982 13.1612 49.6648 12.7376C49.3424 12.4994 49.0144 12.2769 48.6692 12.0715C48.349 11.8989 48.0259 11.7406 47.6928 11.5958C47.3641 11.4739 47.0325 11.3676 46.6937 11.2742C46.5011 11.2264 46.3086 11.1829 46.1153 11.1423C46.1117 11.1494 46.1089 11.1572 46.1053 11.1644C45.9377 11.5124 45.5127 11.655 45.1661 11.4924C45.1575 11.4882 45.149 11.4846 45.1404 11.4803C45.1083 11.4696 45.0762 11.4596 45.0441 11.4511C44.9921 11.4389 44.9393 11.429 44.8865 11.4211C44.7852 11.4126 44.6861 11.409 44.5848 11.4083C44.4237 11.4161 44.2632 11.4304 44.1027 11.4504C43.8546 11.4917 43.6107 11.5481 43.3675 11.613C43.0301 11.7099 42.7006 11.824 42.3747 11.9553C42.1672 12.0466 41.9668 12.1471 41.7692 12.2577C41.5795 12.3725 41.397 12.4966 41.2194 12.6299C41.0111 12.7961 40.8129 12.9716 40.6225 13.157C40.293 13.4936 39.9863 13.8495 39.6968 14.221C39.4143 14.5969 39.1476 14.9834 38.908 15.3885C38.7696 15.6231 38.6313 15.857 38.4929 16.0917C38.3403 16.3983 38.1877 16.705 38.0351 17.0117C37.968 17.1458 37.9145 17.2877 37.8554 17.4246C37.7719 17.6172 37.6863 17.809 37.6072 18.003C37.4602 18.3738 37.3319 18.7482 37.2306 19.1341C37.17 19.3979 37.1222 19.6632 37.088 19.9314C37.0594 20.2224 37.0466 20.5112 37.0473 20.8029C37.0566 21.1595 37.0858 21.5139 37.1336 21.8677C37.1807 22.1629 37.2406 22.4546 37.3176 22.7434C37.3797 22.9495 37.4503 23.1521 37.5301 23.3518C37.5843 23.473 37.6428 23.5914 37.7063 23.7076C37.8054 23.8695 37.911 24.0257 38.0251 24.1776C38.1499 24.3331 38.2818 24.4807 38.4216 24.6241C38.6027 24.7974 38.7903 24.9614 38.9879 25.1162C39.1683 25.2474 39.3537 25.3686 39.5463 25.482C39.7474 25.5904 39.9514 25.6881 40.161 25.7773C40.3814 25.8614 40.6039 25.9349 40.8314 25.9984C41.1331 26.0718 41.4369 26.126 41.745 26.1667C42.1529 26.2095 42.5594 26.2266 42.9681 26.2244Z" fill="black"/>
<path d="M43.8203 21.8548C43.4373 21.8356 43.1342 21.4996 43.1528 21.1167C43.1999 20.1503 43.2177 19.1818 43.2377 18.2148C43.2469 17.7548 43.2548 17.2948 43.2533 16.8348C43.2526 16.5909 43.2505 16.3477 43.2476 16.1031C43.2469 15.9711 43.2441 15.8399 43.2512 15.708C43.2626 15.5076 43.3532 15.3407 43.4937 15.2002C43.7647 14.9292 44.2461 14.9905 44.4864 15.2637C44.6062 15.3999 44.6697 15.5817 44.6604 15.7636C44.659 15.7871 44.6569 15.8107 44.6533 15.8328C44.6433 16.0667 44.654 16.3042 44.6569 16.5381C44.659 16.7492 44.6583 16.9603 44.659 17.1714C44.6604 17.615 44.6469 18.06 44.6376 18.5036C44.6191 19.3986 44.6005 20.2937 44.557 21.1873C44.5392 21.5588 44.2211 21.8555 43.8524 21.8555C43.8424 21.8562 43.8317 21.8555 43.8203 21.8548Z" fill="black"/>
<path d="M32.289 8.0314C31.9267 7.96508 31.6343 7.58567 31.7228 7.21269C31.9481 6.26773 32.1856 5.32492 32.4224 4.38353C32.5337 3.94351 32.6449 3.50562 32.7519 3.06488C32.8146 2.80814 32.8767 2.55139 32.9373 2.29536C33.0243 1.93307 33.0814 1.43456 33.4679 1.26269C33.6383 1.18709 33.8188 1.16427 33.9992 1.22275C34.1775 1.28123 34.328 1.4096 34.4114 1.57791C34.5113 1.7776 34.5041 2.02222 34.4057 2.21977C34.3836 2.29323 34.3629 2.36739 34.3458 2.44156C34.3537 2.41161 34.3615 2.38094 34.3686 2.35099C33.9621 4.05904 33.5128 5.7571 33.1063 7.46658C33.0621 7.65271 32.9687 7.81531 32.8068 7.92371C32.6906 8.00145 32.5515 8.04282 32.4124 8.04282C32.3718 8.04211 32.3304 8.03854 32.289 8.0314Z" fill="black"/>
<path d="M36.7778 6.39679C36.3984 6.3269 36.1459 5.95534 36.2122 5.57807C36.4155 4.41988 36.5817 3.25384 36.7336 2.0878C36.7592 1.85602 36.7849 1.62424 36.8092 1.39174C36.8263 1.23057 36.8341 1.05798 36.8848 0.903223C36.9439 0.72279 37.0723 0.550914 37.2492 0.471039C37.5972 0.312714 38.0166 0.432534 38.1927 0.785554C38.2712 0.941739 38.2833 1.12502 38.2384 1.29119C38.2284 1.34967 38.2212 1.40815 38.2141 1.46734C38.0608 2.92721 37.8504 4.38493 37.5965 5.83125C37.5373 6.16787 37.2314 6.4082 36.8997 6.4082C36.8591 6.4082 36.8184 6.40464 36.7778 6.39679Z" fill="black"/>
<path d="M41.9882 4.48339C41.929 3.77592 41.8626 3.06774 41.7956 2.36027C41.7635 2.01723 41.7286 1.6742 41.6986 1.33045C41.6915 1.24986 41.6836 1.16856 41.6779 1.08726C41.6694 0.961737 41.6473 0.825526 41.6601 0.700721C41.6779 0.528133 41.72 0.373378 41.837 0.238589C41.9147 0.148729 42.0224 0.0709899 42.1365 0.0367576C42.3176 -0.0174435 42.5017 -0.0153045 42.6742 0.0674235C42.8411 0.148012 42.9716 0.294209 43.0323 0.469649C43.0629 0.556657 43.0736 0.649372 43.0679 0.740659C43.0679 0.740659 43.0686 0.739234 43.0693 0.737807C43.0686 0.744226 43.0679 0.750639 43.0672 0.757058C43.08 1.04375 43.1107 1.32974 43.1385 1.61572C43.1685 1.93095 43.1991 2.24545 43.2284 2.56068C43.2854 3.16402 43.3403 3.76807 43.3917 4.37213C43.4238 4.75439 43.1264 5.09886 42.7463 5.12881C42.7277 5.13024 42.7092 5.13094 42.6914 5.13094C42.3291 5.13166 42.0188 4.84711 41.9882 4.48339Z" fill="black"/>
<path d="M5.91235 35.2076C5.43096 35.137 4.96384 34.9908 4.51097 34.8189C4.0196 34.6328 3.56031 34.386 3.13027 34.085C2.33009 33.5231 1.68539 32.7593 1.204 31.9127C1.0093 31.5711 0.826727 31.2188 0.682666 30.8529C0.609209 30.6668 0.52363 30.4821 0.461584 30.2917C0.40453 30.1155 0.346765 29.9408 0.289711 29.7646C0.13424 29.2861 0.0536511 28.7798 0.0422404 28.2777C0.0222715 27.362 0.244067 26.3992 0.885923 25.7152C1.19045 25.3908 1.59267 25.1975 2.02414 25.1076C2.48628 25.0113 2.96838 25.0684 3.41412 25.2089C3.88624 25.3572 4.3013 25.6689 4.63506 26.0255C4.96526 26.3785 5.18421 26.8449 5.31401 27.3049C5.45522 27.8048 5.51441 28.3312 5.57289 28.8461C5.61853 29.2497 5.63422 29.6584 5.62424 30.0649C5.61354 30.4479 5.26194 30.751 4.8861 30.7317C4.49671 30.7124 4.20859 30.3765 4.21857 29.9936C4.22071 29.9066 4.22214 29.8203 4.22214 29.734C4.20859 29.3004 4.16295 28.871 4.1059 28.4403C4.0681 28.1942 4.02744 27.9496 3.96825 27.7071C3.94043 27.6137 3.90977 27.5224 3.87482 27.4311C3.83845 27.3534 3.80065 27.2778 3.75929 27.2029C3.71864 27.1402 3.67728 27.0788 3.63377 27.0189C3.59598 26.9733 3.55675 26.9284 3.51609 26.8856C3.48115 26.8528 3.4455 26.8207 3.40842 26.7907C3.32925 26.7337 3.24866 26.6809 3.16522 26.6303C3.12457 26.6089 3.08392 26.5889 3.04184 26.5703C2.96981 26.544 2.8985 26.5211 2.82575 26.5012C2.77726 26.4905 2.72876 26.4826 2.67955 26.4755C2.62178 26.4705 2.5633 26.4676 2.50553 26.4669C2.45062 26.4691 2.395 26.4734 2.34008 26.4798C2.37004 26.4755 2.39927 26.4712 2.42994 26.4662C2.35291 26.4755 2.27661 26.4883 2.20173 26.5069C2.17677 26.5147 2.1518 26.5233 2.12684 26.5333C2.09831 26.5461 2.0705 26.5604 2.0434 26.5746C2.01987 26.591 1.99633 26.6067 1.9728 26.6224C1.9514 26.6402 1.93001 26.6595 1.90932 26.6787C1.88793 26.7016 1.86796 26.7244 1.84799 26.7486C1.80449 26.8093 1.76383 26.8706 1.72461 26.9341C1.6861 27.0075 1.64972 27.081 1.61478 27.1566C1.58839 27.2279 1.56557 27.2992 1.54489 27.3719C1.51494 27.5039 1.48997 27.6358 1.47072 27.7706C1.45717 27.9197 1.44933 28.068 1.44719 28.2185C1.45218 28.3811 1.46502 28.5423 1.48498 28.7041C1.51494 28.8824 1.55345 29.0565 1.5991 29.2312C1.7132 29.622 1.85726 29.9979 2.00632 30.3758C2.13968 30.6761 2.28588 30.9678 2.44777 31.2545C2.58256 31.4791 2.72661 31.6959 2.88137 31.907C3.01188 32.0725 3.14953 32.2294 3.29573 32.382C3.46903 32.5503 3.64875 32.71 3.83846 32.8598C4.01104 32.9853 4.18791 33.1016 4.37262 33.21C4.54378 33.3013 4.7178 33.3833 4.89609 33.4603C5.15925 33.5637 5.42669 33.655 5.69984 33.7292C5.91949 33.7805 6.13986 33.8205 6.36308 33.8497C6.54637 33.8661 6.72894 33.8747 6.91365 33.8747C7.08054 33.8682 7.24599 33.8554 7.41145 33.834C7.55836 33.8076 7.70313 33.7755 7.84791 33.7377C8.02406 33.6857 8.19593 33.625 8.3671 33.5566C8.56607 33.4696 8.75934 33.3747 8.94976 33.2699C9.2008 33.1173 9.43472 32.9468 9.66864 32.7714C9.81342 32.648 9.95462 32.5239 10.0915 32.3927C10.1343 32.3456 10.1764 32.2993 10.2171 32.2508C10.2356 32.2237 10.2556 32.1973 10.277 32.173C10.5316 31.887 10.9787 31.8521 11.2697 32.1067C11.5557 32.3563 11.5914 32.8135 11.3367 33.0994C11.1306 33.3647 10.881 33.5865 10.6257 33.8048C10.476 33.9324 10.3119 34.0451 10.155 34.1635C9.76777 34.4545 9.32275 34.6848 8.87488 34.8667C8.42344 35.0507 7.9613 35.1733 7.47848 35.2425C7.27879 35.271 7.07626 35.2832 6.87372 35.2832C6.54994 35.2853 6.22758 35.2539 5.91235 35.2076Z" fill="black"/>
<path d="M63.1181 34.5507C62.4527 34.4552 61.7973 34.2398 61.2039 33.9239C60.6733 33.6414 60.2169 33.2485 59.8182 32.8013C59.508 32.4533 59.2648 32.0582 59.0338 31.656C58.9368 31.4877 58.8547 31.3137 58.7813 31.1332C58.7043 30.9428 58.6572 30.7117 58.7292 30.512C58.859 30.1519 59.2427 29.9387 59.6157 30.0599C59.8703 30.1433 60.0593 30.3773 60.0971 30.6354C60.1021 30.6497 60.1078 30.664 60.1135 30.6782C60.1991 30.8636 60.2996 31.0398 60.4016 31.2167C60.4986 31.37 60.5985 31.519 60.7069 31.6645C60.826 31.8143 60.9508 31.9569 61.0834 32.0953C61.1989 32.2065 61.3188 32.3107 61.4443 32.4105C61.5719 32.5025 61.7024 32.5888 61.8387 32.6687C61.9727 32.7386 62.1075 32.8035 62.2459 32.8641C62.4506 32.9433 62.6581 33.0096 62.8706 33.0666C63.101 33.1201 63.3313 33.1622 63.5653 33.1929C63.7749 33.2121 63.9825 33.2235 64.1928 33.225C64.389 33.2185 64.5822 33.2036 64.7762 33.1793C64.9852 33.1458 65.1899 33.1023 65.3945 33.0481C65.5956 32.9875 65.7932 32.9176 65.9879 32.8391C66.2125 32.74 66.4301 32.6295 66.644 32.5082C66.8373 32.3898 67.0234 32.2643 67.2039 32.1288C67.3593 32.0033 67.5091 31.8728 67.6539 31.7351C67.8329 31.5518 67.9998 31.36 68.1588 31.1582C68.325 30.9328 68.4783 30.7003 68.6195 30.4586C68.76 30.204 68.8848 29.9436 68.9968 29.6755C69.0873 29.4394 69.1658 29.2012 69.2321 28.9566C69.2885 28.7198 69.3312 28.4816 69.3633 28.2392C69.3961 27.9054 69.3997 27.5752 69.3997 27.2407C69.3883 27.0746 69.3776 26.9084 69.3655 26.7422C69.3555 26.6046 69.332 26.4655 69.3113 26.3279C69.2706 26.1303 69.2314 25.9321 69.1808 25.7366C69.1423 25.6118 69.0988 25.4899 69.0503 25.3679C69.0196 25.3016 68.9868 25.236 68.9511 25.1725C68.9276 25.134 68.9026 25.0955 68.8755 25.0591C68.8349 25.0092 68.7935 24.9614 68.7493 24.9144C68.7165 24.8844 68.6823 24.8559 68.6459 24.8288C68.6566 24.8352 68.668 24.8416 68.6787 24.8473C68.6659 24.8388 68.6523 24.8309 68.6388 24.8231C68.6302 24.8167 68.6216 24.8102 68.6131 24.8038C68.6202 24.8088 68.6266 24.8145 68.6338 24.8195C68.596 24.7981 68.5575 24.7789 68.5182 24.761C68.4861 24.7496 68.4533 24.7389 68.4198 24.7289C68.3827 24.7218 68.3449 24.714 68.3086 24.7075C68.3264 24.7097 68.3442 24.7118 68.3621 24.714C68.3742 24.7168 68.3863 24.7204 68.3984 24.7232C68.387 24.7204 68.3756 24.7168 68.3642 24.714C68.3763 24.7154 68.3884 24.7168 68.4006 24.7182C68.3856 24.7161 68.3713 24.7139 68.3564 24.7125C68.3506 24.7111 68.3456 24.7097 68.3399 24.709C68.3449 24.7104 68.3499 24.7111 68.3549 24.7125C68.3064 24.7068 68.2572 24.704 68.2087 24.7025C68.1674 24.704 68.126 24.7075 68.0846 24.7118C68.0112 24.7247 67.9391 24.7403 67.8664 24.7582C67.82 24.7731 67.7744 24.7896 67.7295 24.8074C67.6382 24.848 67.5497 24.8908 67.4606 24.9365C67.1368 25.1319 66.8266 25.3537 66.5263 25.5833C66.4907 25.6111 66.455 25.6389 66.4194 25.6653C66.373 25.7053 66.3238 25.7416 66.2746 25.778C66.0236 25.9813 65.7789 26.1895 65.545 26.4127C65.4452 26.5169 65.3482 26.6224 65.2569 26.7344C65.0144 27.0311 64.5452 27.046 64.2642 26.8C63.9682 26.5418 63.9561 26.1046 64.1986 25.8072C64.5473 25.3801 64.9695 25.0121 65.4045 24.674C65.396 24.6804 65.3874 24.6876 65.3781 24.694C65.4445 24.6426 65.5101 24.5849 65.58 24.5342C65.6969 24.4301 65.8396 24.3431 65.9579 24.2554C66.3017 24.0022 66.6497 23.7562 67.037 23.575C67.4093 23.4003 67.8279 23.284 68.2415 23.2954C68.7136 23.3083 69.1644 23.4552 69.5402 23.744C70.1942 24.2454 70.4823 25.0406 70.6428 25.8201C70.7241 26.213 70.7662 26.6081 70.794 27.0082C70.8318 27.5652 70.8004 28.1286 70.7212 28.6806C70.5814 29.6477 70.1949 30.567 69.695 31.3992C69.3712 31.9377 68.9647 32.4234 68.5125 32.8584C68.039 33.3141 67.4756 33.6764 66.8901 33.9709C66.3381 34.2484 65.7411 34.4381 65.1335 34.545C64.809 34.6028 64.4817 34.6278 64.155 34.6278C63.8084 34.6292 63.4618 34.6007 63.1181 34.5507Z" fill="black"/>
<path d="M53.2499 19.1733C53.0431 18.8645 53.1151 18.3988 53.441 18.197C53.5765 18.1135 53.7192 18.0394 53.8582 17.9616C55.1056 17.2285 56.268 16.3705 57.4498 15.5376C58.108 15.074 58.7691 14.6176 59.4466 14.1825C59.7861 13.9636 60.1306 13.7532 60.475 13.5421C60.7824 13.3538 61.0941 13.1663 61.4107 12.9951C62.0804 12.6321 62.7529 12.2641 63.4668 11.9952C63.8412 11.854 64.2178 11.7078 64.6057 11.6044C64.8354 11.5438 65.0629 11.481 65.2961 11.4332C65.7404 11.3434 66.1926 11.327 66.6404 11.4054C67.0491 11.4767 67.4627 11.6657 67.7829 11.9289C67.9448 12.0623 68.0974 12.2099 68.2201 12.3803C68.367 12.5836 68.4754 12.7975 68.566 13.0307C68.7229 13.4365 68.7443 13.9015 68.6965 14.3301C68.6423 14.8151 68.4676 15.273 68.2265 15.6944C67.7729 16.4882 67.176 17.2014 66.5613 17.8746C66.5213 17.9188 66.4807 17.9616 66.4407 18.0051C66.1804 18.2861 65.7433 18.3296 65.448 18.0714C65.1663 17.8247 65.1207 17.359 65.3817 17.0787C65.7397 16.6943 66.0784 16.2942 66.4051 15.8834C66.6219 15.5889 66.8323 15.2944 67.0177 14.9791C67.0755 14.8714 67.1275 14.7638 67.1753 14.6518C67.2088 14.5584 67.2388 14.4649 67.2659 14.3694C67.2787 14.3116 67.2894 14.2538 67.298 14.1954C67.3058 14.1112 67.3108 14.0285 67.3129 13.9436C67.3094 13.8659 67.303 13.7903 67.293 13.7133C67.2837 13.6648 67.273 13.6163 67.2609 13.5685C67.2473 13.5243 67.2324 13.4815 67.2159 13.4387C67.1967 13.3966 67.176 13.3552 67.1539 13.3146C67.1311 13.2775 67.1068 13.2418 67.0819 13.2069C67.0548 13.1741 67.027 13.1427 66.9977 13.1121C66.9613 13.0771 66.9243 13.0443 66.885 13.0129C66.8508 12.988 66.8159 12.9644 66.7795 12.9423C66.7153 12.9081 66.6504 12.8774 66.5841 12.8482C66.5434 12.8339 66.5021 12.8204 66.4607 12.8089C66.3872 12.7925 66.3145 12.7797 66.2403 12.769C66.1662 12.764 66.0934 12.7612 66.02 12.7605C65.9258 12.7662 65.8331 12.7747 65.7404 12.7854C65.473 12.8296 65.2134 12.8981 64.9516 12.968C64.5893 13.085 64.2328 13.2105 63.8769 13.3453C63.4739 13.52 63.071 13.6954 62.6852 13.9044C62.243 14.144 61.8058 14.3908 61.3701 14.6432C61.3744 14.6404 61.3793 14.6382 61.3836 14.6354C60.7831 15.0034 60.1812 15.3692 59.5978 15.7643C58.9367 16.2115 58.2842 16.6708 57.6352 17.1351C57.0739 17.5366 56.5112 17.9367 55.9364 18.3189C55.639 18.5172 55.3402 18.7133 55.0343 18.898C54.7632 19.062 54.4858 19.2161 54.2112 19.3744C54.2077 19.3766 54.2041 19.3787 54.2013 19.3801C54.1842 19.3901 54.1677 19.3994 54.1506 19.4094C54.1642 19.4015 54.177 19.3937 54.1906 19.3858C54.0765 19.4479 53.9517 19.4793 53.829 19.4793C53.6043 19.4785 53.3861 19.3766 53.2499 19.1733Z" fill="black"/>
<path d="M10.8005 21.091C10.0038 20.3907 9.39338 19.4814 9.11524 18.4501C8.98972 17.9808 8.92482 17.5151 8.94408 17.028C8.96262 16.5531 9.12022 16.0831 9.31849 15.6559C9.50177 15.2622 9.76494 14.8785 10.0787 14.5776C10.2335 14.4285 10.3961 14.2959 10.578 14.1803C10.7791 14.0527 11.0016 13.9785 11.2312 13.92C11.6513 13.8123 12.1198 13.8715 12.5321 13.9864C13.012 14.119 13.4542 14.3301 13.8814 14.584C14.2608 14.8101 14.6202 15.0761 14.9654 15.35C15.1002 15.4569 15.2421 15.5596 15.3712 15.6737C15.558 15.8399 15.7449 16.0061 15.9324 16.1729C16.2056 16.4154 16.4545 16.6893 16.7119 16.9489C16.7897 17.0273 16.8589 17.12 16.9309 17.2042C17.0315 17.3212 17.132 17.4381 17.2326 17.5551C17.3196 17.6571 17.3973 17.7697 17.4793 17.8774C17.5571 17.9794 17.6391 18.0793 17.7132 18.1834C17.868 18.4016 18.0242 18.6184 18.1732 18.8409C18.2531 18.96 18.3316 19.0798 18.4072 19.2025C18.4599 19.2874 18.5063 19.3787 18.5634 19.4607C18.7816 19.7752 18.6867 20.2252 18.3722 20.437C18.0506 20.6524 17.6141 20.5604 17.3959 20.2459C17.3046 20.1132 17.2276 19.9685 17.1427 19.8315C17.0528 19.6868 16.9559 19.5448 16.8574 19.4065C16.6356 19.0941 16.4081 18.7889 16.1756 18.4843C16.0901 18.3845 16.0038 18.2839 15.9175 18.1834C15.829 18.08 15.7456 17.9687 15.6507 17.8724C15.4589 17.6799 15.2678 17.4866 15.0759 17.2941C14.8605 17.1022 14.6445 16.9104 14.4291 16.7192C14.2501 16.5602 14.054 16.4183 13.865 16.2707C13.5868 16.0774 13.3123 15.8827 13.0227 15.708C12.8515 15.6138 12.6768 15.529 12.4964 15.4526C12.3787 15.4099 12.261 15.3706 12.1405 15.3364C12.0435 15.315 11.948 15.2972 11.8488 15.2822C11.8795 15.2858 11.9102 15.2886 11.9401 15.2929C11.861 15.2808 11.7811 15.2743 11.7005 15.2722C11.6691 15.2736 11.637 15.2765 11.6056 15.2801C11.5657 15.2865 11.5258 15.295 11.4865 15.3043C11.4559 15.3143 11.4259 15.325 11.3952 15.335C11.4095 15.3293 11.4231 15.3228 11.4373 15.3171C11.443 15.3157 11.4487 15.3136 11.4552 15.3121C11.4494 15.3136 11.4445 15.315 11.4388 15.3164C11.4523 15.3107 11.4651 15.305 11.4787 15.2993C11.463 15.305 11.4473 15.3114 11.4323 15.3179C11.4002 15.3314 11.3674 15.3464 11.3368 15.3635C11.3025 15.3849 11.269 15.407 11.2362 15.4305C11.1685 15.4862 11.1043 15.5432 11.0408 15.6031C10.9838 15.6652 10.9288 15.7279 10.8761 15.7935C10.8033 15.8962 10.7341 16.0011 10.6692 16.1088C10.6129 16.2143 10.5608 16.3206 10.5131 16.4304C10.4717 16.5417 10.4353 16.6543 10.4032 16.7692C10.3854 16.8505 10.3704 16.9318 10.3576 17.0145C10.3504 17.1086 10.3462 17.2006 10.3455 17.2948C10.3504 17.4017 10.3583 17.5073 10.3697 17.6136C10.3982 17.779 10.4346 17.9416 10.4774 18.1035C10.5209 18.2454 10.5687 18.3845 10.6229 18.5228C10.6885 18.6719 10.7605 18.8181 10.839 18.9615C10.9431 19.1326 11.0565 19.2966 11.1756 19.4578C11.2926 19.5969 11.4117 19.7302 11.5386 19.86C11.6006 19.9178 11.6634 19.9749 11.7269 20.0312C12.015 20.2837 12.0464 20.7344 11.7932 21.0239C11.6563 21.1808 11.4587 21.2614 11.2612 21.2614C11.0964 21.2622 10.931 21.2058 10.8005 21.091Z" fill="black"/>
<path d="M33.8566 36.4649C32.9259 36.2295 32.2869 35.4679 31.8476 34.6563C31.2913 33.6293 31.123 32.4326 31.0289 31.283C31.0139 31.104 31.0139 30.9228 31.0146 30.7431C31.0161 30.4543 31.0688 30.1255 31.3434 29.9636C31.5317 29.8524 31.7399 29.8089 31.9525 29.8787C32.1657 29.9479 32.3197 30.1098 32.3996 30.3159C32.4481 30.44 32.4531 30.5712 32.4239 30.6946C32.421 30.7638 32.4196 30.8323 32.4196 30.9014C32.4367 31.2751 32.4738 31.6439 32.5173 32.0161C32.5729 32.3499 32.6285 32.6815 32.7127 33.0096C32.7769 33.2342 32.8518 33.4546 32.9374 33.6721C33.0144 33.8483 33.0992 34.0187 33.1934 34.1863C33.2668 34.3033 33.3431 34.4159 33.4259 34.5265C33.4879 34.6014 33.5521 34.6734 33.6191 34.7447C33.6819 34.8032 33.7454 34.8588 33.8124 34.913C33.8538 34.943 33.8966 34.9715 33.9401 34.9979C33.9829 35.0207 34.0271 35.0421 34.072 35.0614C34.042 35.05 34.0128 35.0378 33.9836 35.0257C34.0542 35.0564 34.1262 35.0821 34.1997 35.1034C34.1697 35.0956 34.139 35.0878 34.1091 35.0806C34.174 35.0992 34.2403 35.1149 34.3073 35.1248C34.3822 35.132 34.4564 35.1355 34.532 35.1363C34.5762 35.1341 34.6211 35.1298 34.6654 35.1248C34.7295 35.1134 34.793 35.0999 34.8565 35.0842C34.9114 35.0678 34.9663 35.0485 35.0205 35.0279C35.1054 34.9901 35.1881 34.9494 35.2701 34.9059C35.3593 34.8503 35.4456 34.7918 35.5297 34.7297C35.6239 34.6527 35.713 34.5728 35.8 34.4887C35.8927 34.3903 35.9805 34.289 36.0646 34.1842C36.1744 34.0344 36.275 33.8811 36.3698 33.7206C36.5289 33.4296 36.6565 33.1301 36.7806 32.8242C37.0174 32.1695 37.2392 31.5112 37.4154 30.8373C37.4639 30.6304 37.5074 30.4236 37.543 30.2139C37.6065 29.8367 37.9887 29.5799 38.3617 29.6484C38.7426 29.7183 38.9907 30.0891 38.9273 30.4671C38.8046 31.1931 38.5907 31.9042 38.3525 32.5995C38.2234 32.9761 38.0836 33.3469 37.9345 33.7156C37.6122 34.5122 37.1115 35.2554 36.4426 35.8002C35.887 36.2524 35.1881 36.5426 34.4764 36.5426C34.2688 36.5412 34.0613 36.517 33.8566 36.4649Z" fill="black"/>
</svg>
