<svg width="60" height="60" viewBox="0 0 60 60" fill="none" xmlns="http://www.w3.org/2000/svg">
<rect width="60" height="60" rx="10" transform="matrix(1 0 0 -1 0 60)" fill="#D9F6FD"/>
<path d="M39.6932 22.2839L34.8106 9.82075C34.5392 9.15663 33.7869 8.83103 33.117 9.08762L20.6539 13.9703C19.9838 14.2355 19.6556 14.9937 19.9207 15.6638L24.84 28.1269C25.1052 28.797 25.8635 29.1252 26.5335 28.8601L38.9601 23.9774C39.6301 23.7122 39.9583 22.954 39.6932 22.2839ZM26.145 27.4305L21.3797 15.3045L33.5056 10.5319L38.2709 22.6651L26.145 27.4305Z" fill="#4169E3"/>
<path d="M27.6552 30.1064H14.305C13.5842 30.1064 13 30.6907 13 31.4114V44.769C13 45.4898 13.5842 46.074 14.305 46.074H27.6552C28.376 46.074 28.9602 45.4898 28.9602 44.769V31.4114C28.9602 30.6907 28.3759 30.1064 27.6552 30.1064ZM27.4939 44.6004H14.4663V31.5727H27.4939V44.6004Z" fill="#4169E3"/>
<path d="M47.3689 30.0331L34.4658 26.6021C33.7623 26.4304 33.051 26.8545 32.8676 27.5551L29.4366 40.4582C29.2502 41.1544 29.6635 41.8698 30.3597 42.0562C30.3598 42.0563 30.3601 42.0563 30.3603 42.0564L43.2634 45.4874C43.9595 45.6738 44.675 45.2605 44.8614 44.5643C44.8615 44.5641 44.8615 44.5639 44.8616 44.5637L48.2633 31.6313C48.4518 30.9437 48.0535 30.2321 47.3689 30.0331ZM43.4906 43.9625L30.8955 40.6561L34.2459 28.0683L46.8337 31.4187L43.4906 43.9625Z" fill="#4169E3"/>
<path d="M34.1872 20.4219C34.054 20.1686 33.8779 19.9404 33.6667 19.7474L30.001 15.8838L29.5685 15.4146C29.4598 15.3019 29.3394 15.2012 29.2093 15.114C29.0777 15.0245 28.9271 14.9668 28.7694 14.9454C28.3942 14.9192 28.0274 15.0648 27.7723 15.3413C27.6715 15.465 27.6012 15.6106 27.5671 15.7665C27.5299 15.9498 27.5126 16.1366 27.5157 16.3237C27.5157 16.5363 27.5157 16.7196 27.5157 16.8735V22.2107C27.5304 22.4306 27.5426 22.5992 27.5524 22.7165C27.558 22.8268 27.5803 22.9356 27.6184 23.0391C27.6897 23.2111 27.8311 23.3446 28.0069 23.4057C28.1855 23.479 28.3856 23.479 28.5641 23.4057C28.7457 23.3541 28.8906 23.2173 28.9527 23.0391C29.0077 22.7568 29.0274 22.4686 29.0113 22.1814V21.133L31.9072 19.9966L32.5963 20.7298L32.9116 21.045C33.0014 21.14 33.1023 21.2236 33.2121 21.2943C33.2946 21.344 33.3874 21.374 33.4834 21.3823C33.5911 21.39 33.699 21.3725 33.7986 21.3309C33.9709 21.2602 34.1099 21.1265 34.1872 20.957C34.2601 20.7861 34.2601 20.5928 34.1872 20.4219ZM28.9453 19.8867L28.8427 16.5583L31.0714 19.0509L28.9453 19.8867Z" fill="#4169E3"/>
<path d="M22.8092 37.5183C23.5076 37.2575 23.9658 36.5848 23.9529 35.8394C23.9535 35.6244 23.9162 35.411 23.8429 35.2089C23.771 35.0085 23.6642 34.8224 23.5277 34.6591C23.3931 34.4964 23.232 34.3576 23.0511 34.2485C22.8262 34.1139 22.5772 34.0243 22.318 33.9846C22.0051 33.9368 21.6888 33.9148 21.3723 33.9186H18.9383C18.6743 33.8899 18.4098 33.9691 18.2052 34.1386C18.0379 34.3443 17.9589 34.6079 17.9852 34.8717V40.6194C17.9585 40.8822 18.0346 41.145 18.1978 41.3525C18.4023 41.5281 18.6706 41.6104 18.9383 41.5798H21.277C21.6183 41.5693 21.9586 41.5374 22.296 41.4845C22.5727 41.452 22.8439 41.383 23.1025 41.2792C23.4644 41.1285 23.7733 40.8733 23.9895 40.5461C24.2104 40.2005 24.3251 39.7979 24.3195 39.3878C24.3363 38.4807 23.6995 37.6925 22.8092 37.5183ZM19.5468 35.099H20.7711C21.1976 35.077 21.6241 35.1418 22.0248 35.2896C22.302 35.4235 22.466 35.7164 22.4353 36.0227C22.437 36.1955 22.3913 36.3653 22.3034 36.5139C22.2025 36.7108 22.029 36.8608 21.8195 36.9318C21.5291 37.0157 21.2271 37.0528 20.9251 37.0418H19.5101L19.5468 35.099ZM22.7432 39.2851C22.7432 40.0378 22.2202 40.4141 21.1743 40.4141H19.5101L19.5468 38.1854H21.1377C21.56 38.1588 21.9813 38.2501 22.3547 38.4494C22.6238 38.6388 22.7718 38.9572 22.7432 39.2851Z" fill="#4169E3"/>
<path d="M42.5375 33.8747C42.3505 33.4121 42.0506 33.0038 41.6651 32.687C41.2398 32.3322 40.7378 32.0813 40.1988 31.9539C39.7219 31.822 39.2238 31.7847 38.7326 31.8439C38.2601 31.9016 37.8052 32.059 37.3983 32.3058C36.9772 32.5652 36.615 32.9097 36.3352 33.3175C36.02 33.7817 35.7891 34.298 35.6534 34.8424C35.5581 35.1898 35.4991 35.546 35.4775 35.9055C35.4586 36.2417 35.4807 36.579 35.5435 36.9099C35.6026 37.224 35.7011 37.5294 35.8367 37.8189C35.9777 38.116 36.1659 38.3884 36.3939 38.6254C36.621 38.858 36.8832 39.0534 37.171 39.2045C37.4994 39.3754 37.8462 39.5081 38.2047 39.6004C38.6641 39.7324 39.1454 39.7698 39.6196 39.7104C40.0192 39.6489 40.4014 39.504 40.7413 39.2852C41.0223 39.1096 41.2704 38.8864 41.4745 38.6254C41.648 38.4092 41.7752 38.1597 41.8484 37.8922C41.8999 37.7195 41.8758 37.5331 41.7824 37.3791C41.6933 37.2246 41.545 37.1134 41.3718 37.0711C41.2025 37.0101 41.0141 37.0347 40.866 37.1371C40.7244 37.2531 40.603 37.3919 40.5067 37.5477C40.2791 37.879 39.9573 38.1344 39.583 38.2808C39.2019 38.4051 38.7911 38.4051 38.41 38.2808C38.0637 38.2135 37.742 38.054 37.4789 37.8189C37.2244 37.5294 37.0657 37.1684 37.0244 36.7852C36.9753 36.2921 37.0225 35.794 37.1637 35.319C37.2944 34.5828 37.672 33.9132 38.234 33.4202C38.7036 33.0546 39.3214 32.9399 39.8909 33.1123C40.2383 33.192 40.553 33.3762 40.7927 33.6401C41.0273 33.9324 41.1882 34.2769 41.2619 34.6445C41.2992 34.8391 41.366 35.027 41.4598 35.2017C41.5544 35.333 41.6963 35.4224 41.8557 35.4509C42.0233 35.4973 42.2028 35.4678 42.3469 35.3703C42.4958 35.2802 42.6037 35.1355 42.6475 34.9671C42.7247 34.6003 42.6863 34.2186 42.5375 33.8747Z" fill="#4169E3"/>
</svg>
