<svg width="80" height="60" viewBox="0 0 80 60" fill="none" xmlns="http://www.w3.org/2000/svg">
<path d="M28.3458 16.4332C27.9377 16.1183 27.3769 16.6355 27.5103 17.0753C28.0423 18.8261 28.3616 20.0037 27.7974 21.8314C27.2673 23.548 25.8864 25.4024 24.1886 26.0936C21.7997 27.066 18.2024 27.125 16.8061 24.7717C16.5939 24.4137 16.1089 24.5218 15.978 24.8798C14.5366 28.8207 22.8523 28.1033 24.5838 27.5251C28.0854 26.3554 32.0145 19.2654 28.3458 16.4332Z" fill="#021A1F"/>
<path d="M22.3742 15.972C21.9037 15.4211 21.263 15.138 20.5466 15.0989C20.1658 15.078 20.1306 15.6205 20.4608 15.733C20.9259 15.8912 21.3072 16.1763 21.571 16.5918C21.8308 17.0009 21.7247 17.5394 22.0133 17.9157C22.2369 18.2083 22.6167 18.2321 22.8369 17.9157C23.2425 17.3316 22.7764 16.4431 22.3742 15.972Z" fill="#021A1F"/>
<path d="M18.6733 18.6193C18.4269 18.3451 18.1547 18.0976 17.875 17.8581C17.751 17.752 17.6162 17.6182 17.4535 17.573C17.4159 17.5626 17.3623 17.5577 17.3092 17.5577C17.2388 17.5175 17.163 17.4917 17.0841 17.52C16.9755 17.5591 16.9012 17.6444 16.8987 17.7639C16.8982 17.7996 16.9151 17.8289 16.9255 17.8601C16.925 17.878 16.9255 17.8973 16.9275 17.93C16.9334 18.0183 16.9389 18.1026 16.9865 18.1804C17.1536 18.4522 17.398 18.6887 17.6038 18.9316C17.8547 19.2286 18.0778 19.546 18.2623 19.8886C18.4363 20.2104 18.4328 20.557 18.7214 20.8143C18.9034 20.977 19.188 21.0018 19.3665 20.8143C20.0175 20.1306 19.1473 19.1458 18.6733 18.6193Z" fill="#021A1F"/>
<path d="M79.0191 54.8752C78.1911 50.2847 75.9499 46.2351 73.9486 42.0726C71.4179 36.8072 69.6834 30.9588 67.946 25.388C67.8096 24.9502 67.3703 24.8168 66.9766 24.9938C66.4867 25.2145 66.0757 25.4535 65.7162 25.7282C65.8645 24.851 66.0321 23.9769 66.2463 23.1072C66.3494 22.6882 66.0484 22.298 65.6195 22.2841C63.5484 22.2166 61.4946 21.998 59.422 21.9712C59.1235 21.9677 58.9812 22.2796 59.0521 22.5141C58.9901 22.4938 58.9272 22.474 58.8582 22.473C56.805 22.4383 54.8642 22.2801 52.8184 21.9861C52.4688 21.936 52.0325 22.1343 52.0662 22.5588C52.1634 23.7825 52.3424 24.9879 52.5328 26.1957C50.3184 26.2156 48.0772 26.2176 45.8994 26.643C45.8008 26.466 45.6153 26.3475 45.3357 26.3822C45.1274 26.4075 44.9187 26.4159 44.7099 26.4347C45.777 25.8948 46.5192 24.916 46.614 23.7042C46.783 21.5497 44.0083 19.7082 42.0954 20.565C40.8062 21.1426 40.1536 22.8459 40.1279 24.2208C38.1475 25.0271 36.2315 26.3782 34.2626 27.2851C32.3947 28.1449 30.3638 29.0731 28.9586 30.6251C28.9283 30.5701 28.8966 30.514 28.8663 30.4595C28.8336 30.4 28.7895 30.3643 28.7493 30.3206C33.8019 27.5449 34.9686 20.8253 33.2243 15.7062C32.9878 15.0126 32.6883 14.3695 32.3461 13.7675C35.2964 11.2958 39.1873 10.0522 41.369 6.7241C41.6203 6.34032 41.2941 5.75126 40.8285 5.7825C39.2963 5.88464 37.8584 6.40131 36.358 6.63336C36.6213 5.50037 36.892 4.46257 36.7264 3.23983C36.6689 2.81737 36.1373 2.7187 35.823 2.87191C34.7202 3.41039 33.8857 4.18093 32.9069 4.91775C32.3729 5.31938 31.6004 0.861775 31.4516 0.426922C31.2756 -0.0857765 30.6642 -0.140812 30.3593 0.284123C29.0845 2.05923 28.4364 4.30836 27.954 6.41122C27.773 7.19911 27.4795 8.43971 27.6605 9.42445C25.032 8.17989 21.8884 7.96568 18.8608 8.93852C18.7651 8.96877 18.6892 9.01637 18.6233 9.06992C15.3036 8.20517 12.8299 11.0885 11.3632 14.5871C10.0938 11.3171 9.08032 6.90855 5.50977 5.58119C5.23755 5.48003 4.8979 5.64465 4.76155 5.88563C3.57996 7.97411 4.55429 9.76657 5.39524 11.6914C4.07581 11.3914 2.77621 11.1505 1.38984 11.209C0.913335 11.2293 0.568715 11.746 0.832502 12.1803C1.38933 13.0981 2.13955 13.8186 2.86695 14.5822C1.77015 15.3671 0.71995 16.0722 0.0808122 17.3505C-0.115541 17.7427 0.0585068 18.1517 0.466583 18.299C3.57203 19.4171 7.00324 18.4879 10.2069 18.3213C9.85085 20.0171 9.73582 21.6062 9.88457 22.7472C10.6273 28.432 15.679 31.4284 20.9374 31.8265C20.7965 31.9981 20.6676 32.1776 20.5308 32.3516C20.0424 31.9123 18.3005 31.8766 18.1026 31.8687C15.9928 31.7878 13.8191 31.7829 11.7182 32.0214C11.3483 32.0635 11.0409 32.2986 11.0384 32.7007C11.024 34.987 12.517 36.7938 13.771 38.6235C12.1659 38.5308 10.2193 38.8104 10.2837 40.5667C10.3437 42.2054 12.2696 42.2803 13.8077 41.9635C13.111 42.8674 12.3806 43.748 11.5729 44.5751C11.0885 45.0709 11.4787 45.7656 12.094 45.8325C15.0666 46.1568 18.0347 46.196 21.0023 46.1112C21.3831 48.9588 21.9617 51.852 21.3266 54.6972C20.1559 53.4248 18.3932 52.5883 16.8754 53.942C15.5743 55.1028 15.437 57.3549 17.3663 57.9796C24.074 60.1529 23.4736 50.2212 21.8611 46.0804C23.3838 46.0259 24.9066 45.9461 26.4293 45.8558C25.6548 48.9399 24.619 54.711 26.5086 57.5993C26.5522 57.7823 26.6777 57.9385 26.8359 58.0381C27.4344 58.7318 28.2564 59.1944 29.3716 59.311C31.0416 59.4855 34.1118 57.9786 32.2574 56.0354C30.7426 54.4482 28.7092 54.8553 27.3525 56.1812C27.1106 55.5505 26.9811 54.8295 26.9207 54.1473C26.6807 51.442 27.7011 48.4788 27.3456 45.8008C29.5843 45.6659 31.8235 45.5261 34.0662 45.4482C34.4431 45.4349 34.8209 45.1259 34.7946 44.7199C34.4882 39.9469 31.706 35.5156 29.3825 31.3882C31.1536 29.8635 33.2872 28.9655 35.4308 28.0606C36.8895 27.4448 39.1258 26.7967 40.3535 25.5546C40.4873 25.8497 40.6877 26.1065 40.9862 26.2667C41.0928 26.3237 41.2058 26.3569 41.3203 26.3797C41.3992 26.4595 41.482 26.5354 41.5832 26.5929C40.705 26.6187 39.8264 26.6514 38.9487 26.7516C38.5704 26.7947 38.2645 27.0327 38.2585 27.4423C38.1891 32.0908 39.0335 36.6753 38.9924 41.3268C38.9483 46.2817 38.5109 51.2174 38.6215 56.1763C38.6304 56.5729 38.9354 56.861 39.3246 56.8794C41.3977 56.9751 43.4505 56.7574 45.5221 56.6974C45.9044 56.6865 46.19 56.4019 46.2227 56.028C48.517 56.5541 51.1906 56.8486 53.5622 56.5635C54.9327 57.5368 56.6319 56.9656 58.1264 58.0971C58.5359 58.407 59.2346 57.992 59.1835 57.4902C59.1736 57.393 59.1686 57.2959 59.1587 57.1987C60.7459 57.8274 63.836 56.9022 65.4266 56.6582C65.7003 56.6161 65.9731 56.2645 65.9369 55.9878C65.2238 50.5326 65.323 44.9499 65.1341 39.4565C65.019 36.117 64.9715 32.7691 65.2461 29.4505C67.1284 33.8104 68.3422 38.3905 69.6566 42.9532C70.9825 47.5571 72.6837 51.968 73.4419 56.7236C73.5004 57.0901 73.9253 57.2423 74.2417 57.1778C75.8978 56.8397 77.2217 56.3547 78.7171 55.611C78.9953 55.4741 79.0687 55.1503 79.0191 54.8752ZM19.2292 56.8431C18.5638 56.8967 17.2924 56.8461 17.2344 55.9482C17.1972 55.373 17.7947 54.8816 18.2663 54.6991C19.3244 54.2901 20.2104 55.3378 20.7737 56.1187C20.4271 56.5521 19.9283 56.7861 19.2292 56.8431ZM29.9061 56.3419C31.0574 56.2734 31.9896 57.4213 30.4605 57.8353C29.3647 58.1323 28.5986 57.878 28.0621 57.3375C28.545 56.8025 29.0924 56.39 29.9061 56.3419ZM30.6176 2.07956C30.8631 3.51056 30.8859 4.95395 31.4764 6.33883C31.5751 6.57039 31.9351 6.70476 32.1647 6.61898C33.4553 6.13554 34.4178 5.20732 35.5314 4.46704C35.4471 5.37889 35.1536 6.25701 34.9736 7.18077C34.9017 7.54917 35.1427 7.99543 35.5711 7.96519C36.8761 7.87296 38.1138 7.48422 39.3826 7.23383C37.2356 9.52659 34.0414 10.6358 31.6301 12.6548C30.8001 11.5417 29.7757 10.6383 28.6288 9.94408C28.2307 7.54422 29.3017 4.34605 30.6176 2.07956ZM10.5133 17.0624C10.4761 17.0564 10.4464 17.0415 10.4052 17.0415C7.52684 17.052 4.49429 17.9643 1.65362 17.2959C2.32945 16.4386 3.26063 15.9125 4.1581 15.2278C4.49974 14.9669 4.588 14.5534 4.28901 14.2138C3.77581 13.6317 3.21998 13.1095 2.71571 12.5378C3.92308 12.6479 5.08731 12.9444 6.28923 13.2295C6.73796 13.3366 7.26009 12.9201 7.08704 12.4322C6.4836 10.7265 5.05955 8.91175 5.67191 7.08954C8.53638 8.56962 9.36692 12.8393 10.7806 15.4529C10.8252 15.5357 10.8921 15.5838 10.9655 15.616C10.7964 16.0955 10.6457 16.5794 10.5133 17.0624ZM12.279 25.4674C9.41402 21.0727 12.6533 10.1831 18.5449 10.0547C18.6907 10.2406 18.9247 10.3512 19.2267 10.2624C29.506 7.23829 37.0249 19.5386 30.0504 27.5177C25.3895 32.8494 15.8555 30.9523 12.279 25.4674ZM12.4451 33.3175C13.7258 33.2159 15.015 33.1985 16.2968 33.1494C17.2076 33.1142 18.1195 33.0998 19.0308 33.0899C19.2054 33.0879 19.6963 33.0993 19.9868 33.0532C18.476 35.0644 17.1437 37.198 15.7375 39.279C15.7221 39.2274 15.7062 39.1764 15.676 39.1243C14.6273 37.3155 12.7451 35.468 12.4451 33.3175ZM11.624 40.5097C11.1599 39.873 14.8549 40.0902 14.9233 40.1041C15.0091 40.1219 15.0919 40.1189 15.1722 40.107C15.0959 40.2166 15.0155 40.3232 14.9387 40.4328C14.1671 40.5756 12.2403 41.3551 11.624 40.5097ZM32.5311 44.0445C26.2136 44.2657 19.97 44.9891 13.6639 44.4918C14.8762 43.1322 15.9462 41.6967 16.9741 40.1591C17.5532 39.2939 22.0004 33.3254 21.5482 32.5851C21.6057 32.6789 21.7416 32.6789 21.7986 32.5851C21.9112 32.4007 22.0242 32.2158 22.1368 32.0313C22.1695 31.9777 22.1844 31.9237 22.1953 31.8692C24.0512 31.8637 25.8908 31.5374 27.538 30.8919C27.5459 30.9866 27.5722 31.0842 27.6252 31.1844C28.3675 32.5871 34.4688 43.9766 32.5311 44.0445ZM41.5361 25.1857C41.4409 24.9924 41.4071 24.7147 41.4056 24.4702C41.3992 23.5604 41.7745 22.5607 42.4648 21.9578C43.393 21.1461 44.8577 22.3728 45.1532 23.2534C45.419 24.0453 44.7912 24.7628 44.1595 25.1351C43.7872 25.3548 43.3642 25.4227 42.9403 25.4193C42.8847 25.3241 42.7747 25.2631 42.6328 25.2918C42.5723 25.3042 42.5039 25.3226 42.436 25.3404C42.1365 25.2447 41.8579 25.1123 41.5361 25.1857ZM44.9013 52.7882C44.8805 54.6739 44.9375 55.2728 42.9913 55.4007C42.255 55.4493 40.0292 56.1356 39.995 54.7319C39.8621 49.2474 40.4992 43.7733 40.3569 38.2863C40.29 35.702 39.878 33.1172 39.6826 30.5393C39.4228 27.1066 42.1692 27.9247 44.7223 27.7993C44.5478 33.4449 44.7427 39.105 44.8592 44.7496C44.9152 47.4296 44.9311 50.1082 44.9013 52.7882ZM46.2609 54.8201C46.4994 45.8057 46.006 36.779 45.5935 27.775C46.9129 27.6307 48.2249 27.5796 49.5523 27.5563C51.9264 27.5152 52.1827 27.5087 52.2021 30.0524C52.2348 34.3171 52.0315 38.5754 52.1381 42.8411C52.2348 46.7102 53.283 50.5088 53.3375 54.4031C53.3609 56.0562 47.6354 54.6099 46.2609 54.8201ZM57.3811 35.0361C56.6726 42.0146 56.974 49.2751 57.6628 56.2749C56.6984 55.963 55.7329 56.0171 54.6897 55.6859C54.8965 51.3507 54.0213 47.1361 53.5602 42.8416C52.9974 37.5991 53.7169 32.1503 53.5349 26.8785C53.5289 26.7055 53.458 26.5468 53.3499 26.4238C53.3564 25.5606 53.3217 24.7057 53.2721 23.8266C53.2235 22.9589 57.1476 23.7156 57.3097 23.7275C59.2916 23.8737 57.5284 33.5858 57.3811 35.0361ZM63.7294 38.1039C63.8032 42.0636 63.9723 46.0234 64.066 49.9837C64.1022 51.5248 65.326 55.3294 62.8512 55.6135C62.7302 55.6274 60.9378 55.8535 60.1241 55.9343C60.0383 55.8629 59.9297 55.8192 59.7978 55.8301L59.3759 55.8659C59.2594 55.8758 59.1542 55.9229 59.0581 55.9848C58.6158 51.0051 58.4695 45.9828 58.4159 40.9891C58.352 35.0153 59.597 29.1073 59.5078 23.122C59.5058 22.9882 59.4552 22.8716 59.3858 22.769C60.9502 23.0873 62.4843 23.3372 64.07 23.5113C65.3032 23.6461 64.2455 26.2642 64.1697 26.8845C63.7145 30.6191 63.659 34.3459 63.7294 38.1039ZM74.4762 54.9952C74.2496 53.58 73.8574 52.1897 73.487 50.8083C72.7452 48.0405 71.7322 45.3511 70.8903 42.614C69.3586 37.6353 68.0744 32.663 65.4286 28.1513C67.1234 25.1723 68.0913 30.101 68.6005 31.5761C69.5852 34.4272 70.5715 37.2877 71.6519 40.1041C73.4617 44.8215 76.2573 49.0238 77.5336 53.9618C76.5607 55.7984 75.5418 56.1425 74.4762 54.9952Z" fill="#021A1F"/>
</svg>
