<svg width="68" height="66" viewBox="0 0 68 66" fill="none" xmlns="http://www.w3.org/2000/svg">
<path d="M66.3931 57.6812C65.2969 56.9145 62.3671 56.6038 60.6633 57.4162C60.3451 54.9726 61.1814 51.8444 61.1346 49.8682C61.0745 47.3028 59.8385 44.6828 57.3268 43.8068C56.0814 43.3722 53.0045 43.2867 52.2205 44.6669C52.132 44.8225 52.1732 44.9781 52.2776 45.1103C52.2995 45.1372 52.3209 45.165 52.3428 45.1924C52.5655 45.4743 53.0035 45.168 52.918 44.8578C53.0239 45.2421 54.8962 44.8453 55.3088 44.8429C57.5645 44.8284 58.8516 46.4392 59.4328 48.4786C60.2059 51.1931 59.143 54.38 59.1291 57.1457C59.1261 57.794 59.2245 58.402 59.408 58.9624C59.3771 59.2651 59.4975 59.4978 59.6844 59.6315C60.6539 61.6242 62.7937 62.8437 65.2546 62.7567C68.0706 62.6583 68.3768 59.0687 66.3931 57.6812ZM65.6867 61.0261C64.9026 61.6267 63.3401 60.8943 62.6192 60.5394C61.9067 60.1894 61.4354 59.6594 61.1207 59.0225C62.1484 58.3384 63.8432 58.5074 64.9016 58.7511C65.8806 58.9763 66.6457 60.2918 65.6867 61.0261Z" fill="#021A1F"/>
<path d="M53.1446 41.0232C54.2712 38.5901 53.1208 35.3212 50.0234 35.9268C50.0637 35.8442 50.0965 35.7552 50.107 35.6498C50.4366 32.2731 51.0372 28.9386 51.161 25.5425C51.1799 25.0299 50.6354 24.6257 50.1497 24.7724C49.7052 24.9066 49.2588 25.0344 48.8133 25.1671C48.8143 25.1567 48.8198 25.1492 48.8203 25.1383C48.8834 23.789 48.9908 22.4451 49.0515 21.0953C49.0749 20.5718 48.4241 20.188 47.9816 20.4813C45.8408 21.9007 43.5046 23.0124 41.1595 24.1047C43.0507 21.846 44.0674 18.9371 43.7035 15.4555C43.4788 13.3047 42.6435 11.2604 41.3991 9.47508C41.5184 9.44773 41.6323 9.37266 41.7168 9.23047C42.1111 8.56825 42.7549 8.00993 43.2918 7.46553C43.7234 7.02803 44.2096 6.65416 44.4398 6.07049C44.6252 5.60017 44.1599 5.33567 43.7706 5.4361C43.7661 5.42019 43.7616 5.40428 43.7572 5.38837C43.1377 5.64441 42.7539 6.18682 42.3238 6.68101C41.7874 7.29799 41.1689 7.95474 40.8149 8.70099C40.5549 8.37584 40.285 8.05766 39.9981 7.75389C40.3073 7.30097 40.6131 6.84656 40.9308 6.39911C41.3653 5.7871 41.9574 5.18006 42.1861 4.46017C42.3601 3.9108 41.673 3.61548 41.2912 3.93914C40.7264 4.41791 40.3844 5.23077 40.0334 5.8746C39.8052 6.29272 39.5989 6.72326 39.408 7.16077C38.7621 6.54777 38.0721 5.98 37.3308 5.49029C37.6927 5.1736 37.9711 4.7868 38.2585 4.38112C38.6493 3.83026 39.1002 3.30674 39.4547 2.73948C39.6098 2.49089 39.4696 2.09515 39.1688 2.03698C38.3843 1.88485 38.0204 2.65048 37.7076 3.23316C37.5053 3.60952 37.3224 3.99482 37.1364 4.37963C37.0335 4.59291 36.9256 4.9096 36.7775 5.14228C36.0432 4.70278 35.2765 4.32195 34.4821 4.02266C34.6406 3.79297 34.7948 3.5598 34.9384 3.32166C35.3357 2.66291 35.8955 1.95942 36.1182 1.22461C36.2813 0.68668 35.6091 0.369488 35.2283 0.706567C34.7202 1.1565 34.5169 1.89131 34.2742 2.50929C34.1077 2.93287 33.9501 3.35546 33.7651 3.76513C33.0467 3.54091 32.3119 3.37635 31.5682 3.28288C31.6706 3.04275 31.7626 2.79765 31.8441 2.54757C31.9535 2.21149 32.0519 1.87242 32.1658 1.53783C32.2881 1.17887 32.5004 0.866157 32.4506 0.476379C32.4019 0.0965449 32.0807 -0.107293 31.7218 0.0577655C31.1486 0.321263 31.0412 1.069 30.9099 1.62483C30.7831 2.16127 30.6693 2.68578 30.4863 3.1914C28.9958 3.12478 27.5869 3.26299 26.2783 3.59311C26.3101 3.45639 26.3479 3.32116 26.3768 3.18345C26.514 2.53166 26.8615 1.74664 26.7998 1.08292C26.7616 0.667788 26.2848 0.410754 25.9561 0.732917C25.5271 1.15451 25.5092 1.76652 25.4391 2.33478C25.3755 2.85283 25.3292 3.37038 25.276 3.88793C24.3831 4.18921 23.5389 4.57302 22.7569 5.04334C22.8006 4.87729 22.8325 4.70825 22.8494 4.55363C22.9125 3.97841 22.8822 3.40319 22.8608 2.82648C22.8434 2.36113 22.8817 1.9117 22.5759 1.5776C22.474 1.46624 22.2886 1.41751 22.1449 1.46375C21.3539 1.7173 21.6462 2.83941 21.6974 3.44197C21.7347 3.88196 21.77 4.32693 21.7367 4.76841C21.7292 4.86884 21.7128 4.98716 21.6666 5.07765C21.6641 5.08311 21.6646 5.08759 21.6621 5.09206C21.6398 5.08461 21.603 5.07367 21.5319 5.04434C21.2112 4.91408 21.0392 5.40975 21.3062 5.58028C21.4319 5.66082 21.5627 5.7175 21.7059 5.74782C21.3972 5.97801 21.0959 6.21715 20.81 6.47418C20.6797 6.0322 20.5395 5.59221 20.4187 5.14874C20.2149 4.39852 20.1527 3.47329 19.6874 2.83642C19.3737 2.40687 18.7443 2.55901 18.7015 3.1039C18.6399 3.88693 19.0505 4.72615 19.3061 5.45499C19.5154 6.05408 19.7361 6.65416 20.0702 7.18961C17.6063 9.79972 16.1973 13.4782 16.2788 17.6664C16.4548 26.6725 24.5507 28.777 31.9679 29.2036C31.3678 29.6694 30.7926 30.1736 30.2402 30.7125C24.6561 28.5707 19.3578 25.7647 13.7448 23.698C13.4122 23.5752 13.0239 23.8317 12.9389 24.1554C12.6346 25.3158 12.3164 26.4712 12.0181 27.6326C11.3932 27.5987 10.7662 27.5794 10.1344 27.5948C9.5825 27.6087 9.31154 28.078 9.38413 28.5792C9.49251 29.3279 9.48058 31.8092 9.67 33.7034C9.59145 33.7865 9.54423 33.8899 9.54671 34.0082C9.28172 35.0125 9.25089 36.0948 9.21808 37.1249C9.21162 37.3233 9.3185 37.5316 9.4766 37.6698C8.79747 38.3395 8.34356 39.3632 8.2317 40.1989C8.0035 41.9047 8.86062 43.8039 10.2721 44.826C10.2253 45.274 10.1816 45.7229 10.1368 46.1714C8.74428 44.823 6.06952 46.9464 5.13684 48.3271C2.31592 52.5033 3.24662 57.3332 5.32775 61.5328C2.97467 60.7642 0.232307 60.6722 0.00709122 63.6562C-0.243977 66.9782 6.24603 65.4837 7.69527 64.8225C8.23718 64.5754 8.13526 63.868 7.76139 63.5383C7.90805 63.3176 7.94882 63.0302 7.77779 62.7483C6.05511 59.9061 4.8634 57.106 4.89075 53.7337C4.90715 51.7187 7.03552 45.8154 10.0145 47.4262C9.81368 49.5625 9.64813 51.7038 9.57554 53.8446C9.56162 54.2612 9.93201 54.6023 10.3362 54.6053C17.6962 54.657 24.3787 54.0962 31.242 57.2223C31.3564 57.2746 31.4717 57.2825 31.5831 57.2726C31.7402 57.3889 31.9037 57.4545 32.1856 57.5485C32.3517 57.6032 32.4919 57.5893 32.6142 57.544C34.5099 57.8408 36.2907 56.1549 38.3127 55.4788C42.3119 54.1424 46.6268 53.8009 50.7776 53.2048C51.0277 53.169 51.2932 52.8871 51.3384 52.644C51.6666 50.879 52.7429 45.189 51.4523 42.9572C52.1976 42.4282 52.8106 41.7456 53.1446 41.0232ZM41.9679 14.8504C41.9679 14.8514 41.9684 14.8529 41.9684 14.8529C42.4655 16.8719 42.2851 18.7045 41.6422 20.3237C40.8358 20.0418 39.6217 20.1119 38.9893 20.0473C37.119 19.8559 35.2546 19.2812 34.7883 17.2552C34.3483 15.3426 36.3961 14.226 37.9145 13.8715C38.6935 13.6895 39.5308 13.7224 40.3068 13.8929C41.0133 14.0485 41.418 14.4915 41.9679 14.8504ZM31.7824 4.92054C36.0546 5.58475 39.4502 8.67464 41.155 12.5043C40.1855 12.2194 39.0724 12.1866 38.3485 12.2503C36.2206 12.4392 34.2275 13.5543 33.4171 15.5842C33.2511 15.9999 33.175 16.424 33.1725 16.8441C31.8978 16.6109 30.4978 16.8804 29.4517 17.643C29.0784 15.5435 27.129 13.8009 25.1269 13.078C23.5563 12.5108 19.7137 12.4998 17.9612 13.9545C19.3404 8.09097 25.3934 3.9272 31.7824 4.92054ZM18.2019 19.9439C18.1944 19.919 18.1845 19.8986 18.177 19.8738C17.8156 18.6756 17.6604 17.4993 17.6719 16.3628C17.746 16.3568 17.8205 16.3489 17.8926 16.3156C18.798 15.8965 19.3195 15.0224 20.3133 14.6312C21.5597 14.1405 22.9925 14.1976 24.2757 14.4795C26.5861 14.9876 28.9014 17.4312 27.6038 19.8648C26.7163 21.5293 24.2578 21.9425 22.5744 21.9529C21.6343 21.9589 20.7031 21.7909 19.8589 21.3688C19.1848 21.0317 19.06 20.4127 18.6105 19.8981C18.4942 19.7649 18.2938 19.8171 18.2019 19.9439ZM31.5408 27.9353C26.7049 26.6879 21.8461 26.7232 19.2544 22.3576C20.286 22.9219 21.6353 23.2461 22.2284 23.3087C24.7774 23.5777 28.0631 22.5674 29.1574 20.0587C29.3672 19.5775 29.4711 19.1022 29.5029 18.6378C29.5183 18.6329 29.5338 18.6329 29.5492 18.6264C30.7066 18.1148 32.303 17.5525 33.4718 18.3559C33.4753 18.3579 33.4793 18.3584 33.4827 18.3604C33.9645 19.5109 34.9558 20.4764 36.1098 20.9074C37.2557 21.3355 38.4589 21.4528 39.6749 21.4791C40.0364 21.4871 40.5808 21.5269 41.0929 21.4861C39.2951 24.6297 35.6623 26.7904 31.9664 27.642C31.7606 27.6887 31.6283 27.8011 31.5408 27.9353ZM3.08306 64.1474C1.84959 64.2866 1.75662 63.776 2.80415 62.6156C3.38086 62.6474 3.94415 62.7478 4.49451 62.9174C5.14231 63.0839 5.76428 63.3509 6.36237 63.6532C5.30042 63.9768 4.20119 64.131 3.08306 64.1474ZM47.5719 22.4377C47.5297 23.3375 47.4839 24.2369 47.4571 25.1383C47.4521 25.3043 47.5058 25.4281 47.5804 25.5315C44.9056 26.3195 42.2274 27.0951 39.5616 27.9115C36.9947 28.698 33.9953 29.388 31.8968 31.1321C31.8849 31.142 31.8859 31.158 31.8764 31.1694C31.7854 31.0511 31.6532 30.9745 31.4991 30.9362C36.4737 27.4208 42.4054 25.63 47.5719 22.4377ZM16.9903 26.4752C18.6786 27.2 20.3432 27.9811 22.0136 28.7462C23.0358 29.2145 24.0619 29.6724 25.0906 30.1224C21.0297 29.2911 17.037 28.0497 12.919 27.6902C13.9188 25.2655 13.9685 25.178 16.9903 26.4752ZM10.1174 42.5465C9.39855 41.4726 9.44777 37.4993 11.519 37.9845C11.5736 37.9975 11.6512 37.9681 11.6602 37.9045C11.6656 37.8652 11.6607 37.8329 11.6626 37.7961C11.8451 37.8095 12.0305 37.82 12.216 37.8672C12.8489 38.0273 13.3933 38.4767 13.8512 38.9172C14.9688 39.9936 15.5659 41.7724 14.5109 43.0845C13.1884 44.7291 11.1506 44.0887 10.1174 42.5465ZM32.729 55.701C32.7276 55.7005 32.7256 55.7005 32.7241 55.7C32.2687 55.5151 31.8675 55.3654 31.3444 55.1885C31.1386 55.1188 30.9532 55.1656 30.8025 55.266C27.8424 53.3161 23.7617 53.1103 20.3526 52.9587C17.8091 52.8458 15.2517 52.9651 12.7082 53.0263C10.1045 53.0889 11.072 47.9746 11.1789 45.3217C11.7521 45.5444 12.38 45.6354 13.0443 45.532C15.8682 45.0925 17.3825 42.0429 16.1108 39.5178C15.5366 38.3783 14.673 37.4615 13.5733 36.8147C12.7589 36.3354 11.2903 35.8492 10.6524 36.7774C10.6494 36.7819 10.6489 36.7869 10.6459 36.7913C10.6415 36.5805 10.6479 36.3702 10.6454 36.1594L10.7245 36.1197C10.9761 36.0431 11.0844 35.8502 11.1168 35.6046C11.3559 33.7919 11.1834 31.933 11.0631 30.1154C10.9895 28.9998 10.7474 29.1395 11.2639 29.1305C13.2213 29.0947 15.1861 29.566 17.0862 29.9841C21.4459 30.9437 26.2251 32.9816 30.7806 32.4078C30.8453 32.4307 30.9084 32.457 30.973 32.4799C31.3131 32.6002 31.5682 32.4536 31.7049 32.2199C31.8312 32.1568 31.9316 32.0717 31.9858 31.9579C32.7559 39.5272 33.9103 48.1784 32.729 55.701ZM50.1835 47.5485C50.1736 48.3798 50.1154 49.21 50.0577 50.0388C49.9339 51.8336 49.9623 51.7128 48.2277 51.9554C45.5241 52.3332 42.8379 52.7454 40.1751 53.3514C39.0918 53.598 35.4381 55.4559 33.3674 55.8845C35.5674 53.9346 34.4383 47.8085 34.2906 45.4589C34.0396 41.4662 34.9812 35.2273 33.1571 31.6412C35.4739 31.1982 37.7554 30.1557 39.9876 29.4586C43.1531 28.4698 46.3524 27.5913 49.5263 26.6303C49.3791 29.6525 48.8402 32.6335 48.5966 35.6508C48.5846 35.802 48.6185 35.9198 48.6702 36.0237C46.1779 36.8087 44.3647 41.7153 46.769 43.3972C47.7186 44.0619 48.8859 44.0803 49.9767 43.7164C50.2357 44.9702 50.1989 46.2643 50.1835 47.5485ZM47.379 41.9877C46.2867 40.802 47.7464 37.3442 49.4676 36.8744C49.5541 37.1742 49.7893 37.4272 50.1607 37.4138C51.0501 37.38 51.7387 37.4575 52.0086 38.4121C52.2378 39.2205 51.9231 40.1397 51.5194 40.8343C50.89 41.9176 48.433 43.1317 47.379 41.9877Z" fill="#021A1F"/>
<path d="M38.7631 16.2186C38.7676 16.1271 38.7636 16.0376 38.7382 15.9541C38.6736 15.7443 38.4966 15.6205 38.3012 15.5967C37.9696 15.4664 37.6663 15.4818 37.3854 15.7324C37.1299 15.9606 37.0668 16.3732 37.1821 16.6954C37.1811 16.7158 37.1821 16.7362 37.1816 16.756C37.1707 16.9897 37.1806 17.0265 37.0911 17.2522C37.0986 17.2532 37.106 17.2542 37.1135 17.2552C37.0941 17.3178 37.0722 17.378 37.0638 17.4556C36.9827 18.2083 38.1719 18.512 38.4911 17.8423C38.6602 17.4884 38.863 16.762 38.7631 16.2186Z" fill="#021A1F"/>
<path d="M24.0297 17.8126C24.0377 17.4203 24.0113 17.0266 23.9984 16.6338C24.0138 16.4359 24.0193 16.2391 23.9944 16.0417C24.0536 15.2368 22.7092 15.0484 22.58 15.8503C22.5114 16.2769 22.4427 16.7178 22.3866 17.1583C22.231 17.4969 22.2155 17.9294 22.3269 18.2685C22.574 19.0192 23.627 18.965 23.8085 18.2625C23.9337 18.1641 24.0252 18.0174 24.0297 17.8126Z" fill="#021A1F"/>
<path d="M34.472 23.774C33.9848 24.0435 33.68 24.4596 33.1386 24.6645C32.539 24.8917 31.8912 24.9493 31.2558 24.9265C30.8004 24.9101 30.1641 24.7932 29.9026 24.3786C29.7092 24.0718 29.8131 23.4722 29.2403 23.5692C29.214 23.5737 29.1871 23.5781 29.1608 23.5831C28.9823 23.6134 28.8352 23.7899 28.7884 23.9555C27.895 27.1334 35.27 27.1935 35.4405 24.3304C35.4708 23.8257 34.8762 23.5498 34.472 23.774Z" fill="#021A1F"/>
</svg>
