<svg width="35" height="35" viewBox="0 0 35 35" fill="none" xmlns="http://www.w3.org/2000/svg">
<circle cx="17.5" cy="17.5" r="17.5" fill="white"/>
<path d="M17.9998 6C13.5887 6 10 9.58867 10 13.9997C10 19.474 17.159 27.5105 17.4638 27.8499C17.7501 28.1688 18.2499 28.1682 18.5357 27.8499C18.8405 27.5105 25.9995 19.474 25.9995 13.9997C25.9994 9.58867 22.4108 6 17.9998 6ZM17.9998 18.0246C15.7804 18.0246 13.9749 16.219 13.9749 13.9997C13.9749 11.7804 15.7805 9.97488 17.9998 9.97488C20.219 9.97488 22.0245 11.7804 22.0245 13.9998C22.0245 16.2191 20.219 18.0246 17.9998 18.0246Z" fill="black"/>
</svg>
