<svg width="55" height="51" viewBox="0 0 55 51" fill="none" xmlns="http://www.w3.org/2000/svg">
<path d="M25.0352 50.7842C24.5687 50.7644 24.1023 50.7455 23.6359 50.7258C23.4948 50.7197 23.353 50.6985 23.2127 50.684C22.9123 50.6552 22.612 50.6257 22.3117 50.5961C21.9469 50.5604 21.5897 50.5005 21.2287 50.4414C20.8623 50.3807 20.4922 50.3314 20.1312 50.2449C19.6823 50.138 19.2333 50.0318 18.7843 49.9234C18.6174 49.8832 18.4536 49.8278 18.289 49.7777C18.0024 49.6913 17.7172 49.6041 17.4305 49.5176C17.0938 49.4152 16.7654 49.2931 16.4347 49.1733C16.0752 49.0421 15.7127 48.92 15.36 48.7721C14.8951 48.5764 14.4317 48.38 13.9684 48.1851C13.8629 48.1403 13.7613 48.0865 13.6589 48.0372C13.3851 47.9052 13.1129 47.7725 12.8391 47.6398C12.5122 47.4813 12.1952 47.3083 11.8759 47.1339C11.5437 46.9534 11.2108 46.7759 10.8862 46.581C10.4963 46.3467 10.1065 46.1108 9.71592 45.878C9.58017 45.7976 9.45199 45.7005 9.3223 45.6118C9.07354 45.4442 8.82478 45.2758 8.57677 45.1074C8.28251 44.908 8.0057 44.6888 7.72508 44.4703C7.51121 44.3035 7.29657 44.1374 7.0827 43.9706C6.99775 43.9038 6.91206 43.8394 6.83166 43.7665C6.45473 43.4245 6.0778 43.0824 5.70011 42.7412C5.41115 42.4795 5.1533 42.1792 4.88482 41.8963C4.73542 41.7385 4.58524 41.5808 4.43583 41.423C4.34558 41.329 4.26747 41.2228 4.1848 41.122C3.86779 40.7359 3.54243 40.3552 3.24058 39.957C2.54435 39.0386 1.91638 38.0587 1.41507 37.0197C1.1792 36.5297 0.981256 36.0231 0.827298 35.5013C0.657413 34.9295 0.526955 34.3463 0.413952 33.7608C0.200078 32.6482 0.038535 31.5288 0.0051647 30.3949C-0.028964 29.2383 0.109074 28.0916 0.329773 26.9585C0.417749 26.5073 0.536823 26.0598 0.640726 25.6124C0.733253 25.2142 0.859899 24.8236 0.972903 24.4315C1.02599 24.2495 1.07834 24.066 1.13219 23.8839C1.17693 23.73 1.24063 23.5783 1.29372 23.4266C1.43326 23.033 1.55841 22.6295 1.71995 22.2435C1.9088 21.7915 2.09689 21.3402 2.28573 20.8882C2.32669 20.7896 2.37522 20.6948 2.42224 20.5992C2.55269 20.3308 2.68313 20.0608 2.81358 19.7923C2.97285 19.4639 3.14654 19.1476 3.32249 18.8283C3.50603 18.4961 3.68274 18.1579 3.88144 17.8348C4.14689 17.4048 4.41232 16.9748 4.677 16.5447C4.87192 16.2277 5.10248 15.9274 5.3156 15.6218C5.45287 15.4246 5.59015 15.2266 5.72818 15.0294C5.92764 14.7428 6.14681 14.4705 6.36372 14.1982C7.07511 13.3048 7.86463 12.4705 8.71861 11.7136C9.56424 10.9643 10.4872 10.3053 11.4398 9.70005C12.4113 9.08346 13.4276 8.53665 14.475 8.06112C15.5246 7.58332 16.6107 7.19121 17.7172 6.86812C18.2352 6.7172 18.757 6.58297 19.2826 6.46238C19.7437 6.35696 20.2109 6.25078 20.6788 6.18101C21.1756 6.10668 21.6716 6.03387 22.1676 5.95954C22.3678 5.92997 22.5688 5.9004 22.769 5.87082C23.2036 5.80559 23.6442 5.77071 24.0818 5.73506C24.643 5.6888 25.205 5.66756 25.7678 5.66073C26.2479 5.65466 26.7363 5.65163 27.2141 5.69031C27.7139 5.73051 28.2137 5.77146 28.7135 5.81166C29.5174 5.87688 30.3122 6.01946 31.1093 6.13929C31.2162 6.15521 31.3224 6.18404 31.4286 6.20679C31.7198 6.26974 32.0118 6.33269 32.303 6.39564C32.6329 6.46617 32.9629 6.53443 33.2882 6.62392C33.6348 6.72024 33.9814 6.8158 34.328 6.91287C34.5237 6.96748 34.7262 7.01147 34.9173 7.07973C35.2275 7.19046 35.5377 7.3027 35.8479 7.41343C36.0655 7.49155 36.2855 7.56435 36.4986 7.65612C36.8171 7.79339 37.1364 7.93143 37.455 8.06947C37.8911 8.25831 38.3142 8.47142 38.7261 8.70728C39.3381 9.05767 39.9251 9.45204 40.4317 9.94426C40.7882 10.2901 41.1424 10.7194 41.2364 11.2207C41.2584 11.3382 41.2531 11.455 41.2235 11.565C41.4002 11.5635 41.5754 11.6219 41.7081 11.7493C41.8613 11.8964 42.013 12.0443 42.164 12.193C42.2155 12.243 42.2663 12.2931 42.3171 12.3439C42.3915 12.4174 42.4749 12.4887 42.5432 12.5699C42.5674 12.5934 42.5917 12.6177 42.616 12.6419C42.8791 12.9059 43.1393 13.1736 43.3964 13.4443C43.9318 14.0071 44.4286 14.604 44.9033 15.2183C45.388 15.8447 45.8172 16.5053 46.204 17.1955C46.5992 17.8993 46.9473 18.6205 47.2643 19.363C47.5836 20.1101 47.8384 20.8852 48.0652 21.664C48.2882 22.4278 48.474 23.2029 48.6188 23.9856C48.7705 24.8122 48.885 25.6435 48.9882 26.4777C49.1831 28.0552 49.2756 29.6411 49.1656 31.2277C49.1353 31.6721 49.1103 32.1203 49.0466 32.5617C48.9859 32.9728 48.9184 33.3808 48.8433 33.7903C48.7728 34.1696 48.6879 34.5472 48.6022 34.9234C48.5635 35.0941 48.5248 35.2639 48.4785 35.4331C48.4209 35.6409 48.3731 35.8548 48.3064 36.0603C48.1751 36.4638 48.0417 36.865 47.8945 37.2639C47.7429 37.6734 47.5722 38.0739 47.4023 38.4758C47.3394 38.623 47.2635 38.7648 47.1922 38.9081C47.0997 39.0932 47.0133 39.2813 46.9093 39.461C46.7046 39.816 46.5044 40.1709 46.2768 40.5107C46.1714 40.6669 46.0736 40.833 45.9598 40.9832C45.8043 41.1879 45.6489 41.3935 45.4926 41.599C45.2416 41.9304 44.9693 42.2467 44.7039 42.566C44.4642 42.8534 44.2026 43.1242 43.9531 43.4025C43.8249 43.5458 43.6823 43.6793 43.5481 43.8174C43.3911 43.9781 43.2386 44.1473 43.0741 44.3012C42.9292 44.437 42.7843 44.572 42.6395 44.707C42.4931 44.8427 42.3528 44.9883 42.2004 45.1158C42.0388 45.2515 41.8758 45.3865 41.7135 45.5215C41.5443 45.6626 41.3797 45.8127 41.2015 45.9432C40.8708 46.1859 40.541 46.4286 40.2103 46.6705C40.0578 46.782 39.8887 46.876 39.7302 46.9777C39.5307 47.1058 39.3305 47.2333 39.1303 47.3622C38.9907 47.4509 38.8398 47.526 38.6957 47.6056C38.4485 47.7429 38.2005 47.8809 37.954 48.0182C37.6066 48.2109 37.2373 48.3678 36.8793 48.5385C36.5214 48.7099 36.1535 48.854 35.7857 49.0026C35.5946 49.08 35.4035 49.1566 35.2123 49.234C35.0462 49.3007 34.8703 49.3477 34.7004 49.4046C34.3197 49.5305 33.942 49.6594 33.5537 49.7618C33.1631 49.865 32.7733 49.9818 32.3774 50.0637C32.1112 50.1183 31.8465 50.1744 31.5803 50.229C31.4362 50.2586 31.2921 50.2935 31.1465 50.317C30.6891 50.389 30.2318 50.4603 29.7752 50.5324C29.3399 50.6006 28.8962 50.631 28.4579 50.6765C28.0832 50.7167 27.7078 50.7303 27.3316 50.7508C26.9547 50.7713 26.5816 50.7834 26.2046 50.7857C25.9581 50.7872 25.7116 50.7933 25.4644 50.7933C25.3211 50.7925 25.1785 50.7902 25.0352 50.7842ZM23.3515 49.1968C23.6799 49.2287 24.0052 49.2438 24.3351 49.2575C24.6916 49.2726 25.0496 49.2969 25.406 49.2954C25.8224 49.2924 26.2403 49.2901 26.6574 49.2878C27.1322 49.262 27.6077 49.237 28.0817 49.2112C28.3244 49.1976 28.5694 49.1596 28.8113 49.1338C29.0494 49.1081 29.2868 49.0823 29.5235 49.058C29.8708 49.0034 30.2197 48.948 30.567 48.8934C30.8499 48.8487 31.1275 48.7926 31.4073 48.7349C31.719 48.6697 32.0346 48.6166 32.3425 48.5347C32.7088 48.4376 33.0759 48.3405 33.4429 48.2435C33.8661 48.1024 34.2901 47.9629 34.7133 47.8218C34.9325 47.749 35.1463 47.6474 35.3602 47.5609C35.5528 47.4828 35.7455 47.4054 35.9389 47.3281C36.3522 47.1309 36.7656 46.9344 37.1789 46.7372C37.3617 46.65 37.5369 46.5386 37.7143 46.4407C37.9161 46.3285 38.117 46.217 38.3188 46.1047C38.6692 45.881 39.0196 45.6565 39.37 45.4313C39.5323 45.3266 39.6847 45.2007 39.8402 45.0862C39.9979 44.9702 40.1557 44.8549 40.3134 44.7396C40.6122 44.4901 40.9118 44.2413 41.2114 43.991C41.3449 43.8796 41.4685 43.7514 41.5967 43.6331C41.7559 43.4844 41.9159 43.3358 42.0752 43.1864C42.4294 42.8246 42.7836 42.4643 43.1226 42.0874C43.2902 41.9008 43.4624 41.7181 43.6232 41.5254C43.8165 41.2926 44.0107 41.059 44.2049 40.8254C44.3436 40.6426 44.4824 40.4591 44.6212 40.2771C44.738 40.1231 44.8442 39.9616 44.9519 39.8008C45.0619 39.637 45.1771 39.4754 45.2765 39.304C45.3948 39.0985 45.5139 38.8937 45.6322 38.6882C45.7649 38.419 45.8992 38.1497 46.0326 37.8805C46.0941 37.7561 46.1418 37.6219 46.1957 37.4944C46.2511 37.3632 46.3064 37.232 46.3618 37.1008C46.4937 36.7451 46.6265 36.3917 46.744 36.0307C46.8646 35.6598 46.97 35.2875 47.0732 34.9113C47.1725 34.476 47.2673 34.0399 47.3568 33.603C47.4425 33.1806 47.5085 32.7559 47.5707 32.3304C47.6215 31.8359 47.664 31.3422 47.6898 30.8454C47.7156 30.3502 47.7231 29.8572 47.7209 29.362C47.692 28.6794 47.6443 28.0029 47.579 27.3233C47.5153 26.6544 47.4251 25.9878 47.3318 25.3234C47.2499 24.8168 47.1649 24.3109 47.0603 23.8081C46.9556 23.3075 46.8328 22.8123 46.7023 22.3178C46.5886 21.9287 46.4748 21.5404 46.3428 21.1574C46.2033 20.7517 46.0531 20.352 45.8946 19.9538C45.7285 19.5648 45.5579 19.178 45.3667 18.801C45.1627 18.3976 44.9473 18.0032 44.7213 17.6126C44.4263 17.1166 44.1047 16.6433 43.7604 16.1815C43.4169 15.7386 43.0649 15.3032 42.6903 14.8861C42.3081 14.4606 41.9099 14.0503 41.5072 13.6446C41.5201 13.6575 41.5322 13.6696 41.5451 13.6817C41.5276 13.6643 41.5102 13.6468 41.4927 13.6294C41.4874 13.6241 41.4821 13.618 41.4761 13.6127C41.4791 13.6157 41.4829 13.6195 41.4859 13.6226C41.4799 13.6165 41.4738 13.6104 41.4677 13.6044C41.4541 13.5915 41.4404 13.5786 41.4283 13.5649C41.4162 13.5528 41.4033 13.5399 41.3911 13.5278C41.3851 13.5217 41.379 13.5164 41.3729 13.5103C41.1583 13.298 40.9429 13.0871 40.7252 12.8778C40.5167 12.6768 40.4287 12.3894 40.4954 12.1247C40.1587 12.1164 39.8402 11.8759 39.7757 11.5316C39.7742 11.5218 39.7719 11.5119 39.7696 11.502C39.7666 11.4937 39.7628 11.4861 39.7598 11.4778C39.7499 11.4596 39.7408 11.4414 39.731 11.4232C39.709 11.3875 39.6847 11.3526 39.6604 11.3193C39.5823 11.2214 39.5012 11.1297 39.4147 11.0394C39.2577 10.8892 39.0939 10.7489 38.9225 10.6147C38.6153 10.3894 38.2953 10.1847 37.9661 9.99355C37.5498 9.763 37.1243 9.55671 36.6882 9.36786C36.4038 9.245 36.1186 9.12214 35.8342 8.99852C35.5703 8.90371 35.3064 8.80968 35.0424 8.71487C34.8263 8.63752 34.6101 8.54423 34.3887 8.4828C33.8214 8.32505 33.2533 8.16806 32.6853 8.01031C32.0755 7.88062 31.4673 7.74486 30.8567 7.61593C30.7733 7.59773 30.6861 7.59015 30.6012 7.57725C30.3835 7.54464 30.1651 7.51202 29.9474 7.47941C29.6357 7.43238 29.324 7.38536 29.0123 7.3391C28.5838 7.30421 28.156 7.26933 27.7275 7.2352C27.5265 7.21852 27.3256 7.20259 27.1246 7.1859C26.932 7.16998 26.737 7.16998 26.5444 7.16467C26.2228 7.15633 25.9012 7.15557 25.5789 7.15936C24.7287 7.17832 23.8824 7.2481 23.0375 7.3429C22.4975 7.42329 21.9575 7.50292 21.4168 7.58332C20.4065 7.73348 19.4085 7.95342 18.424 8.22266C17.4639 8.49417 16.5219 8.81877 15.6005 9.20253C14.7101 9.58401 13.8462 10.0186 13.0067 10.5009C12.1876 10.9818 11.3935 11.5028 10.6374 12.0777C10.0413 12.5411 9.47324 13.0348 8.93552 13.5649C8.28328 14.2263 7.68262 14.9301 7.1176 15.6657C6.92572 15.9213 6.74825 16.1883 6.56471 16.4507C6.36525 16.7374 6.16578 17.0233 5.96556 17.31C5.81084 17.5322 5.67887 17.7734 5.53705 18.0039C5.37551 18.2656 5.21396 18.5272 5.05242 18.7897C4.85902 19.14 4.6664 19.4904 4.473 19.8408C4.30691 20.1419 4.15976 20.4506 4.0096 20.76C3.85791 21.0732 3.70017 21.3827 3.56669 21.7043C3.40667 22.0888 3.24512 22.4725 3.08509 22.8578C2.9099 23.3515 2.73471 23.8445 2.56028 24.3382C2.47989 24.565 2.42452 24.8039 2.35778 25.0352C2.28043 25.3014 2.20383 25.5676 2.12647 25.8338C2.04836 26.1728 1.96946 26.5126 1.89134 26.8524C1.76014 27.4189 1.65624 27.9885 1.58495 28.5656C1.52655 29.114 1.49395 29.6615 1.49774 30.2129C1.51367 30.8629 1.56827 31.509 1.65776 32.1529C1.79959 33.0881 1.97478 34.0179 2.21975 34.9318C2.31455 35.2609 2.42452 35.5817 2.55269 35.9003C2.75518 36.3728 2.98651 36.8308 3.24361 37.2768C3.63647 37.9351 4.06649 38.5676 4.5276 39.1804C4.86358 39.5907 5.20107 39.9995 5.53629 40.4106C5.58558 40.4705 5.64399 40.5236 5.69784 40.5797C5.83587 40.7253 5.97389 40.8709 6.11192 41.0165C6.28939 41.2031 6.46612 41.3904 6.64359 41.5762C7.05844 41.9539 7.47556 42.3286 7.89041 42.7063C7.94577 42.7571 8.011 42.8003 8.07015 42.8466C8.22715 42.9679 8.38263 43.09 8.53963 43.2114C8.75426 43.3782 8.96813 43.5458 9.18352 43.7127C9.63629 44.0191 10.0891 44.3255 10.5426 44.6319C10.7534 44.7752 10.9825 44.8966 11.2016 45.0278C11.4277 45.1643 11.6544 45.3008 11.8819 45.4366C12.2513 45.6368 12.6199 45.8393 12.9885 46.041C13.2994 46.2102 13.6218 46.358 13.9403 46.5128C14.2444 46.6599 14.5448 46.8086 14.8557 46.9398C15.263 47.1112 15.6695 47.2841 16.0767 47.4555C16.5879 47.6405 17.0983 47.8256 17.6095 48.0114C17.8499 48.0994 18.1025 48.1616 18.3475 48.2359C18.6068 48.3148 18.8677 48.3936 19.1271 48.4725C19.6148 48.5901 20.1024 48.7046 20.5901 48.8221C20.6674 48.8403 20.7486 48.8487 20.8267 48.8616C21.0019 48.8904 21.1779 48.92 21.3538 48.9488C21.6246 48.9943 21.8946 49.039 22.1653 49.0838C22.5597 49.1187 22.9556 49.1574 23.3515 49.1968Z" fill="black"/>
<path d="M8.67842 11.8273C8.67615 11.822 8.67463 11.8167 8.67236 11.8114C8.56921 11.5983 8.45015 11.3928 8.33412 11.1857C8.2067 10.9582 8.08687 10.7261 7.9678 10.494C7.72966 10.0276 7.49682 9.55741 7.27158 9.08416C6.82183 8.1369 6.3827 7.18508 5.95951 6.22568C5.87912 6.04366 5.85409 5.85255 5.91704 5.66067C5.97847 5.47106 6.11575 5.31104 6.29398 5.2223C6.64588 5.04635 7.13279 5.18363 7.29812 5.55677C7.72435 6.52299 8.16043 7.48542 8.62003 8.43647C8.87334 8.95902 9.1297 9.47928 9.39362 9.99652C9.50132 10.2066 9.61432 10.4129 9.7296 10.6192C9.86004 10.8535 9.99579 11.0841 10.0906 11.3351C10.2347 11.7166 10.0079 12.1565 9.63024 12.2885C9.54984 12.3165 9.46869 12.3294 9.3883 12.3294C9.07887 12.3294 8.79294 12.1307 8.67842 11.8273Z" fill="black"/>
<path d="M18.5249 7.67805C18.4582 7.37165 18.4688 7.05615 18.4794 6.7452C18.4863 6.53512 18.5007 6.32503 18.5136 6.11495C18.5356 5.76456 18.5629 5.41418 18.5879 5.06455C18.6455 4.25304 18.7047 3.44078 18.7654 2.62851C18.7949 2.222 19.1355 1.89817 19.5503 1.91864C19.95 1.93836 20.2898 2.29709 20.2594 2.7036C20.2063 3.43092 20.1532 4.15824 20.1002 4.8848C20.0721 5.27463 20.0448 5.66521 20.0175 6.05504C19.9917 6.42211 19.9667 6.78918 19.9674 7.15625C19.9697 7.21162 19.9735 7.26699 19.9796 7.32235C19.9826 7.33828 19.9856 7.3542 19.9894 7.37012C20.0766 7.76829 19.8082 8.17253 19.4123 8.25595C19.3615 8.26657 19.3107 8.27189 19.2614 8.27189C18.9148 8.27189 18.6008 8.0254 18.5249 7.67805Z" fill="black"/>
<path d="M34.67 8.56092C34.5282 8.1855 34.7459 7.80175 34.9021 7.46956C35.0052 7.24962 35.1137 7.03195 35.2191 6.81353C35.4701 6.29098 35.7197 5.76843 35.9662 5.24361C36.4258 4.26677 36.8793 3.28766 37.3306 2.30703C37.5004 1.93616 37.9669 1.78372 38.3294 1.95891C38.7018 2.13866 38.8481 2.58764 38.6775 2.95775C38.2725 3.83751 37.8675 4.71651 37.4549 5.59248C37.2365 6.05663 37.0196 6.52078 36.7966 6.98341C36.5714 7.45212 36.3272 7.9155 36.1216 8.3933C36.0883 8.67088 35.8949 8.92572 35.6226 9.02052C35.5422 9.04858 35.4603 9.06148 35.3807 9.06148C35.0712 9.06224 34.7845 8.86353 34.67 8.56092Z" fill="black"/>
<path d="M43.4631 16.6229C43.1901 16.3127 43.2303 15.8424 43.5306 15.5671C44.0061 15.131 44.5378 14.7518 45.0573 14.3711C45.5821 13.9866 46.113 13.6112 46.6432 13.2343C47.6761 12.5009 48.7121 11.766 49.7739 11.0758C50.1152 10.8536 50.5824 10.937 50.8122 11.2791C51.0367 11.6135 50.951 12.0951 50.6089 12.3173C49.6791 12.9225 48.772 13.5626 47.8665 14.202C46.9329 14.8611 46.0023 15.5216 45.0929 16.2126C44.898 16.3688 44.7024 16.5227 44.5181 16.6911C44.3823 16.8155 44.2071 16.8746 44.0319 16.8746C43.8211 16.8754 43.608 16.7882 43.4631 16.6229Z" fill="black"/>
<path d="M48.6363 28.5997C48.5043 28.2213 48.7084 27.7723 49.0959 27.6472C49.2582 27.5941 49.4258 27.5531 49.5912 27.5076C50.8539 27.1534 52.1121 26.7833 53.3681 26.4071C53.5599 26.3495 53.7564 26.351 53.9399 26.4397C54.1174 26.5254 54.2562 26.6809 54.3206 26.8667C54.4503 27.2384 54.2509 27.7025 53.861 27.8193C52.4686 28.2357 51.0731 28.6467 49.6723 29.0343C49.6852 29.0305 49.6973 29.0275 49.7102 29.0237C49.67 29.0351 49.6291 29.0457 49.5889 29.0586C49.51 29.0843 49.4288 29.0965 49.3492 29.0965C49.0383 29.0972 48.7448 28.9107 48.6363 28.5997Z" fill="black"/>
<path d="M28.1219 6.84688C27.7336 6.82792 27.3673 6.46692 27.4128 6.06193C27.4575 5.66603 27.4636 5.26407 27.4856 4.86666C27.5106 4.42754 27.5394 3.98765 27.5721 3.54853C27.6388 2.64677 27.7146 1.74654 27.8011 0.847058C27.8208 0.644561 27.8997 0.458748 28.0544 0.322233C28.1993 0.19482 28.3927 0.127318 28.5853 0.137177C28.9782 0.156896 29.3346 0.516388 29.2952 0.92214C29.208 1.82238 29.1329 2.72262 29.0654 3.62361C29.0328 4.06273 29.0039 4.50186 28.9797 4.94174C28.9569 5.33991 28.9501 5.74112 28.9061 6.13701C28.8834 6.34102 28.8105 6.52304 28.6528 6.66183C28.517 6.78166 28.3373 6.84764 28.1568 6.84764C28.1454 6.84764 28.134 6.84688 28.1219 6.84688Z" fill="black"/>
<path d="M22.0895 25.7004C21.6898 25.5699 21.4994 25.1505 21.6086 24.7577C21.9924 23.3849 22.4391 22.0289 22.8782 20.6728C23.0951 20.0032 23.3173 19.3342 23.5426 18.6676C23.6662 18.302 23.7928 17.938 23.9187 17.5732C23.9764 17.4071 24.0431 17.244 24.1061 17.0802C24.2176 16.7844 24.3442 16.4523 24.6445 16.3021C25.0093 16.1201 25.4659 16.2717 25.6487 16.6365C25.767 16.8747 25.7435 17.1523 25.6115 17.3669C25.5774 17.4336 25.5471 17.5011 25.5182 17.5702C25.0359 18.8458 24.621 20.148 24.2016 21.4449C23.7959 22.6978 23.3863 23.9515 23.0321 25.2203C22.9434 25.5373 22.6279 25.736 22.3117 25.736C22.2366 25.7345 22.1615 25.7239 22.0895 25.7004Z" fill="black"/>
<path d="M27.6039 25.0799C27.2232 25.0101 26.9024 24.6044 27.0025 24.2093C27.3498 22.8327 27.7116 21.4608 28.0726 20.088C28.247 19.4244 28.423 18.7616 28.6004 18.098C28.696 17.74 28.7923 17.3813 28.8894 17.0233C28.9326 16.8663 28.9743 16.7085 29.0199 16.5531C29.0623 16.4082 29.0949 16.255 29.1511 16.1139C29.2261 15.9243 29.3422 15.7689 29.5287 15.6756C29.7032 15.5884 29.9087 15.5724 30.0938 15.6339C30.4631 15.7537 30.7248 16.1966 30.5746 16.5758C30.5268 16.6972 30.4972 16.8291 30.4608 16.9535C30.4161 17.1075 30.3736 17.2629 30.3319 17.4177C30.2318 17.7832 30.134 18.1495 30.0354 18.5166C29.8662 19.1476 29.6986 19.7794 29.5325 20.4111C29.1814 21.7459 28.8295 23.0815 28.4897 24.4186C28.4912 24.411 28.4935 24.4034 28.495 24.3966C28.4882 24.4239 28.4814 24.4512 28.4746 24.4785C28.4245 24.6772 28.3304 24.8479 28.156 24.9646C28.0324 25.0473 27.8845 25.0921 27.7366 25.0921C27.6919 25.0913 27.6479 25.0875 27.6039 25.0799Z" fill="black"/>
<path d="M25.0776 33.6872C24.0902 33.6091 23.1171 33.4271 22.1608 33.1745C21.215 32.925 20.2951 32.5776 19.4092 32.1651C18.5765 31.7775 17.7786 31.3058 17.0468 30.7506C15.6118 29.6638 14.5129 28.1993 13.8538 26.5247C13.5808 25.8331 13.4268 25.0936 13.3639 24.3534C13.3381 24.0447 13.3381 23.7391 13.3867 23.4327C13.4268 23.1809 13.5816 22.9503 13.8106 22.835C14.1746 22.653 14.632 22.8055 14.814 23.1703C14.9042 23.3508 14.9126 23.554 14.8534 23.7353C14.8519 23.7444 14.8504 23.7535 14.8489 23.7626C14.8436 23.8399 14.8405 23.9165 14.8398 23.9947C14.8481 24.2108 14.8686 24.4254 14.8982 24.6401C14.9422 24.9093 14.9983 25.1755 15.0681 25.4387C15.1485 25.7087 15.241 25.9726 15.3471 26.2327C15.4829 26.5407 15.6331 26.8395 15.7984 27.1322C15.9827 27.4417 16.1829 27.739 16.3991 28.0271C16.6168 28.3032 16.8473 28.5656 17.0938 28.8159C17.3592 29.073 17.6361 29.3157 17.9273 29.5432C18.3186 29.836 18.7259 30.1037 19.1491 30.3479C19.6898 30.6475 20.245 30.9129 20.8168 31.148C21.4714 31.4067 22.138 31.6243 22.8198 31.801C23.4463 31.9535 24.0795 32.0695 24.7189 32.1484C25.3529 32.2166 25.9885 32.2508 26.6263 32.2462C27.1178 32.2348 27.6062 32.1992 28.0923 32.1332C28.4913 32.0703 28.8841 31.9891 29.2747 31.8852C29.6585 31.7752 30.0339 31.6448 30.4032 31.4939C30.7877 31.3263 31.1601 31.1405 31.5242 30.9326C31.8442 30.743 32.1536 30.5405 32.4563 30.3244C32.7414 30.1029 33.0273 29.8853 33.2973 29.6449C33.5832 29.3893 33.8593 29.1269 34.1323 28.8584C34.2681 28.7143 34.4046 28.5702 34.5404 28.4246C34.6716 28.2858 34.7884 28.1303 34.912 27.9832C34.8915 28.0097 34.8718 28.0363 34.8521 28.0628C35.4179 27.3188 35.9548 26.5551 36.425 25.7466C36.5373 25.5411 36.6457 25.3333 36.7436 25.1194C36.9142 24.7493 37.3806 24.5961 37.7431 24.7713C38.1155 24.951 38.2619 25.4 38.0913 25.7709C37.7591 26.4921 37.3321 27.1717 36.8778 27.8216C36.6427 28.1584 36.403 28.4898 36.155 28.8159C35.9032 29.1473 35.6264 29.4537 35.3413 29.7571C35.0857 30.0286 34.818 30.2933 34.5389 30.5428C34.3811 30.6839 34.2233 30.8242 34.0664 30.9653C33.8912 31.1215 33.691 31.2565 33.5059 31.4013C32.793 31.9557 32.005 32.4146 31.1814 32.7847C30.1749 33.2367 29.1071 33.509 28.0157 33.6508C27.5061 33.7168 26.9911 33.7448 26.4761 33.7448C26.0074 33.7464 25.541 33.7236 25.0776 33.6872Z" fill="black"/>
</svg>
