<svg width="55" height="55" viewBox="0 0 55 55" fill="none" xmlns="http://www.w3.org/2000/svg">
<circle cx="27.5" cy="27.5" r="27.5" fill="#FE3B49"/>
<path d="M13.2502 28.8746C14.7965 28.8175 16.6448 28.6684 18.0962 28.615C19.5484 28.5602 20.6142 28.5669 20.6142 28.5669C21.4751 28.4767 22.339 28.4264 23.2044 28.3905C25.5341 28.3289 27.8972 28.3438 30.2201 28.5023C32.548 28.6572 34.8624 28.9621 37.1095 29.536C37.9824 29.7664 38.8432 30.0484 39.6781 30.3897C38.5276 31.2686 37.3832 32.1469 36.9739 32.4748C36.1183 33.161 35.8215 34.0721 35.4569 35.6156C36.5362 36.053 37.2199 36.2133 38.0927 35.5756C38.5655 35.2303 39.9712 34.153 41.2589 33.1623C42.0954 32.5188 42.8936 31.904 43.4829 31.4509C44.3684 30.7472 44.9395 30.2932 44.9395 30.2932C44.9395 30.2932 44.9485 30.286 44.9657 30.2725C44.9744 30.2658 44.9852 30.2573 44.9981 30.2469C45.0067 30.2352 44.9836 30.2119 44.9756 30.1908C44.9284 30.1019 44.8591 29.9707 44.7703 29.8037C44.5934 29.47 44.3395 28.9909 44.0303 28.4084C43.8774 28.1174 43.6975 27.8022 43.5132 27.4658C43.4201 27.2979 43.3239 27.1254 43.2256 26.948C43.1689 26.8488 43.1109 26.7473 43.0518 26.6436C42.8379 26.2726 42.6064 25.8716 42.3697 25.4612C41.4216 23.8535 40.3876 22.0994 40.0433 21.5156C39.4041 20.4522 38.7476 20.2546 37.6424 20C37.5339 21.6274 37.5891 22.667 38.2083 23.7789C38.4206 24.1624 38.9156 25.0076 39.4886 25.9812C38.8638 25.7638 38.2388 25.5784 37.615 25.4127C35.1857 24.7947 32.7635 24.4835 30.3514 24.3241C27.9335 24.162 25.548 24.1494 23.1329 24.2154C22.3553 24.2473 21.5765 24.2904 20.7976 24.3659C20.7976 24.3659 20.2835 24.4525 19.5219 24.6151C18.7604 24.779 17.7531 25.0242 16.7681 25.3098C14.7965 25.881 12.918 26.5668 13.0881 26.5654C9.95916 27.8412 8.02023 29.2594 13.2502 28.8746Z" fill="white"/>
</svg>
