<svg width="24" height="25" viewBox="0 0 24 25" fill="none" xmlns="http://www.w3.org/2000/svg">
<path d="M11.0314 13.0877C10.7055 13.565 10.3932 14.0512 10.0931 14.545C9.37283 12.429 8.65255 10.3131 7.93227 8.19709C7.75995 7.69094 7.2204 7.30424 6.67225 7.48166C6.16978 7.64422 5.77198 8.19856 5.95682 8.74167C6.92978 11.5999 7.90274 14.4581 8.87564 17.3164C9.00916 17.7086 9.30708 17.9936 9.72723 18.0501C10.1129 18.1019 10.5603 17.9236 10.7478 17.561C11.2824 16.5278 11.8705 15.5228 12.5114 14.5519C12.8286 14.0713 13.1584 13.599 13.5003 13.1357C13.5892 13.0153 13.6789 12.8954 13.7694 12.7761C13.8057 12.7282 13.8436 12.6812 13.8792 12.6327C13.8947 12.6128 13.9102 12.5929 13.9257 12.5731C14.1033 12.3465 14.2839 12.1221 14.4673 11.9002C15.9495 10.107 17.6194 8.4688 19.4423 7.02314C19.5045 6.97385 19.5668 6.92486 19.6293 6.87605C19.6206 6.88238 19.6282 6.87611 19.671 6.84346C19.6764 6.83934 19.6819 6.83529 19.6873 6.83112C19.6964 6.82412 19.7055 6.81718 19.7142 6.80988C19.7093 6.81399 19.7036 6.81865 19.6976 6.82338C19.817 6.7324 19.9366 6.64167 20.0572 6.5521C20.316 6.35977 20.5777 6.1713 20.842 5.98671C21.3898 5.60431 21.9495 5.23935 22.5195 4.89091C22.9765 4.61146 23.1908 3.9608 22.887 3.48945C22.5912 3.03069 21.9746 2.82288 21.4855 3.12197C19.4186 4.3858 17.4808 5.87565 15.7265 7.54649C13.971 9.21855 12.3984 11.0859 11.0314 13.0877Z" fill="#4169E3"/>
<path d="M1.90071 19.8495C2.9374 21.343 4.37808 22.5446 6.03823 23.2893C7.70311 24.0361 9.53902 24.4206 11.3667 24.2707C13.2002 24.1204 14.963 23.5009 16.4276 22.3757C19.4466 20.0562 21.0506 16.1926 20.5121 12.4186C20.454 12.0122 20.3683 11.6117 20.2537 11.2175C20.1042 10.7034 19.5253 10.3301 18.9937 10.5021C18.4717 10.671 18.1181 11.2109 18.2783 11.7621C18.3936 12.1589 18.4618 12.558 18.5366 12.9632C18.472 12.6132 18.5335 12.96 18.5412 13.0386C18.5507 13.1353 18.5585 13.2322 18.5647 13.3292C18.5784 13.5426 18.5842 13.7565 18.5825 13.9703C18.5809 14.1648 18.573 14.3592 18.559 14.5532C18.552 14.6503 18.5434 14.7472 18.5334 14.844C18.5294 14.8828 18.5251 14.9214 18.5206 14.9602C18.52 14.9653 18.5193 14.9704 18.5187 14.9756C18.4575 15.3621 18.3812 15.7445 18.2776 16.1222C18.1685 16.5205 18.0049 16.8954 17.879 17.2867C17.9783 16.9778 17.8783 17.2858 17.8422 17.3651C17.8017 17.4541 17.76 17.5426 17.7169 17.6304C17.6264 17.8148 17.5304 17.9964 17.4288 18.1749C17.2307 18.523 17.0118 18.8592 16.7729 19.1807C16.769 19.1858 16.7641 19.1922 16.7588 19.199C16.7684 19.1873 16.7792 19.1742 16.7912 19.1596C16.7664 19.1897 16.7429 19.2209 16.7186 19.2513C16.6576 19.3274 16.5955 19.4025 16.5323 19.4767C16.3934 19.6398 16.2489 19.7981 16.0991 19.9512C15.9631 20.0902 15.8228 20.2251 15.6781 20.3552C15.6059 20.4202 15.5326 20.4841 15.4583 20.5468C15.3886 20.6055 15.0755 20.8308 15.3476 20.6425C15.0262 20.8648 14.7168 21.0943 14.3761 21.2884C14.2065 21.3851 14.0333 21.4758 13.8572 21.5603C13.7781 21.5982 13.698 21.6339 13.6179 21.6699C13.5648 21.6907 13.512 21.7119 13.4586 21.732C13.0796 21.8754 12.6898 21.9908 12.2941 22.0782C12.106 22.1198 11.9165 22.1552 11.7261 22.1845C11.688 22.1903 11.6497 22.1951 11.6117 22.2013C11.6324 22.1979 11.6508 22.195 11.6673 22.1923C11.6628 22.1929 11.6584 22.1934 11.6546 22.1939C11.5493 22.2059 11.4437 22.2161 11.338 22.2244C10.9435 22.2557 10.547 22.2613 10.1517 22.2428C9.95856 22.2338 9.76561 22.2188 9.57334 22.1982C9.48451 22.1887 9.16123 22.1207 9.49991 22.1915C9.38671 22.1679 9.2697 22.1565 9.1557 22.136C8.75502 22.0642 8.35869 21.9678 7.96973 21.8476C7.79372 21.7933 7.61925 21.734 7.4465 21.6701C7.36375 21.6395 7.28149 21.6075 7.19953 21.5746C7.20985 21.5797 7.22016 21.5846 7.23213 21.5905C7.2147 21.5819 7.19671 21.5744 7.17891 21.5666C7.17774 21.5661 7.17651 21.5657 7.17535 21.5652C7.16221 21.5599 7.14686 21.553 7.13231 21.5461C7.1123 21.5377 7.09216 21.5294 7.07246 21.5205C6.70173 21.3542 6.34119 21.1651 5.99403 20.9539C5.82902 20.8535 5.66707 20.7482 5.5085 20.6379C5.42931 20.5829 5.35092 20.5266 5.2735 20.4691C5.26804 20.465 5.25521 20.4552 5.24072 20.4442C5.20843 20.4186 5.17135 20.3892 5.1611 20.3808C4.85464 20.1315 4.56433 19.8625 4.29367 19.5747C4.16156 19.4342 4.03412 19.2893 3.91183 19.1402C3.89544 19.1203 3.87935 19.1001 3.86321 19.0799C3.80649 18.9884 3.73141 18.9039 3.66995 18.8155C3.40089 18.4281 3.16497 18.0172 2.96029 17.5924C2.90897 17.486 2.86078 17.3782 2.81222 17.2704C2.79454 17.2313 2.78576 17.2125 2.78251 17.2062C2.7725 17.1768 2.76329 17.1475 2.75347 17.1221C2.65961 16.8797 2.57508 16.6337 2.49981 16.3849C2.36249 15.9311 2.25585 15.4682 2.17783 15.0006C2.1661 14.9302 2.15585 14.8596 2.14455 14.7892C2.11484 14.6034 2.14492 14.8276 2.15167 14.8494C2.11809 14.7414 2.12227 14.6074 2.11097 14.4945C2.08494 14.2334 2.06733 13.9714 2.05781 13.7091C2.03958 13.2076 2.051 12.705 2.08998 12.2047C2.10778 11.9768 2.10637 11.7144 2.16432 11.4925C2.15824 11.5159 2.12816 11.7374 2.1572 11.5524C2.16831 11.4818 2.17844 11.4111 2.18992 11.3406C2.20975 11.2183 2.2313 11.0963 2.25444 10.9745C2.33836 10.5336 2.4442 10.0969 2.57146 9.66644C2.6337 9.45594 2.70129 9.24703 2.77392 9.0399C2.8102 8.93634 2.84789 8.83321 2.88681 8.73063C2.90596 8.68022 3.00296 8.50256 3.02807 8.41036C3.01002 8.46653 2.96207 8.5262 3.00634 8.42656C3.01524 8.40655 3.02408 8.3866 3.03292 8.36652C3.03273 8.3656 3.0328 8.36438 3.03255 8.36358C3.0328 8.36438 3.03279 8.36542 3.03304 8.36628C3.05066 8.32619 3.06816 8.28604 3.08621 8.24614C3.13133 8.14638 3.17774 8.04712 3.2255 7.94859C3.32562 7.74201 3.43146 7.5382 3.54313 7.33758C3.7602 6.94776 3.99925 6.57009 4.2607 6.20851C4.28649 6.17284 4.31282 6.1376 4.33898 6.10224C4.33763 6.10273 4.33621 6.10347 4.33486 6.10384C4.33621 6.10347 4.33775 6.10261 4.33916 6.10206C4.35168 6.08518 4.36408 6.06829 4.37648 6.05135C4.42903 5.97952 4.42099 6.01599 4.39294 6.05491C4.44598 5.99199 4.50823 5.88738 4.53849 5.85091C4.69037 5.6681 4.84869 5.49062 5.01315 5.3191C5.16245 5.16335 5.31691 5.0124 5.4764 4.86703C5.55614 4.79434 5.63705 4.72295 5.71931 4.65309C5.78347 4.59857 5.98875 4.48531 6.01828 4.41311C6.05395 4.3869 6.08949 4.36057 6.12553 4.3349C6.21387 4.27198 6.30331 4.21065 6.39386 4.15104C6.57048 4.03477 6.75115 3.92458 6.9363 3.82243C7.11648 3.72304 7.30064 3.63089 7.48812 3.54611C7.50052 3.54046 7.51919 3.53279 7.53846 3.52512C7.5198 3.53224 7.49733 3.54077 7.47038 3.55102C7.50887 3.53641 7.54675 3.51965 7.585 3.50449C7.7001 3.45876 7.81625 3.41578 7.93332 3.37539C8.34346 3.23383 8.76515 3.12517 9.19254 3.05021C9.274 3.03591 9.63049 2.99398 9.28775 3.03069C9.3904 3.0197 9.49255 3.00601 9.59537 2.99656C9.81073 2.97673 10.0269 2.96549 10.2431 2.96291C10.4484 2.96046 10.6537 2.96574 10.8585 2.97912C10.9504 2.98514 11.0421 2.99263 11.1338 3.0019C11.1666 3.00521 11.2004 3.01061 11.234 3.0151C11.2525 3.01614 11.2712 3.0178 11.2865 3.02019C11.2878 3.02037 11.289 3.02062 11.2903 3.0208C11.2991 3.02142 11.3078 3.02228 11.3165 3.02246C11.3099 3.02234 11.3038 3.02216 11.2978 3.02203C11.7145 3.08833 12.1263 3.18987 12.5249 3.32855C12.6055 3.35654 12.6849 3.38718 12.7645 3.41744C12.8076 3.43819 12.855 3.4547 12.8974 3.47429C13.0986 3.5676 13.2951 3.67098 13.4856 3.78461C13.6413 3.87755 13.7927 3.97762 13.9397 4.08401C13.9358 4.07977 13.9325 4.07609 13.9284 4.07148C13.9336 4.0775 13.94 4.08302 13.9462 4.08867C13.9527 4.0934 13.9594 4.098 13.9659 4.10273C13.9786 4.11212 13.9904 4.12237 14.0004 4.13214C14.0166 4.14392 14.0327 4.15559 14.0471 4.16756C14.1337 4.23944 14.2178 4.31403 14.3006 4.39034C14.6947 4.75346 15.3645 4.80938 15.7492 4.39034C16.1119 3.99524 16.17 3.32953 15.7492 2.94174C12.7686 0.195607 7.96506 0.362094 4.83077 2.75922C1.51752 5.29325 -0.139927 9.59928 0.00924893 13.7092C0.0869678 15.8604 0.662368 18.0655 1.90071 19.8495ZM2.83205 17.3195C2.81376 17.2917 2.7997 17.2566 2.78718 17.2208C2.79952 17.2505 2.8253 17.3093 2.83205 17.3195ZM5.96782 4.44976C5.98071 4.44043 5.99354 4.43104 6.00637 4.42165C5.96358 4.45768 5.84338 4.5397 5.96782 4.44976Z" fill="#4169E3"/>
</svg>
