<svg width="77" height="77" viewBox="0 0 77 77" fill="none" xmlns="http://www.w3.org/2000/svg">
<path d="M74.0864 38.1522C74.1651 37.6323 73.7903 37.0959 73.2561 37.0312C69.0086 36.513 64.7611 35.9949 60.5129 35.4775C56.1937 34.9517 51.8758 34.4245 47.5564 33.8973C43.3125 33.3798 39.0679 32.8629 34.824 32.3453C34.0095 32.2456 33.1942 32.1452 32.3798 32.0469C31.8463 31.9829 31.3401 32.3338 31.258 32.8766C31.1799 33.3957 31.5542 33.9342 32.0877 33.9983C36.2474 34.4996 40.4068 35.0101 44.5661 35.5191C48.8684 36.0456 53.1706 36.5693 57.4736 37.0936C61.7537 37.6146 66.0339 38.1356 70.3142 38.6595C71.1984 38.7676 72.0819 38.875 72.9654 38.9825C73.3026 39.0236 73.6278 38.8989 73.8431 38.6648C73.969 38.5265 74.0566 38.353 74.0864 38.1522Z" fill="black"/>
<path d="M74.8859 38.0288C74.851 37.498 74.3729 37.0665 73.8382 37.1086C69.512 37.4501 65.1863 37.803 60.8603 38.1487C56.5688 38.4923 52.2774 38.8358 47.9867 39.1801C43.8202 39.5149 39.6543 39.849 35.487 40.1817C33.0902 40.3739 30.692 40.5662 28.2938 40.7584C27.7584 40.8013 27.3382 41.2641 27.3736 41.8061C27.4071 42.3369 27.8853 42.7699 28.422 42.7269C32.4454 42.403 36.4681 42.0813 40.4929 41.7588C44.7285 41.4182 48.9635 41.0798 53.1985 40.74C57.4948 40.3955 61.7912 40.051 66.0861 39.7066C68.7137 39.497 71.3388 39.2825 73.9657 39.0751C74.2267 39.0542 74.4609 38.934 74.6274 38.753C74.8028 38.5638 74.9046 38.3068 74.8859 38.0288Z" fill="black"/>
<path d="M75.3839 37.8035C75.6211 37.33 75.4288 36.7103 74.9429 36.4794C73.1557 35.6277 71.2904 34.9569 69.4395 34.2586C67.4995 33.5272 65.5517 32.8131 63.6141 32.0718C59.631 30.5468 55.7157 28.8492 51.7581 27.258C49.7231 26.4393 47.6751 25.6629 45.5898 24.9787C45.0624 24.8061 44.533 24.652 44.0007 24.498C43.7908 24.4381 43.582 24.386 43.3698 24.3376C43.109 24.2784 42.8484 24.2072 42.5841 24.1651C42.3084 24.1222 42.0327 24.0792 41.757 24.0362C41.435 23.986 41.1059 23.9686 40.7819 23.9369C40.2518 23.8854 39.715 23.8795 39.1855 23.9427C38.5334 24.0209 37.9319 24.2421 37.3966 24.6248C36.9073 24.975 36.5383 25.4766 36.1599 25.9397C35.8872 26.2731 35.6146 26.608 35.3419 26.9414C34.8511 27.5415 34.3573 28.139 33.8657 28.7384C33.3855 29.3226 32.9076 29.9101 32.4032 30.4733C32.0988 30.8116 31.7843 31.1418 31.4924 31.4902C31.2848 31.7381 31.1284 32.0277 31.1501 32.3601C31.1683 32.6255 31.2929 32.8637 31.4872 33.0424C31.8824 33.406 32.5304 33.3484 32.879 32.9517C32.9385 32.8841 32.9864 32.8113 33.0228 32.7348C33.2414 32.478 33.4739 32.2326 33.6998 31.9811C33.9547 31.6965 34.2037 31.408 34.4535 31.1187C34.8821 30.6202 35.2937 30.1062 35.712 29.5983C36.0925 29.1344 36.473 28.6719 36.8528 28.2087C37.0918 27.9164 37.3302 27.6247 37.5693 27.3338C37.8386 27.004 38.1012 26.6682 38.397 26.3614C38.446 26.3141 38.4971 26.2688 38.5498 26.2248C38.6034 26.1858 38.6592 26.1488 38.7157 26.1139C38.7607 26.0886 38.8078 26.0654 38.855 26.0436C38.9219 26.0168 38.9903 25.9941 39.0587 25.9728C39.1708 25.9455 39.2824 25.9231 39.3969 25.9035C39.5668 25.8858 39.7341 25.8752 39.9051 25.8695C40.4236 25.8804 40.9369 25.9354 41.4528 25.9846C41.7299 26.0275 42.0062 26.0697 42.2826 26.1134C42.4522 26.1403 42.6213 26.1898 42.7871 26.2282C42.9478 26.2646 43.1079 26.3018 43.268 26.3376C43.6927 26.4592 44.1214 26.5737 44.5426 26.7111C45.0599 26.8798 45.5793 27.0464 46.0935 27.2259C47.1113 27.5832 48.1265 27.9463 49.1316 28.3381C51.1884 29.1389 53.2273 29.9829 55.2701 30.8197C57.1876 31.6051 59.0963 32.4177 61.0241 33.18C63.0262 33.9725 65.0486 34.7104 67.0633 35.4697C68.0427 35.8393 69.0227 36.2067 70.0014 36.5784C70.9276 36.9289 71.8566 37.2779 72.77 37.6615C73.2039 37.8472 73.6345 38.0408 74.0612 38.2445C74.4641 38.4357 74.9415 38.3422 75.2319 38.0264C75.29 37.9617 75.3421 37.8873 75.3839 37.8035Z" fill="black"/>
<path d="M75.5539 38.2303C75.7489 37.7303 75.4435 37.1464 74.9493 36.9732C74.5414 36.8303 74.1214 36.9752 73.864 37.286C73.8713 37.2737 73.8779 37.2621 73.8851 37.2498C73.8818 37.2535 73.8791 37.2564 73.8749 37.2594C73.9028 37.232 73.9314 37.204 73.9592 37.1766C73.9798 37.1616 73.999 37.1467 74.019 37.1324C73.88 37.2288 73.7372 37.3175 73.5937 37.4056C73.2186 37.6081 72.8401 37.7981 72.4559 37.9854C72.0702 38.1728 71.667 38.3305 71.2713 38.4978C70.7561 38.6828 70.2415 38.8685 69.7263 39.0549C69.5694 39.1117 69.4078 39.156 69.2478 39.2059C68.8622 39.3267 68.4773 39.4468 68.0917 39.5677C67.1577 39.8608 66.221 40.1392 65.286 40.426C63.1227 41.0897 60.9576 41.7478 58.7845 42.3821C56.8135 42.9578 54.8226 43.4621 52.843 44.0028C50.7851 44.5651 48.7371 45.161 46.6789 45.7176C44.9735 46.1789 43.2639 46.6254 41.5499 47.0517C41.5919 47.0414 41.6332 47.0305 41.6753 47.0202C39.5112 47.5488 37.3476 48.0723 35.1987 48.6569C34.2372 48.9193 33.2825 49.2069 32.322 49.4756C31.2384 49.7778 30.1538 50.0737 29.0652 50.3605C28.4254 50.5288 27.7832 50.6909 27.1416 50.8507C25.984 51.127 24.8238 51.3928 23.6565 51.6235C23.0718 51.7392 22.4869 51.8493 21.9004 51.9552C21.6391 52.0029 21.3786 52.0527 21.1173 52.1004C21.1252 52.0859 21.1338 52.0707 21.1417 52.0563C21.5671 51.347 22.0174 50.6566 22.4988 49.9839C23.0091 49.2726 23.5353 48.5719 24.0624 47.8718C25.0688 46.5353 26.0672 45.1928 27.0905 43.8705C27.0878 43.8734 27.0858 43.877 27.0824 43.8807C27.4022 43.471 27.7103 43.037 28.0762 42.6657C28.4537 42.282 28.3791 41.6156 27.9932 41.2729C27.8022 41.1039 27.5464 41.0141 27.2914 41.0255C27.018 41.0376 26.7891 41.164 26.6004 41.3559C26.3987 41.5603 26.2215 41.79 26.0426 42.014C25.7413 42.3918 25.4459 42.775 25.152 43.1581C24.5579 43.931 23.9778 44.714 23.3903 45.4915C22.1389 47.1475 20.8543 48.7865 19.7494 50.5447C19.624 50.7446 19.503 50.9485 19.3877 51.1536C19.1565 51.566 18.9145 51.9724 18.7642 52.4239C18.607 52.8947 18.6762 53.5005 19.0636 53.8459C19.2694 54.0284 19.5072 54.1466 19.7764 54.2039C20.0291 54.2571 20.2891 54.2299 20.5418 54.196C21.0077 54.1341 21.4723 54.0396 21.9344 53.9552C22.4689 53.8571 23.0034 53.7591 23.5377 53.6568C25.5529 53.2739 27.5506 52.7962 29.5345 52.2744C31.1061 51.8613 32.6711 51.4271 34.2342 50.9817C35.7148 50.5582 37.2006 50.1585 38.6921 49.7762C40.8148 49.2586 42.9392 48.7452 45.0535 48.194C47.1705 47.6412 49.2758 47.0436 51.3806 46.4511C53.3538 45.8951 55.3382 45.3847 57.3147 44.8399C59.383 44.2708 61.4406 43.6689 63.4901 43.0404C65.6346 42.3824 67.7817 41.735 69.9207 41.0638C70.3692 40.9233 70.809 40.7613 71.2517 40.6019C71.479 40.5203 71.7056 40.4379 71.9336 40.3555C72.2445 40.2434 72.5463 40.0984 72.8501 39.9675C73.3021 39.7745 73.7491 39.5648 74.1816 39.3294C74.4314 39.1937 74.6762 39.0561 74.917 38.908C75.0736 38.8116 75.2172 38.7086 75.3343 38.5813C75.4257 38.4805 75.5009 38.3663 75.5539 38.2303Z" fill="black"/>
<path d="M36.0352 40.6154C36.1548 40.3775 36.1578 40.1276 36.0948 39.874C36.0728 39.7872 36.0501 39.7025 36.0288 39.6149C36.039 39.6569 36.0493 39.699 36.0595 39.741C35.8252 38.7904 35.5105 37.8666 35.1756 36.9471C34.9294 36.2723 34.6783 35.5998 34.4113 34.933C34.1409 34.2564 33.8518 33.5869 33.5759 32.912C33.575 32.9085 33.5735 32.9057 33.5726 32.9022C33.5754 32.8844 33.5768 32.8652 33.5788 32.8467C33.6225 32.3176 33.2124 31.8181 32.6766 31.7832C32.497 31.7716 32.3278 31.8021 32.1639 31.8769C31.8958 31.9985 31.7278 32.2298 31.625 32.4967C31.5037 32.8117 31.5846 33.1728 31.6852 33.48C31.7444 33.6594 31.8226 33.8374 31.8964 34.0112C32.1513 34.6071 32.3985 35.204 32.6402 35.8053C32.9866 36.6946 33.3206 37.5901 33.6329 38.4928C33.8262 39.0537 34.0028 39.6196 34.145 40.1961C34.1384 40.1723 34.1332 40.1485 34.1273 40.1254C34.1561 40.2403 34.1857 40.3558 34.2153 40.4713C34.3475 40.9923 34.9641 41.2688 35.4531 41.1139C35.6186 41.061 35.7667 40.9649 35.8832 40.8383C35.9427 40.7721 35.9947 40.6963 36.0352 40.6154Z" fill="black"/>
<path d="M73.2139 38.1052C72.9809 37.6096 72.3931 37.4155 71.9012 37.6328C70.0235 38.4615 68.1947 39.4085 66.3928 40.3882C65.4648 40.892 64.5344 41.3909 63.5963 41.8732C62.6527 42.3585 61.7005 42.8251 60.7537 43.3034C58.8963 44.2417 57.0695 45.238 55.2142 46.1783C53.298 47.1494 51.3746 48.1018 49.4767 49.1061C48.0295 49.8715 46.5807 50.6298 45.1011 51.3315C44.3829 51.6722 43.6592 52.0025 42.9388 52.3412C42.2356 52.6714 41.5417 53.0167 40.83 53.3296C40.607 53.4125 40.3829 53.4863 40.1534 53.5482C40.0853 53.5631 40.0165 53.5745 39.9468 53.5838C39.92 53.5863 39.8931 53.5874 39.8656 53.5879C39.8422 53.5867 39.8188 53.5856 39.7954 53.5844C39.7868 53.5834 39.7776 53.5816 39.769 53.5806C39.7604 53.5781 39.7518 53.5756 39.7439 53.5724C39.749 53.5743 39.7533 53.577 39.7583 53.5789L39.7562 53.5783C39.7367 53.5699 39.7179 53.5594 39.6991 53.5502C39.6693 53.531 39.6387 53.511 39.6095 53.4896C39.5721 53.4579 39.5354 53.4255 39.4993 53.3923C38.9581 52.8211 38.4522 52.2145 37.9403 51.6188C37.3935 50.9813 36.8652 50.3297 36.3396 49.675C36.0029 49.2553 35.3444 49.2312 34.9482 49.5733C34.5302 49.9333 34.5104 50.5456 34.8464 50.9647C35.528 51.813 36.2206 52.651 36.9343 53.4733C37.2675 53.8571 37.6005 54.2395 37.9425 54.6152C38.2956 55.0038 38.7101 55.3199 39.2162 55.4742C39.8069 55.6548 40.4259 55.5298 41.0034 55.3599C41.655 55.1684 42.2737 54.8517 42.8849 54.5579C43.3422 54.3385 43.7986 54.1185 44.2574 53.9032C45.232 53.4464 46.2104 52.9971 47.1749 52.5201C48.0971 52.064 49.0063 51.5837 49.9168 51.1033C50.9153 50.576 51.9176 50.055 52.9238 49.5416C53.8822 49.0536 54.846 48.5773 55.8052 48.0914C56.7387 47.6171 57.663 47.1262 58.5903 46.6395C60.4635 45.6546 62.3568 44.7099 64.2468 43.7554C66.0676 42.8364 67.8332 41.815 69.6548 40.8994C70.6744 40.3862 71.6986 39.8798 72.7437 39.4186C72.8604 39.367 72.9614 39.2927 73.0446 39.2022C73.3072 38.9138 73.3855 38.4682 73.2139 38.1052Z" fill="black"/>
<path d="M19.4407 17.2871L24.8219 25.159" stroke="black" stroke-width="1.5" stroke-linecap="round"/>
<path d="M10.5462 29.4272L20.3309 32.8745" stroke="black" stroke-width="1.5" stroke-linecap="round"/>
<path d="M7.96109 45.7461L16.9892 41.8753" stroke="black" stroke-width="1.5" stroke-linecap="round"/>
</svg>
