<svg width="65" height="53" viewBox="0 0 65 53" fill="none" xmlns="http://www.w3.org/2000/svg">
<path d="M27.3484 52.8715C27.2372 52.8699 27.1268 52.8707 27.0163 52.8707C26.7363 52.8715 26.4563 52.8723 26.1778 52.8547C25.645 52.8211 25.1121 52.7875 24.5784 52.7539C24.456 52.7459 24.336 52.7275 24.2144 52.7107C23.9095 52.6683 23.6039 52.6259 23.2991 52.5835C23.107 52.5563 22.9142 52.5299 22.723 52.5035C22.551 52.4795 22.3789 52.4291 22.2093 52.3923C21.7893 52.3003 21.3604 52.2259 20.946 52.109C20.4315 51.965 19.9178 51.8202 19.4042 51.677C19.0745 51.5842 18.7513 51.469 18.4288 51.3545C17.8344 51.1441 17.2503 50.9041 16.6758 50.6464C15.5493 50.1424 14.4707 49.5351 13.4338 48.8678C12.4313 48.2221 11.4752 47.4892 10.6262 46.6515C9.80454 45.841 9.09485 44.9145 8.52037 43.9136C7.9059 42.8423 7.42023 41.7069 7.05939 40.5268C6.69774 39.3418 6.48971 38.1209 6.3729 36.8887C6.31769 36.3062 6.29209 35.7189 6.28569 35.1333C6.27929 34.6252 6.27129 34.1099 6.31529 33.6035C6.3609 33.0754 6.4073 32.5473 6.45291 32.0193C6.48651 31.6312 6.55612 31.2472 6.61533 30.8623C6.67374 30.4855 6.72174 30.1054 6.80256 29.7326C6.91697 29.2085 7.03219 28.6836 7.1458 28.1596C7.23621 27.7443 7.36583 27.3347 7.47704 26.9242C7.56905 26.5874 7.65306 26.2489 7.76348 25.9177C7.9379 25.3912 8.11312 24.8656 8.28754 24.3391C8.40356 23.9902 8.55158 23.651 8.686 23.3094C8.83562 22.9317 8.96763 22.5437 9.13805 22.1756C9.36768 21.6787 9.59651 21.1819 9.82614 20.685C9.96136 20.393 10.107 20.1145 10.2606 19.8321C10.5038 19.384 10.7479 18.9352 10.9911 18.4871C11.2239 18.0591 11.4944 17.647 11.7592 17.2382C12.1088 16.6997 12.4825 16.1756 12.8705 15.6636C14.3283 13.7409 16.0645 12.0463 18.0168 10.6277C19.9946 9.19154 22.2029 8.10181 24.5176 7.32731C25.1953 7.10008 25.881 6.91045 26.5763 6.74803C27.0547 6.63682 27.534 6.52641 28.0125 6.4144C28.1325 6.38639 28.2581 6.37279 28.3789 6.35199C28.6902 6.29918 29.0014 6.24637 29.3126 6.19357C29.5535 6.15276 29.7951 6.11196 30.0367 6.07115C30.4112 6.00714 30.7904 5.97033 31.1689 5.93352C31.7722 5.87512 32.3762 5.84232 32.9811 5.82952C33.3988 5.82072 33.818 5.81351 34.2349 5.83592C34.7333 5.86312 35.231 5.89113 35.7295 5.91753C35.9079 5.92713 36.0879 5.95993 36.2655 5.98073C36.5568 6.01514 36.848 6.04954 37.14 6.08395C37.2761 6.10075 37.4105 6.12875 37.5449 6.15275C37.8153 6.20236 38.0858 6.25116 38.3554 6.30077C38.8483 6.39038 39.3419 6.53281 39.8108 6.70883C40.2844 6.88725 40.7205 7.15288 41.0717 7.51853C41.1838 7.63454 41.2454 7.78177 41.2622 7.93459C42.4071 8.45065 43.5289 9.01313 44.6298 9.6196C45.3907 10.0389 46.11 10.5181 46.7973 11.0478C47.1333 11.307 47.4542 11.5839 47.7726 11.8647C48.083 12.1391 48.3879 12.4408 48.6623 12.7512C49.2256 13.3865 49.7593 14.045 50.2489 14.7387C50.4977 15.0907 50.7538 15.4411 50.9826 15.806C51.2074 16.166 51.4251 16.5285 51.6395 16.8957C52.0883 17.663 52.4628 18.4727 52.8228 19.2848C53.1797 20.0873 53.4853 20.909 53.783 21.7355C54.0662 22.5212 54.303 23.3278 54.5127 24.1359C54.6279 24.5783 54.7319 25.0224 54.8335 25.4688C54.8671 25.6184 54.8967 25.7689 54.9255 25.9209C54.9695 26.1473 55.0207 26.3745 55.0559 26.6026C55.1231 27.0394 55.1975 27.4747 55.2479 27.9131C55.276 28.1636 55.3048 28.4132 55.3328 28.6636C55.3584 28.8901 55.3608 29.1213 55.3744 29.3493C55.4008 29.8006 55.3984 30.2518 55.4024 30.7039C55.404 30.8687 55.3904 31.0351 55.3832 31.1992C55.3736 31.404 55.3736 31.6112 55.3528 31.8144C55.308 32.2553 55.2736 32.6985 55.2031 33.1354C55.1615 33.3954 55.1191 33.6555 55.0767 33.9147C55.0447 34.1147 54.9895 34.3132 54.9463 34.51C54.7591 35.3517 54.5199 36.1718 54.1998 36.9735C54.0126 37.4432 53.8094 37.9176 53.5621 38.3593C53.4373 38.5817 53.3125 38.8041 53.1869 39.0258C53.1005 39.1786 53.0205 39.3378 52.9261 39.4858C52.778 39.7187 52.63 39.9523 52.482 40.1851C52.25 40.5524 51.9995 40.906 51.7499 41.2628C51.5059 41.6117 51.2482 41.9469 50.9866 42.2838C50.8426 42.4678 50.6994 42.6534 50.5553 42.8382C50.2177 43.2711 49.8401 43.6792 49.46 44.0744C48.6695 44.8969 47.7918 45.6282 46.8877 46.3219C46.5668 46.5675 46.2508 46.822 45.918 47.0516C45.6803 47.2156 45.4427 47.3796 45.2043 47.5445C45.0691 47.6373 44.937 47.7373 44.7978 47.8245C44.3746 48.0861 43.9521 48.3478 43.5289 48.6102C43.1408 48.8502 42.7303 49.0574 42.3319 49.2791C41.9951 49.4655 41.6526 49.6319 41.3046 49.7991C40.9429 49.9728 40.5853 50.152 40.2148 50.3064C39.7404 50.5048 39.2651 50.7025 38.7906 50.9001C38.6754 50.9481 38.553 50.9841 38.4354 51.0249C38.1338 51.1305 37.8321 51.2353 37.5305 51.3409C37.3753 51.3953 37.22 51.4498 37.0648 51.5034C36.8808 51.5674 36.6848 51.6082 36.496 51.6602C36.2103 51.7386 35.9255 51.817 35.6398 51.8954C35.4998 51.9338 35.359 51.9818 35.2166 52.0098C34.7077 52.1122 34.1989 52.2155 33.69 52.3179C33.3123 52.3947 32.9283 52.4403 32.5474 52.4963C32.1674 52.5523 31.7882 52.6155 31.4049 52.6523C30.904 52.7011 30.404 52.7499 29.9047 52.7971C29.7551 52.8115 29.6023 52.8107 29.4519 52.8171C29.1302 52.8315 28.8078 52.8459 28.4861 52.8603C28.2629 52.8707 28.0397 52.8731 27.8172 52.8731C27.6628 52.8739 27.506 52.8723 27.3484 52.8715ZM27.1972 51.2929C27.4972 51.2945 27.7972 51.2969 28.0973 51.2993C28.6581 51.2737 29.2182 51.2497 29.7783 51.2241C30.0695 51.2105 30.3632 51.1673 30.6536 51.1393C30.9448 51.1113 31.2369 51.0841 31.5281 51.0545C31.977 50.9881 32.425 50.9217 32.8739 50.8561C33.2675 50.7985 33.6548 50.7153 34.0444 50.636C34.4301 50.5584 34.8165 50.4872 35.1958 50.3824C35.6478 50.2584 36.1015 50.1336 36.5536 50.0104C37.1208 49.8135 37.6865 49.6143 38.2522 49.4167C38.5034 49.3287 38.7482 49.2103 38.9939 49.1078C39.2595 48.9974 39.5259 48.8862 39.7916 48.7758C40.286 48.5366 40.7805 48.2981 41.275 48.0613C41.5078 47.9501 41.7302 47.8093 41.955 47.6837C42.1879 47.5549 42.4207 47.426 42.6527 47.2964C43.0032 47.0804 43.352 46.8628 43.7025 46.6459C44.0009 46.4619 44.2865 46.2595 44.5746 46.0603C44.8466 45.873 45.1211 45.6898 45.3835 45.489C45.7091 45.2394 46.0356 44.9897 46.3612 44.7401C46.6068 44.5345 46.8509 44.3288 47.0957 44.1232C47.451 43.8256 47.7902 43.5151 48.1206 43.1903C48.6063 42.6982 49.0704 42.183 49.4944 41.6365C49.7272 41.3365 49.9609 41.0372 50.1937 40.7364C50.4473 40.3747 50.7002 40.0123 50.953 39.6506C51.0578 39.5002 51.1506 39.3402 51.249 39.1842C51.3731 38.989 51.4971 38.7937 51.6203 38.5985C51.7523 38.3633 51.8851 38.128 52.0171 37.8936C52.2844 37.4184 52.5164 36.9255 52.7244 36.4214C52.9485 35.851 53.1357 35.2717 53.2925 34.6796C53.3677 34.342 53.4429 34.0043 53.5173 33.6667C53.5501 33.5203 53.5661 33.369 53.5901 33.2218C53.6213 33.0314 53.6517 32.841 53.6822 32.6505C53.7086 32.3889 53.735 32.1281 53.7622 31.8664C53.7854 31.6432 53.7926 31.42 53.8022 31.196C53.8126 30.9735 53.827 30.7511 53.8246 30.5279C53.8222 30.271 53.8198 30.0134 53.8182 29.7558C53.799 29.4357 53.7798 29.1157 53.7606 28.7965C53.751 28.6436 53.7262 28.4908 53.7086 28.3388C53.6886 28.1652 53.6694 27.9916 53.6493 27.8179C53.6029 27.5179 53.5573 27.2187 53.5109 26.9194C53.4605 26.593 53.3861 26.2697 53.3245 25.9457C53.2029 25.3168 53.0317 24.6959 52.8692 24.0767C52.678 23.4302 52.4844 22.7845 52.2556 22.15C52.0051 21.4563 51.7379 20.7714 51.4563 20.0905C51.2746 19.6817 51.089 19.2752 50.8986 18.8696C50.7122 18.4727 50.4961 18.0895 50.2873 17.7038C50.0353 17.2734 49.7808 16.8469 49.5016 16.4325C49.1968 15.9788 48.8775 15.5364 48.5535 15.0955C48.3271 14.8043 48.0974 14.5162 47.863 14.2314C47.6286 13.9458 47.3693 13.6809 47.1133 13.4153C46.8621 13.1761 46.6084 12.9432 46.3484 12.7136C46.1204 12.5128 45.8763 12.3271 45.6347 12.1415C45.3715 11.9487 45.1083 11.7567 44.833 11.5806C44.5346 11.3894 44.2305 11.2078 43.9233 11.0302C42.5111 10.2525 41.0629 9.54759 39.5779 8.92111C39.2731 8.7931 39.1139 8.45945 39.1379 8.14341C38.9427 8.07621 38.745 8.01699 38.5458 7.96339C38.0137 7.83457 37.4753 7.74576 36.9368 7.64655C36.7224 7.60734 36.4984 7.59454 36.2823 7.56894C36.0695 7.54334 35.8567 7.51853 35.6438 7.49293C35.2894 7.47373 34.9341 7.45372 34.5789 7.43452C34.07 7.40732 33.5644 7.39611 33.0539 7.40251C32.1754 7.42331 31.3009 7.49293 30.4296 7.60174C29.7343 7.72176 29.0382 7.83937 28.3421 7.95618C28.2549 7.97058 28.1669 7.99699 28.0805 8.01699C27.8324 8.0746 27.5844 8.13141 27.3364 8.18982C26.9667 8.27543 26.5939 8.35304 26.2274 8.45225C25.1897 8.74589 24.172 9.09793 23.1774 9.51399C22.3541 9.86923 21.5524 10.2677 20.7747 10.7133C19.9314 11.2086 19.1209 11.7535 18.3432 12.3472C18.3536 12.3391 18.364 12.3311 18.3744 12.3231C18.3632 12.3319 18.352 12.3407 18.3408 12.3487C18.3248 12.3608 18.3088 12.3728 18.2936 12.3848C18.308 12.3744 18.3216 12.3632 18.336 12.3528C17.5735 12.948 16.8502 13.5881 16.1646 14.2698C15.4477 14.9963 14.7772 15.7652 14.1539 16.5733C13.5154 17.419 12.9297 18.2999 12.3881 19.2112C12.0608 19.8121 11.7352 20.413 11.4087 21.0147C11.3655 21.0939 11.3319 21.1803 11.2943 21.2627C11.1967 21.4731 11.0999 21.6836 11.0023 21.894C10.8471 22.2308 10.6911 22.5661 10.5366 22.9029C10.3406 23.3998 10.1446 23.8974 9.94856 24.3943C9.78934 24.7975 9.65812 25.2096 9.5221 25.6208C9.38368 26.0393 9.23567 26.4554 9.12045 26.8802C8.97883 27.4027 8.83561 27.9243 8.6956 28.446C8.56758 29.0317 8.44036 29.6174 8.31155 30.203C8.29394 30.2822 8.28675 30.3639 8.27474 30.4439C8.24194 30.6519 8.20993 30.8607 8.17713 31.0687C8.13072 31.3696 8.08352 31.6712 8.03711 31.9721C8.00191 32.3665 7.9691 32.7618 7.9339 33.1562C7.9187 33.3386 7.9027 33.5203 7.88669 33.7027C7.84589 34.1707 7.85149 34.6484 7.85709 35.1189C7.87389 36.011 7.9419 36.8975 8.06111 37.7808C8.16033 38.4481 8.29714 39.105 8.47317 39.7563C8.64439 40.3515 8.84762 40.9356 9.08205 41.5093C9.32288 42.0726 9.59491 42.6198 9.89735 43.1527C10.1526 43.5847 10.4302 43.9984 10.7327 44.3985C11.0367 44.7841 11.3591 45.1521 11.7024 45.5034C12.1616 45.9523 12.6513 46.3635 13.1586 46.7572C13.9027 47.3164 14.6892 47.8189 15.4965 48.2821C16.3558 48.7638 17.2407 49.1935 18.1528 49.5671C18.8113 49.8279 19.4794 50.0616 20.1611 50.2528C20.5851 50.372 21.01 50.4904 21.434 50.6104C21.9565 50.7233 22.4774 50.8385 22.9998 50.9513C23.0814 50.9689 23.1678 50.9745 23.2503 50.9857C23.4359 51.0113 23.6223 51.0377 23.8071 51.0633C24.0792 51.1009 24.3512 51.1385 24.6232 51.1761C25.2129 51.2121 25.8018 51.2497 26.3907 51.2881C26.5691 51.2993 26.7499 51.2977 26.9299 51.2953C26.9947 51.2945 27.0587 51.2937 27.1236 51.2937C27.15 51.2929 27.174 51.2929 27.1972 51.2929Z" fill="black"/>
<path d="M29.4766 26.3849C29.4134 25.5264 29.4222 24.6607 29.447 23.7997C29.4726 22.9388 29.5118 22.0779 29.5518 21.2162C29.631 19.516 29.7047 17.815 29.7695 16.114C29.7791 15.8739 29.7879 15.6331 29.7975 15.3931C29.8039 15.2019 29.8007 15.0154 29.8855 14.8386C29.9655 14.6738 30.0983 14.5474 30.2599 14.4689C30.2559 14.4705 30.2519 14.4722 30.2479 14.4738C30.2703 14.4626 30.2927 14.453 30.3151 14.4442C30.3223 14.441 30.3295 14.4385 30.3367 14.4361C30.3351 14.4369 30.3327 14.4377 30.3311 14.4385C30.6984 14.3081 31.1256 14.4722 31.3033 14.8282C31.3681 14.9586 31.3929 15.1002 31.3817 15.2387C31.3217 16.9133 31.256 18.5879 31.1768 20.2609C31.0976 21.9259 31.0032 23.5917 31.008 25.2591C31.0072 25.2255 31.0064 25.1911 31.0064 25.1575C31.0128 25.5256 31.0232 25.8928 31.0496 26.2609C31.0808 26.6897 30.7552 27.0754 30.3255 27.1098C30.3047 27.1114 30.2847 27.1122 30.2639 27.1122C29.8623 27.1122 29.5062 26.7929 29.4766 26.3849Z" fill="black"/>
<path d="M35.5734 28.1085C35.1453 28.0877 34.8013 27.71 34.8245 27.2804C34.9165 25.6209 35.0053 23.9623 35.0949 22.3029C35.1397 21.4796 35.1821 20.6547 35.2229 19.8314C35.2629 19.0233 35.2741 18.2152 35.2885 17.4063C35.2765 16.9022 35.2725 16.3974 35.2093 15.8965C35.2085 15.8925 35.2077 15.8885 35.2069 15.8837C35.0845 15.4908 35.3197 15.0524 35.7054 14.918C36.119 14.774 36.5583 15.0012 36.7111 15.4028C36.7655 15.5469 36.7759 15.7101 36.7951 15.8621C36.8087 15.9685 36.8127 16.0765 36.8215 16.1837C36.8391 16.3958 36.8455 16.6062 36.8503 16.819C36.8623 17.2959 36.8607 17.7695 36.8527 18.2472C36.8391 19.1153 36.7951 19.9818 36.7527 20.8499C36.6711 22.5197 36.5743 24.188 36.4839 25.8578C36.4567 26.3586 36.4295 26.8587 36.4015 27.3596C36.3783 27.7756 36.027 28.1093 35.6126 28.1093C35.599 28.1101 35.5862 28.1093 35.5734 28.1085Z" fill="black"/>
<path d="M29.1109 36.4358C28.0972 36.095 27.1387 35.5581 26.3778 34.8012C25.6185 34.0451 25.0944 33.1058 24.744 32.0993C24.5584 31.5656 24.4319 31.0072 24.3455 30.4495C24.3087 30.2111 24.2839 29.9742 24.2767 29.7334C24.2719 29.5614 24.2767 29.3974 24.3263 29.2309C24.46 28.7837 25.0056 28.5556 25.4201 28.7637C25.6161 28.8621 25.7497 29.0213 25.8281 29.2221C25.8841 29.3669 25.8881 29.5198 25.8521 29.663C25.8593 29.831 25.8753 29.9974 25.8969 30.1646C25.9521 30.5127 26.0258 30.8559 26.117 31.196C26.2018 31.4872 26.3002 31.7705 26.4138 32.0521C26.5106 32.2721 26.6162 32.4849 26.7338 32.6946C26.8411 32.873 26.9547 33.045 27.0771 33.213C27.2035 33.3715 27.3363 33.5227 27.4755 33.6699C27.6124 33.8027 27.7532 33.9283 27.902 34.0483C28.0916 34.1884 28.2868 34.3172 28.4885 34.438C28.7325 34.5732 28.9813 34.6932 29.239 34.8012C29.5662 34.9277 29.8982 35.0357 30.2375 35.1261C30.5647 35.2037 30.8936 35.2629 31.2272 35.3061C31.5345 35.3373 31.8401 35.3533 32.1489 35.3541C32.4954 35.3453 32.8394 35.3173 33.1827 35.2717C33.5427 35.2133 33.8964 35.1349 34.2476 35.0397C34.6076 34.9333 34.9597 34.8092 35.3069 34.6676C35.7094 34.4948 36.1006 34.3036 36.4823 34.0875C36.8031 33.8963 37.112 33.6899 37.4112 33.4667C37.6568 33.2738 37.8921 33.0722 38.1169 32.8546C38.3289 32.6338 38.5257 32.4009 38.713 32.1593C39.0738 31.6656 39.3747 31.1376 39.6779 30.6079C40.3668 29.2917 41.0221 27.9532 41.5829 26.5762C41.6782 26.329 41.771 26.0809 41.8518 25.8289C41.9838 25.4192 42.4382 25.1888 42.8463 25.3216C43.256 25.4544 43.4848 25.9065 43.3536 26.3162C43.1047 27.0907 42.7743 27.8411 42.4342 28.5796C42.0862 29.3317 41.7318 30.0822 41.3485 30.8167C41.1237 31.248 40.8853 31.668 40.6436 32.0897C40.122 32.997 39.4659 33.8163 38.661 34.4876C37.7857 35.2173 36.7847 35.7646 35.7334 36.195C34.6116 36.6551 33.3995 36.9079 32.1873 36.9279C32.1393 36.9287 32.0921 36.9295 32.0441 36.9295C31.0472 36.9311 30.0567 36.7535 29.1109 36.4358Z" fill="black"/>
<path d="M11.6543 12.8936C10.0053 12.8496 8.35631 12.788 6.7081 12.708C5.43354 12.6464 4.14457 12.5968 2.89801 12.3023C2.38595 12.1807 1.88908 12.0031 1.42422 11.7559C0.988167 11.5238 0.564911 11.1862 0.316079 10.7525C0.194464 10.5397 0.120856 10.3197 0.056848 10.0845C-0.00315969 9.86202 0.0016416 9.6212 4.13998e-05 9.39237C-0.00235891 8.97152 0.100052 8.54826 0.193664 8.14021C0.388889 7.2937 0.595315 6.44879 0.821744 5.61108C0.940159 5.17422 1.05938 4.73898 1.18579 4.30532C1.29941 3.91487 1.40902 3.51881 1.55224 3.13877C1.70986 2.72031 1.87308 2.30666 2.0475 1.89461C2.20672 1.52096 2.37634 1.15292 2.58837 0.806472C2.71079 0.608047 2.88921 0.450423 3.08203 0.324807C3.28446 0.19279 3.51329 0.170388 3.74852 0.167987C3.95095 0.166387 4.15817 0.267999 4.33819 0.348809C4.44941 0.399215 4.55902 0.460823 4.66784 0.51603C4.84786 0.608042 5.02548 0.704051 5.20391 0.800063C5.56635 0.994488 5.924 1.19851 6.28164 1.40174C6.98093 1.79939 7.67382 2.20824 8.35471 2.6347C9.0636 3.07875 9.76769 3.54122 10.4326 4.04849C10.4134 4.03409 10.395 4.01968 10.3758 4.00528C10.415 4.03569 10.4542 4.06528 10.4942 4.09569C10.5126 4.10849 10.5302 4.12209 10.547 4.13569C10.543 4.13249 10.539 4.13009 10.5358 4.12689C10.5398 4.13009 10.5438 4.1333 10.5478 4.1365L10.5502 4.1381C10.5734 4.1557 10.5958 4.17329 10.619 4.1901C10.6158 4.1877 10.6118 4.1845 10.6086 4.1821C10.739 4.28131 10.8686 4.38052 10.999 4.47973C11.0495 4.51814 11.1023 4.55495 11.1527 4.59575C11.2079 4.63576 11.2607 4.67817 11.3143 4.72057C11.2935 4.70457 11.2735 4.68937 11.2527 4.67417C11.9336 5.19343 12.5712 5.7671 13.2121 6.33517C13.5138 6.6024 13.7994 6.88885 14.0906 7.16728C14.3963 7.45852 14.6915 7.76096 14.9892 8.061C15.5524 8.62667 16.0901 9.21474 16.6222 9.81002C16.8974 10.1173 17.1462 10.4501 17.3935 10.7789C17.6023 11.0574 17.8127 11.3526 17.9375 11.6799C18.0912 12.0815 17.8495 12.5464 17.4527 12.6848C17.235 12.7608 17.011 12.7336 16.8254 12.6328C16.6942 12.78 16.511 12.88 16.3037 12.8928C15.6548 12.9328 15.006 12.9472 14.3563 12.9472C13.4546 12.9448 12.5544 12.9176 11.6543 12.8936ZM7.26337 11.1526C8.08588 11.1886 8.90758 11.2262 9.73009 11.255C10.5918 11.2854 11.4535 11.3102 12.316 11.3318C13.0721 11.3518 13.8282 11.3766 14.5851 11.3718C14.6171 11.3718 14.6499 11.371 14.6827 11.371C14.6747 11.371 14.6675 11.371 14.6603 11.3718C14.6691 11.3718 14.6779 11.3718 14.6867 11.371C14.7123 11.371 14.7371 11.3702 14.7627 11.3702C14.7435 11.3702 14.7235 11.3702 14.7043 11.371C15.082 11.3646 15.4588 11.3542 15.8365 11.3358C15.4596 10.879 15.0764 10.4293 14.6683 9.99964C14.1899 9.49558 13.7034 9.00032 13.2137 8.50746C12.7569 8.0722 12.3024 7.63614 11.8312 7.21849C11.6143 7.02646 11.4023 6.82963 11.1783 6.64561C10.887 6.40718 10.5958 6.16876 10.3054 5.92953C10.3022 5.92713 10.299 5.92472 10.2958 5.92152C10.299 5.92392 10.3014 5.92633 10.3046 5.92793L10.3038 5.92712C10.2998 5.92392 10.2958 5.92072 10.2918 5.91832C10.2686 5.89992 10.2446 5.88231 10.2213 5.86471C10.2029 5.85191 10.1853 5.83831 10.1685 5.8247C10.1445 5.8063 10.1205 5.78791 10.0965 5.7703C10.1069 5.7783 10.1173 5.78631 10.1277 5.79351C9.99012 5.6887 9.8533 5.58467 9.71648 5.47986C9.66448 5.44066 9.61007 5.40305 9.55966 5.36145C9.50926 5.32464 9.46045 5.28544 9.41084 5.24784C9.27563 5.14782 9.13481 5.05421 8.99719 4.9566C8.84597 4.84939 8.69555 4.73817 8.54113 4.63576C8.12988 4.36372 7.71863 4.09489 7.30098 3.83406C6.59289 3.3908 5.86719 2.97475 5.1415 2.5619C5.1623 2.5739 5.1823 2.5859 5.20311 2.5979C4.74465 2.34187 4.28539 2.07623 3.81173 1.8458C3.6141 2.23305 3.44688 2.6331 3.27726 3.03395C3.17965 3.29239 3.07883 3.55001 2.99402 3.81245C2.87961 4.16289 2.76999 4.51254 2.66678 4.86699C2.47876 5.51347 2.30913 6.16396 2.13871 6.81444C2.0547 7.14969 1.97069 7.48572 1.88988 7.82176C1.77627 8.29382 1.65545 8.76749 1.59144 9.24995C1.58344 9.34916 1.58024 9.44677 1.57944 9.54679C1.58104 9.59639 1.58504 9.6452 1.59064 9.6948C1.59945 9.74521 1.61145 9.79561 1.62585 9.84442C1.62185 9.83562 1.61785 9.82602 1.61465 9.81722C1.61865 9.82762 1.62265 9.83802 1.62745 9.84842C1.63065 9.86043 1.63465 9.87163 1.63785 9.88363C1.63465 9.87403 1.63225 9.86363 1.62985 9.85403C1.63545 9.86683 1.64105 9.87963 1.64665 9.89244C1.64025 9.87803 1.63465 9.86443 1.62825 9.85002C1.62265 9.82842 1.61625 9.80762 1.61064 9.78601C1.62425 9.82522 1.63785 9.86442 1.65145 9.90283C1.67466 9.95243 1.70106 10.0004 1.73066 10.0469C1.71866 10.0252 1.70586 10.0037 1.69306 9.98205C1.69226 9.98045 1.68986 9.97804 1.68986 9.97804L1.69226 9.98124C1.68826 9.97404 1.68346 9.96685 1.67946 9.95964C1.69226 9.97645 1.70426 9.99405 1.71706 10.0108C1.76187 10.0637 1.80987 10.1133 1.86028 10.1613C1.83627 10.1373 1.81227 10.1125 1.78747 10.0885C1.83227 10.1301 1.87868 10.1709 1.92669 10.2093C1.99869 10.2597 2.07151 10.3077 2.14672 10.3533C2.27633 10.4213 2.40675 10.4829 2.54117 10.5421C2.76439 10.6261 2.99162 10.6965 3.22125 10.7589C3.64451 10.8566 4.07176 10.9262 4.50302 10.9782C5.41833 11.075 6.34165 11.1126 7.26337 11.1526Z" fill="black"/>
<path d="M27.7669 10.7661C27.3628 10.6925 27.0292 10.2652 27.1316 9.84758C27.2404 9.40432 27.3644 8.96587 27.498 8.52982C27.5589 8.33139 27.6213 8.13136 27.6957 7.93774C27.7581 7.77452 27.8205 7.61289 27.8869 7.45127C27.9309 7.34486 27.9877 7.23525 28.0517 7.13923C28.1149 7.04402 28.1957 6.97681 28.2853 6.908C28.5822 6.68157 29.0894 6.74719 29.3183 7.04163C29.3815 7.12324 29.3831 7.12323 29.4335 7.21284C29.5815 7.47607 29.5303 7.80092 29.3575 8.03535C29.3319 8.08655 29.3087 8.13856 29.2863 8.19137C29.0558 8.79785 28.8686 9.41872 28.7054 10.046C28.6982 10.074 28.691 10.102 28.6846 10.1308C28.6334 10.3404 28.5318 10.5213 28.3486 10.6445C28.2181 10.7317 28.0621 10.7781 27.9061 10.7781C27.8597 10.7789 27.8125 10.7741 27.7669 10.7661Z" fill="black"/>
<path d="M32.769 10.291C32.593 9.7429 32.4202 9.19323 32.249 8.64356C32.1714 8.39473 32.0945 8.1451 32.0193 7.89547C31.9417 7.64024 31.8593 7.3818 31.7977 7.12257C31.6985 6.70411 31.9945 6.27525 32.4074 6.18724C32.8362 6.09683 33.2427 6.37927 33.3427 6.79693C33.3427 6.79853 33.3435 6.80092 33.3443 6.80332C33.6283 7.79865 33.9428 8.78598 34.2604 9.7709C34.3916 10.1806 34.1884 10.6318 33.7748 10.7758C33.6924 10.8046 33.6075 10.8182 33.5227 10.8182C33.1947 10.819 32.8739 10.6166 32.769 10.291Z" fill="black"/>
<path d="M38.0217 10.5717C37.8577 10.0956 37.6945 9.61956 37.5305 9.1435C37.3848 8.71944 37.2512 8.28819 37.0824 7.87294C36.9208 7.47449 37.1768 7.00402 37.5673 6.86721C37.7641 6.7984 37.9825 6.812 38.1705 6.90161C38.365 6.99602 38.493 7.15604 38.5722 7.35207C38.7386 7.76172 38.8706 8.18577 39.0146 8.60343C39.1803 9.08589 39.3459 9.56915 39.5123 10.0516C39.6523 10.4581 39.4347 10.9141 39.0274 11.0565C38.9442 11.0853 38.8586 11.0997 38.7738 11.0997C38.4466 11.0997 38.1329 10.8941 38.0217 10.5717Z" fill="black"/>
<path d="M49.0543 14.6419C48.6255 14.6114 48.2838 14.249 48.3054 13.8137C48.3262 13.3905 48.7047 13.0345 49.1335 13.0649C49.4296 13.0865 49.7248 13.0929 50.0216 13.0913C51.1442 13.0592 52.2555 12.924 53.3661 12.768C53.8309 12.6936 54.2974 12.6208 54.7583 12.5224C55.0095 12.4688 55.2639 12.4224 55.5136 12.36C55.7832 12.292 56.0528 12.2239 56.3233 12.1559C56.7801 12.0223 57.2346 11.8879 57.6858 11.7351C57.8995 11.6623 58.1139 11.5935 58.3243 11.5111C58.5731 11.4126 58.8212 11.3142 59.07 11.2166C59.3516 11.083 59.6333 10.9502 59.9149 10.8166C60.0341 10.7598 60.1469 10.6853 60.2614 10.6205C60.3942 10.5445 60.527 10.4693 60.6598 10.3941C60.9302 10.2261 61.1935 10.0509 61.4479 9.85884C61.5943 9.74283 61.7343 9.62282 61.8696 9.494C61.9552 9.40279 62.0376 9.30838 62.1168 9.21076C62.1768 9.12595 62.2328 9.04034 62.2872 8.95233C62.3104 8.90913 62.332 8.86592 62.3512 8.82111C62.3784 8.7483 62.4016 8.67549 62.4224 8.60029C62.4336 8.54908 62.4424 8.49787 62.4496 8.44586C62.456 8.37465 62.46 8.30344 62.46 8.23223C62.4576 8.17062 62.4528 8.10822 62.4456 8.04661C62.4248 7.921 62.3992 7.79938 62.368 7.67617C62.3248 7.53935 62.276 7.40653 62.2232 7.27292C61.9696 6.68884 61.6583 6.12636 61.3591 5.56469C61.0479 4.97902 60.7342 4.39334 60.403 3.81807C60.2622 3.57564 60.1157 3.33801 59.9517 3.11158C59.9277 3.08278 59.9029 3.05398 59.8781 3.02598C59.7893 3.08758 59.7021 3.15158 59.6157 3.21639C58.2819 4.26053 56.9689 5.33186 55.6624 6.4096C55.0455 6.91766 54.4318 7.42974 53.8269 7.9506C53.0948 8.58109 52.3748 9.22036 51.6563 9.86524C50.9082 10.5373 50.1921 11.243 49.4752 11.9471C49.2968 12.1351 49.1175 12.3232 48.9391 12.5112C48.7815 12.6768 48.6367 12.8544 48.4879 13.0273C48.4919 13.0217 48.4959 13.0161 48.5007 13.0113C48.4278 13.1065 48.3558 13.2025 48.2894 13.3025C48.0518 13.6617 47.5541 13.7609 47.1957 13.5241C46.8364 13.2865 46.7372 12.7888 46.9741 12.4304C47.1901 12.1031 47.4477 11.7919 47.7182 11.5079C48.0238 11.1862 48.3294 10.8646 48.6455 10.5533C49.2487 9.95805 49.8552 9.36358 50.4849 8.79711C51.1522 8.19624 51.8211 7.59695 52.5012 7.00968C53.122 6.47521 53.7461 5.94474 54.3782 5.42388C55.7152 4.32134 57.0554 3.21959 58.4203 2.15225C58.5107 2.08105 58.6011 2.01064 58.6924 1.94103C58.8748 1.80102 59.062 1.64579 59.2708 1.54498C59.3708 1.49537 59.4693 1.45617 59.5749 1.42017C59.6789 1.38416 59.7861 1.37696 59.8933 1.36496C60.1237 1.33936 60.375 1.43777 60.5694 1.55458C60.9815 1.80261 61.2607 2.21147 61.5159 2.60832C61.7079 2.90596 61.876 3.2212 62.0496 3.53084C62.4472 4.23893 62.8305 4.95662 63.2009 5.67911C63.4666 6.19838 63.7386 6.71925 63.8954 7.28332C63.9634 7.52655 64.0042 7.77137 64.0298 8.0234C64.0578 8.29064 64.029 8.56107 63.9898 8.82511C63.9146 9.32997 63.6538 9.81004 63.3426 10.2069C62.7825 10.9206 62.0128 11.4414 61.2319 11.8847C61.0319 11.9991 60.8302 12.1127 60.6302 12.2272C60.5638 12.2648 60.4902 12.2928 60.4214 12.3256C60.267 12.3992 60.1109 12.4728 59.9557 12.5464C59.5541 12.736 59.1356 12.8888 58.7228 13.0521C58.5539 13.1185 58.3779 13.1705 58.2067 13.2281C58.0227 13.2897 57.8403 13.3569 57.6546 13.4121C57.2098 13.5425 56.7673 13.6737 56.3177 13.7865C55.8864 13.8954 55.4543 13.9906 55.0199 14.0834C54.0342 14.2946 53.026 14.4186 52.0251 14.5346C51.3202 14.6154 50.6057 14.6731 49.8928 14.6731C49.6112 14.6707 49.332 14.6619 49.0543 14.6419Z" fill="black"/>
</svg>
