<svg width="61" height="50" viewBox="0 0 61 50" fill="none" xmlns="http://www.w3.org/2000/svg">
<path d="M48.9136 46.7533C48.7965 46.8065 48.6716 46.8465 48.5514 46.8912C48.2808 46.993 48.0103 47.0939 47.7398 47.1949C47.5571 47.2635 47.376 47.3444 47.1895 47.4007C47.0392 47.4462 46.8889 47.4916 46.7394 47.5371C46.4395 47.6281 46.1397 47.7182 45.8407 47.8092C45.7104 47.8485 45.5809 47.8947 45.4491 47.9279C44.979 48.0458 44.5096 48.1661 44.0394 48.2855C43.6872 48.3757 43.3319 48.4474 42.9758 48.5221C42.6097 48.5984 42.2451 48.6824 41.8775 48.7426C41.3965 48.8204 40.9156 48.899 40.4339 48.9753C39.993 49.0447 39.5483 49.0879 39.1059 49.1441C38.3652 49.2382 37.6207 49.3191 36.8761 49.3846C36.4168 49.4247 35.9559 49.4756 35.495 49.5048C35.0348 49.5341 34.5747 49.5626 34.1145 49.5927C33.3091 49.6436 32.4991 49.6459 31.6921 49.6474C31.299 49.6482 30.9075 49.6413 30.5144 49.6281C30.119 49.615 29.7236 49.6073 29.3298 49.578C28.9128 49.5472 28.4912 49.5326 28.0765 49.4809C27.6187 49.4231 27.1617 49.3661 26.7038 49.3083C26.4903 49.2821 26.2776 49.2358 26.0664 49.1989C25.8144 49.1549 25.5616 49.111 25.3095 49.067C24.9018 48.9961 24.4987 48.8867 24.0956 48.7942C23.6979 48.704 23.3087 48.5784 22.9164 48.4651C22.5141 48.3495 22.121 48.2123 21.7248 48.0774C20.9456 47.8123 20.1841 47.5032 19.428 47.1795C19.0234 47.0068 18.6249 46.8219 18.2241 46.6407C17.7971 46.4465 17.3701 46.243 16.9616 46.011C16.5531 45.7791 16.1415 45.5332 15.7716 45.2411C15.5843 45.0939 15.397 44.9459 15.2097 44.7979C15.0317 44.6576 14.8698 44.4958 14.7026 44.3424C14.5769 44.2268 14.4605 44.1112 14.3442 43.9871C14.19 43.8221 14.0243 43.6634 13.8817 43.4884C13.7283 43.3003 13.5757 43.1123 13.4231 42.9234C13.2906 42.7608 13.1742 42.582 13.0516 42.4117C12.946 42.2645 12.8451 42.1165 12.7464 41.9646C12.5113 41.6032 12.277 41.2394 12.0774 40.8571C11.9741 40.6598 11.8585 40.4663 11.7676 40.2644C11.6774 40.0663 11.5872 39.8682 11.497 39.6701C11.3244 39.2909 11.1857 38.8948 11.0454 38.5024C10.9159 38.1425 10.8088 37.7741 10.7201 37.4034C10.6192 36.9771 10.5128 36.5471 10.4534 36.1131C10.3964 35.6977 10.3409 35.283 10.2947 34.8661C10.2523 34.4784 10.2053 34.0876 10.196 33.6976C10.1899 33.4641 10.1767 33.2298 10.1868 32.9962C10.1968 32.7589 10.206 32.5222 10.2161 32.2856C10.2253 32.0667 10.2592 31.8455 10.2816 31.6274C10.3001 31.4486 10.3293 31.2721 10.3563 31.0948C10.3872 30.8913 10.4172 30.6886 10.4596 30.4867C10.5005 30.2932 10.5305 30.0944 10.5837 29.904C10.6515 29.6597 10.7201 29.4161 10.788 29.1718C10.8404 28.9837 10.909 28.8003 10.9729 28.6161C11.107 28.2284 11.2643 27.8523 11.42 27.4715C11.5772 27.0885 11.7606 26.7131 11.9425 26.3409C12.1175 25.9817 12.2971 25.6248 12.489 25.2742C12.8959 24.5281 13.316 23.7889 13.773 23.0714C14.2208 22.3677 14.6856 21.6694 15.2228 21.0304C15.7462 20.4077 16.2957 19.8142 16.8722 19.2408C17.4549 18.6604 18.0476 18.09 18.658 17.5389C19.243 17.0118 19.8511 16.51 20.467 16.0206C20.5279 15.972 20.5941 15.935 20.6635 15.9081C20.8832 15.6984 21.1121 15.4988 21.351 15.31C22.9125 14.0806 24.7014 13.1673 26.5497 12.4528C28.4087 11.7352 30.3317 11.1757 32.301 10.8558C34.1847 10.5491 36.1023 10.4103 38.0091 10.5468C40.3283 10.7125 42.5912 11.2944 44.7863 12.042C46.6384 12.6725 48.4111 13.5134 50.0489 14.5855C50.4836 14.8706 50.9183 15.155 51.3538 15.4402C51.703 15.6691 52.0382 15.9242 52.3797 16.1663C53.0225 16.6225 53.6529 17.0973 54.2441 17.6199C55.1312 18.4053 55.9421 19.2785 56.6427 20.235C57.3433 21.1907 57.9683 22.1973 58.4693 23.2725C58.9611 24.3269 59.3649 25.4167 59.6247 26.552C60.1388 28.7988 60.1935 31.1203 59.8459 33.3955C59.6717 34.5347 59.3981 35.6684 58.9996 36.7505C58.6073 37.8126 58.1132 38.8277 57.5159 39.7904C56.9001 40.7846 56.1848 41.7303 55.3679 42.5689C54.5786 43.379 53.703 44.1027 52.7581 44.7247C52.2394 45.0661 51.7091 45.3898 51.1611 45.6827C50.8767 45.8353 50.5931 45.9895 50.2994 46.1236C49.8401 46.334 49.3807 46.5429 48.9213 46.7533C48.9182 46.7517 48.9159 46.7525 48.9136 46.7533ZM48.5175 45.2634C48.5953 45.228 48.6739 45.1925 48.7518 45.1571C49.2181 44.9466 49.6844 44.7362 50.1391 44.5035C50.8767 44.1127 51.592 43.6842 52.2787 43.2094C52.8074 42.8333 53.31 42.4255 53.7886 41.987C54.2233 41.5746 54.6295 41.1369 55.0133 40.6775C55.4449 40.1464 55.8426 39.5915 56.2095 39.0127C56.5725 38.4207 56.8993 37.8103 57.1853 37.1783C57.4342 36.6056 57.6508 36.0222 57.8342 35.4256C58.0454 34.7019 58.2111 33.9682 58.3337 33.2236C58.4462 32.4829 58.5202 31.7384 58.5456 30.99C58.5603 30.2616 58.5294 29.5356 58.4593 28.8111C58.3892 28.1629 58.2836 27.5209 58.141 26.8835C58.0138 26.3493 57.8597 25.826 57.6747 25.3088C57.4126 24.6113 57.1113 23.9315 56.7691 23.2694C56.4415 22.6582 56.0769 22.0709 55.6815 21.5014C55.2723 20.9264 54.8337 20.3761 54.3582 19.8543C53.8734 19.3371 53.3593 18.8531 52.8159 18.3983C51.5642 17.3833 50.21 16.5062 48.8643 15.626C48.0589 15.1427 47.2403 14.6895 46.3856 14.2995C45.1786 13.7662 43.9354 13.3446 42.6714 12.9692C41.6393 12.6694 40.595 12.4197 39.5344 12.2447C38.7128 12.1198 37.8858 12.0482 37.0549 12.0204C36.1031 11.9996 35.1535 12.0397 34.2063 12.1314C33.0956 12.2486 31.995 12.4312 30.9059 12.6786C29.7768 12.9476 28.6654 13.2875 27.5755 13.686C26.6121 14.0467 25.6649 14.4513 24.75 14.9238C24.1249 15.256 23.5176 15.6183 22.9349 16.0206C22.5418 16.3004 22.1611 16.5963 21.8019 16.9193C21.5059 17.1983 21.2285 17.4904 20.9633 17.7987C20.7629 18.0453 20.5656 18.2935 20.3706 18.544C20.1617 18.8122 19.8142 18.9248 19.5051 18.8192C19.4604 18.8592 19.4157 18.8993 19.371 18.9394C19.3956 18.9163 19.4203 18.8932 19.445 18.8708C18.8839 19.3903 18.3374 19.9252 17.7956 20.4647C17.2938 20.9641 16.8221 21.4875 16.3658 22.0278C16.0953 22.3715 15.8333 22.7199 15.5843 23.0806C15.3608 23.4051 15.1481 23.7365 14.9361 24.0687C14.5384 24.7207 14.1607 25.3828 13.7939 26.0534C13.4463 26.6892 13.141 27.3459 12.842 28.0049C12.7356 28.2639 12.6131 28.5205 12.5221 28.7849C12.4343 29.04 12.3456 29.2944 12.2578 29.5487C12.2292 29.6527 12.1999 29.7576 12.1707 29.8616C12.1352 29.9903 12.0897 30.1191 12.0628 30.2493C12.0111 30.4952 11.9587 30.7403 11.9071 30.9854C11.8539 31.3345 11.803 31.6821 11.7676 32.0344C11.7321 32.3889 11.7159 32.7411 11.7013 33.0964C11.7059 33.3246 11.6982 33.5581 11.7182 33.7855C11.736 33.9982 11.7537 34.2109 11.7722 34.4237C11.8115 34.7767 11.8508 35.1297 11.8994 35.4819C11.9502 35.8542 12.0181 36.221 12.0859 36.5902C12.1553 36.8854 12.2238 37.1798 12.3102 37.4704C12.405 37.788 12.5121 38.0978 12.6231 38.41C12.748 38.7198 12.8736 39.0281 13.0115 39.3325C13.1534 39.6447 13.3106 39.9453 13.4694 40.2482C13.4539 40.2189 13.4393 40.1904 13.4239 40.1611C13.5441 40.3661 13.6567 40.5781 13.7854 40.7769C13.9156 40.9773 14.0466 41.1785 14.1769 41.3789C14.3102 41.5677 14.439 41.7642 14.5839 41.9423C14.7496 42.1465 14.9153 42.3508 15.0818 42.555C15.1511 42.629 15.2197 42.7038 15.2891 42.7778C15.3793 42.8741 15.4641 42.9797 15.5612 43.0683C15.7492 43.241 15.9365 43.4136 16.1238 43.5863C16.2749 43.705 16.4252 43.8244 16.5762 43.9431C16.8129 44.1297 17.0626 44.2977 17.3169 44.4595C18.073 44.9166 18.8815 45.2757 19.6854 45.6395C19.6785 45.6365 19.6716 45.6334 19.6639 45.6295C19.9822 45.766 20.2997 45.9016 20.618 46.038C20.867 46.1436 21.1229 46.2353 21.3749 46.3324C21.9329 46.5475 22.4987 46.7371 23.0651 46.9282C23.412 47.0277 23.758 47.1271 24.1033 47.2273C24.3839 47.3082 24.6691 47.366 24.9535 47.4308C25.2494 47.4978 25.5423 47.5664 25.8414 47.6188C26.1859 47.6789 26.5312 47.7391 26.8757 47.7984C27.2773 47.8493 27.6796 47.8994 28.0812 47.9502C28.4049 47.9911 28.7301 48.0088 29.0546 48.0335C29.3745 48.0574 29.6928 48.0828 30.0127 48.0936C30.3795 48.1052 30.7464 48.1175 31.1133 48.1298C31.5919 48.1283 32.0728 48.1422 32.5522 48.1267C33.0309 48.1106 33.5126 48.109 33.9905 48.0782C34.4799 48.0458 34.9708 48.0265 35.4595 47.9842C35.9636 47.9402 36.4684 47.8955 36.9717 47.8524C37.4858 47.8007 38.0022 47.7545 38.514 47.689C38.8153 47.6512 39.1174 47.6127 39.4188 47.5741C39.6732 47.5417 39.9291 47.5171 40.1811 47.477C40.4663 47.4323 40.7514 47.3853 41.0366 47.3383C41.2963 47.2967 41.5607 47.265 41.8181 47.2119C42.333 47.1055 42.8471 46.9968 43.3619 46.8905C43.6433 46.8188 43.9246 46.7479 44.2059 46.677C44.4757 46.6084 44.7524 46.5506 45.0198 46.4704C45.5956 46.2962 46.1713 46.122 46.7471 45.9471C47.0091 45.8484 47.2719 45.7513 47.534 45.6527C47.719 45.5833 47.9047 45.5139 48.0897 45.4445C48.1529 45.4207 48.2192 45.3998 48.2808 45.3713C48.361 45.3343 48.4396 45.2989 48.5175 45.2634Z" fill="black"/>
<path d="M42.8108 43.3366C42.7885 43.3466 42.7661 43.3566 42.743 43.3659C42.5087 43.4645 42.2736 43.5632 42.0386 43.6618C41.583 43.8522 41.0975 43.9994 40.6173 44.1119C40.0662 44.2414 39.509 44.3409 38.9425 44.3809C38.4978 44.4125 38.0438 44.4287 37.5983 44.391C37.3439 44.3701 37.0888 44.3486 36.8345 44.327C36.6534 44.3116 36.4738 44.2777 36.295 44.2522C35.8518 44.1898 35.4148 44.1035 34.9754 44.0171C34.7751 43.9778 34.5777 43.92 34.3797 43.8715C34.2116 43.8299 34.0436 43.789 33.8771 43.7389C33.4725 43.6187 33.0679 43.5023 32.6702 43.3589C32.4713 43.288 32.2663 43.2248 32.0721 43.1431C31.8509 43.0506 31.6304 42.9581 31.41 42.8656C30.6631 42.5527 29.9448 42.1743 29.2457 41.7689C28.3879 41.2702 27.5447 40.7238 26.8009 40.0632C26.3547 39.6663 25.9384 39.237 25.5816 38.7576C25.2779 38.3483 25.0344 37.8959 24.844 37.4234C24.6606 36.9671 24.5264 36.4145 24.6382 35.9236C24.733 35.5081 24.9511 35.1644 25.3018 34.917C25.6556 34.6672 26.0803 34.5308 26.4942 34.4167C26.6745 34.3674 26.8541 34.3158 27.0345 34.2688C27.4668 34.1562 27.9008 34.0437 28.3332 33.9319C31.4554 33.125 34.5693 32.2949 37.6684 31.4062C39.277 30.9445 40.8848 30.4798 42.491 30.0135C43.2918 29.7815 44.0934 29.5495 44.8934 29.3175C45.3219 29.1926 45.7505 29.0678 46.1775 28.9398C46.4935 28.8458 46.8118 28.7202 47.1393 28.6739C47.5494 28.6161 47.9448 28.8859 48.0126 29.3013C48.0319 29.4208 48.0211 29.5418 47.9849 29.6535C48.0719 29.6543 48.1598 29.6697 48.243 29.7006C48.4411 29.7738 48.5799 29.9194 48.6739 30.1044C48.845 30.4405 48.9706 30.8027 49.0562 31.1696C49.1487 31.5665 49.2211 31.9658 49.2527 32.3727C49.3152 33.1735 49.2574 33.9813 49.1271 34.7736C48.9961 35.569 48.8026 36.3459 48.5398 37.1082C48.4088 37.4912 48.2631 37.8712 48.0904 38.2373C47.9949 38.4408 47.8985 38.6412 47.7929 38.8385C47.6874 39.035 47.5725 39.2223 47.4546 39.4112C47.2388 39.7557 46.9937 40.0763 46.7439 40.397C46.4881 40.7245 46.1867 41.0135 45.8915 41.3041C45.5732 41.617 45.2086 41.8822 44.8541 42.1519C44.6652 42.2953 44.4571 42.4186 44.2598 42.5512C44.1057 42.6537 43.9407 42.7416 43.7812 42.834C43.6062 42.935 43.4313 43.029 43.2509 43.1184C43.1037 43.1894 42.9604 43.2695 42.8108 43.3366ZM42.79 41.6486C42.9927 41.5323 43.2039 41.4244 43.3989 41.2956C43.5746 41.18 43.7496 41.0621 43.9253 40.9465C44.0849 40.827 44.2529 40.7137 44.4032 40.5835C44.5435 40.4625 44.6838 40.3415 44.8233 40.2205C44.9489 40.1002 45.0814 39.9823 45.1963 39.8528C45.3111 39.7249 45.4244 39.5961 45.5393 39.4682C45.6826 39.284 45.826 39.1013 45.9593 38.9094C46.0904 38.7213 46.2129 38.5302 46.3347 38.3368C46.4781 38.0708 46.6129 37.8042 46.7424 37.5321C46.9436 37.0527 47.1201 36.5694 47.2773 36.0738C47.423 35.5544 47.5424 35.0326 47.6326 34.5007C47.6958 34.0637 47.7405 33.6267 47.7575 33.1851C47.7598 32.9115 47.7498 32.6394 47.7259 32.3666C47.6974 32.1284 47.6596 31.8925 47.6103 31.6582C47.564 31.4632 47.5101 31.2706 47.4438 31.081C47.3952 30.9592 47.3428 30.8397 47.2827 30.7226C47.1995 30.5584 47.1941 30.3742 47.2465 30.2054C46.7416 30.3526 46.2383 30.5091 45.7327 30.6563C42.5765 31.5719 39.425 32.5038 36.258 33.3847C34.6625 33.8287 33.0663 34.268 31.4639 34.6873C30.6238 34.9069 29.7837 35.1251 28.9428 35.3432C28.5921 35.4341 28.2414 35.5235 27.8915 35.6152C27.4237 35.737 26.9497 35.8503 26.4926 36.0091C26.4071 36.0422 26.3238 36.0777 26.2414 36.117C26.219 36.1309 26.1959 36.1447 26.1728 36.1586C26.1851 36.1501 26.1967 36.1417 26.209 36.1332C26.2067 36.134 26.2044 36.1355 26.2021 36.137C26.1843 36.1494 26.1674 36.1625 26.1504 36.1763C26.1473 36.1802 26.1442 36.1833 26.1412 36.1871C26.1389 36.191 26.1358 36.1941 26.1334 36.1979C26.1327 36.1995 26.1327 36.201 26.1319 36.2026C26.1288 36.2157 26.1258 36.2295 26.1227 36.2426C26.1173 36.2927 26.1149 36.3436 26.1165 36.3937C26.1173 36.3721 26.118 36.3505 26.1188 36.3282C26.1188 36.3174 26.1196 36.3066 26.1196 36.2958C26.1219 36.3274 26.1242 36.3582 26.1265 36.3898C26.1327 36.4361 26.1404 36.4816 26.1497 36.527C26.1774 36.6311 26.209 36.7328 26.2437 36.8338C26.31 36.9972 26.3839 37.156 26.4633 37.314C26.5589 37.4866 26.6622 37.6531 26.774 37.8157C26.9158 38.0061 27.0661 38.1865 27.2248 38.3622C27.473 38.6219 27.7335 38.8655 28.0071 39.0982C28.3062 39.3403 28.6183 39.5615 28.9297 39.7873C29.1386 39.9384 29.3644 40.0709 29.5833 40.2081C29.951 40.4216 30.3178 40.6336 30.6932 40.834C31.047 41.0236 31.4077 41.1954 31.7691 41.3696C32.0142 41.4729 32.2601 41.5754 32.5044 41.6779C32.7095 41.7635 32.9207 41.8336 33.1295 41.9084C33.538 42.0556 33.9527 42.1781 34.3689 42.3022C34.6718 42.377 34.9747 42.4695 35.2807 42.5288C35.5674 42.5843 35.8556 42.6414 36.1424 42.6969C36.4114 42.7369 36.6819 42.7886 36.9524 42.8109C37.2892 42.8402 37.626 42.8741 37.9636 42.8872C38.3081 42.8926 38.6496 42.8811 38.9933 42.8533C39.3633 42.814 39.7279 42.7554 40.0917 42.6768C40.5094 42.5774 40.9194 42.4533 41.3249 42.3092C41.4798 42.2506 41.6316 42.1851 41.7842 42.1203C41.9075 42.0687 42.037 42.0232 42.1565 41.9639C42.3677 41.8591 42.5789 41.7535 42.79 41.6486Z" fill="black"/>
<path d="M12.3703 41.0922C12.5606 40.7338 12.425 40.249 12.0542 40.0648C10.7155 39.4012 9.35357 38.7846 7.99012 38.1749C6.57889 37.5444 5.15376 36.9486 3.74176 36.3205C3.74407 36.3213 3.74639 36.3228 3.7487 36.3236C3.25311 36.0916 2.75444 35.8627 2.28351 35.5813C2.1625 35.5027 2.04458 35.421 1.93128 35.3316C1.89428 35.2993 1.85807 35.2653 1.82339 35.2299C1.84651 35.2545 1.86962 35.2792 1.89198 35.3039C1.84881 35.2599 1.80798 35.2145 1.77098 35.1659C1.76636 35.1582 1.76172 35.1497 1.75633 35.1413C1.7571 35.1397 1.75864 35.1382 1.75941 35.1366C1.77482 35.1204 1.79024 35.1043 1.80565 35.0873C1.87733 35.0256 1.95057 34.9671 2.02687 34.91C2.68971 34.4622 3.38106 34.0553 4.06162 33.636C4.41308 33.4202 4.76455 33.2051 5.1083 32.977C5.41737 32.7728 5.7118 32.5593 5.98002 32.3018C6.13263 32.1554 6.25439 31.9635 6.3438 31.7739C6.43706 31.5742 6.5072 31.3214 6.48716 31.0987C6.46944 30.8952 6.43861 30.6964 6.35768 30.5068C6.26596 30.2894 6.14803 30.0875 6.01161 29.8956C5.86131 29.6836 5.70255 29.4763 5.53761 29.2751C5.28326 28.9637 5.02814 28.6523 4.77303 28.3417C4.24815 27.7028 3.71788 27.0685 3.20841 26.4172C2.88085 25.9987 2.55406 25.5794 2.24654 25.1462C2.05616 24.8711 1.87658 24.5913 1.71164 24.2999C1.67233 24.2198 1.63455 24.1396 1.59986 24.0579C1.65382 24.0572 1.70777 24.0572 1.76249 24.0579C2.38448 24.0803 3.0057 24.1389 3.62615 24.1789C4.31443 24.2229 5.00039 24.2545 5.68944 24.2737C5.65707 24.2722 5.62469 24.2714 5.59232 24.2699C6.01315 24.283 6.43782 24.2668 6.85788 24.2406C7.27717 24.2144 7.69183 24.1504 8.09724 24.041C8.49032 23.9338 8.84102 23.735 9.12543 23.4444C9.3921 23.1723 9.5054 22.7924 9.55627 22.427C9.61022 22.0401 9.52314 21.6301 9.44837 21.2524C9.38055 20.9087 9.29961 20.5672 9.22177 20.2258C9.07302 19.5668 8.9204 18.9086 8.77164 18.2488C8.60593 17.5159 8.44793 16.7767 8.35699 16.0299C8.34465 15.8734 8.33849 15.7177 8.33772 15.5597C8.3408 15.5104 8.34466 15.4618 8.3516 15.4133C8.35854 15.3763 8.36702 15.34 8.3755 15.3038C8.37781 15.2961 8.38088 15.2884 8.38319 15.2815C8.45024 15.2876 8.51575 15.2946 8.58204 15.3038C9.39517 15.4626 10.2021 15.6553 11.0107 15.8333C11.8338 16.0144 12.6577 16.1886 13.484 16.352C13.9426 16.443 14.405 16.5208 14.8675 16.5917C15.3523 16.6665 15.8479 16.7112 16.3342 16.6326C16.7658 16.5624 17.2437 16.2934 17.4418 15.8865C17.5319 15.7023 17.5982 15.5196 17.6368 15.3185C17.6776 15.105 17.6938 14.8868 17.6992 14.6703C17.7046 14.4514 17.7084 14.2325 17.7092 14.0136C17.71 13.5997 17.7061 13.1866 17.703 12.7727C17.6946 11.5881 17.6599 10.405 17.6761 9.22032C17.6861 9.01684 17.7015 8.81568 17.7277 8.61451C18.0776 8.78947 18.4183 8.98448 18.7613 9.17023C19.1335 9.37216 19.5074 9.57178 19.8819 9.76909C20.2265 9.95099 20.5756 10.1229 20.924 10.2955C21.3255 10.4944 21.731 10.6901 22.1441 10.8628C22.6073 11.057 23.0967 11.2142 23.6023 11.2304C24.0478 11.2443 24.4925 11.0508 24.7608 10.6878C25.1022 10.2254 25.3041 9.66736 25.5338 9.14325C25.876 8.36171 26.2175 7.58095 26.5635 6.80095C26.582 6.75933 26.5997 6.71848 26.6182 6.67763C26.6044 6.70846 26.5905 6.73929 26.5766 6.76935C26.8032 6.2676 27.0267 5.76507 27.2672 5.27025C27.5732 4.64132 27.8769 4.01008 28.2391 3.41044C28.3386 3.25784 28.4418 3.10985 28.552 2.96495C28.6137 2.89327 28.6777 2.82468 28.7447 2.75686C28.7201 2.77998 28.6954 2.80232 28.6708 2.82545C28.727 2.76995 28.7864 2.71831 28.8496 2.67052C28.8696 2.65742 28.8896 2.64509 28.9104 2.63276C28.9289 2.62428 28.9482 2.61581 28.9667 2.60733C28.9713 2.60579 28.9767 2.60424 28.9814 2.6027C28.9844 2.6027 28.9875 2.6027 28.9914 2.6027C28.9991 2.60347 29.0068 2.60424 29.0153 2.60578C29.0222 2.60732 29.0292 2.60887 29.0361 2.61118C29.0569 2.61889 29.0785 2.62659 29.0993 2.6343C29.087 2.62891 29.0738 2.62275 29.0615 2.61735C29.0631 2.61812 29.0654 2.61812 29.0669 2.61889C29.1031 2.63508 29.1378 2.6528 29.1725 2.67284C29.3159 2.76841 29.4523 2.87247 29.5864 2.98037C30.8227 4.00623 32.0281 5.0714 33.3006 6.05255C33.9164 6.52733 34.5338 7.01984 35.229 7.37361C35.6144 7.56938 36.0722 7.67036 36.5015 7.60022C36.927 7.53008 37.3039 7.22718 37.4673 6.82947C37.6576 6.36548 37.7393 5.85834 37.8411 5.36968C37.9174 5.0005 37.9914 4.63131 38.0646 4.26135C38.1455 3.85979 38.2249 3.45746 38.3082 3.05513C38.3729 2.74144 38.4361 2.4262 38.5078 2.11328C39.3695 3.08982 40.2234 4.07329 41.0967 5.03826C41.6801 5.6826 42.2651 6.32309 42.8578 6.95896C43.4151 7.55629 43.9723 8.15515 44.5527 8.7309C45.1354 9.30741 45.7096 9.90706 46.4295 10.3148C46.8626 10.5599 47.4107 10.6254 47.8731 10.4296C48.1413 10.3163 48.3957 10.166 48.6523 10.0281C49.0839 9.80763 49.5179 9.5895 49.961 9.39296C50.425 9.18717 50.8936 8.99834 51.3684 8.81876C51.568 8.75248 51.7669 8.68696 51.9658 8.62068C52.1561 8.55825 52.355 8.51586 52.5492 8.46345C52.6201 8.44803 52.691 8.43417 52.7619 8.42106C52.6317 9.12475 52.439 9.82073 52.2671 10.5144C52.0883 11.2366 51.9002 11.9557 51.7052 12.6725C51.605 13.0062 51.5048 13.34 51.3939 13.6698C51.269 14.0383 51.1349 14.3997 50.9938 14.762C50.9191 14.92 50.8435 15.0764 50.7595 15.2314C50.7017 15.3177 50.6401 15.4032 50.6031 15.5004C50.4574 15.888 50.6663 16.3343 51.0532 16.4769C51.38 16.5979 51.7438 16.4723 51.938 16.1994C51.9365 16.2017 51.9357 16.204 51.9341 16.2071C52.1461 15.9142 52.3103 15.5713 52.4413 15.2352C52.513 15.0502 52.5947 14.8668 52.6579 14.6787C52.7365 14.4444 52.8167 14.2094 52.8953 13.975C53.1581 13.1966 53.3585 12.3958 53.5627 11.5996C53.7531 10.8558 53.9442 10.1113 54.113 9.36291C54.1616 9.14556 54.2094 8.92821 54.2533 8.70932C54.2841 8.55517 54.3096 8.39948 54.3204 8.24224C54.3273 8.13665 54.3281 8.02413 54.3104 7.91931C54.2849 7.77364 54.2472 7.64645 54.1947 7.50772C54.1616 7.41909 54.093 7.32661 54.0337 7.25339C53.9651 7.1686 53.8803 7.11002 53.7909 7.0499C53.6082 6.92581 53.4016 6.88189 53.1858 6.85799C53.0795 6.84643 52.97 6.85953 52.8644 6.87032C52.7334 6.88342 52.6055 6.90115 52.476 6.92428C52.3118 6.95433 52.1484 6.99595 51.9881 7.03988C51.1773 7.25877 50.385 7.54163 49.6165 7.88153C48.865 8.21449 48.129 8.57829 47.4068 8.97291C47.4353 8.95749 47.4646 8.94208 47.4939 8.92667C47.4369 8.95904 47.3783 8.98833 47.3182 9.01376C47.3081 9.01685 47.2989 9.01916 47.2889 9.02224H47.2873C47.275 9.01916 47.2627 9.01607 47.2503 9.01299C47.2234 9.00297 47.1964 8.99295 47.1694 8.9837C47.1393 8.96906 47.1093 8.95288 47.08 8.93592C46.932 8.83881 46.791 8.73552 46.6522 8.62608C46.2838 8.31084 45.9447 7.96786 45.5994 7.62642C45.3944 7.42294 45.194 7.21715 44.9944 7.00828C44.5096 6.50113 44.0309 5.99013 43.5523 5.47759C43.5754 5.50225 43.5986 5.52692 43.6209 5.55235C42.5249 4.35924 41.4412 3.15609 40.373 1.93986C40.0947 1.62308 39.8165 1.30554 39.539 0.987224C39.4088 0.83847 39.2785 0.68895 39.146 0.540967C38.8916 0.25502 38.5648 -0.0671548 38.144 0.012232C37.9706 0.0446033 37.8126 0.10318 37.6738 0.214938C37.5089 0.348277 37.3979 0.545588 37.32 0.739816C37.1636 1.13135 37.0765 1.54756 36.9863 1.95913C36.9008 2.3499 36.8198 2.74221 36.7412 3.13375C36.6464 3.60314 36.5532 4.07252 36.4584 4.5419C36.3543 5.0529 36.2626 5.57007 36.1254 6.07413C36.1239 6.07876 36.1223 6.08339 36.1208 6.08879C36.1038 6.08493 36.0869 6.08108 36.0707 6.07645C36.0267 6.06181 35.9828 6.04562 35.9404 6.02789C35.8425 5.97856 35.7477 5.92539 35.6537 5.86912C34.7951 5.32267 34.0051 4.67909 33.2158 4.0386C32.6093 3.53531 32.005 3.02893 31.403 2.52023C31.0716 2.24045 30.741 1.96067 30.4042 1.68783C30.0666 1.41421 29.6665 1.1514 29.2241 1.10053C29.0207 1.07663 28.8041 1.07046 28.6052 1.12981C28.3509 1.20611 28.1043 1.31865 27.8969 1.48744C27.2688 1.99921 26.868 2.71215 26.4957 3.41892C26.2922 3.80661 26.1011 4.19814 25.9092 4.59122C25.5585 5.31264 25.2348 6.04947 24.9126 6.78399C24.5465 7.61717 24.1827 8.45189 23.815 9.28429C23.7572 9.41301 23.6956 9.53787 23.6278 9.66196C23.6455 9.63268 23.664 9.60338 23.6825 9.57409C23.6555 9.6211 23.6255 9.66736 23.5946 9.71129C23.5677 9.70898 23.5407 9.70666 23.5137 9.70357C23.4189 9.68662 23.3272 9.66505 23.2331 9.64038C23.0142 9.57179 22.8015 9.49085 22.5888 9.40298C21.8782 9.07233 21.1729 8.73167 20.4793 8.36557C20.1031 8.16748 19.7286 7.96555 19.3548 7.76284C18.9393 7.53779 18.527 7.30193 18.0946 7.11079C17.9135 7.03063 17.7038 6.97745 17.5065 6.97822C17.4025 6.97822 17.2961 6.97591 17.1959 7.00982C17.1019 7.04219 16.9932 7.0684 16.91 7.12621C16.7373 7.24644 16.5747 7.37361 16.4776 7.5663C16.3604 7.80061 16.2841 8.03723 16.2409 8.2962C16.1485 8.8442 16.1415 9.41377 16.1477 9.96948C16.1562 10.8057 16.1716 11.642 16.1808 12.4783C16.1885 13.2004 16.1978 13.9226 16.1831 14.6448C16.1754 14.7766 16.1646 14.9069 16.1461 15.0379C16.1423 15.0587 16.1377 15.0803 16.1323 15.1011C16.1292 15.108 16.1269 15.115 16.1246 15.1219C16.1192 15.1242 16.1138 15.1265 16.1076 15.1288C16.093 15.1327 16.0776 15.1366 16.0629 15.1404C16.0367 15.1443 16.0105 15.1489 15.9843 15.1535C15.9118 15.1581 15.8394 15.1597 15.7669 15.1597C15.4463 15.1404 15.1319 15.1003 14.8143 15.0525C13.1996 14.7674 11.6003 14.4113 9.99945 14.0583C9.52082 13.9527 9.04064 13.8271 8.55353 13.7739C8.1327 13.7276 7.70956 13.8348 7.38662 14.1107C7.01974 14.4244 6.88641 14.9007 6.82937 15.3601C6.797 15.6221 6.82012 15.8973 6.84478 16.1586C6.86251 16.3428 6.88487 16.5285 6.91647 16.7112C6.9604 16.9563 7.00357 17.2022 7.04673 17.4473C7.11302 17.8226 7.20318 18.1964 7.28719 18.5687C7.41205 19.1221 7.53847 19.6732 7.66487 20.2258C7.80515 20.8408 7.96853 21.459 8.04483 22.0856C8.04792 22.1295 8.04947 22.1742 8.04947 22.2189C8.04716 22.2552 8.04407 22.2922 8.03945 22.3284C8.03559 22.343 8.03173 22.3569 8.02788 22.3715C8.02479 22.3793 8.02171 22.3877 8.01786 22.3954C8.01323 22.4047 8.00785 22.4139 8.00323 22.4232C8.00091 22.427 7.99782 22.4301 7.99551 22.434C7.99397 22.4355 7.99319 22.4363 7.99165 22.4378C7.97932 22.4478 7.96699 22.4586 7.95465 22.4687C7.93153 22.4833 7.90841 22.4979 7.88529 22.511C7.82517 22.5403 7.76274 22.565 7.69954 22.5858C7.7296 22.575 7.76045 22.5635 7.79128 22.5519C7.688 22.5843 7.5847 22.6128 7.47988 22.639C7.29182 22.6737 7.10377 22.6991 6.91339 22.7199C6.49179 22.7523 6.07173 22.7554 5.64936 22.7608C5.68173 22.7615 5.71411 22.7631 5.74648 22.7639C5.48211 22.7561 5.21775 22.7484 4.95339 22.7407C4.14642 22.7145 3.33944 22.6428 2.53401 22.5874C2.34133 22.5742 2.14865 22.5635 1.95751 22.5519C1.52358 22.5257 1.04493 22.518 0.650311 22.7207C0.283436 22.908 0.0452827 23.2433 0.0067454 23.6564C-0.0402701 24.1558 0.165518 24.6522 0.405219 25.0792C0.752055 25.695 1.17364 26.2561 1.59293 26.8218C1.81644 27.124 2.05385 27.4153 2.2897 27.7074C2.83076 28.3787 3.37797 29.0431 3.92443 29.709C4.21654 30.0644 4.5125 30.4173 4.78149 30.7896C4.8339 30.8713 4.884 30.9538 4.93102 31.0386C4.93795 31.0548 4.94412 31.0709 4.95106 31.0864C4.95645 31.1025 4.96109 31.1195 4.96649 31.1357L4.96726 31.138C4.96649 31.1403 4.96648 31.1419 4.96571 31.1442C4.96494 31.148 4.9634 31.1511 4.96263 31.155C4.95569 31.1681 4.94875 31.1812 4.94104 31.1943C4.93873 31.1966 4.93719 31.1989 4.93488 31.2012C4.94181 31.1904 4.94876 31.1789 4.95569 31.1681C4.94028 31.1889 4.92486 31.2097 4.90945 31.2305C4.89172 31.2505 4.87323 31.2698 4.85396 31.2883C4.73912 31.3877 4.62042 31.4794 4.49787 31.5673C3.83735 32.0043 3.15986 32.4144 2.48469 32.829C2.15558 33.0325 1.82647 33.2352 1.50122 33.4448C1.16594 33.6622 0.812931 33.8826 0.566293 34.2032C0.287283 34.5678 0.13237 35.0349 0.264938 35.4912C0.51466 36.3475 1.34089 36.84 2.09082 37.2176C2.45924 37.4034 2.83074 37.583 3.20764 37.751C3.95603 38.0847 4.70828 38.4084 5.46053 38.7322C6.19813 39.0497 6.93342 39.3711 7.66563 39.6994C7.66177 39.6979 7.65793 39.6956 7.65408 39.694C8.89189 40.2498 10.1266 40.8132 11.3421 41.4159C11.561 41.5246 11.8099 41.5246 12.018 41.4305C12.1637 41.3573 12.2886 41.2455 12.3703 41.0922Z" fill="black"/>
<path d="M38.3698 25.0129C37.7917 23.6448 37.0965 22.3238 36.4144 21.0058C36.0622 20.326 35.7053 19.6493 35.3446 18.9741C35.1643 18.6358 34.977 18.3005 34.7851 17.9683C34.6833 17.791 34.5785 17.6153 34.4706 17.4403C34.3087 17.1783 34.0351 17.0141 33.7214 17.0403C33.3083 17.0742 32.9954 17.455 33.0324 17.865C33.0455 18.0115 33.101 18.1448 33.185 18.2543C33.2274 18.3144 33.2651 18.3776 33.3037 18.4408C33.958 19.5776 34.5677 20.7399 35.1673 21.9068C35.7608 23.0591 36.3612 24.2121 36.8838 25.3991C36.9023 25.4422 36.9208 25.4862 36.9393 25.5293C37.0202 25.7197 37.1474 25.8754 37.3401 25.9632C37.5189 26.0449 37.7278 26.0534 37.9127 25.9864C37.9305 25.9802 37.9474 25.9733 37.9644 25.9656C38.3081 25.8091 38.5232 25.3767 38.3698 25.0129Z" fill="black"/>
<path d="M33.2212 25.6688C33.5811 25.4838 33.7499 25.0067 33.5487 24.6445C33.0023 23.6564 32.4581 22.6675 31.9148 21.6771C31.6419 21.18 31.3745 20.6798 31.0993 20.1834C30.9382 19.8944 30.7764 19.6069 30.6107 19.3202C30.5351 19.1891 30.4542 19.0604 30.3748 18.9309C30.297 18.8045 30.2137 18.6689 30.0966 18.5749C29.7729 18.3167 29.2958 18.3483 29.0252 18.6712C28.7855 18.9587 28.794 19.4042 29.0491 19.6755C29.1193 19.7749 29.1802 19.8828 29.2426 19.9876C29.752 20.8709 30.2322 21.7704 30.7224 22.6637C31.2134 23.5554 31.7036 24.4479 32.1961 25.3389C32.3903 25.6904 32.8173 25.8507 33.1865 25.6834C33.1988 25.6796 33.2096 25.6742 33.2212 25.6688Z" fill="black"/>
</svg>
