<svg width="71" height="45" viewBox="0 0 71 45" fill="none" xmlns="http://www.w3.org/2000/svg">
<path d="M31.721 44.6999C31.1412 44.6949 30.5628 44.6571 29.9859 44.605C29.4417 44.5558 28.9054 44.4745 28.3663 44.3932C27.7993 44.3083 27.2373 44.2178 26.6753 44.1008C25.8338 43.9268 25.0022 43.6922 24.1963 43.3941C23.7342 43.2229 23.2721 43.0524 22.8099 42.8813C21.0241 42.2216 19.3325 41.2973 17.7592 40.2311C16.8549 39.6171 15.992 38.9446 15.179 38.2136C14.4016 37.5139 13.6884 36.7558 13.0245 35.9478C12.3534 35.132 11.7593 34.2583 11.2102 33.3569C10.6582 32.4511 10.1946 31.4926 9.82947 30.4963C9.45933 29.4829 9.23255 28.4203 9.09277 27.3512C8.94942 26.2587 8.94799 25.1525 9.04784 24.0564C9.14839 22.9574 9.39658 21.8712 9.71964 20.8171C10.0399 19.7724 10.4428 18.7525 10.9149 17.7669C11.3863 16.782 11.934 15.8364 12.5324 14.9242C13.1201 14.0292 13.7548 13.1648 14.4444 12.3454C15.8301 10.6965 17.4369 9.22737 19.1571 7.93439C19.8916 7.3824 20.6626 6.86749 21.4549 6.4025C21.9727 6.09869 22.4904 5.79488 23.0089 5.49107C23.3284 5.3035 23.6607 5.13948 23.9888 4.9676C24.2769 4.81712 24.5643 4.66664 24.8532 4.51616C24.9865 4.44627 25.1185 4.37424 25.2561 4.31219C25.2376 4.32075 25.2197 4.3286 25.2019 4.33716C25.8915 4.02193 26.5819 3.70529 27.2722 3.39078C27.5889 3.251 27.9184 3.13689 28.24 3.01065C28.6408 2.85376 29.0409 2.69757 29.441 2.53996C29.5173 2.51001 29.5979 2.4879 29.6764 2.46223C29.921 2.38164 30.1656 2.30033 30.4102 2.22046C30.8317 2.08139 31.2539 1.94161 31.6754 1.80254C31.9984 1.69556 32.3358 1.62638 32.6645 1.5408C33.0882 1.43097 33.5118 1.32043 33.9361 1.21203C34.0167 1.19135 34.0994 1.17923 34.1807 1.16354C34.4332 1.11433 34.6871 1.06583 34.9396 1.01662C35.3767 0.932466 35.8132 0.847602 36.2504 0.763447C36.5941 0.697122 36.9436 0.651476 37.2902 0.600128C37.7766 0.528098 38.2637 0.46748 38.7529 0.418984C39.7506 0.319853 40.7576 0.277059 41.7596 0.297028C42.2339 0.306299 42.7082 0.341251 43.1803 0.384041C43.4342 0.406863 43.6895 0.426825 43.9412 0.464624C44.392 0.530949 44.842 0.597279 45.292 0.663604C46.7083 0.872563 48.1161 1.15427 49.4797 1.59715C50.3769 1.88812 51.2448 2.27822 52.0564 2.75961C52.4137 2.97143 52.766 3.21819 53.0613 3.51059C53.2923 3.73881 53.5355 4.01694 53.6083 4.34286C53.6318 4.44841 53.6311 4.55467 53.6083 4.65451C53.9313 4.86918 54.2487 5.09169 54.5575 5.32561C55.1345 5.76208 55.6629 6.25915 56.1843 6.75909C56.7149 7.26687 57.239 7.79462 57.6912 8.37372C58.6383 9.5854 59.4299 10.9026 60.0632 12.304C60.3706 12.983 60.6366 13.684 60.8377 14.4022C60.9426 14.7766 61.0424 15.1517 61.1387 15.529C61.2357 15.9098 61.3034 16.3006 61.3811 16.6857C61.6771 18.1649 61.8333 19.6761 61.8568 21.1844C61.8682 21.9383 61.839 22.6921 61.7527 23.4409C61.665 24.2104 61.5502 24.9771 61.3605 25.7288C61.1615 26.5147 60.9475 27.2999 60.6744 28.0637C60.6844 28.0352 60.6951 28.0066 60.7043 27.9781C60.5731 28.3468 60.449 28.7191 60.3007 29.0807C60.2194 29.2789 60.1374 29.4772 60.0554 29.6755C59.9791 29.8609 59.8871 30.0406 59.8029 30.2232C59.6317 30.5926 59.4406 30.9506 59.2545 31.3122C59.1767 31.462 59.0854 31.6053 58.9999 31.7515C58.9157 31.897 58.8344 32.0439 58.7424 32.1844C58.5199 32.5267 58.2981 32.8683 58.0613 33.2007C57.9344 33.379 57.8082 33.5565 57.6812 33.7348C57.5707 33.8903 57.4416 34.0351 57.3232 34.1849C57.2119 34.3239 57.1057 34.468 56.9844 34.5978C56.8226 34.7718 56.6599 34.9465 56.4973 35.1205C56.2306 35.4072 55.9382 35.6683 55.6522 35.9364C55.3755 36.1967 55.0717 36.4306 54.7815 36.6745C54.4705 36.9356 54.1396 37.173 53.8172 37.4184C53.5156 37.6494 53.1975 37.8584 52.8866 38.0759C52.5956 38.2785 52.2982 38.4674 51.9979 38.6579C51.6948 38.8497 51.3953 39.0458 51.0844 39.2248C50.7128 39.4395 50.3412 39.6542 49.9697 39.8681C49.8392 39.943 49.7022 40.0093 49.5682 40.0799C49.3157 40.2133 49.0618 40.3474 48.8086 40.4807C48.5276 40.6291 48.2417 40.7646 47.955 40.9029C47.6133 41.067 47.2753 41.2453 46.9266 41.395C46.4944 41.5805 46.0608 41.7652 45.6286 41.9506C44.9218 42.253 44.1915 42.4962 43.4698 42.7586C43.1467 42.8756 42.8073 42.9583 42.4785 43.0546C42.2303 43.128 41.9814 43.2015 41.7332 43.2742C41.6256 43.3063 41.5186 43.3434 41.4087 43.3691C40.9687 43.4732 40.5287 43.5795 40.088 43.6843C39.8127 43.7499 39.5388 43.8184 39.2607 43.8719C38.755 43.9682 38.2494 44.0644 37.7438 44.16C37.4592 44.2142 37.1746 44.2534 36.8872 44.2934C36.4101 44.3597 35.933 44.426 35.4559 44.4916C35.1378 44.5358 34.8126 44.5465 34.4917 44.5722C34.0952 44.6043 33.6979 44.6357 33.3014 44.6678C33.0468 44.6885 32.7886 44.6877 32.5333 44.6935C32.3522 44.6977 32.1717 44.6992 31.9906 44.6992C31.9022 44.7006 31.8116 44.7006 31.721 44.6999ZM33.0782 43.2728C33.4098 43.2564 33.7414 43.2229 34.0723 43.1965C34.466 43.1644 34.859 43.133 35.2519 43.1016C35.329 43.0959 35.406 43.081 35.483 43.0703C35.7241 43.0368 35.9651 43.0032 36.2069 42.9697C36.5563 42.9212 36.9058 42.8727 37.2545 42.8242C37.7823 42.7222 38.3107 42.6231 38.8392 42.5226C39.2607 42.442 39.6765 42.3378 40.0929 42.2387C40.5159 42.1374 40.9409 42.0447 41.3588 41.9213C41.8866 41.7652 42.4136 41.6111 42.9414 41.4542C43.5483 41.2346 44.1552 41.0128 44.7621 40.7924C44.837 40.7653 44.9097 40.7289 44.9839 40.6975C45.1714 40.617 45.359 40.5364 45.5473 40.4565C45.8397 40.331 46.1321 40.2047 46.4252 40.0807C46.8089 39.8959 47.1926 39.7112 47.5756 39.5272C47.8808 39.3796 48.1796 39.2234 48.4791 39.0651C48.8058 38.8932 49.1367 38.7263 49.4562 38.5423C49.8377 38.3227 50.2186 38.1016 50.6015 37.8827C51.1293 37.5482 51.6585 37.2194 52.1712 36.8621C52.4344 36.6788 52.704 36.5019 52.9593 36.308C53.256 36.0812 53.5519 35.8551 53.8486 35.6283C53.8429 35.6333 53.8365 35.6383 53.8308 35.6433C54.1881 35.3438 54.5475 35.0485 54.8884 34.729C55.0667 34.5621 55.2529 34.4009 55.419 34.2219C55.5995 34.0287 55.7806 33.834 55.961 33.64C56.1657 33.3832 56.3704 33.1265 56.5744 32.8698C56.6699 32.7499 56.7534 32.6194 56.8425 32.4946C56.931 32.3691 57.0208 32.2443 57.11 32.1188C57.3446 31.7586 57.5785 31.4021 57.7946 31.0305C57.8923 30.8629 57.9943 30.6974 58.0834 30.5249C58.204 30.2916 58.3245 30.0577 58.445 29.8238C58.4308 29.8509 58.4172 29.878 58.4029 29.9058C58.5235 29.6455 58.644 29.3852 58.7638 29.1249C58.8273 28.9858 58.8801 28.841 58.9385 28.6998C58.9892 28.5772 59.0455 28.4552 59.0904 28.3304C59.0804 28.359 59.0698 28.3875 59.0605 28.416C59.1603 28.135 59.2602 27.854 59.3607 27.5737C59.4813 27.1965 59.6046 26.8206 59.7152 26.4405C59.83 26.0461 59.932 25.6496 60.0325 25.2517C60.1053 24.9072 60.1773 24.5649 60.2322 24.2175C60.2943 23.8246 60.3406 23.4316 60.3863 23.0365C60.4134 22.6607 60.4383 22.287 60.4483 21.9104C60.4583 21.5317 60.4512 21.1538 60.4462 20.7751C60.4333 20.5326 60.4212 20.2908 60.4084 20.0483C60.3948 19.788 60.3642 19.5292 60.3428 19.2696C60.3 18.7682 60.2237 18.2683 60.1523 17.7698C60.0632 17.2741 59.9726 16.7792 59.8649 16.2864C59.7501 15.7565 59.6125 15.2344 59.4656 14.7124C59.355 14.3565 59.2459 13.9985 59.1061 13.6533C58.9606 13.2946 58.8102 12.9416 58.6518 12.5893C58.5171 12.3204 58.3837 12.0508 58.2418 11.7855C58.0877 11.4967 57.9244 11.2136 57.7604 10.9297C57.565 10.6231 57.3667 10.3193 57.1627 10.0169C56.9709 9.7316 56.7562 9.4613 56.5444 9.18958C56.2599 8.85724 55.9682 8.53488 55.6629 8.22037C55.3584 7.90801 55.0403 7.60847 54.7215 7.31037C54.7451 7.33176 54.7686 7.35316 54.7921 7.37456C54.5418 7.14563 54.2894 6.92169 54.0305 6.70275C53.7787 6.48951 53.5099 6.29695 53.2424 6.1044C52.204 5.39479 51.12 4.75508 50.0339 4.12249C49.7165 3.9385 49.606 3.51985 49.7686 3.19893C49.6509 3.15114 49.5318 3.10479 49.4127 3.06057C48.6674 2.79812 47.905 2.59131 47.1341 2.42086C47.1377 2.42158 47.1412 2.42228 47.1448 2.423C47.1405 2.42228 47.137 2.42086 47.1327 2.42015C47.1077 2.41444 47.082 2.40874 47.0571 2.40375C47.077 2.40803 47.0977 2.41302 47.1177 2.41729C46.6427 2.31602 46.1642 2.21476 45.6835 2.14415C45.4168 2.10493 45.1508 2.0657 44.8848 2.02647C44.5681 1.9794 44.2515 1.93305 43.9355 1.88669C43.6403 1.84319 43.345 1.8111 43.0476 1.78257C42.1219 1.7027 41.1984 1.68344 40.2698 1.72124C40.2998 1.72053 40.3297 1.7191 40.3597 1.71767C39.7385 1.74548 39.1195 1.79256 38.5019 1.86102C37.8557 1.93234 37.2117 2.03075 36.5706 2.13416C35.8082 2.2825 35.0458 2.42728 34.2849 2.57634C34.2 2.59274 34.1158 2.61912 34.0324 2.64123C33.7749 2.70755 33.5182 2.77388 33.2615 2.84091C32.8906 2.93648 32.5191 3.03276 32.1482 3.12904C31.4186 3.37366 30.6869 3.61185 29.9552 3.85219C29.8639 3.88215 29.7741 3.9228 29.6849 3.95775C29.4353 4.05545 29.1857 4.15316 28.9361 4.25086C28.5545 4.40063 28.1716 4.54897 27.79 4.70016C27.8093 4.6916 27.8285 4.68233 27.8485 4.67377C27.8414 4.67734 27.8335 4.6809 27.8264 4.68375C27.1346 4.99969 26.4435 5.31705 25.751 5.63227C25.7789 5.61944 25.8067 5.60732 25.8345 5.59448C25.7439 5.63584 25.6562 5.68719 25.5678 5.73354C25.3467 5.84908 25.1256 5.96462 24.9052 6.08015C24.5551 6.26344 24.2049 6.44672 23.8547 6.6293C23.7527 6.68207 23.6557 6.74554 23.5566 6.80402C23.3384 6.93239 23.1202 7.06005 22.9012 7.18842C22.5482 7.39595 22.1895 7.59635 21.8429 7.81458C21.3565 8.12267 20.8758 8.43718 20.4065 8.76952C19.8923 9.13324 19.3967 9.52334 18.911 9.92343C17.9218 10.75 16.984 11.6322 16.1125 12.5814C15.3851 13.3887 14.7154 14.2403 14.0942 15.1317C13.488 16.0139 12.9303 16.9246 12.4361 17.8746C12.0268 18.6805 11.6673 19.5078 11.3592 20.3564C11.106 21.076 10.8843 21.8049 10.7167 22.5494C10.5897 23.1492 10.4934 23.7533 10.435 24.3637C10.3914 24.9293 10.3793 25.4941 10.3986 26.0611C10.4271 26.6452 10.4906 27.2243 10.5847 27.8012C10.6839 28.3611 10.8094 28.9152 10.9698 29.4615C11.1417 30.0064 11.3478 30.5377 11.5817 31.059C11.8948 31.7315 12.2543 32.3762 12.6472 33.0053C13.1464 33.7898 13.687 34.5421 14.2789 35.2582C14.2761 35.2546 14.2732 35.251 14.2704 35.2475C14.8124 35.8908 15.3922 36.497 16.0091 37.0682C16.7465 37.7365 17.526 38.3533 18.3412 38.9253C19.2291 39.5372 20.1526 40.0942 21.109 40.592C21.8728 40.98 22.6594 41.3287 23.4632 41.6254C23.9032 41.788 24.3432 41.9513 24.7833 42.1139C25.4529 42.3393 26.1255 42.5425 26.8158 42.6966C27.1646 42.7707 27.5161 42.8456 27.8692 42.8977C28.1074 42.9333 28.3449 42.969 28.5831 43.0047C28.8427 43.0432 29.1015 43.0824 29.3611 43.1209C29.6706 43.1673 29.983 43.1958 30.2954 43.2243C31.2189 43.2978 32.1475 43.307 33.0782 43.2728Z" fill="white"/>
<path d="M24.5001 28.7576C23.4596 28.6692 22.4547 28.3811 21.5162 27.9246C20.619 27.4882 19.8188 26.8535 19.2034 26.0675C18.5744 25.2638 18.1643 24.3195 17.8469 23.3553C17.2949 21.6808 17.2443 19.8772 17.6651 18.1677C17.8669 17.3476 18.1743 16.546 18.6029 15.8171C19.0636 15.0355 19.632 14.3195 20.2567 13.6626C21.3864 12.4745 22.7963 11.5138 24.4031 11.1159C24.5828 11.0717 24.7626 11.0267 24.9423 10.9825C25.0956 10.9447 25.2539 10.9233 25.4087 10.8948C25.6711 10.8449 25.945 10.8263 26.2146 10.8171C26.3515 10.6338 26.5719 10.514 26.8094 10.5361C27.1838 10.571 27.5589 10.6159 27.9276 10.6922C28.2935 10.7686 28.6665 10.8484 29.0181 10.9761C29.7598 11.2464 30.4494 11.6194 31.1269 12.0223C31.7852 12.4139 32.4042 12.8738 32.9926 13.3638C33.3042 13.6234 33.5909 13.9044 33.8726 14.1961C34.1308 14.4628 34.3583 14.7566 34.5879 15.0483C34.8226 15.3471 35.0294 15.6681 35.2376 15.9861C35.4452 16.3028 35.6156 16.643 35.7875 16.9796C35.8659 17.1336 35.9244 17.3012 35.9922 17.4603C36.1826 17.9103 36.3031 18.3924 36.3858 18.8731C36.4921 19.4921 36.495 20.1339 36.4372 20.7594C36.3965 21.2016 36.3509 21.6409 36.2625 22.0759C36.1733 22.5109 36.0292 22.9296 35.846 23.3339C35.7162 23.6192 35.5493 23.8895 35.3938 24.1612C34.9524 24.9343 34.3868 25.6118 33.6993 26.1788C33.3392 26.4755 32.9512 26.7365 32.5554 26.9825C32.2409 27.178 31.915 27.3662 31.5748 27.5146C31.1697 27.6907 30.7632 27.8569 30.3517 28.0166C30.0065 28.1507 29.6563 28.2741 29.3019 28.3768C28.8005 28.523 28.2935 28.62 27.7764 28.6885C27.3984 28.7377 27.0148 28.7712 26.6339 28.784C26.3166 28.7947 26.0006 28.8026 25.6847 28.8026C25.2896 28.804 24.8959 28.7919 24.5001 28.7576ZM25.8801 27.404C26.0284 27.399 26.1768 27.394 26.3251 27.389C26.462 27.3848 26.6018 27.3876 26.738 27.3748C27.111 27.3413 27.4833 27.3106 27.8542 27.2607C28.1943 27.2079 28.5274 27.1337 28.8597 27.0432C29.4146 26.8798 29.9516 26.6652 30.49 26.4555C30.6762 26.3742 30.8623 26.2929 31.0485 26.2123C31.236 26.1303 31.4157 26.0219 31.5962 25.9242C31.9492 25.7038 32.2994 25.482 32.6324 25.2317C32.8392 25.0684 33.0368 24.8979 33.2272 24.7161C33.4026 24.5356 33.5681 24.3474 33.7236 24.1491C33.9689 23.8146 34.1764 23.4609 34.3825 23.1022C34.4824 22.9175 34.5765 22.732 34.66 22.5388C34.7277 22.3633 34.7848 22.1857 34.8347 22.0046C34.9046 21.7101 34.9488 21.4141 34.9916 21.1153C35.0294 20.6931 35.0629 20.2723 35.0658 19.8472C35.0593 19.644 35.0437 19.4422 35.0187 19.2396C34.9788 18.9879 34.9274 18.7404 34.8611 18.4937C34.8133 18.3353 34.7605 18.1784 34.7035 18.023C34.6464 17.8882 34.5894 17.7534 34.5323 17.6179C34.4667 17.4631 34.3783 17.3148 34.3012 17.1657C34.1807 16.961 34.0595 16.7585 33.9297 16.5602C33.7885 16.3449 33.6401 16.1373 33.4904 15.9284C33.3527 15.7529 33.2158 15.5782 33.0696 15.4106C32.9106 15.228 32.7458 15.0547 32.5775 14.8807C32.4092 14.7245 32.2416 14.5698 32.0647 14.4229C31.8843 14.2724 31.6996 14.1276 31.5134 13.9828C31.2781 13.8124 31.0413 13.6448 30.8017 13.4808C30.5763 13.3274 30.3396 13.1898 30.1056 13.0507C29.6692 12.8068 29.2292 12.5786 28.7699 12.3825C28.5409 12.2997 28.3106 12.2284 28.0752 12.165C27.7187 12.0829 27.3614 12.0159 26.9984 11.9681C26.8814 12.1115 26.7117 12.2099 26.5198 12.2142C26.2303 12.2206 25.9443 12.2463 25.6569 12.2791C25.515 12.3047 25.3709 12.3254 25.2318 12.3596C25.05 12.4046 24.8688 12.4502 24.6877 12.4944C24.3888 12.5843 24.0965 12.6863 23.8076 12.8032C23.5723 12.9067 23.3433 13.0215 23.1194 13.147C22.842 13.3117 22.5767 13.4929 22.3192 13.6869C22.0076 13.9329 21.7123 14.1961 21.4285 14.4749C21.0605 14.8493 20.7189 15.2473 20.3965 15.6631C20.1769 15.9569 19.9736 16.26 19.7868 16.5752C19.627 16.8626 19.4872 17.1572 19.3617 17.461C19.2355 17.7897 19.1285 18.1235 19.0379 18.4637C18.9552 18.806 18.8896 19.1505 18.8439 19.4992C18.8047 19.8651 18.7876 20.2316 18.789 20.5989C18.7976 20.9363 18.8232 21.2707 18.8682 21.6052C18.9188 21.9212 18.9844 22.2328 19.0672 22.5423C19.1905 22.9652 19.3346 23.381 19.5029 23.7882C19.6299 24.0764 19.7668 24.3581 19.9215 24.6319C20.0356 24.8173 20.1569 24.9978 20.2867 25.1725C20.4165 25.3358 20.5527 25.4913 20.6975 25.6418C20.8686 25.8087 21.0476 25.9641 21.2359 26.111C21.4299 26.2508 21.6289 26.3799 21.8343 26.5019C22.0996 26.6481 22.372 26.7779 22.6523 26.8934C22.9482 27.0075 23.2478 27.1031 23.5544 27.1829C23.8262 27.2464 24.0986 27.2963 24.376 27.332C24.8767 27.3848 25.3766 27.404 25.8801 27.404Z" fill="white"/>
<path d="M28.0945 22.1823C27.9526 22.0582 27.8806 21.8927 27.8563 21.7087C27.7166 20.6561 27.5725 19.6041 27.4242 18.5529C27.4284 18.5829 27.4327 18.6128 27.4377 18.6428C27.3172 17.8176 27.1938 16.9918 27.0341 16.1738C26.9606 15.7972 27.1981 15.4207 27.5775 15.3401C27.9483 15.2623 28.337 15.5077 28.4105 15.8835C28.5952 16.8263 28.7335 17.7784 28.8676 18.7298C29.0017 19.6854 29.1322 20.6418 29.2592 21.5974C29.3091 21.9783 28.9803 22.3249 28.6137 22.3548C28.5959 22.3563 28.5774 22.357 28.5595 22.357C28.3891 22.3563 28.2222 22.2942 28.0945 22.1823Z" fill="white"/>
<path d="M41.0892 27.4975C39.1323 27.1815 37.3408 26.0091 36.3702 24.2682C36.1455 23.866 36.005 23.4138 35.8838 22.9717C35.7483 22.4753 35.6784 21.9611 35.6327 21.4498C35.5414 20.415 35.6506 19.3816 35.9408 18.386C36.092 17.8675 36.3088 17.3704 36.5235 16.8755C36.6397 16.6073 36.7581 16.3449 36.8879 16.0839C37.0249 15.8093 37.1546 15.5312 37.3108 15.2666C37.4991 14.9471 37.6803 14.6219 37.8821 14.3095C38.3271 13.6163 38.832 12.9637 39.3962 12.364C39.9531 11.7713 40.5872 11.2742 41.3039 10.8891C41.6626 10.6958 42.0492 10.5504 42.4328 10.4184C42.8051 10.29 43.1895 10.1888 43.5746 10.1089C43.9826 10.024 44.4019 9.99337 44.8184 10.0069C44.8227 10.0069 44.827 10.0069 44.8312 10.0076C44.9667 9.73307 45.2755 9.57545 45.5901 9.62394C46.341 9.74019 47.0799 9.91207 47.8009 10.1517C48.5055 10.387 49.1787 10.7386 49.8013 11.1394C50.4254 11.541 51.0023 12.0231 51.5529 12.5194C51.8524 12.789 52.1391 13.0693 52.418 13.361C52.9678 13.9372 53.4342 14.5969 53.7338 15.3379C53.9285 15.82 54.1003 16.3007 54.203 16.812C54.2886 17.2406 54.3193 17.6892 54.335 18.1257C54.3421 18.3232 54.3464 18.5179 54.34 18.7155C54.3343 18.9152 54.3143 19.1106 54.2943 19.3088C54.2059 20.1711 53.8928 20.9948 53.4542 21.7365C53.293 22.0082 53.0983 22.2592 52.9058 22.5096C52.7225 22.747 52.5385 22.9824 52.3431 23.2099C51.9494 23.6677 51.4965 24.06 51.0444 24.4565C50.9068 24.5777 50.7513 24.684 50.6065 24.7974C50.4689 24.9037 50.3334 25.0099 50.19 25.1076C49.9953 25.2403 49.7999 25.3744 49.6045 25.507C49.4476 25.614 49.2729 25.7017 49.1088 25.7973C48.9705 25.8772 48.835 25.967 48.6909 26.0376C48.4691 26.146 48.2473 26.2544 48.0255 26.3635C47.6604 26.5418 47.2796 26.6866 46.9044 26.8428C46.5536 26.9883 46.187 27.101 45.8218 27.2051C45.3069 27.352 44.7863 27.4575 44.2564 27.5331C43.7772 27.6016 43.2901 27.6358 42.803 27.6358C42.2282 27.6358 41.6533 27.5888 41.0892 27.4975ZM42.9271 26.2245C43.3507 26.2138 43.7715 26.1803 44.1915 26.1232C44.6002 26.059 45.0017 25.9713 45.4011 25.8643C45.8033 25.7481 46.1991 25.6147 46.5849 25.4542C46.7989 25.3658 47.0128 25.2767 47.2268 25.1875C47.5099 25.0484 47.7938 24.9101 48.0776 24.771C48.1946 24.714 48.3065 24.6391 48.4192 24.5735C48.5447 24.5007 48.671 24.428 48.7965 24.3545C49.0375 24.1898 49.2793 24.0258 49.5203 23.8617C49.6081 23.794 49.6958 23.7262 49.7828 23.6578C49.8926 23.5722 50.0096 23.4916 50.1144 23.4003C50.3897 23.16 50.6664 22.9225 50.9274 22.6664C51.2847 22.2992 51.6 21.9019 51.9123 21.4968C52.0607 21.2943 52.2019 21.0896 52.331 20.8735C52.4287 20.6945 52.5171 20.5119 52.5963 20.3244C52.6676 20.1375 52.7303 19.9478 52.7838 19.7546C52.8273 19.5756 52.8623 19.3958 52.8908 19.214C52.9029 19.0963 52.915 18.9779 52.9272 18.8602C52.94 18.7304 52.9372 18.5978 52.9393 18.4673C52.9243 18.0743 52.8972 17.6842 52.8559 17.292C52.8238 17.0923 52.7831 16.8962 52.7318 16.7C52.6448 16.4069 52.5342 16.1231 52.4194 15.8393C52.3374 15.6602 52.2497 15.4848 52.1534 15.3129C52.0485 15.1396 51.9373 14.9727 51.8168 14.8101C51.6099 14.5534 51.386 14.3181 51.1585 14.0806C50.6678 13.6077 50.1572 13.1613 49.6238 12.7377C49.3014 12.4995 48.9733 12.2769 48.6282 12.0716C48.308 11.899 47.9849 11.7406 47.6518 11.5959C47.3231 11.4739 46.9914 11.3677 46.6527 11.2742C46.4601 11.2264 46.2676 11.1829 46.0743 11.1423C46.0707 11.1494 46.0679 11.1573 46.0643 11.1644C45.8967 11.5124 45.4717 11.6551 45.1251 11.4925C45.1165 11.4882 45.1079 11.4846 45.0994 11.4803C45.0673 11.4696 45.0352 11.4597 45.0031 11.4511C44.9511 11.439 44.8983 11.429 44.8455 11.4211C44.7442 11.4126 44.6451 11.409 44.5438 11.4083C44.3827 11.4161 44.2222 11.4304 44.0617 11.4504C43.8135 11.4917 43.5696 11.5481 43.3264 11.613C42.9891 11.71 42.6596 11.8241 42.3337 11.9553C42.1262 12.0466 41.9258 12.1472 41.7282 12.2577C41.5385 12.3725 41.3559 12.4966 41.1784 12.63C40.9701 12.7961 40.7719 12.9716 40.5814 13.157C40.252 13.4936 39.9453 13.8495 39.6557 14.2211C39.3733 14.5969 39.1066 14.9834 38.867 15.3885C38.7286 15.6232 38.5903 15.8571 38.4519 16.0917C38.2993 16.3984 38.1467 16.705 37.9941 17.0117C37.927 17.1458 37.8735 17.2877 37.8143 17.4246C37.7309 17.6172 37.6453 17.809 37.5661 18.003C37.4192 18.3739 37.2909 18.7483 37.1896 19.1341C37.129 19.398 37.0812 19.6633 37.047 19.9314C37.0184 20.2224 37.0056 20.5112 37.0063 20.8029C37.0156 21.1595 37.0448 21.514 37.0926 21.8677C37.1397 22.1629 37.1996 22.4546 37.2766 22.7435C37.3387 22.9496 37.4092 23.1521 37.4891 23.3518C37.5433 23.473 37.6018 23.5914 37.6653 23.7077C37.7644 23.8696 37.87 24.0257 37.9841 24.1777C38.1089 24.3331 38.2408 24.4808 38.3806 24.6241C38.5617 24.7974 38.7493 24.9614 38.9469 25.1162C39.1273 25.2474 39.3127 25.3687 39.5053 25.4821C39.7064 25.5905 39.9104 25.6882 40.12 25.7773C40.3404 25.8615 40.5629 25.9349 40.7904 25.9984C41.0921 26.0718 41.3959 26.126 41.704 26.1667C42.1119 26.2095 42.5184 26.2266 42.9271 26.2245Z" fill="white"/>
<path d="M43.7793 21.8547C43.3963 21.8355 43.0932 21.4996 43.1118 21.1166C43.1588 20.1503 43.1767 19.1818 43.1966 18.2147C43.2059 17.7547 43.2138 17.2947 43.2123 16.8347C43.2116 16.5908 43.2095 16.3476 43.2066 16.103C43.2059 15.9711 43.2031 15.8398 43.2102 15.7079C43.2216 15.5075 43.3122 15.3406 43.4527 15.2001C43.7237 14.9291 44.2051 14.9905 44.4454 15.2636C44.5652 15.3998 44.6287 15.5817 44.6194 15.7635C44.618 15.7871 44.6159 15.8106 44.6123 15.8327C44.6023 16.0666 44.613 16.3041 44.6159 16.538C44.618 16.7491 44.6173 16.9602 44.618 17.1713C44.6194 17.6149 44.6059 18.06 44.5966 18.5035C44.5781 19.3986 44.5595 20.2936 44.516 21.1872C44.4982 21.5588 44.1801 21.8555 43.8114 21.8555C43.8014 21.8562 43.7907 21.8555 43.7793 21.8547Z" fill="white"/>
<path d="M32.248 8.03137C31.8857 7.96505 31.5933 7.58564 31.6818 7.21265C31.9071 6.2677 32.1446 5.32489 32.3814 4.3835C32.4926 3.94348 32.6039 3.50559 32.7109 3.06485C32.7736 2.80811 32.8357 2.55136 32.8963 2.29533C32.9833 1.93304 33.0403 1.43453 33.4269 1.26265C33.5973 1.18706 33.7778 1.16424 33.9582 1.22272C34.1365 1.2812 34.287 1.40957 34.3704 1.57788C34.4703 1.77757 34.4631 2.02219 34.3647 2.21974C34.3426 2.2932 34.3219 2.36736 34.3048 2.44153C34.3126 2.41158 34.3205 2.38091 34.3276 2.35096C33.9211 4.059 33.4718 5.75707 33.0653 7.46655C33.0211 7.65268 32.9277 7.81528 32.7658 7.92368C32.6495 8.00142 32.5105 8.04279 32.3714 8.04279C32.3307 8.04208 32.2894 8.03851 32.248 8.03137Z" fill="white"/>
<path d="M36.7368 6.39676C36.3574 6.32687 36.1049 5.95531 36.1712 5.57804C36.3745 4.41985 36.5406 3.25381 36.6926 2.08777C36.7182 1.85599 36.7439 1.62421 36.7682 1.39171C36.7853 1.23054 36.7931 1.05795 36.8437 0.903193C36.9029 0.72276 37.0313 0.550883 37.2082 0.471008C37.5562 0.312684 37.9755 0.432503 38.1517 0.785524C38.2301 0.941709 38.2423 1.12499 38.1973 1.29116C38.1874 1.34964 38.1802 1.40812 38.1731 1.46731C38.0198 2.92718 37.8094 4.3849 37.5555 5.83122C37.4963 6.16784 37.1903 6.40817 36.8587 6.40817C36.8181 6.40817 36.7774 6.40461 36.7368 6.39676Z" fill="white"/>
<path d="M41.9472 4.48339C41.888 3.77592 41.8216 3.06774 41.7546 2.36027C41.7225 2.01723 41.6876 1.6742 41.6576 1.33045C41.6505 1.24986 41.6426 1.16856 41.6369 1.08726C41.6284 0.961737 41.6063 0.825526 41.6191 0.700721C41.6369 0.528133 41.679 0.373378 41.796 0.238589C41.8737 0.148729 41.9814 0.0709899 42.0955 0.0367576C42.2766 -0.0174435 42.4606 -0.0153045 42.6332 0.0674235C42.8001 0.148012 42.9306 0.294209 42.9912 0.469649C43.0219 0.556657 43.0326 0.649372 43.0269 0.740659C43.0269 0.740659 43.0276 0.739234 43.0283 0.737807C43.0276 0.744226 43.0269 0.750639 43.0262 0.757058C43.039 1.04375 43.0697 1.32974 43.0975 1.61572C43.1275 1.93095 43.1581 2.24545 43.1874 2.56068C43.2444 3.16402 43.2993 3.76807 43.3507 4.37213C43.3828 4.75439 43.0854 5.09886 42.7053 5.12881C42.6867 5.13024 42.6682 5.13094 42.6503 5.13094C42.288 5.13166 41.9778 4.84711 41.9472 4.48339Z" fill="white"/>
<path d="M5.87134 35.2075C5.38995 35.1369 4.92282 34.9907 4.46996 34.8189C3.97858 34.6327 3.5193 34.386 3.08925 34.085C2.28907 33.523 1.64437 32.7592 1.16298 31.9127C0.968285 31.5711 0.785711 31.2188 0.64165 30.8529C0.568193 30.6668 0.482614 30.4821 0.420568 30.2917C0.363515 30.1155 0.305749 29.9408 0.248696 29.7646C0.0932241 29.2861 0.0126355 28.7797 0.00122473 28.2776C-0.0187441 27.3619 0.203052 26.3991 0.844907 25.7152C1.14943 25.3907 1.55166 25.1974 1.98313 25.1076C2.44526 25.0113 2.92737 25.0684 3.3731 25.2089C3.84522 25.3572 4.26028 25.6689 4.59405 26.0254C4.92425 26.3785 5.1432 26.8449 5.27299 27.3049C5.4142 27.8048 5.47339 28.3311 5.53187 28.846C5.57751 29.2497 5.59321 29.6583 5.58322 30.0649C5.57253 30.4478 5.22093 30.7509 4.84509 30.7317C4.45569 30.7124 4.16757 30.3765 4.17755 29.9935C4.17969 29.9065 4.18112 29.8202 4.18112 29.7339C4.16757 29.3003 4.12193 28.871 4.06488 28.4402C4.02708 28.1942 3.98643 27.9496 3.92723 27.7071C3.89942 27.6137 3.86875 27.5224 3.83381 27.4311C3.79744 27.3534 3.75964 27.2778 3.71827 27.2029C3.67762 27.1401 3.63626 27.0788 3.59276 27.0189C3.55496 26.9733 3.51573 26.9283 3.47508 26.8855C3.44013 26.8527 3.40448 26.8206 3.3674 26.7907C3.28824 26.7336 3.20765 26.6809 3.12421 26.6302C3.08355 26.6088 3.0429 26.5889 3.00082 26.5703C2.92879 26.5439 2.85748 26.5211 2.78474 26.5011C2.73624 26.4904 2.68774 26.4826 2.63854 26.4755C2.58077 26.4705 2.52229 26.4676 2.46452 26.4669C2.4096 26.469 2.35398 26.4733 2.29907 26.4797C2.32902 26.4755 2.35825 26.4712 2.38892 26.4662C2.3119 26.4755 2.23559 26.4883 2.16071 26.5068C2.13575 26.5147 2.11078 26.5232 2.08582 26.5332C2.05729 26.5461 2.02949 26.5603 2.00239 26.5746C1.97885 26.591 1.95532 26.6067 1.93178 26.6224C1.91039 26.6402 1.88899 26.6595 1.86831 26.6787C1.84691 26.7015 1.82694 26.7244 1.80698 26.7486C1.76347 26.8092 1.72282 26.8706 1.68359 26.934C1.64508 27.0075 1.60871 27.0809 1.57376 27.1565C1.54737 27.2279 1.52456 27.2992 1.50388 27.3719C1.47392 27.5039 1.44896 27.6358 1.4297 27.7706C1.41615 27.9196 1.40832 28.068 1.40618 28.2184C1.41117 28.3811 1.424 28.5422 1.44397 28.7041C1.47392 28.8824 1.51244 29.0564 1.55808 29.2312C1.67219 29.622 1.81625 29.9978 1.9653 30.3758C2.09866 30.676 2.24487 30.9677 2.40676 31.2544C2.54155 31.4791 2.6856 31.6959 2.84036 31.907C2.97087 32.0724 3.10851 32.2293 3.25472 32.382C3.42802 32.5503 3.60774 32.71 3.79744 32.8598C3.97003 32.9853 4.14689 33.1015 4.3316 33.2099C4.50276 33.3012 4.67678 33.3832 4.85508 33.4603C5.11824 33.5637 5.38568 33.655 5.65882 33.7291C5.87848 33.7805 6.09884 33.8204 6.32207 33.8497C6.50535 33.8661 6.68793 33.8746 6.87264 33.8746C7.03952 33.8682 7.20498 33.8554 7.37043 33.834C7.51735 33.8076 7.66212 33.7755 7.80689 33.7377C7.98305 33.6856 8.15492 33.625 8.32608 33.5565C8.52506 33.4695 8.71833 33.3747 8.90874 33.2699C9.15978 33.1172 9.39371 32.9468 9.62763 32.7713C9.7724 32.648 9.9136 32.5239 10.0505 32.3927C10.0933 32.3456 10.1354 32.2992 10.1761 32.2507C10.1946 32.2236 10.2146 32.1972 10.236 32.173C10.4906 31.887 10.9377 31.8521 11.2287 32.1067C11.5147 32.3563 11.5503 32.8134 11.2957 33.0994C11.0896 33.3647 10.84 33.5865 10.5847 33.8047C10.4349 33.9324 10.2709 34.0451 10.114 34.1635C9.72675 34.4544 9.28174 34.6848 8.83386 34.8666C8.38242 35.0506 7.92028 35.1733 7.43747 35.2425C7.23778 35.271 7.03524 35.2831 6.8327 35.2831C6.50892 35.2853 6.18656 35.2539 5.87134 35.2075Z" fill="white"/>
<path d="M63.0771 34.5507C62.4117 34.4552 61.7563 34.2398 61.1629 33.9239C60.6323 33.6414 60.1759 33.2485 59.7772 32.8013C59.467 32.4533 59.2238 32.0582 58.9927 31.656C58.8957 31.4877 58.8137 31.3137 58.7403 31.1332C58.6633 30.9428 58.6162 30.7117 58.6882 30.512C58.818 30.1519 59.2017 29.9387 59.5747 30.0599C59.8293 30.1433 60.0183 30.3773 60.0561 30.6354C60.0611 30.6497 60.0668 30.664 60.0725 30.6782C60.1581 30.8636 60.2586 31.0398 60.3606 31.2167C60.4576 31.37 60.5574 31.519 60.6658 31.6645C60.7849 31.8143 60.9097 31.9569 61.0424 32.0953C61.1579 32.2065 61.2777 32.3107 61.4033 32.4105C61.5309 32.5025 61.6614 32.5888 61.7976 32.6687C61.9317 32.7386 62.0665 32.8035 62.2049 32.8641C62.4095 32.9433 62.6171 33.0096 62.8296 33.0666C63.06 33.1201 63.2903 33.1622 63.5242 33.1929C63.7339 33.2121 63.9414 33.2235 64.1518 33.225C64.3479 33.2185 64.5412 33.2036 64.7352 33.1793C64.9442 33.1458 65.1488 33.1023 65.3535 33.0481C65.5546 32.9875 65.7522 32.9176 65.9469 32.8391C66.1715 32.74 66.3891 32.6295 66.603 32.5082C66.7963 32.3898 66.9824 32.2643 67.1628 32.1288C67.3183 32.0033 67.4681 31.8728 67.6129 31.7351C67.7919 31.5518 67.9587 31.36 68.1178 31.1582C68.284 30.9328 68.4373 30.7003 68.5785 30.4586C68.719 30.204 68.8438 29.9436 68.9558 29.6755C69.0463 29.4394 69.1248 29.2012 69.1911 28.9566C69.2474 28.7198 69.2902 28.4816 69.3223 28.2392C69.3551 27.9054 69.3587 27.5752 69.3587 27.2407C69.3473 27.0746 69.3366 26.9084 69.3245 26.7422C69.3145 26.6046 69.2909 26.4655 69.2703 26.3279C69.2296 26.1303 69.1904 25.9321 69.1398 25.7366C69.1012 25.6118 69.0577 25.4899 69.0092 25.3679C68.9786 25.3016 68.9458 25.236 68.9101 25.1725C68.8866 25.134 68.8616 25.0955 68.8345 25.0591C68.7939 25.0092 68.7525 24.9614 68.7083 24.9144C68.6755 24.8844 68.6412 24.8559 68.6049 24.8288C68.6156 24.8352 68.627 24.8416 68.6377 24.8473C68.6248 24.8388 68.6113 24.8309 68.5977 24.8231C68.5892 24.8167 68.5806 24.8102 68.5721 24.8038C68.5792 24.8088 68.5856 24.8145 68.5928 24.8195C68.555 24.7981 68.5164 24.7789 68.4772 24.761C68.4451 24.7496 68.4123 24.7389 68.3788 24.7289C68.3417 24.7218 68.3039 24.714 68.2676 24.7075C68.2854 24.7097 68.3032 24.7118 68.321 24.714C68.3332 24.7168 68.3453 24.7204 68.3574 24.7232C68.346 24.7204 68.3346 24.7168 68.3232 24.714C68.3353 24.7154 68.3474 24.7168 68.3595 24.7182C68.3446 24.7161 68.3303 24.7139 68.3153 24.7125C68.3096 24.7111 68.3046 24.7097 68.2989 24.709C68.3039 24.7104 68.3089 24.7111 68.3139 24.7125C68.2654 24.7068 68.2162 24.704 68.1677 24.7025C68.1263 24.704 68.085 24.7075 68.0436 24.7118C67.9702 24.7247 67.8981 24.7403 67.8254 24.7582C67.779 24.7731 67.7334 24.7896 67.6884 24.8074C67.5972 24.848 67.5087 24.8908 67.4196 24.9365C67.0958 25.1319 66.7856 25.3537 66.4853 25.5833C66.4497 25.6111 66.414 25.6389 66.3784 25.6653C66.332 25.7053 66.2828 25.7416 66.2336 25.778C65.9825 25.9813 65.7379 26.1895 65.504 26.4127C65.4042 26.5169 65.3072 26.6224 65.2159 26.7344C64.9734 27.0311 64.5041 27.046 64.2231 26.8C63.9272 26.5418 63.9151 26.1046 64.1575 25.8072C64.5063 25.3801 64.9285 25.0121 65.3635 24.674C65.355 24.6804 65.3464 24.6876 65.3371 24.694C65.4034 24.6426 65.4691 24.5849 65.539 24.5342C65.6559 24.4301 65.7985 24.3431 65.9169 24.2554C66.2607 24.0022 66.6087 23.7562 66.996 23.575C67.3682 23.4003 67.7869 23.284 68.2005 23.2954C68.6726 23.3083 69.1234 23.4552 69.4992 23.744C70.1532 24.2454 70.4413 25.0406 70.6018 25.8201C70.6831 26.213 70.7251 26.6081 70.753 27.0082C70.7908 27.5652 70.7594 28.1286 70.6802 28.6806C70.5404 29.6477 70.1539 30.567 69.654 31.3992C69.3302 31.9377 68.9237 32.4234 68.4715 32.8584C67.998 33.3141 67.4346 33.6764 66.849 33.9709C66.297 34.2484 65.7001 34.4381 65.0925 34.545C64.768 34.6028 64.4407 34.6278 64.114 34.6278C63.7674 34.6292 63.4208 34.6007 63.0771 34.5507Z" fill="white"/>
<path d="M53.2089 19.1733C53.0021 18.8645 53.0741 18.3988 53.4 18.1969C53.5355 18.1135 53.6781 18.0393 53.8172 17.9616C55.0646 17.2285 56.227 16.3705 57.4087 15.5375C58.067 15.074 58.7281 14.6175 59.4056 14.1825C59.7451 13.9635 60.0896 13.7532 60.434 13.5421C60.7414 13.3538 61.0531 13.1662 61.3697 12.9951C62.0394 12.6321 62.7119 12.2641 63.4258 11.9952C63.8002 11.854 64.1768 11.7078 64.5647 11.6044C64.7944 11.5438 65.0219 11.481 65.2551 11.4332C65.6994 11.3433 66.1515 11.3269 66.5994 11.4054C67.0081 11.4767 67.4217 11.6657 67.7419 11.9289C67.9038 12.0622 68.0564 12.2099 68.1791 12.3803C68.326 12.5836 68.4344 12.7975 68.525 13.0307C68.6819 13.4365 68.7033 13.9015 68.6555 14.3301C68.6013 14.8151 68.4266 15.2729 68.1855 15.6944C67.7319 16.4882 67.135 17.2013 66.5202 17.8746C66.4803 17.9188 66.4397 17.9616 66.3997 18.0051C66.1394 18.2861 65.7022 18.3296 65.407 18.0714C65.1253 17.8247 65.0796 17.359 65.3407 17.0787C65.6987 16.6943 66.0374 16.2942 66.3641 15.8834C66.5809 15.5889 66.7912 15.2943 66.9767 14.9791C67.0344 14.8714 67.0865 14.7637 67.1343 14.6518C67.1678 14.5583 67.1978 14.4649 67.2249 14.3693C67.2377 14.3116 67.2484 14.2538 67.257 14.1953C67.2648 14.1112 67.2698 14.0284 67.2719 13.9436C67.2684 13.8658 67.2619 13.7902 67.252 13.7132C67.2427 13.6647 67.232 13.6162 67.2199 13.5684C67.2063 13.5242 67.1913 13.4814 67.1749 13.4386C67.1557 13.3966 67.135 13.3552 67.1129 13.3146C67.0901 13.2775 67.0658 13.2418 67.0409 13.2069C67.0138 13.1741 66.9859 13.1427 66.9567 13.112C66.9203 13.0771 66.8833 13.0443 66.844 13.0129C66.8098 12.9879 66.7748 12.9644 66.7385 12.9423C66.6743 12.908 66.6094 12.8774 66.5431 12.8481C66.5024 12.8339 66.4611 12.8203 66.4197 12.8089C66.3462 12.7925 66.2735 12.7797 66.1993 12.769C66.1251 12.764 66.0524 12.7611 65.979 12.7604C65.8848 12.7661 65.7921 12.7747 65.6994 12.7854C65.4319 12.8296 65.1724 12.8981 64.9106 12.968C64.5483 13.0849 64.1917 13.2104 63.8359 13.3452C63.4329 13.52 63.03 13.6954 62.6442 13.9043C62.202 14.144 61.7648 14.3907 61.3291 14.6432C61.3333 14.6404 61.3383 14.6382 61.3426 14.6354C60.7421 15.0034 60.1402 15.3692 59.5568 15.7643C58.8957 16.2115 58.2432 16.6707 57.5942 17.135C57.0329 17.5365 56.4702 17.9366 55.8954 18.3189C55.598 18.5172 55.2992 18.7133 54.9932 18.898C54.7222 19.062 54.4448 19.2161 54.1702 19.3744C54.1667 19.3765 54.1631 19.3787 54.1603 19.3801C54.1431 19.3901 54.1267 19.3994 54.1096 19.4093C54.1232 19.4015 54.136 19.3936 54.1496 19.3858C54.0354 19.4478 53.9106 19.4792 53.788 19.4792C53.5633 19.4785 53.3451 19.3765 53.2089 19.1733Z" fill="white"/>
<path d="M10.7594 21.091C9.96283 20.3907 9.35236 19.4814 9.07423 18.4501C8.94871 17.9808 8.8838 17.5151 8.90306 17.028C8.9216 16.5531 9.07921 16.0831 9.27747 15.6559C9.46076 15.2622 9.72392 14.8785 10.0377 14.5776C10.1925 14.4285 10.3551 14.2959 10.5369 14.1803C10.7381 14.0527 10.9606 13.9785 11.1902 13.92C11.6103 13.8123 12.0788 13.8715 12.491 13.9864C12.971 14.119 13.4132 14.3301 13.8404 14.584C14.2198 14.8101 14.5792 15.0761 14.9244 15.35C15.0592 15.4569 15.2011 15.5596 15.3302 15.6737C15.517 15.8399 15.7039 16.0061 15.8914 16.1729C16.1646 16.4154 16.4135 16.6893 16.6709 16.9489C16.7487 17.0273 16.8179 17.12 16.8899 17.2042C16.9904 17.3212 17.091 17.4381 17.1915 17.5551C17.2786 17.6571 17.3563 17.7697 17.4383 17.8774C17.516 17.9794 17.5981 18.0793 17.6722 18.1834C17.827 18.4016 17.9832 18.6184 18.1322 18.8409C18.2121 18.96 18.2905 19.0798 18.3661 19.2025C18.4189 19.2874 18.4653 19.3787 18.5223 19.4607C18.7406 19.7752 18.6457 20.2252 18.3312 20.437C18.0096 20.6524 17.5731 20.5604 17.3549 20.2459C17.2636 20.1132 17.1866 19.9685 17.1017 19.8315C17.0118 19.6868 16.9148 19.5448 16.8164 19.4065C16.5946 19.0941 16.3671 18.7889 16.1346 18.4843C16.049 18.3845 15.9628 18.2839 15.8765 18.1834C15.788 18.08 15.7046 17.9687 15.6097 17.8724C15.4179 17.6799 15.2268 17.4866 15.0349 17.2941C14.8195 17.1022 14.6034 16.9104 14.3881 16.7192C14.2091 16.5602 14.0129 16.4183 13.8239 16.2707C13.5458 16.0774 13.2712 15.8827 12.9817 15.708C12.8105 15.6138 12.6358 15.529 12.4554 15.4526C12.3377 15.4099 12.22 15.3706 12.0995 15.3364C12.0025 15.315 11.9069 15.2972 11.8078 15.2822C11.8385 15.2858 11.8691 15.2886 11.8991 15.2929C11.8199 15.2808 11.7401 15.2743 11.6595 15.2722C11.6281 15.2736 11.596 15.2765 11.5646 15.2801C11.5247 15.2865 11.4847 15.295 11.4455 15.3043C11.4149 15.3143 11.3849 15.325 11.3542 15.335C11.3685 15.3293 11.382 15.3228 11.3963 15.3171C11.402 15.3157 11.4077 15.3136 11.4141 15.3121C11.4084 15.3136 11.4034 15.315 11.3977 15.3164C11.4113 15.3107 11.4241 15.305 11.4377 15.2993C11.422 15.305 11.4063 15.3114 11.3913 15.3179C11.3592 15.3314 11.3264 15.3464 11.2958 15.3635C11.2615 15.3849 11.228 15.407 11.1952 15.4305C11.1274 15.4862 11.0633 15.5432 10.9998 15.6031C10.9427 15.6652 10.8878 15.7279 10.835 15.7935C10.7623 15.8962 10.6931 16.0011 10.6282 16.1088C10.5719 16.2143 10.5198 16.3206 10.472 16.4304C10.4307 16.5417 10.3943 16.6543 10.3622 16.7692C10.3444 16.8505 10.3294 16.9318 10.3166 17.0145C10.3094 17.1086 10.3052 17.2006 10.3044 17.2948C10.3094 17.4017 10.3173 17.5073 10.3287 17.6136C10.3572 17.779 10.3936 17.9416 10.4364 18.1035C10.4799 18.2454 10.5277 18.3845 10.5819 18.5228C10.6475 18.6719 10.7195 18.8181 10.798 18.9615C10.9021 19.1326 11.0155 19.2966 11.1346 19.4578C11.2515 19.5969 11.3706 19.7302 11.4976 19.86C11.5596 19.9178 11.6224 19.9749 11.6859 20.0312C11.974 20.2837 12.0054 20.7344 11.7522 21.0239C11.6153 21.1808 11.4177 21.2614 11.2202 21.2614C11.0554 21.2622 10.89 21.2058 10.7594 21.091Z" fill="white"/>
<path d="M33.8156 36.4649C32.8849 36.2295 32.2459 35.4679 31.8066 34.6563C31.2503 33.6293 31.082 32.4326 30.9879 31.283C30.9729 31.104 30.9729 30.9228 30.9736 30.7431C30.975 30.4543 31.0278 30.1255 31.3024 29.9636C31.4907 29.8524 31.6989 29.8089 31.9114 29.8787C32.1247 29.9479 32.2787 30.1098 32.3586 30.3159C32.4071 30.44 32.4121 30.5712 32.3828 30.6946C32.38 30.7638 32.3786 30.8323 32.3786 30.9014C32.3957 31.2751 32.4328 31.6439 32.4763 32.0161C32.5319 32.3499 32.5875 32.6815 32.6717 33.0096C32.7359 33.2342 32.8108 33.4546 32.8963 33.6721C32.9734 33.8483 33.0582 34.0187 33.1524 34.1863C33.2258 34.3033 33.3021 34.4159 33.3849 34.5265C33.4469 34.6014 33.5111 34.6734 33.5781 34.7447C33.6409 34.8032 33.7044 34.8588 33.7714 34.913C33.8128 34.943 33.8555 34.9715 33.899 34.9979C33.9418 35.0207 33.9861 35.0421 34.031 35.0614C34.001 35.05 33.9718 35.0378 33.9426 35.0257C34.0132 35.0564 34.0852 35.0821 34.1586 35.1034C34.1287 35.0956 34.098 35.0878 34.0681 35.0806C34.133 35.0992 34.1993 35.1149 34.2663 35.1248C34.3412 35.132 34.4154 35.1355 34.491 35.1363C34.5352 35.1341 34.5801 35.1298 34.6243 35.1248C34.6885 35.1134 34.752 35.0999 34.8155 35.0842C34.8704 35.0678 34.9253 35.0485 34.9795 35.0279C35.0644 34.9901 35.1471 34.9494 35.2291 34.9059C35.3183 34.8503 35.4046 34.7918 35.4887 34.7297C35.5829 34.6527 35.672 34.5728 35.759 34.4887C35.8517 34.3903 35.9394 34.289 36.0236 34.1842C36.1334 34.0344 36.234 33.8811 36.3288 33.7206C36.4879 33.4296 36.6155 33.1301 36.7396 32.8242C36.9764 32.1695 37.1982 31.5112 37.3743 30.8373C37.4228 30.6304 37.4663 30.4236 37.502 30.2139C37.5655 29.8367 37.9477 29.5799 38.3207 29.6484C38.7016 29.7183 38.9497 30.0891 38.8863 30.4671C38.7636 31.1931 38.5496 31.9042 38.3114 32.5995C38.1824 32.9761 38.0426 33.3469 37.8935 33.7156C37.5712 34.5122 37.0705 35.2554 36.4016 35.8002C35.846 36.2524 35.1471 36.5426 34.4354 36.5426C34.2278 36.5412 34.0203 36.517 33.8156 36.4649Z" fill="white"/>
</svg>
