<svg width="53" height="53" viewBox="0 0 53 53" fill="none" xmlns="http://www.w3.org/2000/svg">
<rect width="53" height="53" rx="10" fill="#FDEAEB"/>
<path d="M24.1571 39.4439C23.8125 39.4409 23.4686 39.4185 23.1256 39.3875C22.8022 39.3583 22.4834 39.3099 22.1628 39.2616C21.8258 39.2112 21.4917 39.1573 21.1576 39.0878C20.6574 38.9843 20.163 38.8449 19.684 38.6676C19.4092 38.5659 19.1345 38.4646 18.8598 38.3628C17.7982 37.9707 16.7926 37.4212 15.8573 36.7874C15.3197 36.4224 14.8068 36.0226 14.3234 35.588C13.8613 35.1721 13.4374 34.7215 13.0427 34.2411C12.6437 33.7561 12.2906 33.2367 11.9641 32.7009C11.636 32.1624 11.3604 31.5926 11.1433 31.0004C10.9233 30.3979 10.7885 29.7662 10.7054 29.1307C10.6202 28.4812 10.6193 27.8237 10.6787 27.172C10.7385 26.5187 10.886 25.873 11.0781 25.2464C11.2684 24.6253 11.5079 24.0191 11.7886 23.4332C12.0688 22.8477 12.3944 22.2855 12.7501 21.7433C13.0995 21.2112 13.4768 20.6974 13.8868 20.2102C14.7105 19.23 15.6657 18.3567 16.6883 17.5881C17.125 17.2599 17.5833 16.9538 18.0543 16.6774C18.3621 16.4968 18.6699 16.3162 18.9781 16.1356C19.168 16.0241 19.3656 15.9266 19.5606 15.8244C19.7319 15.7349 19.9027 15.6455 20.0744 15.556C20.1537 15.5145 20.2321 15.4717 20.314 15.4348C20.3029 15.4399 20.2923 15.4445 20.2817 15.4496C20.6917 15.2622 21.1021 15.074 21.5125 14.887C21.7007 14.8039 21.8966 14.7361 22.0878 14.6611C22.3261 14.5678 22.5639 14.4749 22.8017 14.3812C22.8471 14.3634 22.895 14.3503 22.9417 14.335C23.0871 14.2871 23.2325 14.2388 23.3779 14.1913C23.6285 14.1086 23.8794 14.0255 24.13 13.9429C24.3221 13.8793 24.5226 13.8382 24.718 13.7873C24.9699 13.722 25.2217 13.6563 25.4739 13.5918C25.5219 13.5795 25.571 13.5723 25.6194 13.563C25.7694 13.5338 25.9204 13.5049 26.0705 13.4757C26.3303 13.4256 26.5898 13.3752 26.8497 13.3252C27.054 13.2857 27.2618 13.2586 27.4678 13.2281C27.757 13.1853 28.0465 13.1492 28.3374 13.1204C28.9305 13.0615 29.5291 13.036 30.1248 13.0479C30.4067 13.0534 30.6886 13.0742 30.9693 13.0996C31.1202 13.1132 31.272 13.1251 31.4217 13.1475C31.6896 13.187 31.9571 13.2264 32.2246 13.2658C33.0666 13.39 33.9035 13.5575 34.7141 13.8208C35.2474 13.9937 35.7634 14.2256 36.2459 14.5118C36.4583 14.6377 36.6677 14.7844 36.8432 14.9582C36.9806 15.0939 37.1251 15.2593 37.1684 15.453C37.1824 15.5158 37.182 15.5789 37.1684 15.6383C37.3604 15.7659 37.5491 15.8982 37.7327 16.0372C38.0757 16.2967 38.3898 16.5922 38.6997 16.8894C39.0151 17.1912 39.3268 17.505 39.5955 17.8492C40.1586 18.5695 40.6292 19.3526 41.0056 20.1856C41.1884 20.5893 41.3465 21.006 41.4661 21.4329C41.5284 21.6555 41.5877 21.8785 41.645 22.1028C41.7026 22.3292 41.7429 22.5615 41.7891 22.7904C41.965 23.6697 42.0579 24.5681 42.0719 25.4648C42.0787 25.9129 42.0613 26.361 42.01 26.8062C41.9578 27.2636 41.8896 27.7194 41.7768 28.1662C41.6585 28.6334 41.5313 29.1002 41.369 29.5543C41.3749 29.5373 41.3813 29.5203 41.3868 29.5034C41.3088 29.7226 41.235 29.9439 41.1468 30.1588C41.0985 30.2767 41.0497 30.3945 41.001 30.5124C40.9556 30.6226 40.9009 30.7295 40.8509 30.838C40.7491 31.0576 40.6355 31.2704 40.5249 31.4854C40.4787 31.5744 40.4244 31.6596 40.3735 31.7465C40.3235 31.833 40.2752 31.9204 40.2205 32.0039C40.0882 32.2074 39.9563 32.4105 39.8156 32.608C39.7401 32.714 39.6651 32.8196 39.5896 32.9256C39.5239 33.018 39.4472 33.1041 39.3768 33.1931C39.3106 33.2758 39.2475 33.3614 39.1754 33.4386C39.0792 33.542 38.9825 33.6459 38.8858 33.7493C38.7273 33.9197 38.5535 34.0749 38.3835 34.2343C38.219 34.3891 38.0384 34.5281 37.8658 34.6731C37.681 34.8283 37.4842 34.9695 37.2926 35.1153C37.1133 35.2527 36.9242 35.3769 36.7393 35.5062C36.5664 35.6266 36.3896 35.7389 36.2111 35.8521C36.0309 35.9662 35.8529 36.0828 35.668 36.1892C35.4471 36.3168 35.2262 36.4444 35.0054 36.5716C34.9278 36.6161 34.8464 36.6555 34.7667 36.6975C34.6166 36.7768 34.4657 36.8565 34.3152 36.9358C34.1481 37.024 33.9781 37.1045 33.8077 37.1868C33.6046 37.2843 33.4036 37.3903 33.1963 37.4793C32.9394 37.5895 32.6817 37.6993 32.4247 37.8096C32.0046 37.9893 31.5705 38.1339 31.1414 38.2899C30.9494 38.3594 30.7476 38.4086 30.5521 38.4658C30.4046 38.5095 30.2566 38.5532 30.1091 38.5964C30.0451 38.6155 29.9815 38.6375 29.9162 38.6528C29.6546 38.7147 29.393 38.7779 29.131 38.8402C28.9674 38.8792 28.8046 38.9199 28.6392 38.9517C28.3386 39.0089 28.038 39.0662 27.7375 39.123C27.5683 39.1552 27.3991 39.1785 27.2283 39.2023C26.9447 39.2417 26.661 39.2811 26.3774 39.3201C26.1883 39.3464 25.995 39.3528 25.8042 39.368C25.5685 39.3871 25.3323 39.4058 25.0966 39.4248C24.9453 39.4371 24.7918 39.4367 24.64 39.4401C24.5323 39.4426 24.4251 39.4435 24.3174 39.4435C24.2648 39.4443 24.211 39.4443 24.1571 39.4439ZM24.9639 38.5956C25.1611 38.5858 25.3582 38.5659 25.5549 38.5502C25.7889 38.5311 26.0225 38.5125 26.2562 38.4938C26.3019 38.4904 26.3477 38.4815 26.3935 38.4752C26.5368 38.4552 26.6801 38.4353 26.8238 38.4154C27.0316 38.3866 27.2393 38.3577 27.4466 38.3289C27.7604 38.2683 28.0745 38.2093 28.3887 38.1496C28.6392 38.1017 28.8864 38.0398 29.134 37.9808C29.3854 37.9206 29.6381 37.8655 29.8865 37.7922C30.2002 37.6993 30.5135 37.6078 30.8273 37.5145C31.188 37.3839 31.5488 37.2521 31.9096 37.1211C31.9541 37.1049 31.9974 37.0833 32.0415 37.0647C32.153 37.0168 32.2645 36.9688 32.3764 36.9214C32.5502 36.8467 32.724 36.7717 32.8983 36.6979C33.1264 36.5881 33.3545 36.4783 33.5821 36.3689C33.7636 36.2812 33.9412 36.1883 34.1193 36.0942C34.3135 35.992 34.5102 35.8928 34.7001 35.7835C34.9269 35.6529 35.1533 35.5215 35.381 35.3913C35.6947 35.1925 36.0093 34.997 36.3141 34.7846C36.4706 34.6757 36.6308 34.5705 36.7826 34.4552C36.959 34.3204 37.1349 34.186 37.3113 34.0512C37.3079 34.0541 37.3041 34.0571 37.3007 34.0601C37.5131 33.882 37.7267 33.7065 37.9294 33.5166C38.0354 33.4174 38.146 33.3215 38.2448 33.2151C38.3521 33.1002 38.4598 32.9845 38.567 32.8692C38.6887 32.7166 38.8104 32.5639 38.9316 32.4113C38.9884 32.3401 39.038 32.2625 39.091 32.1883C39.1436 32.1137 39.197 32.0395 39.25 31.9649C39.3895 31.7508 39.5286 31.5388 39.657 31.3179C39.7151 31.2183 39.7757 31.1199 39.8287 31.0173C39.9004 30.8787 39.972 30.7396 40.0437 30.6006C40.0352 30.6167 40.0271 30.6328 40.0187 30.6493C40.0903 30.4946 40.162 30.3399 40.2332 30.1851C40.2709 30.1024 40.3023 30.0164 40.337 29.9324C40.3671 29.8595 40.4006 29.787 40.4274 29.7128C40.4214 29.7298 40.4151 29.7467 40.4095 29.7637C40.4689 29.5967 40.5283 29.4296 40.588 29.263C40.6597 29.0387 40.733 28.8153 40.7987 28.5893C40.867 28.3549 40.9276 28.1192 40.9874 27.8826C41.0306 27.6778 41.0735 27.4743 41.1061 27.2678C41.143 27.0342 41.1705 26.8007 41.1977 26.5658C41.2138 26.3424 41.2286 26.1202 41.2346 25.8963C41.2405 25.6712 41.2363 25.4465 41.2333 25.2214C41.2257 25.0773 41.2185 24.9335 41.2108 24.7894C41.2028 24.6347 41.1845 24.4808 41.1718 24.3264C41.1464 24.0284 41.101 23.7312 41.0586 23.4348C41.0056 23.1402 40.9518 22.846 40.8878 22.553C40.8195 22.238 40.7377 21.9277 40.6504 21.6173C40.5846 21.4058 40.5198 21.193 40.4367 20.9878C40.3502 20.7745 40.2607 20.5647 40.1666 20.3552C40.0865 20.1954 40.0072 20.0351 39.9228 19.8774C39.8313 19.7057 39.7342 19.5374 39.6367 19.3687C39.5205 19.1864 39.4027 19.0058 39.2814 18.826C39.1674 18.6564 39.0397 18.4957 38.9138 18.3342C38.7447 18.1367 38.5713 17.945 38.3898 17.7581C38.2088 17.5724 38.0197 17.3943 37.8302 17.2171C37.8442 17.2298 37.8582 17.2425 37.8722 17.2553C37.7234 17.1192 37.5733 16.986 37.4194 16.8559C37.2697 16.7291 37.1099 16.6146 36.9509 16.5002C36.3336 16.0783 35.6892 15.6981 35.0435 15.322C34.8549 15.2126 34.7891 14.9638 34.8858 14.773C34.8158 14.7446 34.7451 14.717 34.6743 14.6907C34.2312 14.5347 33.778 14.4118 33.3197 14.3104C33.3218 14.3109 33.3239 14.3113 33.3261 14.3117C33.3235 14.3113 33.3214 14.3104 33.3189 14.31C33.304 14.3066 33.2888 14.3032 33.2739 14.3003C33.2858 14.3028 33.2981 14.3058 33.31 14.3083C33.0276 14.2481 32.7431 14.1879 32.4574 14.1459C32.2988 14.1226 32.1407 14.0993 31.9825 14.076C31.7943 14.048 31.6061 14.0205 31.4183 13.9929C31.2427 13.967 31.0672 13.948 30.8904 13.931C30.3401 13.8835 29.7911 13.8721 29.2391 13.8945C29.2569 13.8941 29.2747 13.8933 29.2925 13.8924C28.9233 13.909 28.5553 13.9369 28.1881 13.9776C27.804 14.02 27.4212 14.0785 27.04 14.14C26.5868 14.2282 26.1336 14.3143 25.6813 14.4029C25.6308 14.4126 25.5808 14.4283 25.5312 14.4414C25.3781 14.4809 25.2255 14.5203 25.0729 14.5601C24.8524 14.617 24.6315 14.6742 24.4111 14.7314C23.9774 14.8768 23.5424 15.0184 23.1074 15.1613C23.0532 15.1791 22.9997 15.2033 22.9467 15.2241C22.7984 15.2822 22.65 15.3402 22.5016 15.3983C22.2748 15.4873 22.0471 15.5755 21.8203 15.6654C21.8317 15.6603 21.8432 15.6548 21.855 15.6497C21.8508 15.6518 21.8461 15.654 21.8419 15.6557C21.4307 15.8435 21.0198 16.0321 20.6082 16.2195C20.6247 16.2119 20.6413 16.2047 20.6578 16.1971C20.6039 16.2216 20.5518 16.2522 20.4992 16.2797C20.3678 16.3484 20.2364 16.4171 20.1054 16.4858C19.8972 16.5947 19.689 16.7037 19.4809 16.8122C19.4203 16.8436 19.3626 16.8813 19.3037 16.9161C19.1739 16.9924 19.0442 17.0683 18.9141 17.1446C18.7042 17.268 18.4909 17.3871 18.2849 17.5168C17.9958 17.7 17.71 17.8869 17.4311 18.0845C17.1254 18.3007 16.8307 18.5326 16.542 18.7705C15.954 19.2618 15.3965 19.7863 14.8784 20.3506C14.446 20.8305 14.0479 21.3367 13.6786 21.8666C13.3182 22.3911 12.9867 22.9325 12.6929 23.4972C12.4495 23.9762 12.2359 24.468 12.0527 24.9725C11.9022 25.4003 11.7704 25.8336 11.6707 26.2762C11.5953 26.6328 11.538 26.9919 11.5033 27.3548C11.4774 27.691 11.4702 28.0267 11.4817 28.3638C11.4986 28.711 11.5363 29.0553 11.5923 29.3982C11.6512 29.731 11.7259 30.0605 11.8212 30.3852C11.9234 30.7091 12.0459 31.025 12.185 31.3349C12.3711 31.7347 12.5848 32.1179 12.8184 32.4919C13.1152 32.9582 13.4365 33.4055 13.7884 33.8311C13.7867 33.829 13.785 33.8269 13.7833 33.8248C14.1055 34.2072 14.4502 34.5676 14.8169 34.9071C15.2553 35.3044 15.7187 35.6711 16.2033 36.0111C16.7311 36.3749 17.2801 36.706 17.8487 37.0019C18.3027 37.2325 18.7703 37.4399 19.2481 37.6162C19.5097 37.7129 19.7713 37.81 20.0329 37.9066C20.431 38.0406 20.8308 38.1614 21.2412 38.253C21.4485 38.2971 21.6575 38.3416 21.8673 38.3726C22.0089 38.3938 22.1501 38.415 22.2917 38.4362C22.446 38.4591 22.5999 38.4824 22.7543 38.5053C22.9383 38.5328 23.124 38.5498 23.3096 38.5667C23.8587 38.6104 24.4107 38.6159 24.9639 38.5956Z" fill="#FE3B49"/>
<path d="M19.8645 29.9669C19.2459 29.9143 18.6486 29.743 18.0906 29.4717C17.5573 29.2122 17.0816 28.8349 16.7158 28.3677C16.3418 27.8899 16.098 27.3286 15.9094 26.7554C15.5812 25.7599 15.5511 24.6877 15.8013 23.6715C15.9213 23.184 16.104 22.7074 16.3588 22.2741C16.6327 21.8095 16.9706 21.3838 17.3419 20.9934C18.0135 20.2871 18.8516 19.716 19.8068 19.4794C19.9137 19.4531 20.0205 19.4264 20.1273 19.4001C20.2185 19.3777 20.3126 19.3649 20.4046 19.348C20.5606 19.3183 20.7234 19.3073 20.8837 19.3018C20.9651 19.1928 21.0961 19.1216 21.2373 19.1347C21.4598 19.1555 21.6828 19.1822 21.902 19.2276C22.1195 19.2729 22.3412 19.3204 22.5503 19.3963C22.9912 19.557 23.4011 19.7787 23.8039 20.0183C24.1952 20.251 24.5632 20.5245 24.913 20.8157C25.0982 20.97 25.2687 21.1371 25.4361 21.3105C25.5896 21.469 25.7249 21.6437 25.8614 21.8171C26.0008 21.9948 26.1238 22.1855 26.2476 22.3746C26.371 22.5629 26.4723 22.7651 26.5745 22.9652C26.6211 23.0568 26.6559 23.1564 26.6961 23.2509C26.8093 23.5185 26.881 23.8051 26.9302 24.0908C26.9933 24.4588 26.995 24.8404 26.9607 25.2122C26.9365 25.475 26.9094 25.7362 26.8568 25.9948C26.8038 26.2534 26.7182 26.5023 26.6092 26.7427C26.5321 26.9122 26.4329 27.0729 26.3404 27.2344C26.078 27.694 25.7418 28.0968 25.3331 28.4338C25.119 28.6102 24.8884 28.7654 24.6531 28.9116C24.4661 29.0278 24.2724 29.1397 24.0701 29.2279C23.8293 29.3326 23.5877 29.4314 23.3431 29.5264C23.1379 29.6061 22.9297 29.6794 22.719 29.7405C22.4209 29.8274 22.1195 29.885 21.8121 29.9257C21.5875 29.955 21.3594 29.9749 21.133 29.9825C20.9443 29.9889 20.7565 29.9936 20.5687 29.9936C20.3338 29.9944 20.0998 29.9872 19.8645 29.9669ZM20.6848 29.1622C20.773 29.1592 20.8612 29.1562 20.9494 29.1533C21.0308 29.1507 21.1139 29.1524 21.1949 29.1448C21.4166 29.1249 21.6379 29.1066 21.8584 29.077C22.0606 29.0456 22.2586 29.0015 22.4561 28.9477C22.786 28.8506 23.1052 28.723 23.4253 28.5983C23.536 28.55 23.6466 28.5017 23.7573 28.4537C23.8688 28.405 23.9756 28.3405 24.0829 28.2825C24.2927 28.1515 24.5009 28.0196 24.6989 27.8708C24.8218 27.7737 24.9393 27.6724 25.0525 27.5643C25.1567 27.457 25.2551 27.3451 25.3475 27.2272C25.4934 27.0284 25.6167 26.8181 25.7393 26.6049C25.7986 26.4951 25.8546 26.3848 25.9042 26.2699C25.9445 26.1656 25.9784 26.0601 26.0081 25.9524C26.0496 25.7773 26.0759 25.6014 26.1013 25.4237C26.1238 25.1727 26.1437 24.9226 26.1454 24.6699C26.1416 24.5491 26.1323 24.4291 26.1174 24.3087C26.0937 24.1591 26.0632 24.0119 26.0237 23.8653C25.9953 23.7711 25.964 23.6779 25.93 23.5854C25.8961 23.5053 25.8622 23.4252 25.8283 23.3446C25.7893 23.2526 25.7367 23.1644 25.6909 23.0758C25.6193 22.9542 25.5472 22.8338 25.4701 22.7159C25.3861 22.5879 25.2979 22.4645 25.2089 22.3403C25.1271 22.236 25.0457 22.1321 24.9588 22.0325C24.8642 21.9239 24.7663 21.8209 24.6662 21.7175C24.5662 21.6246 24.4665 21.5326 24.3614 21.4453C24.2541 21.3558 24.1443 21.2698 24.0337 21.1837C23.8938 21.0824 23.753 20.9828 23.6106 20.8853C23.4766 20.7941 23.3358 20.7123 23.1968 20.6296C22.9373 20.4846 22.6757 20.349 22.4027 20.2324C22.2666 20.1832 22.1297 20.1408 21.9898 20.1031C21.7778 20.0543 21.5654 20.0144 21.3496 19.986C21.2801 20.0713 21.1792 20.1298 21.0651 20.1323C20.893 20.1361 20.723 20.1514 20.5521 20.1709C20.4678 20.1862 20.3821 20.1984 20.2995 20.2188C20.1914 20.2455 20.0837 20.2726 19.976 20.2989C19.7983 20.3523 19.6245 20.413 19.4528 20.4825C19.3129 20.544 19.1768 20.6122 19.0437 20.6868C18.8788 20.7848 18.7211 20.8925 18.568 21.0078C18.3828 21.154 18.2072 21.3105 18.0385 21.4763C17.8197 21.6988 17.6167 21.9354 17.425 22.1826C17.2945 22.3572 17.1736 22.5374 17.0626 22.7248C16.9676 22.8957 16.8845 23.0708 16.8099 23.2514C16.7348 23.4468 16.6712 23.6452 16.6174 23.8474C16.5682 24.0509 16.5292 24.2557 16.5021 24.463C16.4788 24.6805 16.4686 24.8984 16.4694 25.1168C16.4745 25.3173 16.4898 25.5161 16.5165 25.715C16.5466 25.9028 16.5856 26.0881 16.6348 26.2721C16.7081 26.5235 16.7938 26.7706 16.8938 27.0127C16.9693 27.184 17.0507 27.3515 17.1427 27.5143C17.2105 27.6245 17.2826 27.7317 17.3597 27.8356C17.4369 27.9327 17.5179 28.0251 17.6039 28.1146C17.7057 28.2138 17.8121 28.3062 17.924 28.3935C18.0393 28.4766 18.1576 28.5534 18.2797 28.6259C18.4374 28.7128 18.5994 28.7899 18.766 28.8586C18.942 28.9265 19.12 28.9833 19.3023 29.0308C19.4638 29.0685 19.6258 29.0982 19.7907 29.1194C20.0883 29.1507 20.3855 29.1622 20.6848 29.1622Z" fill="#FE3B49"/>
<path d="M22.0013 26.0581C21.9169 25.9843 21.8741 25.8859 21.8596 25.7765C21.7766 25.1508 21.6909 24.5254 21.6027 23.9005C21.6053 23.9183 21.6078 23.9362 21.6108 23.954C21.5391 23.4634 21.4658 22.9725 21.3708 22.4862C21.3272 22.2624 21.4683 22.0385 21.6939 21.9906C21.9143 21.9444 22.1454 22.0902 22.1891 22.3137C22.2989 22.8741 22.3811 23.4401 22.4608 24.0057C22.5405 24.5738 22.6181 25.1423 22.6936 25.7104C22.7232 25.9368 22.5278 26.1428 22.3099 26.1607C22.2993 26.1615 22.2883 26.1619 22.2777 26.1619C22.1763 26.1615 22.0771 26.1246 22.0013 26.0581Z" fill="#FE3B49"/>
<path d="M29.7261 29.2177C28.5628 29.0299 27.4978 28.3329 26.9208 27.298C26.7872 27.0589 26.7037 26.7901 26.6317 26.5272C26.5511 26.2322 26.5096 25.9265 26.4824 25.6225C26.4282 25.0074 26.493 24.393 26.6656 23.8012C26.7555 23.493 26.8843 23.1975 27.0119 22.9033C27.0811 22.7438 27.1514 22.5878 27.2286 22.4327C27.31 22.2694 27.3871 22.1041 27.48 21.9468C27.5919 21.7569 27.6996 21.5636 27.8196 21.3779C28.0841 20.9658 28.3843 20.5779 28.7196 20.2213C29.0508 19.869 29.4277 19.5735 29.8537 19.3446C30.067 19.2297 30.2968 19.1432 30.5249 19.0647C30.7462 18.9884 30.9747 18.9282 31.2036 18.8808C31.4461 18.8303 31.6954 18.8121 31.943 18.8201C31.9455 18.8201 31.9481 18.8201 31.9506 18.8206C32.0312 18.6573 32.2148 18.5636 32.4017 18.5925C32.8481 18.6616 33.2874 18.7637 33.716 18.9062C34.1349 19.0461 34.5351 19.2551 34.9052 19.4934C35.2761 19.7321 35.6191 20.0186 35.9464 20.3137C36.1245 20.474 36.2949 20.6406 36.4607 20.814C36.7876 21.1566 37.0648 21.5487 37.2429 21.9892C37.3586 22.2758 37.4608 22.5616 37.5218 22.8655C37.5727 23.1203 37.591 23.387 37.6003 23.6465C37.6045 23.7639 37.6071 23.8796 37.6033 23.9971C37.5999 24.1158 37.588 24.2319 37.5761 24.3498C37.5235 24.8624 37.3374 25.352 37.0767 25.793C36.9809 25.9545 36.8651 26.1037 36.7507 26.2525C36.6417 26.3937 36.5323 26.5336 36.4162 26.6688C36.1821 26.941 35.9129 27.1742 35.6441 27.4099C35.5623 27.482 35.4699 27.5452 35.3838 27.6126C35.302 27.6757 35.2215 27.7389 35.1362 27.797C35.0205 27.8759 34.9043 27.9556 34.7882 28.0344C34.6949 28.098 34.591 28.1502 34.4935 28.207C34.4113 28.2545 34.3307 28.3079 34.2451 28.3498C34.1132 28.4143 33.9814 28.4787 33.8495 28.5436C33.6325 28.6496 33.4061 28.7356 33.1831 28.8285C32.9745 28.915 32.7566 28.982 32.5395 29.0439C32.2334 29.1312 31.9239 29.1939 31.6089 29.2389C31.324 29.2796 31.0345 29.2999 30.7449 29.2999C30.4032 29.2999 30.0615 29.2719 29.7261 29.2177ZM30.8187 28.4609C31.0705 28.4546 31.3206 28.4346 31.5703 28.4007C31.8133 28.3626 32.052 28.3104 32.2894 28.2468C32.5285 28.1777 32.7638 28.0984 32.9931 28.003C33.1203 27.9505 33.2475 27.8975 33.3747 27.8445C33.543 27.7618 33.7117 27.6796 33.8805 27.5969C33.95 27.563 34.0166 27.5185 34.0836 27.4795C34.1582 27.4362 34.2332 27.393 34.3078 27.3493C34.4511 27.2514 34.5948 27.1539 34.7381 27.0563C34.7903 27.0161 34.8424 26.9758 34.8942 26.9351C34.9595 26.8842 35.029 26.8363 35.0913 26.782C35.2549 26.6392 35.4194 26.498 35.5746 26.3458C35.787 26.1275 35.9744 25.8913 36.1601 25.6505C36.2483 25.5301 36.3322 25.4084 36.409 25.28C36.467 25.1735 36.5196 25.065 36.5667 24.9535C36.6091 24.8424 36.6464 24.7297 36.6782 24.6148C36.704 24.5084 36.7248 24.4015 36.7418 24.2934C36.749 24.2235 36.7562 24.1531 36.7634 24.0831C36.771 24.006 36.7693 23.9271 36.7706 23.8495C36.7617 23.6159 36.7456 23.384 36.721 23.1508C36.7019 23.0321 36.6777 22.9156 36.6472 22.799C36.5955 22.6247 36.5298 22.456 36.4615 22.2873C36.4128 22.1808 36.3606 22.0765 36.3034 21.9744C36.2411 21.8713 36.1749 21.7721 36.1033 21.6755C35.9803 21.5229 35.8472 21.3829 35.712 21.2418C35.4203 20.9607 35.1167 20.6953 34.7996 20.4435C34.608 20.3019 34.413 20.1696 34.2078 20.0475C34.0174 19.9449 33.8254 19.8508 33.6274 19.7647C33.4319 19.6922 33.2348 19.629 33.0334 19.5735C32.9189 19.5451 32.8045 19.5192 32.6896 19.4951C32.6875 19.4993 32.6858 19.504 32.6836 19.5082C32.584 19.7151 32.3313 19.7999 32.1253 19.7032C32.1202 19.7007 32.1151 19.6986 32.11 19.696C32.091 19.6897 32.0719 19.6837 32.0528 19.6786C32.0219 19.6714 31.9905 19.6655 31.9591 19.6608C31.8989 19.6557 31.84 19.6536 31.7798 19.6532C31.684 19.6579 31.5886 19.6663 31.4932 19.6782C31.3456 19.7028 31.2006 19.7363 31.0561 19.7749C30.8555 19.8325 30.6597 19.9004 30.4659 19.9784C30.3426 20.0326 30.2234 20.0924 30.106 20.1581C29.9932 20.2264 29.8847 20.3002 29.7791 20.3794C29.6553 20.4782 29.5375 20.5825 29.4243 20.6927C29.2284 20.8929 29.0461 21.1044 28.874 21.3253C28.7061 21.5487 28.5475 21.7785 28.4051 22.0193C28.3228 22.1588 28.2406 22.2978 28.1583 22.4373C28.0676 22.6196 27.9769 22.8019 27.8861 22.9842C27.8463 23.0639 27.8145 23.1483 27.7793 23.2297C27.7297 23.3442 27.6788 23.4582 27.6318 23.5735C27.5444 23.794 27.4681 24.0166 27.4079 24.2459C27.3719 24.4028 27.3435 24.5605 27.3231 24.7199C27.3062 24.8929 27.2985 25.0646 27.299 25.238C27.3045 25.45 27.3219 25.6607 27.3503 25.871C27.3782 26.0465 27.4139 26.2199 27.4596 26.3916C27.4965 26.5141 27.5385 26.6345 27.586 26.7532C27.6182 26.8253 27.653 26.8957 27.6907 26.9648C27.7496 27.061 27.8124 27.1539 27.8802 27.2442C27.9544 27.3366 28.0328 27.4243 28.1159 27.5096C28.2236 27.6126 28.3351 27.7101 28.4526 27.8021C28.5598 27.8801 28.67 27.9522 28.7845 28.0196C28.9041 28.084 29.0253 28.1421 29.15 28.1951C29.281 28.2451 29.4132 28.2888 29.5485 28.3265C29.7278 28.3702 29.9084 28.4024 30.0916 28.4266C30.3341 28.452 30.5757 28.4622 30.8187 28.4609Z" fill="#FE3B49"/>
<path d="M31.3253 25.8632C31.0977 25.8517 30.9175 25.6521 30.9285 25.4244C30.9565 24.8499 30.9671 24.2742 30.979 23.6993C30.9845 23.4259 30.9891 23.1524 30.9883 22.879C30.9879 22.734 30.9866 22.5894 30.9849 22.444C30.9845 22.3655 30.9828 22.2875 30.987 22.2091C30.9938 22.09 31.0477 21.9908 31.1312 21.9072C31.2923 21.7461 31.5785 21.7826 31.7213 21.945C31.7925 22.026 31.8303 22.1341 31.8248 22.2422C31.8239 22.2562 31.8226 22.2702 31.8205 22.2833C31.8146 22.4224 31.821 22.5635 31.8226 22.7026C31.8239 22.8281 31.8235 22.9536 31.8239 23.0791C31.8248 23.3428 31.8167 23.6073 31.8112 23.871C31.8002 24.4031 31.7892 24.9351 31.7633 25.4664C31.7527 25.6872 31.5636 25.8636 31.3444 25.8636C31.3385 25.864 31.3321 25.8636 31.3253 25.8632Z" fill="#FE3B49"/>
<path d="M24.4704 17.6458C24.255 17.6063 24.0812 17.3808 24.1338 17.1591C24.2678 16.5973 24.4089 16.0368 24.5497 15.4772C24.6158 15.2156 24.682 14.9553 24.7456 14.6933C24.7829 14.5407 24.8198 14.3881 24.8558 14.2359C24.9075 14.0205 24.9414 13.7242 25.1712 13.622C25.2725 13.577 25.3798 13.5635 25.4871 13.5982C25.5931 13.633 25.6825 13.7093 25.7321 13.8094C25.7915 13.9281 25.7872 14.0735 25.7287 14.1909C25.7156 14.2346 25.7033 14.2787 25.6931 14.3228C25.6978 14.305 25.7024 14.2867 25.7067 14.2689C25.465 15.2843 25.1979 16.2938 24.9563 17.31C24.93 17.4206 24.8745 17.5173 24.7782 17.5817C24.7091 17.628 24.6264 17.6525 24.5438 17.6525C24.5196 17.6521 24.495 17.65 24.4704 17.6458Z" fill="#FE3B49"/>
<path d="M27.1388 16.6741C26.9133 16.6325 26.7632 16.4117 26.8026 16.1874C26.9234 15.4989 27.0222 14.8057 27.1125 14.1125C27.1278 13.9747 27.1431 13.837 27.1575 13.6987C27.1676 13.6029 27.1723 13.5003 27.2024 13.4083C27.2376 13.3011 27.3139 13.1989 27.419 13.1514C27.6259 13.0573 27.8752 13.1285 27.9799 13.3384C28.0266 13.4312 28.0338 13.5402 28.0071 13.639C28.0011 13.6737 27.9969 13.7085 27.9927 13.7437C27.9015 14.6115 27.7764 15.4781 27.6255 16.3379C27.5903 16.538 27.4085 16.6809 27.2113 16.6809C27.1871 16.6809 27.163 16.6787 27.1388 16.6741Z" fill="#FE3B49"/>
<path d="M30.2362 15.5366C30.201 15.116 30.1616 14.695 30.1217 14.2744C30.1026 14.0705 30.0818 13.8666 30.064 13.6622C30.0598 13.6143 30.0551 13.566 30.0517 13.5177C30.0467 13.4431 30.0335 13.3621 30.0411 13.2879C30.0517 13.1853 30.0768 13.0933 30.1463 13.0132C30.1925 12.9598 30.2565 12.9135 30.3243 12.8932C30.432 12.861 30.5414 12.8622 30.644 12.9114C30.7432 12.9593 30.8208 13.0462 30.8568 13.1505C30.8751 13.2023 30.8814 13.2574 30.878 13.3116C30.878 13.3116 30.8785 13.3108 30.8789 13.3099C30.8785 13.3138 30.878 13.3176 30.8776 13.3214C30.8852 13.4918 30.9035 13.6618 30.92 13.8318C30.9378 14.0192 30.956 14.2062 30.9734 14.3936C31.0073 14.7522 31.04 15.1113 31.0705 15.4704C31.0896 15.6977 30.9128 15.9024 30.6868 15.9202C30.6758 15.9211 30.6648 15.9215 30.6542 15.9215C30.4388 15.9219 30.2544 15.7528 30.2362 15.5366Z" fill="#FE3B49"/>
<path d="M8.7903 33.801C8.50413 33.7591 8.22644 33.6722 7.95723 33.57C7.66512 33.4593 7.39209 33.3126 7.13645 33.1337C6.66077 32.7997 6.27751 32.3456 5.99134 31.8424C5.8756 31.6393 5.76707 31.4298 5.68143 31.2124C5.63776 31.1017 5.58689 30.9919 5.55 30.8787C5.51609 30.774 5.48175 30.6701 5.44783 30.5654C5.35541 30.2809 5.3075 29.9799 5.30072 29.6814C5.28885 29.1371 5.4207 28.5647 5.80226 28.1582C5.98329 27.9653 6.2224 27.8504 6.47889 27.797C6.75361 27.7397 7.04021 27.7736 7.30519 27.8572C7.58585 27.9453 7.83258 28.1306 8.031 28.3426C8.22729 28.5524 8.35745 28.8297 8.43461 29.1032C8.51855 29.4004 8.55374 29.7132 8.5885 30.0193C8.61563 30.2593 8.62496 30.5022 8.61903 30.7439C8.61267 30.9716 8.40366 31.1517 8.18023 31.1403C7.94875 31.1288 7.77747 30.9292 7.78341 30.7015C7.78468 30.6498 7.78553 30.5985 7.78553 30.5472C7.77747 30.2894 7.75034 30.0342 7.71642 29.7781C7.69395 29.6318 7.66979 29.4864 7.6346 29.3423C7.61806 29.2867 7.59983 29.2325 7.57906 29.1782C7.55744 29.132 7.53497 29.0871 7.51038 29.0425C7.48621 29.0052 7.46163 28.9688 7.43576 28.9332C7.41329 28.906 7.38997 28.8793 7.36581 28.8539C7.34503 28.8344 7.32384 28.8153 7.3018 28.7975C7.25474 28.7636 7.20683 28.7322 7.15722 28.7021C7.13306 28.6894 7.10889 28.6775 7.08388 28.6665C7.04106 28.6508 6.99867 28.6372 6.95542 28.6254C6.92659 28.619 6.89776 28.6143 6.86851 28.6101C6.83417 28.6071 6.7994 28.6054 6.76506 28.605C6.73242 28.6063 6.69935 28.6088 6.66671 28.6127C6.68451 28.6101 6.70189 28.6076 6.72012 28.6046C6.67433 28.6101 6.62897 28.6177 6.58446 28.6288C6.56962 28.6334 6.55478 28.6385 6.53994 28.6445C6.52298 28.6521 6.50645 28.6606 6.49034 28.669C6.47635 28.6788 6.46236 28.6881 6.44837 28.6974C6.43565 28.708 6.42293 28.7195 6.41063 28.7309C6.39792 28.7445 6.38605 28.7581 6.37418 28.7725C6.34831 28.8085 6.32415 28.845 6.30083 28.8827C6.27794 28.9264 6.25631 28.97 6.23554 29.015C6.21985 29.0574 6.20629 29.0998 6.19399 29.143C6.17619 29.2215 6.16135 29.2999 6.1499 29.38C6.14184 29.4686 6.13718 29.5568 6.13591 29.6463C6.13888 29.7429 6.14651 29.8387 6.15838 29.935C6.17619 30.041 6.19908 30.1444 6.22621 30.2483C6.29405 30.4806 6.37969 30.704 6.46829 30.9287C6.54757 31.1072 6.63449 31.2806 6.73072 31.451C6.81085 31.5846 6.89649 31.7135 6.98849 31.839C7.06607 31.9373 7.1479 32.0306 7.23481 32.1213C7.33783 32.2214 7.44467 32.3163 7.55744 32.4054C7.66004 32.48 7.76518 32.5491 7.87498 32.6135C7.97673 32.6678 8.08018 32.7166 8.18617 32.7623C8.34261 32.8238 8.50159 32.8781 8.66397 32.9222C8.79455 32.9527 8.92555 32.9764 9.05825 32.9938C9.1672 33.0036 9.27574 33.0087 9.38554 33.0087C9.48475 33.0048 9.58311 32.9972 9.68147 32.9845C9.7688 32.9688 9.85486 32.9497 9.94093 32.9273C10.0456 32.8963 10.1478 32.8603 10.2496 32.8196C10.3679 32.7679 10.4827 32.7115 10.5959 32.6492C10.7452 32.5584 10.8842 32.4571 11.0233 32.3528C11.1094 32.2795 11.1933 32.2057 11.2747 32.1277C11.3001 32.0997 11.3252 32.0721 11.3493 32.0433C11.3603 32.0272 11.3722 32.0115 11.3849 31.9971C11.5363 31.8271 11.8021 31.8063 11.9751 31.9577C12.1451 32.1061 12.1663 32.3778 12.0149 32.5478C11.8924 32.7055 11.744 32.8374 11.5922 32.9671C11.5032 33.043 11.4057 33.11 11.3124 33.1804C11.0822 33.3533 10.8177 33.4903 10.5514 33.5984C10.2831 33.7078 10.0083 33.7807 9.72131 33.8218C9.60261 33.8388 9.48221 33.846 9.3618 33.846C9.16933 33.8473 8.97769 33.8286 8.7903 33.801Z" fill="#FE3B49"/>
<path d="M42.7972 33.4106C42.4016 33.3538 42.012 33.2257 41.6593 33.0379C41.3439 32.87 41.0725 32.6365 40.8355 32.3706C40.6511 32.1637 40.5065 31.9289 40.3692 31.6898C40.3115 31.5897 40.2628 31.4863 40.2191 31.379C40.1733 31.2658 40.1453 31.1284 40.1881 31.0097C40.2653 30.7956 40.4934 30.6689 40.7151 30.7409C40.8665 30.7905 40.9788 30.9296 41.0013 31.0831C41.0043 31.0915 41.0077 31.1 41.011 31.1085C41.0619 31.2187 41.1217 31.3235 41.1823 31.4286C41.24 31.5197 41.2993 31.6084 41.3638 31.6948C41.4346 31.7839 41.5088 31.8687 41.5876 31.9509C41.6563 32.017 41.7275 32.0789 41.8022 32.1383C41.878 32.193 41.9556 32.2443 42.0366 32.2918C42.1163 32.3333 42.1964 32.3719 42.2787 32.4079C42.4004 32.455 42.5237 32.4944 42.6501 32.5283C42.787 32.5601 42.9239 32.5852 43.063 32.6034C43.1876 32.6148 43.311 32.6216 43.4361 32.6225C43.5527 32.6186 43.6676 32.6097 43.7829 32.5953C43.9071 32.5754 44.0288 32.5495 44.1504 32.5173C44.27 32.4813 44.3874 32.4397 44.5032 32.3931C44.6367 32.3342 44.766 32.2685 44.8932 32.1964C45.0081 32.126 45.1188 32.0514 45.226 31.9708C45.3185 31.8962 45.4075 31.8186 45.4936 31.7368C45.6 31.6279 45.6992 31.5138 45.7937 31.3938C45.8925 31.2599 45.9836 31.1216 46.0676 30.9779C46.1511 30.8266 46.2253 30.6718 46.2919 30.5124C46.3457 30.3721 46.3923 30.2305 46.4318 30.0851C46.4653 29.9443 46.4907 29.8027 46.5098 29.6586C46.5293 29.4602 46.5314 29.2639 46.5314 29.065C46.5246 28.9663 46.5183 28.8675 46.511 28.7687C46.5051 28.6869 46.4911 28.6042 46.4788 28.5224C46.4547 28.4049 46.4313 28.2871 46.4012 28.1709C46.3783 28.0967 46.3525 28.0242 46.3237 27.9517C46.3054 27.9123 46.2859 27.8733 46.2647 27.8356C46.2507 27.8127 46.2359 27.7898 46.2198 27.7681C46.1956 27.7385 46.171 27.7101 46.1447 27.6821C46.1252 27.6643 46.1049 27.6473 46.0833 27.6312C46.0896 27.635 46.0964 27.6388 46.1028 27.6422C46.0951 27.6371 46.0871 27.6325 46.079 27.6278C46.0739 27.624 46.0689 27.6202 46.0638 27.6164C46.068 27.6193 46.0718 27.6227 46.0761 27.6257C46.0536 27.613 46.0307 27.6015 46.0074 27.5909C45.9883 27.5841 45.9688 27.5778 45.9489 27.5719C45.9268 27.5676 45.9044 27.563 45.8827 27.5591C45.8933 27.5604 45.9039 27.5617 45.9145 27.563C45.9217 27.5646 45.929 27.5668 45.9362 27.5685C45.9294 27.5668 45.9226 27.5646 45.9158 27.563C45.923 27.5638 45.9302 27.5646 45.9374 27.5655C45.9285 27.5642 45.9201 27.5629 45.9112 27.5621C45.9078 27.5613 45.9048 27.5604 45.9014 27.56C45.9044 27.5608 45.9073 27.5613 45.9103 27.5621C45.8815 27.5587 45.8522 27.557 45.8234 27.5562C45.7988 27.557 45.7742 27.5591 45.7496 27.5617C45.706 27.5693 45.6631 27.5786 45.6199 27.5892C45.5923 27.5981 45.5652 27.6079 45.5385 27.6185C45.4842 27.6427 45.4317 27.6681 45.3787 27.6952C45.1862 27.8114 45.0018 27.9432 44.8233 28.0798C44.8021 28.0963 44.7809 28.1128 44.7597 28.1285C44.7321 28.1523 44.7029 28.1739 44.6736 28.1955C44.5244 28.3163 44.379 28.4401 44.2399 28.5728C44.1806 28.6347 44.1229 28.6975 44.0686 28.764C43.9245 28.9404 43.6455 28.9493 43.4785 28.803C43.3025 28.6496 43.2953 28.3897 43.4395 28.2129C43.6468 27.9589 43.8978 27.7402 44.1564 27.5392C44.1513 27.543 44.1462 27.5473 44.1407 27.5511C44.1801 27.5206 44.2191 27.4862 44.2607 27.4561C44.3302 27.3942 44.415 27.3425 44.4854 27.2903C44.6897 27.1398 44.8966 26.9936 45.1268 26.8859C45.3481 26.782 45.597 26.7129 45.8429 26.7197C46.1235 26.7273 46.3915 26.8147 46.6149 26.9864C47.0037 27.2844 47.175 27.7571 47.2704 28.2205C47.3187 28.4541 47.3437 28.689 47.3602 28.9268C47.3827 29.2579 47.3641 29.5929 47.317 29.921C47.2339 30.4959 47.0041 31.0424 46.7069 31.5371C46.5144 31.8572 46.2728 32.1459 46.004 32.4045C45.7225 32.6755 45.3876 32.8908 45.0395 33.0659C44.7113 33.2308 44.3565 33.3436 43.9953 33.4072C43.8024 33.4415 43.6078 33.4564 43.4136 33.4564C43.2076 33.4572 43.0015 33.4403 42.7972 33.4106Z" fill="#FE3B49"/>
<path d="M36.9309 24.2692C36.8079 24.0856 36.8507 23.8088 37.0445 23.6888C37.125 23.6392 37.2098 23.5951 37.2925 23.5489C38.034 23.1131 38.725 22.6031 39.4275 22.1079C39.8189 21.8323 40.2119 21.561 40.6146 21.3024C40.8164 21.1722 41.0212 21.0471 41.226 20.9217C41.4087 20.8097 41.594 20.6982 41.7822 20.5965C42.1803 20.3807 42.5801 20.1619 43.0045 20.0021C43.2271 19.9181 43.4509 19.8312 43.6815 19.7698C43.8181 19.7337 43.9533 19.6964 44.0919 19.668C44.3561 19.6146 44.6248 19.6048 44.8911 19.6515C45.134 19.6939 45.3799 19.8062 45.5703 19.9627C45.6665 20.0419 45.7572 20.1297 45.8302 20.231C45.9175 20.3519 45.9819 20.479 46.0358 20.6177C46.129 20.8589 46.1418 21.1353 46.1134 21.3901C46.0811 21.6784 45.9773 21.9506 45.834 22.2012C45.5643 22.673 45.2095 23.097 44.844 23.4972C44.8203 23.5235 44.7961 23.5489 44.7724 23.5748C44.6176 23.7418 44.3578 23.7677 44.1822 23.6142C44.0148 23.4675 43.9876 23.1907 44.1428 23.0241C44.3556 22.7955 44.557 22.5577 44.7512 22.3135C44.8801 22.1384 45.0051 21.9633 45.1154 21.7759C45.1497 21.7119 45.1807 21.6479 45.2091 21.5813C45.229 21.5258 45.2468 21.4703 45.2629 21.4134C45.2705 21.3791 45.2769 21.3448 45.282 21.31C45.2866 21.26 45.2896 21.2108 45.2909 21.1603C45.2888 21.1141 45.2849 21.0692 45.279 21.0234C45.2735 20.9946 45.2671 20.9657 45.2599 20.9373C45.2519 20.9111 45.243 20.8856 45.2332 20.8602C45.2218 20.8352 45.2095 20.8106 45.1963 20.7864C45.1828 20.7644 45.1684 20.7432 45.1535 20.7224C45.1374 20.7029 45.1209 20.6842 45.1035 20.666C45.0819 20.6452 45.0598 20.6257 45.0365 20.6071C45.0162 20.5922 44.9954 20.5782 44.9738 20.5651C44.9356 20.5448 44.897 20.5265 44.8576 20.5091C44.8334 20.5007 44.8088 20.4926 44.7843 20.4858C44.7406 20.4761 44.6973 20.4684 44.6532 20.4621C44.6092 20.4591 44.5659 20.4574 44.5222 20.457C44.4663 20.4604 44.4112 20.4655 44.356 20.4718C44.1971 20.4981 44.0428 20.5388 43.8872 20.5804C43.6718 20.6499 43.4598 20.7245 43.2483 20.8046C43.0087 20.9085 42.7692 21.0128 42.5398 21.137C42.277 21.2795 42.0171 21.4262 41.758 21.5762C41.7606 21.5746 41.7636 21.5733 41.7661 21.5716C41.4091 21.7903 41.0513 22.0078 40.7045 22.2427C40.3115 22.5085 39.9236 22.7816 39.5378 23.0576C39.2041 23.2962 38.8696 23.5341 38.5279 23.7613C38.3511 23.8792 38.1735 23.9958 37.9916 24.1056C37.8305 24.2031 37.6656 24.2947 37.5024 24.3888C37.5002 24.3901 37.4981 24.3913 37.4964 24.3922C37.4862 24.3981 37.4765 24.4036 37.4663 24.4096C37.4744 24.4049 37.482 24.4002 37.4901 24.3956C37.4222 24.4324 37.348 24.4511 37.2751 24.4511C37.1416 24.4507 37.0118 24.3901 36.9309 24.2692Z" fill="#FE3B49"/>
<path d="M11.6961 25.4092C11.2226 24.9929 10.8597 24.4524 10.6943 23.8393C10.6197 23.5604 10.5811 23.2835 10.5926 22.9939C10.6036 22.7116 10.6973 22.4322 10.8151 22.1783C10.9241 21.9442 11.0805 21.7161 11.2671 21.5372C11.3591 21.4486 11.4557 21.3698 11.5638 21.3011C11.6834 21.2252 11.8157 21.1811 11.9522 21.1463C12.2019 21.0823 12.4804 21.1175 12.7255 21.1858C13.0108 21.2646 13.2737 21.3901 13.5276 21.541C13.7532 21.6754 13.9668 21.8336 14.172 21.9964C14.2522 22.06 14.3365 22.121 14.4133 22.1888C14.5243 22.2876 14.6354 22.3864 14.7469 22.4856C14.9093 22.6298 15.0573 22.7926 15.2103 22.9469C15.2565 22.9935 15.2976 23.0486 15.3405 23.0987C15.4002 23.1682 15.46 23.2377 15.5198 23.3072C15.5715 23.3679 15.6177 23.4349 15.6665 23.4989C15.7127 23.5595 15.7615 23.6189 15.8055 23.6808C15.8975 23.8105 15.9904 23.9394 16.079 24.0716C16.1265 24.1424 16.1731 24.2137 16.2181 24.2866C16.2494 24.337 16.277 24.3913 16.3109 24.4401C16.4406 24.627 16.3842 24.8945 16.1973 25.0205C16.0061 25.1485 15.7466 25.0938 15.6169 24.9068C15.5626 24.828 15.5168 24.7419 15.4664 24.6605C15.413 24.5745 15.3553 24.4901 15.2968 24.4078C15.1649 24.2222 15.0297 24.0407 14.8915 23.8597C14.8406 23.8003 14.7893 23.7405 14.738 23.6808C14.6854 23.6193 14.6358 23.5531 14.5795 23.4959C14.4654 23.3814 14.3518 23.2665 14.2377 23.1521C14.1097 23.038 13.9813 22.924 13.8532 22.8104C13.7468 22.7158 13.6302 22.6315 13.5179 22.5437C13.3525 22.4288 13.1893 22.3131 13.0172 22.2092C12.9154 22.1532 12.8116 22.1028 12.7043 22.0574C12.6343 22.032 12.5644 22.0087 12.4927 21.9883C12.4351 21.9756 12.3783 21.965 12.3193 21.9561C12.3376 21.9582 12.3558 21.9599 12.3736 21.9625C12.3265 21.9552 12.2791 21.9514 12.2312 21.9502C12.2125 21.951 12.1934 21.9527 12.1748 21.9548C12.151 21.9586 12.1273 21.9637 12.104 21.9692C12.0857 21.9752 12.0679 21.9815 12.0497 21.9875C12.0582 21.9841 12.0662 21.9803 12.0747 21.9769C12.0781 21.976 12.0815 21.9747 12.0853 21.9739C12.0819 21.9747 12.079 21.9756 12.0756 21.9764C12.0836 21.9731 12.0913 21.9697 12.0993 21.9663C12.09 21.9697 12.0807 21.9735 12.0717 21.9773C12.0527 21.9854 12.0332 21.9943 12.0149 22.0044C11.9946 22.0171 11.9747 22.0303 11.9552 22.0443C11.9149 22.0773 11.8767 22.1113 11.839 22.1469C11.8051 22.1838 11.7724 22.2211 11.7411 22.2601C11.6978 22.3211 11.6567 22.3834 11.6181 22.4475C11.5846 22.5102 11.5537 22.5734 11.5253 22.6387C11.5007 22.7048 11.4791 22.7718 11.46 22.84C11.4494 22.8884 11.4405 22.9367 11.4328 22.9859C11.4286 23.0419 11.4261 23.0965 11.4256 23.1525C11.4286 23.2161 11.4333 23.2788 11.4401 23.342C11.457 23.4404 11.4786 23.537 11.5041 23.6333C11.5299 23.7176 11.5583 23.8003 11.5906 23.8826C11.6296 23.9712 11.6724 24.0581 11.719 24.1433C11.7809 24.245 11.8483 24.3426 11.9191 24.4384C11.9887 24.521 12.0595 24.6003 12.1349 24.6775C12.1718 24.7118 12.2091 24.7457 12.2468 24.7792C12.4181 24.9293 12.4368 25.1973 12.2863 25.3694C12.2049 25.4626 12.0874 25.5106 11.97 25.5106C11.8721 25.511 11.7737 25.4775 11.6961 25.4092Z" fill="#FE3B49"/>
<path d="M25.4023 34.5485C24.849 34.4086 24.4691 33.9558 24.208 33.4734C23.8773 32.8629 23.7772 32.1515 23.7213 31.468C23.7124 31.3616 23.7124 31.2539 23.7128 31.1471C23.7136 30.9754 23.745 30.7799 23.9082 30.6837C24.0202 30.6176 24.1439 30.5917 24.2703 30.6333C24.397 30.6744 24.4886 30.7706 24.5361 30.8931C24.5649 30.9669 24.5679 31.0449 24.5505 31.1183C24.5488 31.1594 24.548 31.2001 24.548 31.2412C24.5582 31.4634 24.5802 31.6826 24.6061 31.9039C24.6391 32.1023 24.6722 32.2994 24.7222 32.4944C24.7604 32.628 24.8049 32.759 24.8558 32.8883C24.9016 32.993 24.952 33.0943 25.008 33.194C25.0516 33.2635 25.097 33.3305 25.1462 33.3962C25.1831 33.4407 25.2212 33.4835 25.2611 33.5259C25.2984 33.5607 25.3361 33.5938 25.376 33.626C25.4006 33.6438 25.426 33.6607 25.4519 33.6764C25.4773 33.69 25.5036 33.7027 25.5303 33.7142C25.5125 33.7074 25.4951 33.7002 25.4777 33.693C25.5197 33.7112 25.5625 33.7265 25.6062 33.7392C25.5884 33.7345 25.5701 33.7298 25.5523 33.7256C25.5909 33.7366 25.6303 33.746 25.6702 33.7519C25.7147 33.7561 25.7588 33.7583 25.8037 33.7587C25.83 33.7574 25.8567 33.7549 25.883 33.7519C25.9212 33.7451 25.9589 33.7371 25.9966 33.7277C26.0293 33.718 26.0619 33.7065 26.0941 33.6942C26.1446 33.6718 26.1938 33.6476 26.2425 33.6217C26.2955 33.5887 26.3468 33.5539 26.3969 33.517C26.4528 33.4712 26.5058 33.4237 26.5575 33.3737C26.6127 33.3152 26.6648 33.255 26.7148 33.1927C26.7801 33.1037 26.8399 33.0125 26.8963 32.9171C26.9908 32.7441 27.0667 32.5661 27.1405 32.3842C27.2812 31.995 27.4131 31.6037 27.5178 31.2031C27.5466 31.0801 27.5725 30.9572 27.5937 30.8325C27.6314 30.6082 27.8587 30.4556 28.0804 30.4963C28.3068 30.5379 28.4543 30.7583 28.4166 30.983C28.3437 31.4146 28.2165 31.8373 28.0749 32.2507C27.9981 32.4745 27.915 32.695 27.8264 32.9142C27.6348 33.3877 27.3372 33.8295 26.9395 34.1534C26.6093 34.4222 26.1938 34.5947 25.7707 34.5947C25.6473 34.5939 25.5239 34.5795 25.4023 34.5485Z" fill="#FE3B49"/>
</svg>
