<svg width="31" height="26" viewBox="0 0 31 26" fill="none" xmlns="http://www.w3.org/2000/svg">
<path d="M28.8794 1.70136C30.0037 2.88074 30.2126 4.79384 29.4264 6.21496C28.5468 7.80381 26.859 8.39204 25.1382 8.2135C25.1107 8.21081 25.086 8.21619 25.0613 8.22451C24.9924 8.06509 24.9182 7.90837 24.8413 7.75456C27.0652 7.92231 27.9338 4.93977 26.5539 3.4168C25.1822 1.90215 22.3949 2.51241 22.3234 4.71693C22.0376 4.51343 21.7435 4.33221 21.4383 4.17256C21.5098 4.18897 21.595 4.14513 21.6088 4.04889C22.0234 0.645642 26.5071 -0.789186 28.8794 1.70136Z" fill="#E3FF06"/>
<path d="M29.3439 1.50035C32.0571 4.63129 29.1157 9.19728 25.2618 8.7217C26.0866 10.9402 26.1442 13.4197 25.9105 15.8001C26.0617 15.7205 26.2101 15.6352 26.3531 15.5361C26.441 15.4756 26.5399 15.5113 26.6004 15.5828C26.6746 15.5855 26.7515 15.624 26.7846 15.7148C28.0683 19.3818 27.6559 26.1553 22.2296 25.1985C19.1124 24.6514 16.2974 23.0736 13.1086 22.8042C11.5198 22.6695 9.89786 22.7848 8.34476 23.1505C7.09409 23.4446 5.91201 23.9559 4.62829 24.085L4.60086 23.832C6.811 23.2602 8.85609 22.4109 11.1681 22.2926C13.5102 22.1717 15.7148 22.6556 17.9276 23.3812C20.2888 24.1536 24.1072 26.0696 25.938 23.4691C27.4225 21.3606 27.2134 18.2845 26.4466 15.9536C23.6015 17.996 19.3874 16.2394 16.3664 15.5412C11.5724 14.4334 6.98707 14.6807 2.36621 16.3521C2.36621 16.3604 2.36621 16.3658 2.36621 16.3741L2.12156 16.3631C2.04736 16.2999 2.02802 16.1623 2.13258 16.1158C2.55869 15.9233 2.99019 15.7474 3.43002 15.588C3.47679 13.7545 3.68298 11.9595 4.22444 10.2798C1.06315 10.0021 -0.404733 6.13987 1.20886 3.55871C2.03342 2.24193 3.4932 1.48326 5.03799 1.48326C6.98707 1.48596 8.29552 2.6984 9.49942 4.10018C11.1708 3.37456 13.0344 3.15463 15.0136 3.09122C17.2568 3.01702 19.4917 3.17914 21.3801 4.14401C21.358 4.12198 21.3443 4.09185 21.3416 4.04778C21.2209 -0.0361173 26.922 -1.2951 29.3439 1.50035ZM29.4264 6.21475C30.2126 4.79364 30.0037 2.88031 28.8794 1.70115C26.5071 -0.78939 22.0236 0.645438 21.6085 4.04868C21.5948 4.14492 21.5096 4.18877 21.4381 4.17235C21.7432 4.33178 22.0373 4.51323 22.3231 4.71673C22.3946 2.51198 25.182 1.90194 26.5536 3.4166C27.9336 4.93957 27.065 7.9221 24.8411 7.75436C24.918 7.90839 24.9922 8.06488 25.061 8.22431C25.0858 8.21599 25.1105 8.2106 25.1379 8.2133C26.8588 8.39206 28.5466 7.80361 29.4264 6.21475ZM26.6913 5.82731C26.9112 5.01355 26.6418 4.15323 26.0288 3.58411C24.7561 2.41035 22.9089 3.20478 22.6202 4.82376C22.6146 4.85952 22.5954 4.88426 22.5734 4.9036C23.0243 5.2555 23.4504 5.66766 23.838 6.15988C24.1294 6.5282 24.3795 6.91316 24.605 7.30891C24.6271 7.29789 24.6518 7.28958 24.6819 7.28688C25.6272 7.221 26.4273 6.8059 26.6913 5.82731ZM25.4541 16.0121C25.8251 12.6804 25.6162 9.01874 23.3732 6.33325C21.2566 3.79324 18.1145 3.4827 15.0139 3.57062C11.7948 3.65854 8.90848 4.1782 6.70104 6.71551C5.82679 7.72445 5.16436 8.90924 4.67236 10.1792C4.66967 10.1986 4.66135 10.215 4.65303 10.2287C4.00161 11.9331 3.6578 13.7831 3.54245 15.5478C6.71746 14.3987 10.1783 14.0551 13.5237 14.506C15.6954 14.8001 17.801 15.416 19.9342 15.8859C21.7486 16.2869 23.7168 16.702 25.4541 16.0121ZM7.66592 5.1813C8.11406 4.83501 8.58131 4.5436 9.06791 4.30165C8.0837 3.16633 7.01719 2.10791 5.43104 1.9622C4.03736 1.83291 2.67674 2.39102 1.82722 3.50429C-0.187744 6.14054 1.54952 9.07361 4.3371 9.93684C4.49383 9.49972 4.67799 9.06821 4.88418 8.65042C3.10285 8.40577 2.19576 6.37148 3.18267 4.84873C4.33418 3.07279 6.64888 3.62527 7.66592 5.1813ZM7.33874 5.44797C7.32772 5.43696 7.31941 5.43156 7.31131 5.42054C6.41525 4.13952 4.44975 3.53757 3.4986 5.17028C2.69877 6.53922 3.63059 7.99338 5.01865 8.38643C5.41732 7.63315 5.90931 6.91585 6.51688 6.24217C6.78064 5.95098 7.05564 5.687 7.33874 5.44797Z" fill="#1D1D1B"/>
<path d="M26.0286 3.58409C26.6415 4.15321 26.9109 5.01353 26.691 5.82729C26.427 6.80588 25.6272 7.22097 24.6814 7.28708C24.6513 7.28978 24.6264 7.2981 24.6045 7.30912C24.3792 6.91337 24.129 6.5284 23.8376 6.16008C23.4499 5.66809 23.0238 5.2557 22.5729 4.9038C22.595 4.88446 22.6141 4.85973 22.6197 4.82398C22.9087 3.20477 24.7559 2.41033 26.0286 3.58409Z" fill="#4169E3"/>
<path d="M26.4464 15.9542C27.2134 18.2853 27.4223 21.3614 25.9377 23.4696C24.1069 26.0701 20.2888 24.1541 17.9274 23.3817C15.7145 22.6559 13.5098 22.1722 11.1679 22.2932C8.85608 22.4115 6.81076 23.2607 4.60062 23.8326C4.59792 23.8022 4.58128 23.7721 4.54845 23.7446C2.30256 21.9496 2.22836 19.0276 2.36575 16.3749C2.36575 16.3666 2.36575 16.3612 2.36575 16.3528C6.9866 14.6815 11.5719 14.4341 16.3659 15.542C19.3874 16.24 23.6015 17.9966 26.4464 15.9542Z" fill="#4169E3"/>
<path d="M23.3732 6.33308C25.6164 9.0188 25.8253 12.6804 25.454 16.0119C23.7168 16.702 21.7486 16.2869 19.9342 15.8855C17.8009 15.4154 15.6954 14.7997 13.5237 14.5056C10.1782 14.0547 6.7174 14.3983 3.54239 15.5474C3.65774 13.7827 4.00155 11.9325 4.65297 10.2283C4.66129 10.2146 4.66938 10.198 4.67231 10.1788C5.1643 8.90884 5.82695 7.72405 6.70098 6.71511C8.90843 4.1778 11.7947 3.65837 15.0138 3.57022C18.1144 3.48253 21.2566 3.79307 23.3732 6.33308ZM18.6808 9.16721C18.7935 8.98305 18.6671 8.79618 18.5241 8.67228C18.3811 8.55131 18.1942 8.49914 18.0155 8.56795C17.9082 8.6091 17.823 8.68892 17.7762 8.79056C17.7074 8.84835 17.6689 8.93897 17.702 9.05162C17.7789 9.3264 18.0951 9.44468 18.3534 9.38982C18.4856 9.36238 18.612 9.28278 18.6808 9.16721ZM16.3524 12.9304C16.3634 12.782 16.1408 12.7243 16.0747 12.8535C15.9042 13.178 15.5249 13.1697 15.3214 12.8756C15.1566 12.6336 15.1262 12.3341 15.1262 12.0454C15.3983 11.3884 15.665 10.7286 15.9344 10.0689C16.0032 9.90114 15.8354 9.8022 15.6924 9.83525C15.6704 9.82693 15.6484 9.82425 15.6209 9.82425C15.247 9.84066 14.8706 9.8546 14.4939 9.87933C14.2493 9.89305 13.9662 9.8573 13.7764 10.014C13.6995 10.003 13.6116 10.0525 13.65 10.146C13.9331 10.8606 14.3345 11.5123 14.7249 12.172C14.7303 12.1803 14.7386 12.1884 14.7469 12.1967C14.7413 12.2462 14.7413 12.2984 14.7332 12.3478C14.7141 12.5129 14.6617 12.7135 14.5326 12.8288C14.3732 12.9745 14.0516 12.9113 14.0323 12.6638C14.0186 12.485 13.7987 12.4659 13.7328 12.6253C13.5156 13.1393 14.2167 13.4856 14.6318 13.2686C14.7858 13.189 14.8874 13.0818 14.9589 12.9608C15.0331 13.1285 15.1487 13.277 15.3383 13.3842C15.7338 13.6122 16.3193 13.4227 16.3524 12.9304ZM11.7286 9.10671C11.7533 8.84273 11.5143 8.62574 11.2557 8.63653C11.088 8.64485 10.9369 8.7411 10.9313 8.91963C10.9313 8.9745 10.9396 9.02397 10.9533 9.07074C10.9065 9.22747 10.967 9.41163 11.1512 9.46942C11.4044 9.55216 11.7041 9.37879 11.7286 9.10671Z" fill="#E3FF06"/>
<path d="M18.5241 8.67255C18.6671 8.79622 18.7935 8.9833 18.6808 9.16746C18.612 9.28281 18.4857 9.36264 18.3537 9.39007C18.0953 9.44516 17.7791 9.32689 17.7022 9.05189C17.6692 8.93923 17.7079 8.84839 17.7764 8.79082C17.8232 8.68919 17.9084 8.60936 18.0157 8.56821C18.1942 8.49941 18.3811 8.55157 18.5241 8.67255Z" fill="#1D1D1B"/>
<path d="M16.0747 12.8534C16.1406 12.7242 16.3635 12.7819 16.3524 12.9303C16.3194 13.4223 15.7339 13.6121 15.3381 13.3839C15.1483 13.2766 15.033 13.1282 14.9588 12.9605C14.8873 13.0815 14.7856 13.1887 14.6316 13.2683C14.2165 13.4855 13.5156 13.139 13.7326 12.625C13.7985 12.4656 14.0184 12.4849 14.0321 12.6634C14.0515 12.9108 14.373 12.9742 14.5324 12.8285C14.6617 12.7131 14.7139 12.5123 14.733 12.3475C14.7413 12.298 14.7413 12.2459 14.7467 12.1964C14.7384 12.1881 14.7303 12.18 14.7247 12.1717C14.3343 11.5119 13.933 10.8605 13.6499 10.1457C13.6114 10.0522 13.6993 10.0027 13.7762 10.0137C13.966 9.85697 14.2491 9.89272 14.4938 9.879C14.8704 9.85427 15.247 9.84055 15.6208 9.82391C15.6482 9.82391 15.6702 9.82661 15.6923 9.83493C15.8353 9.80188 16.0028 9.90082 15.9342 10.0686C15.6648 10.7283 15.3981 11.388 15.1261 12.0451C15.1261 12.3338 15.1564 12.6333 15.3212 12.8753C15.525 13.1696 15.9043 13.1779 16.0747 12.8534Z" fill="#1D1D1B"/>
<path d="M11.256 8.63685C11.5144 8.62583 11.7537 8.84304 11.7289 9.10703C11.7042 9.37911 11.4047 9.55224 11.1517 9.46994C10.9675 9.41215 10.9071 9.228 10.9538 9.07128C10.9401 9.0245 10.9318 8.97504 10.9318 8.92017C10.9372 8.74118 11.0883 8.64494 11.256 8.63685Z" fill="#1D1D1B"/>
<path d="M9.06784 4.30158C8.58124 4.54353 8.11399 4.83495 7.66584 5.18123C6.64881 3.62543 4.3341 3.07273 3.18237 4.84866C2.19547 6.37164 3.10255 8.40571 4.88388 8.65035C4.67769 9.06814 4.49353 9.49988 4.3368 9.93678C1.54945 9.07354 -0.187816 6.14048 1.82692 3.50423C2.67644 2.39095 4.03707 1.83284 5.43074 1.96214C7.01713 2.10785 8.08363 3.16627 9.06784 4.30158Z" fill="#E3FF06"/>
<path d="M7.31124 5.42015C7.31956 5.43117 7.32765 5.43657 7.33867 5.44758C7.05557 5.68683 6.78057 5.95058 6.51681 6.242C5.90924 6.91546 5.41725 7.63298 5.01858 8.38626C3.63029 7.99321 2.69848 6.53905 3.49853 5.17011C4.44968 3.53718 6.41518 4.13935 7.31124 5.42015Z" fill="#4169E3"/>
<path d="M4.60093 23.8328L4.62837 24.0857C4.59801 24.0911 4.56788 24.0941 4.53775 24.0967C4.47996 24.1021 4.44151 24.0637 4.42779 24.0171C4.40306 24.0171 4.37562 24.0172 4.34797 24.0034C2.01685 22.9012 1.28021 18.5715 2.12141 16.3643L2.36605 16.3753C2.22867 19.028 2.30287 21.95 4.54876 23.7451C4.58159 23.7723 4.59824 23.8024 4.60093 23.8328Z" fill="#1D1D1B"/>
</svg>
