<svg width="35" height="35" viewBox="0 0 35 35" fill="none" xmlns="http://www.w3.org/2000/svg">
<circle cx="17.5" cy="17.5" r="17.5" fill="white"/>
<path d="M22.4458 20.5696C21.825 19.9568 21.05 19.9568 20.4332 20.5696C19.9627 21.0362 19.4922 21.5028 19.0295 21.9773C18.903 22.1077 18.7963 22.1354 18.6421 22.0484C18.3376 21.8824 18.0134 21.7479 17.7208 21.566C16.3567 20.708 15.214 19.6049 14.2017 18.3633C13.6996 17.7465 13.2528 17.0862 12.9404 16.3428C12.8772 16.1926 12.889 16.0937 13.0116 15.9712C13.4821 15.5165 13.9408 15.0499 14.4034 14.5833C15.0479 13.9349 15.0479 13.1757 14.3994 12.5233C14.0317 12.1516 13.664 11.7879 13.2963 11.4162C12.9167 11.0366 12.5411 10.6531 12.1575 10.2774C11.5368 9.67249 10.7618 9.67249 10.145 10.2814C9.67049 10.748 9.21578 11.2264 8.73339 11.6851C8.28659 12.1081 8.06122 12.6261 8.01377 13.2311C7.93864 14.2156 8.17984 15.1448 8.51988 16.0502C9.21578 17.9244 10.2754 19.5891 11.5605 21.1153C13.2963 23.1793 15.3682 24.8123 17.7919 25.9905C18.8832 26.5204 20.0141 26.9276 21.2438 26.9948C22.0899 27.0423 22.8254 26.8288 23.4145 26.1685C23.8178 25.7177 24.2725 25.3065 24.6995 24.8755C25.3322 24.235 25.3361 23.46 24.7075 22.8274C23.9562 22.0722 23.201 21.3209 22.4458 20.5696Z" fill="black"/>
<path d="M21.6909 17.4183L23.1499 17.1692C22.9206 15.8288 22.2879 14.615 21.3271 13.6502C20.311 12.634 19.0259 11.9935 17.6104 11.7958L17.4048 13.2627C18.5 13.4169 19.4964 13.9112 20.2833 14.698C21.0266 15.4413 21.513 16.3824 21.6909 17.4183Z" fill="black"/>
<path d="M23.9724 11.0762C22.288 9.3918 20.1569 8.32818 17.8042 8L17.5986 9.46692C19.631 9.75161 21.4735 10.6729 22.9286 12.124C24.3085 13.5039 25.214 15.2476 25.5422 17.1653L27.0012 16.9162C26.6176 14.6941 25.5698 12.6776 23.9724 11.0762Z" fill="black"/>
</svg>
