<svg width="24" height="30" viewBox="0 0 24 30" fill="none" xmlns="http://www.w3.org/2000/svg">
<path d="M6.24705 9.55245L1.43323 4.20479C1.28071 4.03608 1.29458 3.77263 1.46328 3.6201L1.49332 3.59468C1.66202 3.44215 1.92548 3.45602 2.078 3.62472L6.89182 8.97238C7.04435 9.14109 7.03048 9.40454 6.86178 9.55707L6.83173 9.58248C6.66072 9.73732 6.39958 9.72346 6.24705 9.55245Z" fill="#4169E3" stroke="#2A2C40" stroke-width="0.4622" stroke-miterlimit="10" stroke-linecap="round" stroke-linejoin="round"/>
<path d="M6.77626 4.17699C6.82942 4.23708 6.88257 4.29948 6.92648 4.36418L1.65971 9.10635C1.60193 9.0532 1.54416 8.99543 1.491 8.93766C0.296216 7.61114 0.51345 5.47115 1.97169 4.1585C3.42993 2.84123 5.58147 2.85048 6.77626 4.17699Z" fill="#4169E3" stroke="#2A2C40" stroke-width="0.4622" stroke-miterlimit="10" stroke-linecap="round" stroke-linejoin="round"/>
<path d="M17.0764 8.06416L20.2702 1.61647C20.3719 1.41079 20.2887 1.16351 20.083 1.06183L20.0483 1.04334C19.8427 0.941658 19.5954 1.02485 19.4937 1.23053L16.2999 7.67822C16.1982 7.8839 16.2814 8.13118 16.4871 8.23286L16.5218 8.25136C16.7274 8.35304 16.9747 8.26984 17.0764 8.06416Z" fill="#4169E3" stroke="#2A2C40" stroke-width="0.4622" stroke-miterlimit="10" stroke-linecap="round" stroke-linejoin="round"/>
<path d="M15.1189 3.03064C15.0843 3.10228 15.0496 3.17623 15.0242 3.25018L21.3748 6.39546C21.4164 6.32844 21.4557 6.25679 21.4927 6.18746C22.2853 4.58825 21.4996 2.58693 19.7386 1.71568C17.9776 0.842122 15.9093 1.43143 15.1189 3.03064Z" fill="#4169E3" stroke="#2A2C40" stroke-width="0.4622" stroke-miterlimit="10" stroke-linecap="round" stroke-linejoin="round"/>
<path d="M9.55864 29.3784L12.2394 24.5045L7.89241 23.9961L6.79699 29.7574L9.55864 29.3784Z" fill="#4169E3" stroke="#2A2C40" stroke-width="0.4622" stroke-miterlimit="10" stroke-linecap="round" stroke-linejoin="round"/>
<path d="M19.8821 27.9595L15.9857 23.9892L20.0346 22.3276L22.6437 27.5805L19.8821 27.9595Z" fill="#4169E3" stroke="#2A2C40" stroke-width="0.4622" stroke-miterlimit="10" stroke-linecap="round" stroke-linejoin="round"/>
<path d="M12.7595 26.5429C18.8157 26.5429 23.7252 21.6334 23.7252 15.5772C23.7252 9.52099 18.8157 4.61148 12.7595 4.61148C6.70333 4.61148 1.79382 9.52099 1.79382 15.5772C1.79382 21.6334 6.70333 26.5429 12.7595 26.5429Z" fill="#FE3B49" stroke="#2A2C40" stroke-width="0.4622" stroke-miterlimit="10" stroke-linecap="round" stroke-linejoin="round"/>
<path d="M12.7595 24.6246C17.7563 24.6246 21.807 20.5739 21.807 15.5771C21.807 10.5802 17.7563 6.52951 12.7595 6.52951C7.76264 6.52951 3.7119 10.5802 3.7119 15.5771C3.7119 20.5739 7.76264 24.6246 12.7595 24.6246Z" fill="white" stroke="#2A2C40" stroke-width="0.4622" stroke-miterlimit="10" stroke-linecap="round" stroke-linejoin="round"/>
<path d="M11.6108 7.22046L11.8257 8.78038" stroke="#2A2C40" stroke-width="0.2311" stroke-miterlimit="10" stroke-linecap="round" stroke-linejoin="round"/>
<path d="M13.6931 22.3736L13.9081 23.9335" stroke="#2A2C40" stroke-width="0.2311" stroke-miterlimit="10" stroke-linecap="round" stroke-linejoin="round"/>
<path d="M21.116 14.4283L19.556 14.6433" stroke="#2A2C40" stroke-width="0.2311" stroke-miterlimit="10" stroke-linecap="round" stroke-linejoin="round"/>
<path d="M5.96273 16.5104L4.40281 16.7254" stroke="#2A2C40" stroke-width="0.2311" stroke-miterlimit="10" stroke-linecap="round" stroke-linejoin="round"/>
<path d="M13.9196 9.68174C14.3333 9.77649 14.6337 9.8643 14.7077 9.39055C14.7978 8.8128 13.9589 7.5325 13.9589 7.5325C13.9589 7.5325 12.7688 8.49619 12.6763 9.07394C12.6024 9.5477 12.9144 9.55463 13.3373 9.5916C12.815 10.8719 12.02 12.9749 11.7935 14.4216C11.4492 16.6286 12.0801 16.6725 12.5169 16.7418C12.9421 16.8112 13.5707 16.9591 13.915 14.7521C14.1415 13.3054 14.0259 11.0591 13.9196 9.68174Z" fill="#E3FF06" stroke="#2A2C40" stroke-width="0.4622" stroke-miterlimit="10" stroke-linecap="round" stroke-linejoin="round"/>
<path d="M9.19824 18.1701C8.94865 17.8281 8.77532 17.5692 8.49338 17.8003C8.14673 18.0823 8.12593 19.4296 8.12593 19.4296C8.12593 19.4296 9.45014 19.6769 9.79448 19.3926C10.0787 19.1615 9.85918 18.942 9.57262 18.6277C10.571 18.2233 12.1656 17.5138 13.0322 16.8066C14.3541 15.7251 13.9242 15.2629 13.6446 14.9185C13.3719 14.5834 12.9952 14.0611 11.6733 15.1427C10.8044 15.8498 9.79216 17.2734 9.19824 18.1701Z" fill="#E3FF06" stroke="#2A2C40" stroke-width="0.4622" stroke-miterlimit="10" stroke-linecap="round" stroke-linejoin="round"/>
<path d="M12.7595 16.1246C13.062 16.1246 13.3072 15.8794 13.3072 15.5769C13.3072 15.2745 13.062 15.0292 12.7595 15.0292C12.457 15.0292 12.2118 15.2745 12.2118 15.5769C12.2118 15.8794 12.457 16.1246 12.7595 16.1246Z" fill="#4169E3" stroke="#2A2C40" stroke-width="0.2311" stroke-miterlimit="10" stroke-linecap="round" stroke-linejoin="round"/>
</svg>
