<svg width="55" height="55" viewBox="0 0 55 55" fill="none" xmlns="http://www.w3.org/2000/svg">
<circle cx="27.5" cy="27.5" r="27.5" transform="matrix(-1 0 0 1 55 0)" fill="#FE3B49"/>
<path d="M41.7498 28.8746C40.2035 28.8175 38.3552 28.6684 36.9038 28.615C35.4516 28.5602 34.3858 28.5669 34.3858 28.5669C33.5249 28.4767 32.661 28.4264 31.7956 28.3905C29.4659 28.3289 27.1028 28.3438 24.7799 28.5023C22.452 28.6572 20.1376 28.9621 17.8905 29.536C17.0176 29.7664 16.1568 30.0484 15.3219 30.3897C16.4724 31.2686 17.6168 32.1469 18.0261 32.4748C18.8817 33.161 19.1785 34.0721 19.5431 35.6156C18.4638 36.053 17.7801 36.2133 16.9073 35.5756C16.4345 35.2303 15.0288 34.153 13.7411 33.1623C12.9046 32.5188 12.1064 31.904 11.5171 31.4509C10.6316 30.7472 10.0605 30.2932 10.0605 30.2932C10.0605 30.2932 10.0515 30.286 10.0343 30.2725C10.0256 30.2658 10.0148 30.2573 10.0019 30.2469C9.99327 30.2352 10.0164 30.2119 10.0244 30.1908C10.0716 30.1019 10.1409 29.9707 10.2297 29.8037C10.4066 29.47 10.6605 28.9909 10.9697 28.4084C11.1226 28.1174 11.3025 27.8022 11.4868 27.4658C11.5799 27.2979 11.6761 27.1254 11.7744 26.948C11.8311 26.8488 11.8891 26.7473 11.9482 26.6436C12.1621 26.2726 12.3936 25.8716 12.6303 25.4612C13.5784 23.8535 14.6124 22.0994 14.9567 21.5156C15.5959 20.4522 16.2524 20.2546 17.3576 20C17.4661 21.6274 17.4109 22.667 16.7917 23.7789C16.5794 24.1624 16.0844 25.0076 15.5114 25.9812C16.1362 25.7638 16.7612 25.5784 17.385 25.4127C19.8143 24.7947 22.2365 24.4835 24.6486 24.3241C27.0665 24.162 29.452 24.1494 31.8671 24.2154C32.6447 24.2473 33.4235 24.2904 34.2024 24.3659C34.2024 24.3659 34.7165 24.4525 35.4781 24.6151C36.2396 24.779 37.2469 25.0242 38.2319 25.3098C40.2035 25.881 42.082 26.5668 41.9119 26.5654C45.0408 27.8412 46.9798 29.2594 41.7498 28.8746Z" fill="white"/>
</svg>
