<svg width="53" height="53" viewBox="0 0 53 53" fill="none" xmlns="http://www.w3.org/2000/svg">
<rect width="53" height="53" rx="10" fill="#D9F6FD"/>
<g clip-path="url(#clip0_49_219)">
<path d="M14.3325 23.4006C15.8639 23.4006 17.2547 22.6427 18.0855 21.4108C18.4895 21.7961 19.0278 22.0417 19.6217 22.0696C20.7348 24.4332 23.0905 25.9395 25.7284 25.9395H27.3824C30.0201 25.9395 32.3769 24.4324 33.4897 22.0679C34.0743 22.0321 34.6021 21.7831 34.9968 21.3981C35.8256 22.6385 37.2181 23.4006 38.7594 23.4006C39.2495 23.4006 39.648 23.002 39.648 22.512V16.4106C39.648 14.3364 37.9608 12.6491 35.8866 12.6491H34.5844C34.3636 12.1306 33.849 11.7661 33.2508 11.7661H32.9892C32.7266 11.7661 32.4723 11.8393 32.2518 11.97C31.0219 10.6892 29.2937 9.89062 27.3824 9.89062H25.7284C23.8134 9.89062 22.0824 10.692 20.8522 11.9767C20.6295 11.8418 20.3709 11.7661 20.1024 11.7661H19.841C19.2429 11.7661 18.7283 12.1306 18.5075 12.6491H17.2053C15.1314 12.6491 13.4438 14.3367 13.4438 16.4106V22.512C13.4436 23.002 13.8424 23.4006 14.3325 23.4006ZM33.3437 20.9766C33.3076 20.9766 33.2666 20.973 33.2147 20.9656C32.9649 20.9289 32.723 21.0689 32.6287 21.3027C31.7601 23.454 29.7008 24.844 27.3821 24.844H25.7282C23.4072 24.844 21.3471 23.452 20.4799 21.2976C20.3952 21.0873 20.1922 20.9543 19.972 20.9543C19.9398 20.9543 19.9071 20.9571 19.8746 20.9628C19.8238 20.9721 19.7781 20.9766 19.7352 20.9766C19.0199 20.9766 18.4384 20.3948 18.4384 19.6798V19.0675C18.4384 18.6376 18.7881 18.2878 19.218 18.2878H19.5235C19.8261 18.2878 20.0714 18.0428 20.0714 17.7399V17.6772C21.1401 16.3211 22.789 15.5166 24.5174 15.5166H28.5928C30.3215 15.5166 31.9701 16.3211 33.0391 17.6772V17.7399C33.0391 18.0425 33.2844 18.2878 33.587 18.2878H33.7231C34.216 18.2878 34.6168 18.6887 34.6168 19.1818V19.7032C34.6171 20.4053 34.0458 20.9766 33.3437 20.9766ZM38.5525 16.4106V22.2989C37.2794 22.2241 36.166 21.4616 35.6359 20.3008C35.6856 20.1097 35.7127 19.9096 35.7127 19.7032V19.1816C35.7127 18.7412 35.5673 18.3344 35.324 18.0044C35.324 18.0044 35.3177 16.9842 35.305 16.8586C35.2751 16.5577 35.0061 16.3375 34.7055 16.3683C34.4045 16.3982 34.1849 16.6667 34.2149 16.9679C34.2239 17.0571 34.2284 17.1482 34.2284 17.2383V17.2592C34.1973 17.251 34.1666 17.2417 34.135 17.2352V16.6429C34.135 16.2909 34.1076 15.9451 34.0556 15.6075C34.4466 15.3439 34.6998 14.8973 34.6998 14.4053V13.7444H35.8866C37.3564 13.7444 38.5525 14.9405 38.5525 16.4106ZM32.9892 12.8617H33.2508C33.4456 12.8617 33.604 13.0201 33.604 13.2146V14.0188C33.4315 13.6115 33.2201 13.2244 32.9748 12.8625C32.9796 12.8623 32.9844 12.8617 32.9892 12.8617ZM25.7284 10.9862H27.3824C30.3083 10.9862 32.7224 13.2191 33.0103 16.0705C31.7937 15.0209 30.2233 14.4211 28.5931 14.4211H24.5177C22.8872 14.4211 21.3168 15.0209 20.1002 16.0705C20.3881 13.2191 22.8022 10.9862 25.7284 10.9862ZM19.8408 12.8617H20.1024C20.1135 12.8617 20.1242 12.8628 20.1349 12.8637C19.8806 13.2388 19.6635 13.6411 19.4879 14.0645V13.2146C19.4879 13.0201 19.6463 12.8617 19.8408 12.8617ZM14.5394 16.4106C14.5394 14.9405 15.7352 13.7444 17.2053 13.7444H18.3923V14.4053C18.3923 14.908 18.6521 15.3591 19.0532 15.6197C19.0024 15.9536 18.9758 16.2952 18.9758 16.6429V17.2078C18.938 17.2126 18.9007 17.2191 18.8638 17.2262C18.8641 17.1401 18.8683 17.054 18.8768 16.9693C18.907 16.6684 18.6873 16.3999 18.3864 16.3697C18.0855 16.3395 17.8168 16.5591 17.7866 16.86C17.7741 16.9848 17.7676 17.8802 17.7676 17.8802C17.5023 18.2037 17.3428 18.6173 17.3428 19.0675V19.6798C17.3428 19.9096 17.3758 20.1317 17.4368 20.3423C16.8985 21.4785 15.7939 22.2246 14.5394 22.2989V16.4106Z" fill="#4169E3"/>
<path d="M24.7315 18.5801C24.7315 19.0303 24.3668 19.3951 23.9165 19.3951C23.4666 19.3951 23.1016 19.0303 23.1016 18.5801C23.1016 18.1301 23.4666 17.7651 23.9165 17.7651C24.3668 17.7651 24.7315 18.1301 24.7315 18.5801Z" fill="#4169E3"/>
<path d="M30.0091 18.5801C30.0091 19.0303 29.6441 19.3951 29.1941 19.3951C28.7439 19.3951 28.3792 19.0303 28.3792 18.5801C28.3792 18.1301 28.7439 17.7651 29.1941 17.7651C29.6441 17.7651 30.0091 18.1301 30.0091 18.5801Z" fill="#4169E3"/>
<path d="M29.015 20.0046H24.0961C23.8638 20.0046 23.6417 20.1037 23.4864 20.277C23.3309 20.4501 23.2563 20.6821 23.2817 20.9133C23.4644 22.5853 24.8719 23.8457 26.5554 23.8457C28.2393 23.8457 29.6468 22.5853 29.8294 20.9133C29.8545 20.6821 29.78 20.4501 29.6247 20.2768C29.4695 20.1037 29.247 20.0046 29.015 20.0046ZM26.5554 22.7502C25.5372 22.7502 24.6703 22.0597 24.4261 21.1002H28.685C28.4408 22.0597 27.5739 22.7502 26.5554 22.7502Z" fill="#4169E3"/>
<path d="M43.422 32.4618V31.8695C43.422 28.1462 40.3931 25.1169 36.6697 25.1169H35.0158C31.2924 25.1169 28.2632 28.1462 28.2632 31.8695V32.4341C27.3432 32.5535 26.6301 33.342 26.6301 34.2941V34.9061C26.6301 36.1874 27.6424 37.2364 28.9093 37.296C30.0221 39.6596 32.3778 41.1658 35.0158 41.1658H36.6697C39.3074 41.1658 41.6642 39.6587 42.777 37.2943C44.0157 37.2186 45 36.1871 45 34.9298V34.4082C45 33.4523 44.3222 32.6518 43.422 32.4618ZM35.0158 26.2125H36.6697C39.5956 26.2125 42.0097 28.4457 42.2977 31.2971C41.081 30.2472 39.5106 29.6474 37.8804 29.6474H33.805C32.1748 29.6474 30.6045 30.2472 29.3878 31.2971C29.6754 28.4457 32.0896 26.2125 35.0158 26.2125ZM43.9044 34.9298C43.9044 35.6319 43.3334 36.2029 42.631 36.2029C42.5949 36.2029 42.554 36.1996 42.502 36.1922C42.2522 36.1555 42.0106 36.2952 41.916 36.5293C41.0474 38.6806 38.9881 40.0703 36.6697 40.0703H35.0158C32.6945 40.0703 30.6344 38.6783 29.7672 36.5242C29.6825 36.3139 29.4795 36.1806 29.2594 36.1806C29.2272 36.1806 29.1944 36.1835 29.162 36.1894C29.1112 36.1987 29.0657 36.2029 29.0225 36.2029C28.3075 36.2029 27.7257 35.6214 27.7257 34.9061V34.2941C27.7257 33.8642 28.0754 33.5144 28.5054 33.5144H28.8108C29.1134 33.5144 29.3587 33.2691 29.3587 32.9665V32.9036C30.4277 31.5477 32.0763 30.7432 33.805 30.7432H37.8801C39.6089 30.7432 41.2574 31.5477 42.3264 32.9036V32.9665C42.3264 33.2691 42.5718 33.5144 42.8744 33.5144H43.0104C43.5033 33.5144 43.9044 33.9153 43.9044 34.4082V34.9298Z" fill="#4169E3"/>
<path d="M34.0191 33.8067C34.0191 34.2569 33.6541 34.6216 33.2042 34.6216C32.7539 34.6216 32.3889 34.2569 32.3889 33.8067C32.3889 33.3567 32.7539 32.9917 33.2042 32.9917C33.6541 32.9917 34.0191 33.3567 34.0191 33.8067Z" fill="#4169E3"/>
<path d="M39.2964 33.8067C39.2964 34.2569 38.9317 34.6216 38.4815 34.6216C38.0312 34.6216 37.6665 34.2569 37.6665 33.8067C37.6665 33.3567 38.0312 32.9917 38.4815 32.9917C38.9317 32.9917 39.2964 33.3567 39.2964 33.8067Z" fill="#4169E3"/>
<path d="M38.3021 35.231H33.3832C33.1509 35.231 32.9288 35.3303 32.7735 35.5034C32.6182 35.6767 32.5434 35.9087 32.5688 36.1399C32.7515 37.8116 34.1587 39.0723 35.8425 39.0723C37.5264 39.0723 38.9339 37.8116 39.1165 36.1402C39.1419 35.9087 39.0674 35.6767 38.9121 35.5036C38.7566 35.3303 38.5344 35.231 38.3021 35.231ZM35.8425 37.9768C34.824 37.9768 33.9571 37.286 33.7132 36.3268H37.9721C37.7279 37.286 36.861 37.9768 35.8425 37.9768Z" fill="#4169E3"/>
<path d="M24.7922 32.4615V31.8695C24.7922 28.1462 21.7629 25.1169 18.0396 25.1169H16.3856C12.6623 25.1169 9.63303 28.1462 9.63303 31.8695V32.4344C8.71306 32.5535 8 33.3422 8 34.2941V34.9061C8 36.1874 9.01228 37.2367 10.2792 37.296C11.392 39.6598 13.7477 41.1661 16.3856 41.1661H18.0396C20.6775 41.1661 23.0341 39.6587 24.1469 37.2943C25.3852 37.2186 26.3699 36.1869 26.3699 34.9298V34.4082C26.3699 33.4523 25.6921 32.6518 24.7922 32.4615ZM25.2743 34.9298C25.2743 35.6319 24.703 36.2029 24.0009 36.2029C23.9648 36.2029 23.9238 36.1996 23.8719 36.1922C23.6226 36.1555 23.3802 36.2952 23.2859 36.5293C22.4173 38.6806 20.358 40.0703 18.0393 40.0703H16.3854C14.0644 40.0703 12.0042 38.6783 11.1371 36.5242C11.0524 36.3139 10.8494 36.1806 10.6292 36.1806C10.597 36.1806 10.5646 36.1835 10.5318 36.1894C10.481 36.1987 10.4353 36.2029 10.3924 36.2029C9.67735 36.2029 9.09556 35.6214 9.09556 34.9061V34.2941C9.09556 33.8642 9.44531 33.5144 9.87524 33.5144H10.1807C10.4833 33.5144 10.7286 33.2691 10.7286 32.9665V32.9036C11.7976 31.5477 13.4462 30.7432 15.1749 30.7432H19.2503C19.6226 30.7432 19.9947 30.7794 20.3563 30.8511C20.653 30.91 20.9412 30.717 21.0002 30.4203C21.0589 30.1236 20.8661 29.8351 20.5691 29.7764C20.1378 29.6908 19.6938 29.6474 19.2503 29.6474H15.1749C13.5447 29.6474 11.9743 30.2472 10.7574 31.2971C11.0453 28.4457 13.4594 26.2125 16.3856 26.2125H18.0396C20.9646 26.2125 23.3782 28.4443 23.6672 31.2942C23.4149 31.0758 23.1467 30.875 22.8624 30.6944C22.607 30.5323 22.2685 30.608 22.1062 30.8635C21.9442 31.1189 22.0198 31.4574 22.2753 31.6194C22.8209 31.9658 23.2974 32.3986 23.6963 32.9055V32.9665C23.6963 33.2691 23.9416 33.5142 24.2442 33.5142H24.3803C24.8732 33.5142 25.2743 33.9153 25.2743 34.4082V34.9298Z" fill="#4169E3"/>
<path d="M15.3888 33.8067C15.3888 34.2569 15.0238 34.6216 14.5738 34.6216C14.1235 34.6216 13.7585 34.2569 13.7585 33.8067C13.7585 33.3567 14.1235 32.9917 14.5738 32.9917C15.0238 32.9917 15.3888 33.3567 15.3888 33.8067Z" fill="#4169E3"/>
<path d="M20.6663 33.8067C20.6663 34.2569 20.3016 34.6216 19.8513 34.6216C19.4014 34.6216 19.0364 34.2569 19.0364 33.8067C19.0364 33.3567 19.4014 32.9917 19.8513 32.9917C20.3016 32.9917 20.6663 33.3567 20.6663 33.8067Z" fill="#4169E3"/>
<path d="M19.672 35.231H14.7531C14.5208 35.231 14.2986 35.3303 14.1434 35.5034C13.9878 35.6767 13.9133 35.9087 13.9387 36.1399C14.1214 37.8116 15.5288 39.0723 17.2124 39.0723C18.8963 39.0723 20.3037 37.8116 20.4864 36.1399C20.5115 35.9087 20.437 35.6767 20.2817 35.5034C20.1265 35.3303 19.9043 35.231 19.672 35.231ZM17.2124 37.9768C16.1942 37.9768 15.3273 37.286 15.0831 36.3268H19.342C19.0978 37.2863 18.2309 37.9768 17.2124 37.9768Z" fill="#4169E3"/>
</g>
<defs>
<clipPath id="clip0_49_219">
<rect width="37" height="37" fill="white" transform="translate(8 7)"/>
</clipPath>
</defs>
</svg>
