<svg width="53" height="57" viewBox="0 0 53 57" fill="none" xmlns="http://www.w3.org/2000/svg">
<path d="M1.85154 55.3453C1.41554 55.0513 1.27454 54.4123 1.58854 53.9753C4.08254 50.4983 6.57654 47.0213 9.07154 43.5443C11.6085 40.0093 14.1435 36.4744 16.6795 32.9384C19.1715 29.4644 21.6645 25.9903 24.1565 22.5163C24.6345 21.8493 25.1125 21.1814 25.5915 20.5154C25.9055 20.0794 26.5066 19.9443 26.9616 20.2513C27.3966 20.5453 27.5395 21.1853 27.2255 21.6213C24.7785 25.0223 22.3385 28.4293 19.8975 31.8353C17.3725 35.3583 14.8456 38.8793 12.3186 42.4013C9.80455 45.9043 7.29054 49.4074 4.77854 52.9124C4.25954 53.6364 3.74053 54.3593 3.22153 55.0823C3.02353 55.3583 2.71153 55.5133 2.39353 55.5133C2.20653 55.5123 2.01954 55.4593 1.85154 55.3453Z" fill="black"/>
<path d="M1.2195 55.8504C0.852504 55.4654 0.858486 54.8214 1.25149 54.4564C4.43149 51.5034 7.61951 48.5584 10.8025 45.6084C13.9605 42.6824 17.1185 39.7564 20.2765 36.8314C23.3435 33.9914 26.4095 31.1514 29.4755 28.3094C31.2395 26.6754 33.0045 25.0404 34.7695 23.4054C35.1635 23.0404 35.7885 23.0444 36.1635 23.4374C36.5315 23.8214 36.5265 24.4664 36.1315 24.8324C33.1695 27.5744 30.2095 30.3174 27.2475 33.0614C24.1295 35.9484 21.0135 38.8364 17.8965 41.7234C14.7345 44.6524 11.5725 47.5814 8.41149 50.5094C6.47849 52.3014 4.54351 54.0884 2.61251 55.8814C2.42051 56.0594 2.17351 56.1504 1.92751 56.1504C1.66951 56.1514 1.4115 56.0524 1.2195 55.8504Z" fill="black"/>
<path d="M0.716533 56.0643C0.207533 55.9183 -0.118462 55.3573 0.0405385 54.8433C0.623538 52.9513 1.39254 51.1243 2.13154 49.2893C2.90654 47.3663 3.69956 45.4493 4.46556 43.5213C6.03956 39.5573 7.44056 35.5263 8.94856 31.5363C9.72356 29.4843 10.5385 27.4513 11.4465 25.4533C11.6765 24.9483 11.9216 24.4543 12.1686 23.9583C12.2666 23.7633 12.3696 23.5743 12.4776 23.3853C12.6106 23.1533 12.7345 22.9133 12.8825 22.6903C13.0375 22.4583 13.1925 22.2263 13.3475 21.9943C13.5285 21.7233 13.7386 21.4693 13.9346 21.2093C14.2556 20.7843 14.6145 20.3853 15.0195 20.0383C15.5185 19.6113 16.0886 19.3183 16.7326 19.1833C17.3216 19.0603 17.9405 19.1283 18.5375 19.1633C18.9675 19.1883 19.3985 19.2143 19.8285 19.2393C20.6025 19.2843 21.3766 19.3253 22.1506 19.3693C22.9056 19.4113 23.6616 19.4573 24.4176 19.4673C24.8726 19.4723 25.3285 19.4643 25.7825 19.4853C26.1055 19.5003 26.4246 19.5813 26.6546 19.8223C26.8376 20.0153 26.9285 20.2683 26.9285 20.5323C26.9285 21.0693 26.4475 21.5073 25.9195 21.4953C25.8295 21.4933 25.7435 21.4793 25.6625 21.4543C25.3255 21.4413 24.9875 21.4463 24.6495 21.4423C24.2675 21.4373 23.8866 21.4253 23.5046 21.4133C22.8476 21.3913 22.1906 21.3463 21.5336 21.3103C20.9346 21.2763 20.3365 21.2433 19.7385 21.2093C19.3615 21.1873 18.9855 21.1653 18.6095 21.1443C18.1845 21.1193 17.7595 21.0853 17.3335 21.0953C17.2655 21.0993 17.1976 21.1063 17.1296 21.1153C17.0646 21.1283 16.9996 21.1443 16.9356 21.1623C16.8866 21.1783 16.8376 21.1973 16.7896 21.2173C16.7246 21.2483 16.6616 21.2833 16.5996 21.3193C16.5036 21.3833 16.4116 21.4503 16.3196 21.5213C16.1916 21.6343 16.0705 21.7503 15.9505 21.8723C15.6075 22.2613 15.3006 22.6763 14.9876 23.0893C14.8316 23.3223 14.6755 23.5543 14.5205 23.7873C14.4255 23.9303 14.3476 24.0883 14.2636 24.2363C14.1816 24.3793 14.1005 24.5223 14.0185 24.6643C13.8205 25.0593 13.6146 25.4523 13.4306 25.8553C13.2046 26.3503 12.9756 26.8453 12.7596 27.3453C12.3336 28.3363 11.9136 29.3293 11.5216 30.3343C10.7186 32.3903 9.95955 34.4623 9.19255 36.5323C8.47255 38.4753 7.77856 40.4303 7.03456 42.3653C6.26256 44.3753 5.43654 46.3633 4.63154 48.3603C4.24054 49.3313 3.84754 50.3013 3.45854 51.2733C3.08954 52.1923 2.71754 53.1123 2.38154 54.0443C2.22454 54.4893 2.07553 54.9373 1.93653 55.3893C1.80453 55.8153 1.41256 56.1033 0.983562 56.1033C0.896562 56.1023 0.806533 56.0903 0.716533 56.0643Z" fill="black"/>
<path d="M0.915523 56.4783C0.415523 56.2833 0.192531 55.6633 0.399531 55.1823C0.570531 54.7853 0.961528 54.5743 1.36453 54.5953C1.35053 54.5923 1.33754 54.5893 1.32354 54.5863C1.32854 54.5863 1.33252 54.5863 1.33752 54.5853C1.29852 54.5873 1.25854 54.5893 1.21954 54.5913C1.19454 54.5963 1.17054 54.6003 1.14654 54.6053C1.31154 54.5683 1.47352 54.5233 1.63552 54.4773C2.03852 54.3383 2.43455 54.1883 2.83255 54.0323C3.23155 53.8753 3.62053 53.6853 4.01153 53.5073C4.49653 53.2533 4.98152 53.0003 5.46752 52.7473C5.61552 52.6703 5.75752 52.5813 5.90252 52.4973C6.25252 52.2953 6.60153 52.0933 6.95153 51.8913C7.79953 51.4023 8.63854 50.9013 9.48254 50.4073C11.4355 49.2643 13.3855 48.1163 15.3235 46.9463C17.0815 45.8853 18.8005 44.7613 20.5385 43.6703C22.3455 42.5363 24.1705 41.4323 25.9735 40.2943C27.4675 39.3513 28.9535 38.3953 30.4275 37.4223C30.3915 37.4463 30.3555 37.4693 30.3195 37.4933C32.1735 36.2583 34.0235 35.0203 35.9085 33.8343C36.7525 33.3043 37.6105 32.7963 38.4585 32.2713C39.4145 31.6783 40.3665 31.0803 41.3145 30.4733C41.8715 30.1163 42.4255 29.7533 42.9775 29.3893C43.9645 28.7243 44.9455 28.0503 45.9055 27.3473C46.3865 26.9953 46.8635 26.6393 47.3385 26.2793C47.5505 26.1193 47.7635 25.9613 47.9755 25.8013C47.9595 25.7973 47.9425 25.7933 47.9265 25.7893C47.1165 25.6223 46.3035 25.4863 45.4825 25.3853C44.6135 25.2793 43.7415 25.1923 42.8695 25.1063C41.2045 24.9423 39.5405 24.7683 37.8745 24.6263C37.8785 24.6263 37.8825 24.6273 37.8875 24.6273C37.3695 24.5853 36.8415 24.5183 36.3205 24.5363C35.7825 24.5543 35.3425 24.0483 35.3515 23.5323C35.3565 23.2773 35.4635 23.0283 35.6445 22.8483C35.8385 22.6553 36.0865 22.5723 36.3555 22.5633C36.6425 22.5533 36.9315 22.5783 37.2175 22.5983C37.6995 22.6323 38.1815 22.6743 38.6625 22.7173C39.6335 22.8033 40.6025 22.9063 41.5725 23.0003C43.6385 23.2003 45.7145 23.3643 47.7565 23.7413C47.9885 23.7843 48.2205 23.8333 48.4495 23.8873C48.9095 23.9963 49.3725 24.0933 49.8065 24.2883C50.2595 24.4913 50.6585 24.9523 50.6505 25.4713C50.6455 25.7463 50.5715 26.0013 50.4315 26.2383C50.2995 26.4603 50.1035 26.6333 49.9075 26.7963C49.5465 27.0973 49.1625 27.3753 48.7875 27.6583C48.3535 27.9853 47.9195 28.3123 47.4825 28.6363C45.8365 29.8603 44.1325 31.0073 42.4055 32.1143C41.0375 32.9913 39.6585 33.8493 38.2725 34.6983C36.9585 35.5013 35.6585 36.3243 34.3675 37.1633C32.5495 38.3753 30.7335 39.5913 28.8965 40.7743C27.0565 41.9583 25.1915 43.1033 23.3305 44.2513C21.5855 45.3273 19.8665 46.4423 18.1275 47.5283C16.3085 48.6653 14.4725 49.7723 12.6225 50.8553C10.6865 51.9883 8.75654 53.1303 6.81454 54.2503C6.40754 54.4853 5.99054 54.6993 5.57354 54.9173C5.35954 55.0293 5.14554 55.1403 4.93054 55.2523C4.63754 55.4053 4.32653 55.5293 4.02453 55.6643C3.57653 55.8663 3.11953 56.0533 2.65353 56.2123C2.38453 56.3043 2.11755 56.3913 1.84555 56.4683C1.66855 56.5183 1.49554 56.5543 1.32254 56.5543C1.18654 56.5533 1.05152 56.5313 0.915523 56.4783Z" fill="black"/>
<path d="M29.4235 29.0063C29.1675 28.9333 28.9815 28.7663 28.8375 28.5483C28.7885 28.4733 28.7415 28.3993 28.6915 28.3243C28.7155 28.3603 28.7396 28.3963 28.7636 28.4323C28.2226 27.6163 27.7556 26.7593 27.3056 25.8903C26.9756 25.2523 26.6506 24.6123 26.3406 23.9643C26.0256 23.3073 25.7286 22.6413 25.4186 21.9813C25.4166 21.9783 25.4156 21.9753 25.4136 21.9723C25.3986 21.9623 25.3835 21.9503 25.3685 21.9393C24.9495 21.6133 24.8596 20.9733 25.1966 20.5553C25.3096 20.4153 25.4466 20.3113 25.6126 20.2413C25.8836 20.1263 26.1676 20.1593 26.4336 20.2643C26.7476 20.3883 26.9586 20.6923 27.1166 20.9743C27.2086 21.1393 27.2866 21.3173 27.3646 21.4893C27.6306 22.0803 27.9026 22.6663 28.1816 23.2513C28.6016 24.1083 29.0346 24.9603 29.4876 25.8013C29.7696 26.3233 30.0665 26.8363 30.3945 27.3313C30.3815 27.3103 30.3675 27.2903 30.3545 27.2703C30.4195 27.3693 30.4845 27.4693 30.5495 27.5693C30.8435 28.0193 30.6296 28.6603 30.1846 28.9153C30.0336 29.0013 29.8626 29.0453 29.6906 29.0453C29.6016 29.0443 29.5105 29.0313 29.4235 29.0063Z" fill="black"/>
<path d="M2.40751 54.6714C2.20051 54.1644 2.45553 53.6004 2.94853 53.3854C4.82953 52.5644 6.76452 51.8594 8.70552 51.1964C9.70452 50.8544 10.7015 50.5074 11.6915 50.1434C12.6875 49.7774 13.6755 49.3924 14.6685 49.0194C16.6165 48.2874 18.5865 47.6174 20.5345 46.8884C22.5465 46.1354 24.5495 45.3644 26.5735 44.6474C28.1165 44.1004 29.6555 43.5474 31.1735 42.9334C31.9105 42.6354 32.6435 42.3264 33.3805 42.0254C34.0995 41.7314 34.8235 41.4544 35.5355 41.1424C35.7475 41.0344 35.9535 40.9194 36.1545 40.7924C36.2115 40.7524 36.2665 40.7094 36.3205 40.6644C36.3405 40.6464 36.3595 40.6274 36.3785 40.6074C36.3935 40.5894 36.4085 40.5714 36.4235 40.5534C36.4285 40.5464 36.4335 40.5384 36.4385 40.5314C36.4425 40.5234 36.4465 40.5154 36.4495 40.5074C36.4475 40.5124 36.4465 40.5174 36.4445 40.5224L36.4455 40.5204C36.4525 40.5004 36.4575 40.4794 36.4635 40.4594C36.4695 40.4244 36.4755 40.3884 36.4795 40.3524C36.4815 40.3034 36.4825 40.2544 36.4825 40.2054C36.4285 39.4204 36.3245 38.6374 36.2325 37.8574C36.1335 37.0234 36.0115 36.1934 35.8855 35.3634C35.8045 34.8314 36.2325 34.3304 36.7525 34.2704C37.3005 34.2064 37.7645 34.6064 37.8455 35.1374C38.0085 36.2134 38.1565 37.2904 38.2785 38.3724C38.3355 38.8774 38.3915 39.3814 38.4365 39.8874C38.4835 40.4104 38.4355 40.9294 38.2065 41.4064C37.9395 41.9634 37.4285 42.3344 36.9125 42.6444C36.3305 42.9944 35.6785 43.2354 35.0485 43.4864C34.5775 43.6744 34.1065 43.8614 33.6375 44.0534C32.6415 44.4614 31.6485 44.8774 30.6445 45.2644C29.6845 45.6344 28.7155 45.9784 27.7455 46.3234C26.6815 46.7014 25.6195 47.0864 24.5605 47.4794C23.5525 47.8544 22.5495 48.2414 21.5425 48.6184C20.5615 48.9844 19.5745 49.3324 18.5885 49.6854C16.5955 50.3974 14.6185 51.1514 12.6365 51.8964C10.7275 52.6144 8.78052 53.2224 6.87352 53.9434C5.80552 54.3464 4.73952 54.7574 3.69252 55.2144C3.57552 55.2654 3.45251 55.2894 3.32951 55.2894C2.93951 55.2874 2.55851 55.0434 2.40751 54.6714Z" fill="black"/>
<path d="M23.4871 1L25.6381 10.2896" stroke="black" stroke-width="1.5" stroke-linecap="round"/>
<path d="M38.4438 2.67188L34.3572 12.2073" stroke="black" stroke-width="1.5" stroke-linecap="round"/>
<path d="M52.2048 11.8164L43.2441 15.8409" stroke="black" stroke-width="1.5" stroke-linecap="round"/>
</svg>
