<svg width="53" height="53" viewBox="0 0 53 53" fill="none" xmlns="http://www.w3.org/2000/svg">
<rect width="53" height="53" rx="10" fill="#DAFFE7"/>
<path d="M39.3333 13.2H36.6666V12.1333C36.6666 11.5675 36.4419 11.0249 36.0418 10.6248C35.6417 10.2248 35.0991 10 34.5333 10C33.9675 10 33.4249 10.2248 33.0248 10.6248C32.6247 11.0249 32.4 11.5675 32.4 12.1333V13.2H28.1333V12.1333C28.1333 11.5675 27.9085 11.0249 27.5085 10.6248C27.1084 10.2248 26.5658 10 26 10C25.4342 10 24.8916 10.2248 24.4915 10.6248C24.0914 11.0249 23.8666 11.5675 23.8666 12.1333V13.2H19.6V12.1333C19.6 11.5675 19.3752 11.0249 18.9751 10.6248C18.5751 10.2248 18.0324 10 17.4667 10C16.9009 10 16.3582 10.2248 15.9582 10.6248C15.5581 11.0249 15.3333 11.5675 15.3333 12.1333V13.2H12.6667C11.9594 13.2 11.2811 13.4809 10.781 13.981C10.281 14.4811 10 15.1594 10 15.8667V37.2C10 37.9072 10.281 38.5855 10.781 39.0856C11.2811 39.5857 11.9594 39.8666 12.6667 39.8666H27.6C27.7414 39.8666 27.8771 39.8104 27.9771 39.7104C28.0771 39.6104 28.1333 39.4747 28.1333 39.3333C28.1333 39.1918 28.0771 39.0562 27.9771 38.9562C27.8771 38.8561 27.7414 38.8 27.6 38.8H12.6667C12.2427 38.7987 11.8365 38.6297 11.5367 38.3299C11.2369 38.0301 11.0679 37.6239 11.0667 37.2V20.6667H40.9333V29.7333C40.9333 29.8748 40.9895 30.0104 41.0895 30.1104C41.1895 30.2104 41.3252 30.2666 41.4666 30.2666C41.6081 30.2666 41.7437 30.2104 41.8437 30.1104C41.9438 30.0104 42 29.8748 42 29.7333V15.8667C42 15.1594 41.719 14.4811 41.2189 13.981C40.7188 13.4809 40.0405 13.2 39.3333 13.2ZM33.4666 12.1333C33.4666 11.8504 33.579 11.5791 33.779 11.3791C33.9791 11.179 34.2504 11.0667 34.5333 11.0667C34.8162 11.0667 35.0875 11.179 35.2875 11.3791C35.4876 11.5791 35.6 11.8504 35.6 12.1333V15.3333C35.6 15.6162 35.4876 15.8875 35.2875 16.0876C35.0875 16.2876 34.8162 16.4 34.5333 16.4C34.2504 16.4 33.9791 16.2876 33.779 16.0876C33.579 15.8875 33.4666 15.6162 33.4666 15.3333V12.1333ZM24.9333 12.1333C24.9333 11.8504 25.0457 11.5791 25.2457 11.3791C25.4458 11.179 25.7171 11.0667 26 11.0667C26.2829 11.0667 26.5542 11.179 26.7542 11.3791C26.9543 11.5791 27.0666 11.8504 27.0666 12.1333V15.3333C27.0666 15.6162 26.9543 15.8875 26.7542 16.0876C26.5542 16.2876 26.2829 16.4 26 16.4C25.7171 16.4 25.4458 16.2876 25.2457 16.0876C25.0457 15.8875 24.9333 15.6162 24.9333 15.3333V12.1333ZM16.4 12.1333C16.4 11.8504 16.5124 11.5791 16.7124 11.3791C16.9124 11.179 17.1838 11.0667 17.4667 11.0667C17.7496 11.0667 18.0209 11.179 18.2209 11.3791C18.4209 11.5791 18.5333 11.8504 18.5333 12.1333V15.3333C18.5333 15.6162 18.4209 15.8875 18.2209 16.0876C18.0209 16.2876 17.7496 16.4 17.4667 16.4C17.1838 16.4 16.9124 16.2876 16.7124 16.0876C16.5124 15.8875 16.4 15.6162 16.4 15.3333V12.1333ZM40.9333 19.6H11.0667V15.8667C11.0679 15.4427 11.2369 15.0365 11.5367 14.7367C11.8365 14.4369 12.2427 14.2679 12.6667 14.2667H15.3333V15.3333C15.3333 15.8991 15.5581 16.4417 15.9582 16.8418C16.3582 17.2419 16.9009 17.4667 17.4667 17.4667C18.0324 17.4667 18.5751 17.2419 18.9751 16.8418C19.3752 16.4417 19.6 15.8991 19.6 15.3333V14.2667H23.8666V15.3333C23.8666 15.8991 24.0914 16.4417 24.4915 16.8418C24.8916 17.2419 25.4342 17.4667 26 17.4667C26.5658 17.4667 27.1084 17.2419 27.5085 16.8418C27.9085 16.4417 28.1333 15.8991 28.1333 15.3333V14.2667H32.4V15.3333C32.4 15.8991 32.6247 16.4417 33.0248 16.8418C33.4249 17.2419 33.9675 17.4667 34.5333 17.4667C35.0991 17.4667 35.6417 17.2419 36.0418 16.8418C36.4419 16.4417 36.6666 15.8991 36.6666 15.3333V14.2667H39.3333C39.7572 14.2679 40.1635 14.4369 40.4633 14.7367C40.763 15.0365 40.932 15.4427 40.9333 15.8667V19.6Z" fill="#0AAD2E"/>
<path d="M24.9334 24.4002C24.9334 24.1173 24.821 23.846 24.621 23.6459C24.421 23.4459 24.1496 23.3335 23.8667 23.3335H21.7334C21.4505 23.3335 21.1792 23.4459 20.9792 23.6459C20.7791 23.846 20.6667 24.1173 20.6667 24.4002V26.0002C20.6667 26.2831 20.7791 26.5544 20.9792 26.7544C21.1792 26.9544 21.4505 27.0668 21.7334 27.0668H23.8667C24.1496 27.0668 24.421 26.9544 24.621 26.7544C24.821 26.5544 24.9334 26.2831 24.9334 26.0002V24.4002ZM21.7334 26.0002V24.4002H23.8667V26.0002H21.7334Z" fill="#0AAD2E"/>
<path d="M18.5333 24.4002C18.5333 24.1173 18.4209 23.846 18.2208 23.6459C18.0208 23.4459 17.7495 23.3335 17.4666 23.3335H15.3333C15.0504 23.3335 14.7791 23.4459 14.579 23.6459C14.379 23.846 14.2666 24.1173 14.2666 24.4002V26.0002C14.2666 26.2831 14.379 26.5544 14.579 26.7544C14.7791 26.9544 15.0504 27.0668 15.3333 27.0668H17.4666C17.7495 27.0668 18.0208 26.9544 18.2208 26.7544C18.4209 26.5544 18.5333 26.2831 18.5333 26.0002V24.4002ZM15.3333 26.0002V24.4002H17.4666V26.0002H15.3333Z" fill="#0AAD2E"/>
<path d="M36.6665 27.0668C36.9494 27.0668 37.2208 26.9544 37.4208 26.7544C37.6208 26.5544 37.7332 26.2831 37.7332 26.0002V24.4002C37.7332 24.1173 37.6208 23.846 37.4208 23.6459C37.2208 23.4459 36.9494 23.3335 36.6665 23.3335H34.5332C34.2503 23.3335 33.979 23.4459 33.779 23.6459C33.5789 23.846 33.4666 24.1173 33.4666 24.4002V26.0002C33.4666 26.2831 33.5789 26.5544 33.779 26.7544C33.979 26.9544 34.2503 27.0668 34.5332 27.0668H36.6665ZM34.5332 24.4002H36.6665V26.0002H34.5332V24.4002Z" fill="#0AAD2E"/>
<path d="M24.9334 29.2C24.9334 28.9171 24.821 28.6458 24.621 28.4457C24.421 28.2457 24.1496 28.1333 23.8667 28.1333H21.7334C21.4505 28.1333 21.1792 28.2457 20.9792 28.4457C20.7791 28.6458 20.6667 28.9171 20.6667 29.2V30.8C20.6667 31.0829 20.7791 31.3542 20.9792 31.5542C21.1792 31.7542 21.4505 31.8666 21.7334 31.8666H23.8667C24.1496 31.8666 24.421 31.7542 24.621 31.5542C24.821 31.3542 24.9334 31.0829 24.9334 30.8V29.2ZM21.7334 30.8V29.2H23.8667V30.8H21.7334Z" fill="#0AAD2E"/>
<path d="M18.5333 29.2C18.5333 28.9171 18.4209 28.6458 18.2208 28.4457C18.0208 28.2457 17.7495 28.1333 17.4666 28.1333H15.3333C15.0504 28.1333 14.7791 28.2457 14.579 28.4457C14.379 28.6458 14.2666 28.9171 14.2666 29.2V30.8C14.2666 31.0829 14.379 31.3542 14.579 31.5542C14.7791 31.7542 15.0504 31.8666 15.3333 31.8666H17.4666C17.7495 31.8666 18.0208 31.7542 18.2208 31.5542C18.4209 31.3542 18.5333 31.0829 18.5333 30.8V29.2ZM15.3333 30.8V29.2H17.4666V30.8H15.3333Z" fill="#0AAD2E"/>
<path d="M23.8667 32.9333H21.7334C21.4505 32.9333 21.1792 33.0457 20.9792 33.2458C20.7791 33.4458 20.6667 33.7171 20.6667 34V35.6C20.6667 35.8829 20.7791 36.1542 20.9792 36.3543C21.1792 36.5543 21.4505 36.6667 21.7334 36.6667H23.8667C24.1496 36.6667 24.421 36.5543 24.621 36.3543C24.821 36.1542 24.9334 35.8829 24.9334 35.6V34C24.9334 33.7171 24.821 33.4458 24.621 33.2458C24.421 33.0457 24.1496 32.9333 23.8667 32.9333ZM21.7334 35.6V34H23.8667V35.6H21.7334Z" fill="#0AAD2E"/>
<path d="M28.1333 27.0668H30.2666C30.5495 27.0668 30.8209 26.9544 31.0209 26.7544C31.2209 26.5544 31.3333 26.2831 31.3333 26.0002V24.4002C31.3333 24.1173 31.2209 23.846 31.0209 23.6459C30.8209 23.4459 30.5495 23.3335 30.2666 23.3335H28.1333C27.8504 23.3335 27.5791 23.4459 27.3791 23.6459C27.179 23.846 27.0667 24.1173 27.0667 24.4002V26.0002C27.0667 26.2831 27.179 26.5544 27.3791 26.7544C27.5791 26.9544 27.8504 27.0668 28.1333 27.0668ZM28.1333 24.4002H30.2666V26.0002H28.1333V24.4002Z" fill="#0AAD2E"/>
<path d="M27.0667 30.8C27.0667 31.0829 27.179 31.3542 27.3791 31.5542C27.5791 31.7542 27.8504 31.8666 28.1333 31.8666C28.2748 31.8666 28.4104 31.8104 28.5104 31.7104C28.6105 31.6104 28.6666 31.4747 28.6666 31.3333C28.6666 31.1918 28.6105 31.0562 28.5104 30.9562C28.4104 30.8562 28.2748 30.8 28.1333 30.8V29.2H30.2666C30.4081 29.2 30.5437 29.1438 30.6438 29.0438C30.7438 28.9437 30.8 28.8081 30.8 28.6666C30.8 28.5252 30.7438 28.3895 30.6438 28.2895C30.5437 28.1895 30.4081 28.1333 30.2666 28.1333H28.1333C27.8504 28.1333 27.5791 28.2457 27.3791 28.4457C27.179 28.6458 27.0667 28.9171 27.0667 29.2V30.8Z" fill="#0AAD2E"/>
<path d="M17.4666 32.9333H15.3333C15.0504 32.9333 14.7791 33.0457 14.579 33.2458C14.379 33.4458 14.2666 33.7171 14.2666 34V35.6C14.2666 35.8829 14.379 36.1542 14.579 36.3543C14.7791 36.5543 15.0504 36.6667 15.3333 36.6667H17.4666C17.7495 36.6667 18.0208 36.5543 18.2208 36.3543C18.4209 36.1542 18.5333 35.8829 18.5333 35.6V34C18.5333 33.7171 18.4209 33.4458 18.2208 33.2458C18.0208 33.0457 17.7495 32.9333 17.4666 32.9333ZM15.3333 35.6V34H17.4666V35.6H15.3333Z" fill="#0AAD2E"/>
<path d="M35.0666 28.1333C33.6953 28.1333 32.3549 28.5399 31.2147 29.3018C30.0745 30.0636 29.1858 31.1465 28.6611 32.4134C28.1363 33.6803 27.999 35.0743 28.2665 36.4192C28.534 37.7642 29.1944 38.9996 30.164 39.9692C31.1337 40.9389 32.3691 41.5992 33.714 41.8667C35.0589 42.1343 36.453 41.9969 37.7199 41.4722C38.9868 40.9474 40.0696 40.0588 40.8315 38.9186C41.5933 37.7784 42 36.4379 42 35.0666C41.9978 33.2284 41.2667 31.4662 39.9669 30.1664C38.6671 28.8666 36.9048 28.1354 35.0666 28.1333ZM35.0666 40.9333C33.9063 40.9333 32.7721 40.5892 31.8073 39.9446C30.8425 39.2999 30.0906 38.3837 29.6465 37.3117C29.2025 36.2397 29.0863 35.0601 29.3127 33.9221C29.5391 32.7841 30.0978 31.7387 30.9183 30.9183C31.7387 30.0978 32.7841 29.5391 33.9221 29.3127C35.0601 29.0863 36.2397 29.2025 37.3117 29.6465C38.3837 30.0906 39.2999 30.8425 39.9446 31.8073C40.5892 32.7721 40.9333 33.9063 40.9333 35.0666C40.9315 36.622 40.3128 38.1131 39.213 39.213C38.1131 40.3128 36.622 40.9314 35.0666 40.9333Z" fill="#0AAD2E"/>
<path d="M38.1481 32.8309L33.9999 36.9791L32.1145 35.0933C32.014 34.9961 31.8792 34.9424 31.7394 34.9436C31.5996 34.9448 31.4658 35.0009 31.3669 35.0998C31.268 35.1986 31.2119 35.3324 31.2107 35.4722C31.2095 35.6121 31.2633 35.7468 31.3604 35.8474L33.6228 38.1103C33.7228 38.2103 33.8584 38.2665 33.9999 38.2665C34.1413 38.2665 34.2769 38.2103 34.3769 38.1103L38.9023 33.585C38.9994 33.4844 39.0532 33.3497 39.052 33.2099C39.0507 33.07 38.9946 32.9362 38.8958 32.8374C38.7969 32.7385 38.6631 32.6824 38.5233 32.6812C38.3834 32.68 38.2487 32.7337 38.1481 32.8309Z" fill="#0AAD2E"/>
</svg>
