<svg width="56" height="53" viewBox="0 0 56 53" fill="none" xmlns="http://www.w3.org/2000/svg">
<path d="M25.6246 52.2442C25.1472 52.2241 24.6698 52.2047 24.1924 52.1845C24.048 52.1783 23.9028 52.1565 23.7592 52.1418C23.4518 52.1123 23.1444 52.082 22.837 52.0517C22.4636 52.0152 22.098 51.9539 21.7285 51.8934C21.3535 51.8313 20.9747 51.7808 20.6052 51.6923C20.1457 51.5829 19.6861 51.4742 19.2266 51.3632C19.0558 51.322 18.8881 51.2654 18.7196 51.2141C18.4262 51.1256 18.1343 51.0364 17.8409 50.9479C17.4963 50.8431 17.1601 50.7181 16.8217 50.5954C16.4537 50.4611 16.0827 50.3362 15.7217 50.1848C15.2458 49.9845 14.7715 49.7835 14.2972 49.584C14.1893 49.5382 14.0853 49.483 13.9805 49.4326C13.7003 49.2975 13.4216 49.1617 13.1414 49.0258C12.8068 48.8636 12.4823 48.6866 12.1555 48.5081C11.8155 48.3233 11.4747 48.1416 11.1425 47.9421C10.7435 47.7023 10.3445 47.4609 9.94468 47.2225C9.80573 47.1403 9.67453 47.0409 9.54179 46.9501C9.28717 46.7785 9.03255 46.6062 8.77871 46.4339C8.47752 46.2297 8.19419 46.0053 7.90697 45.7818C7.68806 45.611 7.46836 45.441 7.24946 45.2702C7.16251 45.2019 7.0748 45.1359 6.99251 45.0614C6.60671 44.7113 6.2209 44.3612 5.83431 44.0119C5.53855 43.7441 5.27464 43.4367 4.99984 43.1471C4.84691 42.9856 4.6932 42.8242 4.54027 42.6627C4.4479 42.5665 4.36795 42.4578 4.28333 42.3545C3.95885 41.9594 3.62583 41.5697 3.31688 41.1622C2.60426 40.2221 1.9615 39.2192 1.44838 38.1557C1.20696 37.6542 1.00436 37.1357 0.846776 36.6016C0.672892 36.0163 0.539362 35.4193 0.423698 34.8201C0.204789 33.6813 0.0394423 32.5355 0.0052863 31.375C-0.0296459 30.1911 0.111643 29.0174 0.337538 27.8577C0.427585 27.3958 0.549463 26.9378 0.655812 26.4798C0.750517 26.0722 0.880145 25.6725 0.99581 25.2711C1.05015 25.0848 1.10373 24.897 1.15884 24.7107C1.20464 24.5531 1.26984 24.3978 1.32418 24.2426C1.46701 23.8397 1.5951 23.4267 1.76045 23.0316C1.95374 22.5689 2.14626 22.107 2.33955 21.6444C2.38147 21.5435 2.43114 21.4464 2.47927 21.3486C2.61279 21.0738 2.7463 20.7975 2.87982 20.5227C3.04284 20.1865 3.22062 19.8628 3.40072 19.536C3.58858 19.196 3.76945 18.8498 3.97283 18.5191C4.24452 18.079 4.5162 17.6388 4.78712 17.1987C4.98663 16.8742 5.22262 16.5668 5.44075 16.254C5.58126 16.0521 5.72177 15.8495 5.86305 15.6477C6.06721 15.3543 6.29154 15.0756 6.51355 14.7969C7.24169 13.8824 8.0498 13.0285 8.92388 12.2538C9.78943 11.4869 10.7342 10.8123 11.7092 10.1928C12.7036 9.56172 13.7438 9.00203 14.8158 8.51531C15.8901 8.02625 17.0018 7.62491 18.1343 7.29422C18.6645 7.13974 19.1986 7.00235 19.7366 6.87892C20.2085 6.77102 20.6867 6.66234 21.1657 6.59093C21.6741 6.51485 22.1818 6.44032 22.6895 6.36425C22.8944 6.33397 23.1002 6.30371 23.3051 6.27343C23.7499 6.20667 24.2009 6.17096 24.6488 6.13448C25.2233 6.08713 25.7985 6.06539 26.3745 6.0584C26.8659 6.05219 27.3658 6.04909 27.8548 6.08867C28.3664 6.12982 28.878 6.17174 29.3895 6.21288C30.2124 6.27964 31.0259 6.42557 31.8418 6.54822C31.9512 6.56453 32.0599 6.59403 32.1686 6.61732C32.4667 6.68175 32.7655 6.74618 33.0636 6.81061C33.4013 6.88281 33.739 6.95267 34.072 7.04427C34.4267 7.14285 34.7815 7.24066 35.1363 7.34002C35.3365 7.39592 35.5438 7.44094 35.7394 7.51081C36.0569 7.62414 36.3744 7.73903 36.6919 7.85237C36.9147 7.93232 37.1398 8.00684 37.3579 8.10077C37.684 8.24127 38.0108 8.38256 38.3368 8.52385C38.7832 8.71714 39.2163 8.93526 39.6379 9.17668C40.2643 9.53532 40.8651 9.93898 41.3837 10.4428C41.7485 10.7968 42.1111 11.2361 42.2073 11.7493C42.2298 11.8696 42.2244 11.9891 42.1941 12.1017C42.375 12.1001 42.5543 12.1599 42.6901 12.2903C42.847 12.4409 43.0022 12.5923 43.1567 12.7444C43.2095 12.7957 43.2615 12.8469 43.3135 12.8989C43.3896 12.9742 43.475 13.0472 43.5448 13.1302C43.5697 13.1543 43.5945 13.1791 43.6194 13.204C43.8887 13.4741 44.155 13.7481 44.4181 14.0253C44.9662 14.6013 45.4746 15.2122 45.9606 15.841C46.4566 16.4822 46.896 17.1583 47.2919 17.8647C47.6963 18.5851 48.0526 19.3233 48.3771 20.0833C48.7039 20.8479 48.9648 21.6413 49.1969 22.4385C49.4251 23.2202 49.6153 24.0136 49.7635 24.8147C49.9188 25.6608 50.036 26.5116 50.1416 27.3655C50.3411 28.9802 50.4358 30.6033 50.3232 32.2273C50.2922 32.6822 50.2666 33.141 50.2014 33.5928C50.1393 34.0135 50.0702 34.4311 49.9933 34.8503C49.9211 35.2385 49.8342 35.625 49.7465 36.0101C49.7069 36.1847 49.6673 36.3586 49.6199 36.5317C49.5609 36.7444 49.512 36.9633 49.4437 37.1737C49.3094 37.5867 49.1728 37.9973 49.0222 38.4056C48.8669 38.8248 48.6923 39.2347 48.5184 39.6461C48.454 39.7967 48.3763 39.9419 48.3034 40.0886C48.2087 40.278 48.1202 40.4705 48.0138 40.6545C47.8042 41.0178 47.5993 41.3811 47.3664 41.7289C47.2585 41.8888 47.1584 42.0588 47.0419 42.2125C46.8828 42.4221 46.7237 42.6324 46.5638 42.8428C46.3068 43.182 46.0281 43.5057 45.7564 43.8326C45.5111 44.1268 45.2433 44.4039 44.9879 44.6888C44.8567 44.8355 44.7108 44.9721 44.5734 45.1134C44.4127 45.278 44.2567 45.4511 44.0882 45.6087C43.94 45.7476 43.7917 45.8858 43.6434 46.024C43.4936 46.1629 43.35 46.312 43.194 46.4424C43.0286 46.5813 42.8617 46.7195 42.6956 46.8577C42.5225 47.0021 42.354 47.1558 42.1716 47.2893C41.8331 47.5377 41.4955 47.7861 41.157 48.0337C41.001 48.1479 40.8279 48.2441 40.6656 48.3481C40.4615 48.4793 40.2565 48.6097 40.0516 48.7417C39.9088 48.8325 39.7543 48.9094 39.6068 48.9909C39.3537 49.1314 39.0999 49.2727 38.8476 49.4132C38.4921 49.6104 38.114 49.771 37.7476 49.9457C37.3812 50.1211 37.0047 50.2686 36.6282 50.4208C36.4326 50.5 36.237 50.5784 36.0414 50.6575C35.8714 50.7259 35.6913 50.774 35.5174 50.8322C35.1277 50.9611 34.7411 51.093 34.3437 51.1978C33.9439 51.3034 33.5449 51.4229 33.1397 51.5068C32.8672 51.5627 32.5963 51.6201 32.3238 51.676C32.1763 51.7063 32.0288 51.742 31.8798 51.7661C31.4117 51.8398 30.9436 51.9128 30.4763 51.9865C30.0307 52.0564 29.5766 52.0874 29.1279 52.134C28.7444 52.1752 28.3602 52.1891 27.9751 52.2101C27.5893 52.231 27.2074 52.2435 26.8216 52.2458C26.5693 52.2474 26.317 52.2536 26.064 52.2536C25.9172 52.2528 25.7713 52.2505 25.6246 52.2442ZM23.9013 50.6195C24.2374 50.6521 24.5704 50.6676 24.9081 50.6816C25.2729 50.6971 25.6393 50.722 26.0042 50.7204C26.4304 50.7173 26.8581 50.715 27.285 50.7127C27.771 50.6863 28.2577 50.6607 28.7429 50.6343C28.9913 50.6203 29.242 50.5815 29.4897 50.5551C29.7334 50.5287 29.9764 50.5023 30.2186 50.4775C30.5741 50.4216 30.9312 50.3649 31.2867 50.309C31.5763 50.2632 31.8604 50.2058 32.1468 50.1468C32.4659 50.08 32.7888 50.0257 33.104 49.9418C33.4789 49.8425 33.8546 49.7431 34.2303 49.6437C34.6635 49.4993 35.0974 49.3565 35.5306 49.2121C35.7549 49.1376 35.9738 49.0336 36.1928 48.9451C36.3899 48.8651 36.5871 48.786 36.785 48.7068C37.2081 48.5049 37.6312 48.3039 38.0543 48.1021C38.2413 48.0128 38.4207 47.8987 38.6023 47.7985C38.8088 47.6836 39.0145 47.5695 39.221 47.4546C39.5796 47.2256 39.9383 46.9959 40.2969 46.7653C40.463 46.6582 40.6191 46.5293 40.7782 46.4121C40.9397 46.2933 41.1011 46.1754 41.2626 46.0574C41.5684 45.802 41.8751 45.5474 42.1817 45.2912C42.3183 45.1771 42.4449 45.0459 42.5761 44.9248C42.7391 44.7726 42.9028 44.6205 43.0659 44.4676C43.4284 44.0973 43.7909 43.7285 44.1379 43.3427C44.3095 43.1518 44.4857 42.9647 44.6502 42.7675C44.8482 42.5292 45.0469 42.2901 45.2456 42.051C45.3877 41.8639 45.5297 41.6761 45.6718 41.4898C45.7914 41.3322 45.9 41.1668 46.0103 41.0023C46.1228 40.8346 46.2408 40.6693 46.3425 40.4938C46.4636 40.2834 46.5855 40.0739 46.7066 39.8635C46.8424 39.5879 46.9798 39.3123 47.1165 39.0368C47.1793 38.9094 47.2282 38.772 47.2834 38.6416C47.34 38.5073 47.3967 38.373 47.4534 38.2387C47.5884 37.8747 47.7243 37.5129 47.8446 37.1434C47.968 36.7638 48.0759 36.3827 48.1815 35.9977C48.2832 35.5521 48.3802 35.1057 48.4718 34.6586C48.5596 34.2262 48.6271 33.7915 48.6907 33.356C48.7427 32.8499 48.7862 32.3445 48.8126 31.8361C48.839 31.3292 48.8468 30.8246 48.8444 30.3177C48.8149 29.619 48.766 28.9266 48.6993 28.2311C48.6341 27.5464 48.5417 26.864 48.4462 26.184C48.3624 25.6655 48.2754 25.1477 48.1683 24.633C48.0612 24.1207 47.9354 23.6138 47.8019 23.1077C47.6855 22.7094 47.569 22.312 47.434 21.92C47.2911 21.5047 47.1374 21.0956 46.9752 20.688C46.8052 20.2898 46.6305 19.8939 46.4349 19.5081C46.2261 19.0951 46.0056 18.6914 45.7743 18.2917C45.4723 17.784 45.1432 17.2996 44.7908 16.8268C44.4391 16.3735 44.0789 15.9279 43.6954 15.501C43.3042 15.0655 42.8966 14.6455 42.4844 14.2302C42.4976 14.2434 42.5101 14.2558 42.5232 14.2683C42.5054 14.2504 42.4875 14.2325 42.4697 14.2147C42.4643 14.2093 42.4588 14.203 42.4526 14.1976C42.4557 14.2007 42.4596 14.2046 42.4627 14.2077C42.4565 14.2015 42.4503 14.1953 42.4441 14.1891C42.4301 14.1759 42.4161 14.1627 42.4037 14.1487C42.3913 14.1363 42.3781 14.1231 42.3657 14.1107C42.3595 14.1045 42.3533 14.099 42.347 14.0928C42.1274 13.8755 41.9069 13.6597 41.6841 13.4454C41.4706 13.2397 41.3806 12.9455 41.4489 12.6746C41.1042 12.666 40.7782 12.4199 40.7122 12.0675C40.7107 12.0574 40.7083 12.0473 40.706 12.0372C40.7029 12.0287 40.699 12.0209 40.6959 12.0124C40.6858 11.9938 40.6765 11.9751 40.6664 11.9565C40.6439 11.92 40.6191 11.8843 40.5942 11.8502C40.5143 11.75 40.4312 11.6561 40.3427 11.5637C40.182 11.41 40.0144 11.2664 39.8389 11.129C39.5245 10.8985 39.1969 10.6889 38.86 10.4932C38.4339 10.2573 37.9984 10.0461 37.552 9.85282C37.2609 9.72706 36.969 9.6013 36.6779 9.47477C36.4078 9.37774 36.1376 9.28149 35.8675 9.18445C35.6463 9.10527 35.425 9.00979 35.1983 8.94691C34.6177 8.78545 34.0363 8.62476 33.4549 8.46329C32.8307 8.33055 32.2082 8.1916 31.5833 8.05963C31.4979 8.041 31.4086 8.03324 31.3217 8.02004C31.0989 7.98666 30.8753 7.95327 30.6525 7.9199C30.3335 7.87177 30.0144 7.82364 29.6954 7.77629C29.2568 7.74058 28.819 7.70487 28.3804 7.66994C28.1746 7.65286 27.9689 7.63656 27.7632 7.61948C27.5661 7.60318 27.3665 7.60318 27.1694 7.59775C26.8402 7.58921 26.5111 7.58843 26.1812 7.59231C25.311 7.61172 24.4447 7.68314 23.5799 7.78017C23.0272 7.86246 22.4745 7.94397 21.921 8.02625C20.887 8.17995 19.8654 8.40507 18.8578 8.68065C17.8751 8.95856 16.9109 9.29079 15.9678 9.68359C15.0564 10.0741 14.1723 10.5189 13.3129 11.0126C12.4745 11.5047 11.6618 12.038 10.8879 12.6264C10.2777 13.1007 9.69628 13.6061 9.14591 14.1487C8.47831 14.8256 7.8635 15.546 7.28518 16.299C7.08878 16.5606 6.90713 16.8338 6.71927 17.1024C6.51512 17.3959 6.31095 17.6885 6.10601 17.9819C5.94765 18.2094 5.81258 18.4562 5.66742 18.6922C5.50207 18.96 5.33672 19.2279 5.17137 19.4964C4.97342 19.8551 4.77627 20.2137 4.57832 20.5724C4.40832 20.8805 4.2577 21.1965 4.104 21.5132C3.94875 21.8338 3.78729 22.1505 3.65067 22.4797C3.48688 22.8732 3.32152 23.266 3.15773 23.6604C2.97841 24.1657 2.7991 24.6703 2.62056 25.1756C2.53828 25.4077 2.48161 25.6523 2.4133 25.889C2.33412 26.1615 2.25572 26.434 2.17654 26.7065C2.09658 27.0534 2.01583 27.4012 1.93587 27.749C1.80158 28.3289 1.69524 28.9118 1.62227 29.5026C1.56249 30.0638 1.52912 30.6243 1.533 31.1886C1.5493 31.8539 1.6052 32.5153 1.6968 33.1743C1.84196 34.1315 2.02127 35.0832 2.27201 36.0186C2.36904 36.3555 2.4816 36.6839 2.61279 37.0099C2.82005 37.4935 3.05683 37.9624 3.31998 38.4188C3.72209 39.0926 4.16223 39.7401 4.6342 40.3673C4.97809 40.7873 5.32352 41.2057 5.66664 41.6264C5.71709 41.6877 5.77688 41.7421 5.83199 41.7995C5.97327 41.9486 6.11455 42.0976 6.25583 42.2466C6.43748 42.4376 6.61836 42.6293 6.80001 42.8195C7.22463 43.2061 7.65157 43.5896 8.07619 43.9762C8.13285 44.0282 8.19961 44.0724 8.26016 44.1198C8.42085 44.244 8.58 44.369 8.74069 44.4932C8.96037 44.664 9.17928 44.8355 9.39974 45.0063C9.86318 45.3199 10.3266 45.6335 10.7908 45.9471C11.0066 46.0938 11.241 46.218 11.4654 46.3523C11.6967 46.4921 11.9288 46.6318 12.1617 46.7707C12.5398 46.9757 12.917 47.1829 13.2943 47.3894C13.6126 47.5625 13.9425 47.7139 14.2685 47.8723C14.5798 48.0229 14.8872 48.175 15.2055 48.3093C15.6223 48.4848 16.0384 48.6617 16.4553 48.8372C16.9785 49.0266 17.5009 49.216 18.0241 49.4062C18.2702 49.4962 18.5287 49.5599 18.7794 49.636C19.0449 49.7167 19.312 49.7974 19.5774 49.8782C20.0766 49.9985 20.5757 50.1157 21.0749 50.236C21.154 50.2547 21.2371 50.2632 21.3171 50.2764C21.4964 50.3059 21.6765 50.3362 21.8566 50.3657C22.1337 50.4122 22.4101 50.458 22.6872 50.5038C23.0909 50.5396 23.4961 50.5791 23.9013 50.6195Z" fill="white"/>
<path d="M8.8827 12.3703C8.88037 12.3648 8.87882 12.3594 8.87649 12.354C8.77092 12.1358 8.64906 11.9255 8.53029 11.7135C8.39987 11.4807 8.27722 11.2431 8.15535 11.0056C7.9116 10.5282 7.67328 10.0469 7.44273 9.56249C6.9824 8.59293 6.53293 7.6187 6.09977 6.63672C6.01749 6.45041 5.99187 6.25479 6.0563 6.0584C6.11918 5.86433 6.25969 5.70053 6.44211 5.60971C6.8023 5.42961 7.30067 5.57013 7.4699 5.95205C7.90617 6.94102 8.35251 7.92611 8.82293 8.89955C9.0822 9.43441 9.3446 9.96692 9.61474 10.4963C9.72497 10.7114 9.84063 10.9225 9.95862 11.1337C10.0921 11.3735 10.2311 11.6095 10.3281 11.8665C10.4756 12.2569 10.2435 12.7072 9.85692 12.8422C9.77464 12.871 9.69158 12.8842 9.60929 12.8842C9.29257 12.8842 8.99992 12.6808 8.8827 12.3703Z" fill="white"/>
<path d="M18.9611 8.12324C18.8928 7.80963 18.9037 7.4867 18.9145 7.16843C18.9215 6.9534 18.9363 6.73837 18.9495 6.52334C18.972 6.1647 18.9999 5.80607 19.0256 5.44821C19.0846 4.6176 19.1451 3.78621 19.2072 2.95482C19.2375 2.53874 19.586 2.20728 20.0107 2.22824C20.4198 2.24842 20.7675 2.61559 20.7365 3.03167C20.6821 3.77611 20.6278 4.52056 20.5734 5.26423C20.5447 5.66324 20.5168 6.06302 20.4888 6.46202C20.4624 6.83773 20.4368 7.21345 20.4376 7.58916C20.4399 7.64583 20.4438 7.70251 20.45 7.75917C20.4531 7.77548 20.4562 7.79177 20.4601 7.80807C20.5494 8.21561 20.2746 8.62937 19.8694 8.71476C19.8174 8.72562 19.7653 8.73107 19.7149 8.73107C19.3601 8.73107 19.0387 8.47877 18.9611 8.12324Z" fill="white"/>
<path d="M35.4862 9.02697C35.3411 8.64271 35.5639 8.24992 35.7238 7.90992C35.8293 7.6848 35.9403 7.462 36.0482 7.23844C36.3052 6.70359 36.5606 6.16873 36.8129 5.63155C37.2833 4.63171 37.7475 3.62955 38.2094 2.62583C38.3833 2.24623 38.8607 2.0902 39.2317 2.26952C39.6129 2.4535 39.7627 2.91305 39.5881 3.29187C39.1735 4.19235 38.759 5.09204 38.3367 5.98864C38.1131 6.46372 37.8911 6.9388 37.6629 7.41232C37.4323 7.89206 37.1824 8.36635 36.972 8.85541C36.9379 9.13952 36.7399 9.40036 36.4612 9.49739C36.3789 9.52611 36.2951 9.53931 36.2136 9.53931C35.8969 9.54009 35.6034 9.3367 35.4862 9.02697Z" fill="white"/>
<path d="M44.4865 17.2785C44.2071 16.961 44.2482 16.4797 44.5556 16.1979C45.0423 15.7515 45.5865 15.3634 46.1183 14.9737C46.6554 14.5801 47.1988 14.1959 47.7414 13.8101C48.7987 13.0594 49.8591 12.3072 50.9459 11.6008C51.2952 11.3734 51.7734 11.4587 52.0086 11.8088C52.2384 12.1512 52.1507 12.6441 51.8006 12.8716C50.8489 13.491 49.9204 14.1462 48.9936 14.8006C48.038 15.4752 47.0855 16.1513 46.1547 16.8585C45.9552 17.0184 45.755 17.176 45.5663 17.3483C45.4274 17.4756 45.2481 17.5362 45.0687 17.5362C44.8529 17.537 44.6348 17.4477 44.4865 17.2785Z" fill="white"/>
<path d="M49.7815 29.5374C49.6465 29.15 49.8553 28.6905 50.252 28.5624C50.4181 28.5081 50.5896 28.4661 50.7589 28.4196C52.0514 28.057 53.3392 27.6782 54.6247 27.2932C54.8211 27.2342 55.0222 27.2357 55.21 27.3266C55.3917 27.4143 55.5337 27.5734 55.5997 27.7636C55.7324 28.144 55.5283 28.6191 55.1293 28.7386C53.704 29.1648 52.2757 29.5855 50.8419 29.9822C50.8551 29.9783 50.8676 29.9752 50.8807 29.9713C50.8396 29.983 50.7977 29.9938 50.7565 30.007C50.6758 30.0334 50.5927 30.0459 50.5112 30.0459C50.193 30.0466 49.8925 29.8557 49.7815 29.5374Z" fill="white"/>
<path d="M28.7839 7.27245C28.3865 7.25305 28.0116 6.88355 28.0581 6.46902C28.1039 6.06381 28.1101 5.65238 28.1327 5.24562C28.1583 4.79615 28.1878 4.34591 28.2212 3.89645C28.2895 2.97346 28.3671 2.05203 28.4556 1.13137C28.4758 0.924107 28.5565 0.73392 28.7149 0.594191C28.8631 0.463777 29.0611 0.394686 29.2583 0.404778C29.6604 0.424961 30.0252 0.792917 29.9849 1.20822C29.8956 2.12966 29.8187 3.05109 29.7496 3.9733C29.7163 4.42276 29.6868 4.87223 29.6619 5.32247C29.6386 5.73001 29.6317 6.14066 29.5866 6.54587C29.5633 6.75469 29.4888 6.941 29.3273 7.08305C29.1884 7.2057 29.0044 7.27324 28.8197 7.27324C28.808 7.27324 28.7964 7.27245 28.7839 7.27245Z" fill="white"/>
<path d="M22.6095 26.5701C22.2004 26.4365 22.0055 26.0073 22.1173 25.6052C22.5101 24.2001 22.9674 22.8121 23.4168 21.4242C23.6388 20.7387 23.8663 20.054 24.0968 19.3717C24.2233 18.9975 24.353 18.6249 24.4818 18.2515C24.5408 18.0815 24.6092 17.9146 24.6736 17.747C24.7877 17.4442 24.9173 17.1042 25.2247 16.9505C25.5981 16.7642 26.0654 16.9195 26.2525 17.2928C26.3736 17.5366 26.3496 17.8207 26.2145 18.0404C26.1795 18.1087 26.1485 18.1778 26.119 18.2484C25.6253 19.5541 25.2007 20.887 24.7714 22.2144C24.3561 23.4968 23.9369 24.78 23.5744 26.0787C23.4836 26.4032 23.1606 26.6065 22.8369 26.6065C22.7601 26.605 22.6832 26.5941 22.6095 26.5701Z" fill="white"/>
<path d="M28.2539 25.9348C27.8642 25.8634 27.5359 25.4481 27.6383 25.0437C27.9939 23.6347 28.3642 22.2305 28.7337 20.8254C28.9122 20.1462 29.0923 19.4677 29.2739 18.7885C29.3717 18.4221 29.4703 18.0549 29.5697 17.6885C29.614 17.5278 29.6566 17.3663 29.7032 17.2072C29.7467 17.0589 29.7801 16.9021 29.8375 16.7577C29.9144 16.5637 30.0331 16.4045 30.2241 16.3091C30.4026 16.2198 30.613 16.2035 30.8024 16.2664C31.1805 16.389 31.4483 16.8424 31.2946 17.2305C31.2457 17.3547 31.2154 17.4898 31.1781 17.6171C31.1323 17.7747 31.0889 17.9338 31.0462 18.0921C30.9437 18.4663 30.8436 18.8413 30.7426 19.217C30.5695 19.8628 30.398 20.5095 30.228 21.1561C29.8686 22.5223 29.5084 23.8893 29.1606 25.2579C29.1622 25.2502 29.1645 25.2424 29.166 25.2354C29.159 25.2634 29.1521 25.2913 29.1451 25.3192C29.0939 25.5226 28.9976 25.6973 28.819 25.8168C28.6925 25.9014 28.5411 25.9472 28.3898 25.9472C28.344 25.9465 28.2989 25.9426 28.2539 25.9348Z" fill="white"/>
<path d="M25.668 34.7448C24.6573 34.6648 23.6613 34.4785 22.6824 34.22C21.7144 33.9646 20.7728 33.6091 19.8661 33.1868C19.0138 32.7901 18.1971 32.3073 17.448 31.7391C15.9793 30.6267 14.8545 29.1277 14.1799 27.4137C13.9005 26.7057 13.7429 25.9489 13.6785 25.1912C13.6521 24.8753 13.6521 24.5624 13.7017 24.2488C13.7429 23.9911 13.9012 23.7551 14.1357 23.6371C14.5083 23.4508 14.9764 23.6068 15.1627 23.9802C15.2551 24.165 15.2636 24.373 15.203 24.5586C15.2015 24.5679 15.2 24.5772 15.1984 24.5865C15.193 24.6657 15.1899 24.7441 15.1891 24.824C15.1976 25.0453 15.2186 25.265 15.2489 25.4846C15.2939 25.7602 15.3513 26.0327 15.4227 26.3021C15.505 26.5784 15.5997 26.8486 15.7084 27.1148C15.8473 27.43 16.0011 27.7358 16.1703 28.0355C16.3589 28.3522 16.5639 28.6565 16.7851 28.9515C17.0079 29.234 17.2439 29.5026 17.4962 29.7588C17.7679 30.022 18.0512 30.2704 18.3493 30.5032C18.7498 30.8029 19.1667 31.0769 19.5998 31.3269C20.1533 31.6335 20.7216 31.9052 21.3069 32.1458C21.9768 32.4105 22.6591 32.6333 23.357 32.8142C23.9982 32.9702 24.6464 33.089 25.3008 33.1697C25.9497 33.2396 26.6003 33.2745 27.2531 33.2699C27.7561 33.2582 28.2561 33.2217 28.7537 33.1542C29.162 33.0898 29.5641 33.0067 29.9639 32.9004C30.3567 32.7878 30.7409 32.6543 31.119 32.4998C31.5125 32.3283 31.8937 32.1381 32.2663 31.9254C32.5939 31.7313 32.9106 31.524 33.2203 31.3028C33.5122 31.0761 33.8048 30.8533 34.0812 30.6073C34.3738 30.3457 34.6564 30.0771 34.9359 29.8023C35.0748 29.6548 35.2146 29.5073 35.3535 29.3582C35.4878 29.2162 35.6073 29.057 35.7339 28.9064C35.7129 28.9336 35.6927 28.9608 35.6726 28.988C36.2517 28.2264 36.8013 27.4447 37.2826 26.6172C37.3974 26.4069 37.5084 26.1942 37.6086 25.9752C37.7832 25.5964 38.2606 25.4396 38.6317 25.6189C39.0128 25.8029 39.1627 26.2625 38.988 26.6421C38.648 27.3803 38.211 28.0758 37.746 28.7411C37.5053 29.0858 37.26 29.425 37.0062 29.7588C36.7485 30.098 36.4651 30.4116 36.1733 30.7222C35.9116 31.0001 35.6376 31.271 35.352 31.5264C35.1905 31.6708 35.029 31.8144 34.8683 31.9588C34.689 32.1187 34.4841 32.2568 34.2947 32.4051C33.565 32.9726 32.7584 33.4422 31.9154 33.821C30.8853 34.2837 29.7923 34.5624 28.6752 34.7075C28.1536 34.7751 27.6265 34.8038 27.0994 34.8038C26.6197 34.8053 26.1423 34.7821 25.668 34.7448Z" fill="white"/>
</svg>
