<svg width="34" height="34" viewBox="0 0 34 34" fill="none" xmlns="http://www.w3.org/2000/svg">
<circle cx="17" cy="17" r="17" fill="white"/>
<path d="M14.9988 26.7265C14.7429 26.7243 14.4877 26.7076 14.233 26.6846C13.9929 26.6629 13.7562 26.627 13.5183 26.5912C13.2681 26.5537 13.0201 26.5137 12.7721 26.4621C12.4007 26.3853 12.0337 26.2818 11.6781 26.1502C11.4741 26.0747 11.2702 25.9995 11.0662 25.9239C10.2781 25.6328 9.53159 25.2249 8.8373 24.7544C8.43822 24.4834 8.05739 24.1866 7.6986 23.864C7.35554 23.5553 7.04081 23.2207 6.74779 22.8641C6.45163 22.5041 6.18946 22.1185 5.94712 21.7207C5.70352 21.321 5.49894 20.898 5.3378 20.4583C5.17446 20.0111 5.07437 19.5421 5.01269 19.0703C4.94943 18.5882 4.9488 18.1 4.99286 17.6163C5.03723 17.1313 5.14676 16.652 5.28933 16.1868C5.43065 15.7257 5.60847 15.2756 5.81682 14.8407C6.02486 14.406 6.26657 13.9887 6.53063 13.5862C6.78997 13.1912 7.07008 12.8097 7.37443 12.4481C7.98595 11.7204 8.69504 11.0721 9.45417 10.5015C9.77834 10.2579 10.1186 10.0306 10.4682 9.82543C10.6967 9.69136 10.9252 9.55728 11.154 9.42321C11.295 9.34043 11.4417 9.26805 11.5865 9.1922C11.7136 9.12579 11.8405 9.05938 11.9679 8.99297C12.0268 8.96213 12.085 8.93034 12.1457 8.90296C12.1376 8.90673 12.1297 8.9102 12.1218 8.91397C12.4262 8.77486 12.7308 8.63512 13.0355 8.49633C13.1752 8.43464 13.3206 8.38428 13.4626 8.32857C13.6395 8.25933 13.816 8.19041 13.9926 8.12085C14.0263 8.10763 14.0618 8.09788 14.0965 8.08655C14.2044 8.05098 14.3124 8.0151 14.4203 7.97985C14.6063 7.91848 14.7926 7.85679 14.9786 7.79542C15.1212 7.74821 15.2701 7.71768 15.4152 7.67991C15.6021 7.63144 15.7891 7.58266 15.9763 7.53482C16.0119 7.52569 16.0484 7.52035 16.0843 7.51342C16.1957 7.49171 16.3077 7.4703 16.4192 7.44859C16.6121 7.41145 16.8047 7.374 16.9976 7.33686C17.1493 7.30759 17.3036 7.28744 17.4565 7.26478C17.6712 7.23299 17.8861 7.20624 18.102 7.18484C18.5423 7.14109 18.9867 7.12221 19.4289 7.13102C19.6382 7.13511 19.8475 7.15054 20.0559 7.16942C20.1679 7.17949 20.2806 7.1883 20.3917 7.20498C20.5906 7.23425 20.7892 7.26352 20.9878 7.29279C21.6129 7.38501 22.2341 7.50933 22.8359 7.70478C23.2318 7.83319 23.6149 8.00534 23.973 8.21779C24.1307 8.31126 24.2862 8.42016 24.4165 8.5492C24.5185 8.64992 24.6258 8.77266 24.6579 8.91649C24.6683 8.96307 24.6679 9.00996 24.6579 9.05403C24.8005 9.14876 24.9405 9.24696 25.0768 9.35019C25.3314 9.54281 25.5646 9.76217 25.7947 9.9828C26.0288 10.2069 26.2602 10.4398 26.4597 10.6954C26.8777 11.2301 27.227 11.8114 27.5065 12.4298C27.6422 12.7295 27.7596 13.0388 27.8483 13.3558C27.8946 13.521 27.9386 13.6866 27.9811 13.853C28.0239 14.0211 28.0538 14.1936 28.0881 14.3635C28.2187 15.0163 28.2877 15.6832 28.2981 16.3489C28.3031 16.6815 28.2902 17.0142 28.2521 17.3447C28.2134 17.6843 28.1627 18.0226 28.079 18.3543C27.9912 18.7012 27.8968 19.0477 27.7762 19.3848C27.7806 19.3722 27.7854 19.3596 27.7894 19.347C27.7315 19.5097 27.6768 19.674 27.6113 19.8336C27.5754 19.9211 27.5392 20.0086 27.503 20.096C27.4694 20.1779 27.4288 20.2572 27.3916 20.3378C27.3161 20.5008 27.2317 20.6588 27.1496 20.8184C27.1153 20.8845 27.075 20.9477 27.0372 21.0122C27.0001 21.0764 26.9642 21.1413 26.9236 21.2033C26.8254 21.3543 26.7275 21.5051 26.6231 21.6518C26.567 21.7304 26.5113 21.8088 26.4553 21.8875C26.4065 21.9561 26.3496 22.02 26.2973 22.0861C26.2482 22.1475 26.2013 22.211 26.1478 22.2683C26.0764 22.3451 26.0046 22.4222 25.9328 22.499C25.8151 22.6255 25.6861 22.7407 25.5599 22.8591C25.4378 22.974 25.3037 23.0772 25.1756 23.1848C25.0384 23.3 24.8923 23.4048 24.7501 23.5131C24.617 23.6151 24.4766 23.7073 24.3394 23.8033C24.211 23.8927 24.0797 23.9761 23.9472 24.0601C23.8135 24.1447 23.6813 24.2313 23.544 24.3103C23.3801 24.405 23.2161 24.4998 23.0521 24.5942C22.9945 24.6272 22.9341 24.6565 22.8749 24.6877C22.7635 24.7465 22.6515 24.8057 22.5397 24.8645C22.4157 24.93 22.2895 24.9898 22.163 25.0509C22.0122 25.1232 21.8631 25.2019 21.7092 25.268C21.5184 25.3499 21.3271 25.4314 21.1364 25.5132C20.8245 25.6466 20.5022 25.754 20.1837 25.8698C20.0411 25.9214 19.8913 25.9579 19.7462 26.0004C19.6367 26.0328 19.5268 26.0652 19.4173 26.0973C19.3698 26.1115 19.3226 26.1279 19.2741 26.1392C19.0799 26.1851 18.8857 26.232 18.6912 26.2783C18.5697 26.3073 18.4489 26.3375 18.3261 26.3611C18.103 26.4036 17.8798 26.4461 17.6567 26.4882C17.5311 26.5122 17.4055 26.5295 17.2787 26.5471C17.0681 26.5764 16.8576 26.6056 16.647 26.6346C16.5067 26.6541 16.3631 26.6588 16.2215 26.6701C16.0465 26.6843 15.8712 26.6982 15.6962 26.7123C15.5839 26.7215 15.4699 26.7211 15.3573 26.7237C15.2773 26.7255 15.1977 26.7262 15.1178 26.7262C15.0787 26.7268 15.0388 26.7268 14.9988 26.7265ZM15.5977 26.0967C15.7441 26.0895 15.8904 26.0747 16.0364 26.063C16.2102 26.0489 16.3836 26.035 16.557 26.0212C16.591 26.0187 16.625 26.0121 16.659 26.0073C16.7654 25.9925 16.8717 25.9777 16.9784 25.9629C17.1327 25.9415 17.2869 25.9201 17.4408 25.8987C17.6737 25.8537 17.9069 25.81 18.1401 25.7656C18.3261 25.73 18.5096 25.6841 18.6934 25.6404C18.88 25.5957 19.0676 25.5547 19.2521 25.5003C19.485 25.4314 19.7175 25.3634 19.9504 25.2941C20.2183 25.1972 20.4861 25.0993 20.754 25.0021C20.787 24.9901 20.8191 24.9741 20.8518 24.9602C20.9346 24.9247 21.0174 24.8891 21.1005 24.8538C21.2295 24.7984 21.3586 24.7427 21.4879 24.688C21.6572 24.6065 21.8266 24.5249 21.9956 24.4437C22.1303 24.3786 22.2621 24.3097 22.3943 24.2398C22.5385 24.1639 22.6845 24.0903 22.8255 24.0091C22.9939 23.9122 23.162 23.8146 23.331 23.718C23.5639 23.5704 23.7974 23.4253 24.0237 23.2676C24.1398 23.1867 24.2588 23.1087 24.3715 23.023C24.5024 22.923 24.633 22.8232 24.7639 22.7231C24.7614 22.7253 24.7586 22.7275 24.7561 22.7297C24.9138 22.5975 25.0724 22.4672 25.2228 22.3262C25.3015 22.2526 25.3836 22.1815 25.457 22.1025C25.5366 22.0172 25.6165 21.9312 25.6962 21.8456C25.7865 21.7323 25.8768 21.619 25.9668 21.5057C26.009 21.4529 26.0458 21.3953 26.0852 21.3402C26.1242 21.2848 26.1639 21.2297 26.2032 21.1743C26.3068 21.0154 26.41 20.858 26.5053 20.694C26.5485 20.6201 26.5935 20.5471 26.6328 20.4709C26.686 20.368 26.7392 20.2647 26.7924 20.1615C26.7861 20.1735 26.7801 20.1854 26.7738 20.1977C26.827 20.0828 26.8802 19.968 26.9331 19.8531C26.9611 19.7917 26.9844 19.7278 27.0102 19.6655C27.0325 19.6114 27.0574 19.5575 27.0772 19.5025C27.0728 19.5151 27.0681 19.5276 27.064 19.5402C27.1081 19.4162 27.1521 19.2922 27.1965 19.1685C27.2497 19.002 27.3041 18.8362 27.3529 18.6684C27.4036 18.4944 27.4486 18.3194 27.493 18.1438C27.5251 17.9918 27.5569 17.8407 27.5811 17.6874C27.6085 17.514 27.6289 17.3406 27.6491 17.1662C27.661 17.0004 27.6721 16.8354 27.6765 16.6693C27.6809 16.5021 27.6777 16.3353 27.6755 16.1682C27.6699 16.0612 27.6645 15.9545 27.6588 15.8475C27.6529 15.7326 27.6393 15.6184 27.6299 15.5038C27.611 15.2826 27.5773 15.0619 27.5458 14.8419C27.5065 14.6232 27.4665 14.4048 27.419 14.1873C27.3683 13.9534 27.3076 13.7231 27.2428 13.4927C27.194 13.3356 27.1458 13.1776 27.0841 13.0253C27.0199 12.867 26.9535 12.7112 26.8837 12.5557C26.8242 12.4371 26.7653 12.3181 26.7027 12.201C26.6347 12.0736 26.5626 11.9486 26.4902 11.8233C26.404 11.688 26.3165 11.5539 26.2265 11.4205C26.1418 11.2946 26.0471 11.1753 25.9536 11.0554C25.828 10.9087 25.6993 10.7665 25.5646 10.6277C25.4302 10.4898 25.2899 10.3576 25.1492 10.2261C25.1596 10.2355 25.1699 10.245 25.1803 10.2544C25.0699 10.1534 24.9584 10.0546 24.8442 9.95794C24.7331 9.86383 24.6144 9.77885 24.4964 9.69388C24.0382 9.38072 23.5598 9.09841 23.0804 8.81924C22.9404 8.73804 22.8916 8.55329 22.9634 8.41166C22.9114 8.39057 22.8589 8.37012 22.8063 8.3506C22.4774 8.23478 22.141 8.14351 21.8007 8.06829C21.7897 8.06578 21.7778 8.06294 21.7668 8.06074C21.7756 8.06263 21.7847 8.06483 21.7935 8.06672C21.5839 8.02203 21.3727 7.97734 21.1606 7.94618C21.0429 7.92887 20.9255 7.91155 20.8081 7.89424C20.6683 7.87347 20.5286 7.85301 20.3892 7.83256C20.2589 7.81336 20.1286 7.7992 19.9973 7.78661C19.5888 7.75136 19.1812 7.74286 18.7715 7.75954C18.7847 7.75923 18.7979 7.7586 18.8111 7.75797C18.537 7.77024 18.2638 7.79101 17.9912 7.82123C17.7061 7.8527 17.4219 7.89613 17.139 7.94177C16.8025 8.00723 16.4661 8.07113 16.1302 8.13691C16.0928 8.14414 16.0556 8.15579 16.0188 8.16554C15.9052 8.19481 15.7919 8.22408 15.6786 8.25367C15.5149 8.29584 15.351 8.33833 15.1873 8.38082C14.8653 8.48877 14.5424 8.59389 14.2195 8.69995C14.1792 8.71317 14.1396 8.73112 14.1002 8.74654C13.9901 8.78966 13.8799 8.83277 13.7698 8.87589C13.6014 8.94198 13.4324 9.00745 13.264 9.07417C13.2725 9.0704 13.281 9.0663 13.2898 9.06253C13.2866 9.0641 13.2832 9.06567 13.28 9.06693C12.9747 9.20636 12.6698 9.34641 12.3642 9.48552C12.3764 9.47986 12.3887 9.47451 12.401 9.46885C12.361 9.4871 12.3223 9.50976 12.2833 9.53022C12.1857 9.5812 12.0882 9.63219 11.9909 9.68318C11.8364 9.76406 11.6818 9.84495 11.5273 9.92552C11.4823 9.94881 11.4395 9.97682 11.3957 10.0026C11.2994 10.0593 11.2031 10.1156 11.1065 10.1723C10.9507 10.2639 10.7924 10.3523 10.6394 10.4486C10.4248 10.5846 10.2127 10.7234 10.0056 10.87C9.77866 11.0305 9.55992 11.2027 9.34559 11.3793C8.90906 11.744 8.49518 12.1334 8.11058 12.5523C7.78955 12.9085 7.49402 13.2843 7.21989 13.6777C6.95237 14.0671 6.70625 14.469 6.48814 14.8882C6.30749 15.2438 6.14886 15.6089 6.0129 15.9835C5.90117 16.301 5.80329 16.6227 5.72933 16.9513C5.6733 17.2159 5.63081 17.4825 5.60501 17.7519C5.58581 18.0015 5.58046 18.2508 5.58896 18.501C5.60155 18.7588 5.62956 19.0143 5.6711 19.2689C5.71485 19.516 5.77024 19.7605 5.84105 20.0016C5.91691 20.2421 6.00786 20.4766 6.11109 20.7066C6.24926 21.0034 6.40789 21.2879 6.5813 21.5655C6.80162 21.9117 7.04018 22.2438 7.30141 22.5598C7.30015 22.5582 7.29889 22.5566 7.29763 22.555C7.53683 22.8389 7.7927 23.1065 8.06495 23.3586C8.39038 23.6535 8.73438 23.9257 9.09411 24.1781C9.48595 24.4481 9.89353 24.694 10.3156 24.9136C10.6527 25.0849 10.9998 25.2388 11.3545 25.3697C11.5487 25.4414 11.7429 25.5135 11.9371 25.5853C12.2326 25.6847 12.5294 25.7744 12.8341 25.8424C12.988 25.8751 13.1431 25.9082 13.2989 25.9312C13.404 25.9469 13.5088 25.9626 13.614 25.9784C13.7285 25.9954 13.8428 26.0127 13.9573 26.0297C14.0939 26.0501 14.2318 26.0627 14.3696 26.0753C14.7772 26.1077 15.187 26.1118 15.5977 26.0967Z" fill="#4169E3"/>
<path d="M11.8121 19.691C11.353 19.6519 10.9095 19.5248 10.4953 19.3234C10.0994 19.1308 9.74625 18.8506 9.47464 18.5038C9.19705 18.1491 9.01608 17.7324 8.87602 17.3069C8.63242 16.5679 8.61007 15.7719 8.79577 15.0175C8.88483 14.6556 9.02048 14.3018 9.20964 13.9802C9.41295 13.6352 9.66379 13.3192 9.9395 13.0294C10.438 12.505 11.0603 12.0811 11.7693 11.9055C11.8487 11.886 11.928 11.8661 12.0073 11.8466C12.075 11.8299 12.1448 11.8205 12.2131 11.8079C12.3289 11.7859 12.4498 11.7777 12.5688 11.7736C12.6292 11.6927 12.7264 11.6398 12.8312 11.6496C12.9965 11.665 13.162 11.6848 13.3247 11.7185C13.4862 11.7522 13.6508 11.7874 13.806 11.8438C14.1333 11.9631 14.4376 12.1277 14.7366 12.3055C15.0271 12.4783 15.3003 12.6813 15.56 12.8975C15.6975 13.0121 15.824 13.1361 15.9483 13.2648C16.0623 13.3825 16.1627 13.5122 16.264 13.6409C16.3676 13.7728 16.4588 13.9144 16.5507 14.0548C16.6423 14.1945 16.7175 14.3446 16.7934 14.4932C16.828 14.5612 16.8538 14.6351 16.8837 14.7053C16.9678 14.9039 17.0209 15.1167 17.0575 15.3288C17.1043 15.602 17.1056 15.8852 17.0801 16.1613C17.0622 16.3564 17.042 16.5503 17.003 16.7423C16.9637 16.9342 16.9001 17.119 16.8192 17.2974C16.7619 17.4233 16.6883 17.5426 16.6197 17.6625C16.4248 18.0037 16.1753 18.3027 15.8719 18.5529C15.7129 18.6838 15.5417 18.799 15.367 18.9076C15.2282 18.9938 15.0844 19.0769 14.9343 19.1424C14.7555 19.2201 14.5761 19.2935 14.3945 19.364C14.2422 19.4231 14.0877 19.4776 13.9312 19.5229C13.71 19.5874 13.4862 19.6302 13.258 19.6604C13.0912 19.6822 12.9219 19.6969 12.7538 19.7026C12.6138 19.7073 12.4743 19.7108 12.3349 19.7108C12.1606 19.7114 11.9868 19.7061 11.8121 19.691ZM12.4212 19.0936C12.4866 19.0914 12.5521 19.0892 12.6175 19.087C12.678 19.0851 12.7397 19.0864 12.7998 19.0807C12.9644 19.0659 13.1287 19.0524 13.2923 19.0304C13.4425 19.0071 13.5894 18.9743 13.7361 18.9344C13.981 18.8623 14.218 18.7675 14.4556 18.675C14.5377 18.6391 14.6199 18.6033 14.702 18.5677C14.7848 18.5315 14.8641 18.4837 14.9437 18.4405C15.0995 18.3433 15.254 18.2454 15.401 18.1349C15.4923 18.0629 15.5795 17.9876 15.6635 17.9074C15.7409 17.8278 15.814 17.7447 15.8826 17.6572C15.9908 17.5096 16.0824 17.3535 16.1734 17.1952C16.2174 17.1136 16.259 17.0318 16.2958 16.9465C16.3257 16.8691 16.3509 16.7907 16.3729 16.7108C16.4038 16.5808 16.4233 16.4502 16.4422 16.3183C16.4588 16.132 16.4736 15.9463 16.4749 15.7587C16.4721 15.669 16.4651 15.58 16.4541 15.4906C16.4365 15.3795 16.4138 15.2703 16.3846 15.1614C16.3635 15.0915 16.3402 15.0223 16.315 14.9536C16.2898 14.8942 16.2646 14.8347 16.2395 14.7749C16.2105 14.7066 16.1715 14.6411 16.1375 14.5753C16.0843 14.485 16.0308 14.3956 15.9735 14.3081C15.9112 14.2131 15.8457 14.1215 15.7796 14.0293C15.7189 13.9519 15.6585 13.8747 15.594 13.8008C15.5238 13.7202 15.4511 13.6437 15.3768 13.5669C15.3025 13.498 15.2286 13.4297 15.1505 13.3649C15.0709 13.2985 14.9894 13.2346 14.9072 13.1707C14.8033 13.0955 14.6989 13.0215 14.5931 12.9491C14.4937 12.8815 14.3892 12.8207 14.2859 12.7593C14.0933 12.6517 13.8991 12.551 13.6964 12.4644C13.5954 12.4279 13.4938 12.3964 13.3899 12.3684C13.2325 12.3322 13.0748 12.3027 12.9147 12.2816C12.863 12.3448 12.7881 12.3883 12.7035 12.3902C12.5757 12.393 12.4495 12.4043 12.3226 12.4188C12.26 12.4301 12.1964 12.4393 12.1351 12.4544C12.0548 12.4742 11.9749 12.4943 11.8949 12.5138C11.763 12.5535 11.634 12.5985 11.5065 12.6501C11.4027 12.6958 11.3017 12.7464 11.2028 12.8018C11.0804 12.8745 10.9633 12.9545 10.8497 13.0401C10.7122 13.1487 10.5819 13.2648 10.4566 13.3879C10.2942 13.5531 10.1434 13.7287 10.0012 13.9122C9.90425 14.0419 9.81455 14.1756 9.73209 14.3147C9.66159 14.4416 9.5999 14.5716 9.54451 14.7056C9.4888 14.8507 9.44159 14.998 9.40162 15.1481C9.36511 15.2992 9.33616 15.4512 9.31602 15.6051C9.29871 15.7666 9.29115 15.9284 9.29178 16.0904C9.29556 16.2393 9.30689 16.3869 9.32672 16.5345C9.34906 16.674 9.37802 16.8115 9.41453 16.9481C9.46898 17.1347 9.53255 17.3182 9.60683 17.4979C9.66285 17.6251 9.72328 17.7494 9.79157 17.8703C9.84193 17.9521 9.89544 18.0317 9.95272 18.1088C10.01 18.1809 10.0701 18.2495 10.134 18.3159C10.2095 18.3896 10.2885 18.4582 10.3716 18.523C10.4572 18.5847 10.545 18.6417 10.6357 18.6955C10.7528 18.76 10.873 18.8173 10.9967 18.8683C11.1273 18.9186 11.2595 18.9608 11.3948 18.996C11.5147 19.0241 11.635 19.0461 11.7574 19.0618C11.9783 19.0851 12.199 19.0936 12.4212 19.0936Z" fill="#4169E3"/>
<path d="M13.3984 16.7893C13.3358 16.7345 13.304 16.6615 13.2933 16.5803C13.2316 16.1158 13.1681 15.6516 13.1026 15.1876C13.1045 15.2009 13.1064 15.2141 13.1086 15.2273C13.0554 14.8632 13.0009 14.4987 12.9304 14.1377C12.898 13.9715 13.0028 13.8053 13.1703 13.7698C13.3339 13.7355 13.5054 13.8437 13.5379 14.0096C13.6194 14.4257 13.6804 14.8458 13.7396 15.2657C13.7988 15.6874 13.8564 16.1095 13.9124 16.5312C13.9344 16.6993 13.7893 16.8522 13.6276 16.8655C13.6197 16.8661 13.6115 16.8664 13.6036 16.8664C13.5284 16.8661 13.4548 16.8387 13.3984 16.7893Z" fill="#4169E3"/>
<path d="M19.1332 19.135C18.2696 18.9956 17.4789 18.4782 17.0506 17.7099C16.9515 17.5324 16.8895 17.3329 16.836 17.1378C16.7762 16.9187 16.7453 16.6918 16.7252 16.4661C16.6849 16.0094 16.733 15.5534 16.8611 15.114C16.9279 14.8852 17.0235 14.6659 17.1183 14.4474C17.1696 14.3291 17.2218 14.2133 17.2791 14.0981C17.3395 13.9769 17.3968 13.8542 17.4657 13.7374C17.5488 13.5964 17.6288 13.4529 17.7178 13.315C17.9142 13.0091 18.1371 12.7211 18.386 12.4565C18.6318 12.1949 18.9116 11.9755 19.2279 11.8056C19.3862 11.7203 19.5568 11.6561 19.7261 11.5979C19.8904 11.5412 20.0601 11.4965 20.23 11.4613C20.41 11.4238 20.5951 11.4103 20.7789 11.4163C20.7808 11.4163 20.7827 11.4163 20.7846 11.4166C20.8444 11.2954 20.9806 11.2258 21.1194 11.2473C21.4509 11.2986 21.7769 11.3744 22.0951 11.4802C22.4061 11.584 22.7032 11.7392 22.9779 11.9161C23.2533 12.0932 23.5079 12.306 23.7509 12.5251C23.8831 12.644 24.0096 12.7677 24.1327 12.8964C24.3753 13.1507 24.5812 13.4419 24.7134 13.7689C24.7993 13.9816 24.8751 14.1938 24.9204 14.4194C24.9582 14.6086 24.9717 14.8065 24.9787 14.9992C24.9818 15.0863 24.9837 15.1723 24.9809 15.2594C24.9784 15.3476 24.9695 15.4338 24.9607 15.5213C24.9217 15.9018 24.7835 16.2653 24.59 16.5926C24.5189 16.7126 24.4329 16.8233 24.348 16.9338C24.2671 17.0386 24.1859 17.1425 24.0996 17.2429C23.9259 17.4449 23.726 17.618 23.5265 17.793C23.4658 17.8465 23.3972 17.8934 23.3333 17.9435C23.2725 17.9904 23.2127 18.0373 23.1495 18.0804C23.0635 18.1389 22.9773 18.1981 22.8911 18.2566C22.8218 18.3038 22.7447 18.3425 22.6723 18.3847C22.6113 18.42 22.5515 18.4596 22.4879 18.4908C22.39 18.5386 22.2921 18.5865 22.1942 18.6346C22.0331 18.7133 21.865 18.7772 21.6995 18.8461C21.5446 18.9103 21.3829 18.9601 21.2217 19.006C20.9945 19.0708 20.7647 19.1174 20.5309 19.1508C20.3194 19.181 20.1044 19.1961 19.8895 19.1961C19.6358 19.1961 19.3821 19.1753 19.1332 19.135ZM19.9442 18.5732C20.1312 18.5685 20.3169 18.5537 20.5023 18.5286C20.6826 18.5002 20.8598 18.4615 21.036 18.4143C21.2135 18.363 21.3882 18.3042 21.5585 18.2333C21.6529 18.1943 21.7473 18.155 21.8418 18.1156C21.9667 18.0543 22.092 17.9932 22.2172 17.9318C22.2688 17.9066 22.3183 17.8736 22.368 17.8446C22.4234 17.8125 22.4791 17.7804 22.5345 17.748C22.6409 17.6753 22.7475 17.6029 22.8539 17.5305C22.8926 17.5006 22.9313 17.4707 22.9697 17.4405C23.0182 17.4028 23.0698 17.3672 23.1161 17.3269C23.2376 17.2208 23.3597 17.116 23.4749 17.0031C23.6326 16.841 23.7717 16.6657 23.9095 16.4869C23.975 16.3975 24.0373 16.3072 24.0943 16.2118C24.1374 16.1328 24.1764 16.0522 24.2114 15.9695C24.2428 15.887 24.2705 15.8033 24.2941 15.718C24.3133 15.639 24.3288 15.5597 24.3413 15.4794C24.3467 15.4275 24.352 15.3753 24.3574 15.3233C24.3631 15.2661 24.3618 15.2075 24.3627 15.1499C24.3561 14.9765 24.3442 14.8043 24.3259 14.6312C24.3118 14.5431 24.2938 14.4566 24.2712 14.37C24.2328 14.2407 24.184 14.1154 24.1333 13.9901C24.0971 13.9111 24.0584 13.8337 24.0159 13.7579C23.9696 13.6814 23.9206 13.6077 23.8674 13.536C23.7761 13.4227 23.6773 13.3188 23.5769 13.214C23.3603 13.0053 23.135 12.8083 22.8996 12.6214C22.7573 12.5162 22.6125 12.4181 22.4602 12.3274C22.3189 12.2512 22.1763 12.1814 22.0293 12.1175C21.8842 12.0637 21.7379 12.0168 21.5884 11.9755C21.5034 11.9545 21.4184 11.9353 21.3331 11.9173C21.3316 11.9205 21.3303 11.9239 21.3287 11.9271C21.2548 12.0807 21.0672 12.1436 20.9142 12.0718C20.9105 12.07 20.9067 12.0684 20.9029 12.0665C20.8887 12.0618 20.8746 12.0574 20.8604 12.0536C20.8374 12.0482 20.8142 12.0438 20.7909 12.0404C20.7462 12.0366 20.7024 12.035 20.6577 12.0347C20.5866 12.0382 20.5158 12.0445 20.445 12.0533C20.3354 12.0715 20.2278 12.0964 20.1205 12.125C19.9716 12.1678 19.8262 12.2182 19.6824 12.2761C19.5908 12.3164 19.5024 12.3608 19.4152 12.4096C19.3315 12.4602 19.2509 12.515 19.1725 12.5738C19.0806 12.6472 18.9931 12.7246 18.9091 12.8064C18.7637 12.955 18.6283 13.112 18.5006 13.276C18.3759 13.4419 18.2582 13.6125 18.1525 13.7912C18.0914 13.8948 18.0304 13.998 17.9693 14.1015C17.9019 14.2369 17.8346 14.3722 17.7672 14.5076C17.7377 14.5667 17.7141 14.6294 17.6879 14.6898C17.6511 14.7748 17.6133 14.8594 17.5784 14.945C17.5136 15.1087 17.4569 15.2739 17.4122 15.4442C17.3855 15.5606 17.3644 15.6777 17.3493 15.7961C17.3367 15.9245 17.331 16.0519 17.3313 16.1807C17.3354 16.338 17.3483 16.4944 17.3694 16.6506C17.3902 16.7809 17.4166 16.9096 17.4506 17.037C17.478 17.128 17.5092 17.2174 17.5444 17.3055C17.5683 17.359 17.5941 17.4113 17.6222 17.4626C17.6659 17.534 17.7125 17.6029 17.7628 17.67C17.8179 17.7386 17.8761 17.8037 17.9378 17.867C18.0178 17.9435 18.1005 18.0159 18.1877 18.0842C18.2674 18.1421 18.3492 18.1956 18.4342 18.2456C18.5229 18.2935 18.6129 18.3366 18.7055 18.3759C18.8027 18.413 18.9009 18.4455 19.0013 18.4735C19.1344 18.5059 19.2685 18.5298 19.4045 18.5478C19.5845 18.5666 19.7639 18.5742 19.9442 18.5732Z" fill="#4169E3"/>
<path d="M20.3203 16.6448C20.1513 16.6363 20.0176 16.4881 20.0257 16.3191C20.0465 15.8926 20.0544 15.4652 20.0632 15.0384C20.0673 14.8354 20.0708 14.6324 20.0701 14.4294C20.0698 14.3218 20.0689 14.2145 20.0676 14.1065C20.0673 14.0483 20.066 13.9904 20.0692 13.9322C20.0742 13.8437 20.1142 13.7701 20.1762 13.7081C20.2958 13.5885 20.5082 13.6156 20.6143 13.7361C20.6672 13.7962 20.6952 13.8765 20.6911 13.9567C20.6905 13.9671 20.6895 13.9775 20.6879 13.9872C20.6835 14.0905 20.6883 14.1953 20.6895 14.2985C20.6905 14.3917 20.6901 14.4848 20.6905 14.578C20.6911 14.7738 20.6851 14.9702 20.681 15.1659C20.6728 15.5609 20.6647 15.9559 20.6455 16.3502C20.6376 16.5142 20.4972 16.6452 20.3345 16.6452C20.3301 16.6455 20.3254 16.6452 20.3203 16.6448Z" fill="#4169E3"/>
<path d="M15.2314 10.5442C15.0715 10.5149 14.9425 10.3475 14.9815 10.1829C15.081 9.76588 15.1858 9.34981 15.2903 8.93436C15.3394 8.74018 15.3885 8.54693 15.4357 8.35243C15.4634 8.23912 15.4908 8.12582 15.5175 8.01283C15.5559 7.85295 15.5811 7.63295 15.7517 7.5571C15.8269 7.52374 15.9065 7.51367 15.9861 7.53947C16.0648 7.56528 16.1312 7.62193 16.1681 7.69621C16.2121 7.78434 16.209 7.89229 16.1655 7.97947C16.1558 8.01189 16.1466 8.04462 16.1391 8.07735C16.1426 8.06413 16.146 8.0506 16.1492 8.03738C15.9698 8.79116 15.7715 9.54054 15.5921 10.2949C15.5726 10.3771 15.5314 10.4488 15.4599 10.4967C15.4086 10.531 15.3472 10.5492 15.2859 10.5492C15.2679 10.5489 15.2497 10.5474 15.2314 10.5442Z" fill="#4169E3"/>
<path d="M17.2124 9.82289C17.0449 9.79205 16.9335 9.62808 16.9628 9.46158C17.0525 8.95046 17.1258 8.43587 17.1929 7.92129C17.2042 7.819 17.2155 7.71671 17.2262 7.61411C17.2338 7.54298 17.2372 7.46682 17.2596 7.39852C17.2857 7.31889 17.3424 7.24304 17.4204 7.20779C17.574 7.13792 17.7591 7.1908 17.8368 7.34659C17.8714 7.41552 17.8768 7.4964 17.8569 7.56974C17.8525 7.59554 17.8494 7.62135 17.8462 7.64747C17.7786 8.29173 17.6857 8.93504 17.5737 9.57331C17.5476 9.72187 17.4125 9.82793 17.2662 9.82793C17.2483 9.82793 17.2303 9.82636 17.2124 9.82289Z" fill="#4169E3"/>
<path d="M19.5117 8.97857C19.4856 8.66636 19.4563 8.35383 19.4268 8.04161C19.4126 7.89023 19.3972 7.73884 19.384 7.58714C19.3808 7.55158 19.3774 7.5157 19.3748 7.47982C19.3711 7.42443 19.3613 7.36431 19.367 7.30924C19.3748 7.23307 19.3934 7.16478 19.445 7.10529C19.4793 7.06564 19.5268 7.03133 19.5772 7.01622C19.6571 6.9923 19.7383 6.99325 19.8145 7.02975C19.8882 7.06532 19.9458 7.12984 19.9725 7.20726C19.986 7.24566 19.9908 7.28658 19.9882 7.32686C19.9882 7.32686 19.9886 7.32623 19.9889 7.3256C19.9886 7.32844 19.9882 7.33127 19.9879 7.3341C19.9936 7.46062 20.0071 7.58683 20.0194 7.71304C20.0326 7.85215 20.0462 7.99094 20.0591 8.13005C20.0842 8.39632 20.1085 8.66289 20.1311 8.92947C20.1453 9.09817 20.0141 9.25018 19.8463 9.2634C19.8381 9.26403 19.8299 9.26434 19.8221 9.26434C19.6622 9.26466 19.5253 9.13908 19.5117 8.97857Z" fill="#4169E3"/>
<path d="M3.59109 22.5374C3.37864 22.5062 3.1725 22.4417 2.97264 22.3659C2.75579 22.2837 2.5531 22.1748 2.36332 22.042C2.01019 21.794 1.72568 21.4569 1.51324 21.0833C1.42732 20.9326 1.34674 20.7771 1.28317 20.6156C1.25075 20.5335 1.21298 20.452 1.1856 20.3679C1.16042 20.2902 1.13493 20.2131 1.10975 20.1354C1.04114 19.9242 1.00558 19.7007 1.00054 19.4791C0.991728 19.075 1.08961 18.6501 1.37287 18.3483C1.50726 18.2051 1.68476 18.1198 1.87518 18.0802C2.07912 18.0377 2.29188 18.0629 2.48859 18.1249C2.69694 18.1903 2.88011 18.3279 3.0274 18.4852C3.17312 18.641 3.26975 18.8469 3.32703 19.0499C3.38935 19.2705 3.41547 19.5028 3.44128 19.73C3.46142 19.9081 3.46834 20.0885 3.46394 20.2679C3.45922 20.4369 3.30405 20.5706 3.13819 20.5621C2.96635 20.5536 2.83919 20.4054 2.8436 20.2364C2.84455 20.198 2.84518 20.1599 2.84518 20.1218C2.8392 19.9305 2.81906 19.741 2.79388 19.5509C2.7772 19.4423 2.75925 19.3344 2.73313 19.2274C2.72086 19.1861 2.70732 19.1458 2.6919 19.1056C2.67585 19.0713 2.65917 19.0379 2.64092 19.0048C2.62298 18.9772 2.60472 18.9501 2.58552 18.9236C2.56884 18.9035 2.55153 18.8837 2.53359 18.8648C2.51817 18.8503 2.50244 18.8362 2.48607 18.8229C2.45114 18.7978 2.41557 18.7745 2.37875 18.7521C2.36081 18.7427 2.34287 18.7339 2.3243 18.7257C2.29251 18.714 2.26104 18.704 2.22894 18.6952C2.20753 18.6904 2.18613 18.687 2.16442 18.6838C2.13892 18.6816 2.11311 18.6804 2.08762 18.68C2.06339 18.681 2.03884 18.6829 2.0146 18.6857C2.02782 18.6838 2.04072 18.6819 2.05426 18.6797C2.02027 18.6838 1.98659 18.6895 1.95355 18.6977C1.94253 18.7011 1.93151 18.7049 1.9205 18.7093C1.90791 18.715 1.89564 18.7213 1.88368 18.7276C1.87329 18.7348 1.8629 18.7417 1.85252 18.7487C1.84308 18.7565 1.83363 18.765 1.8245 18.7735C1.81506 18.7836 1.80625 18.7937 1.79744 18.8044C1.77824 18.8311 1.7603 18.8582 1.74299 18.8862C1.72599 18.9186 1.70994 18.951 1.69452 18.9844C1.68287 19.0159 1.6728 19.0473 1.66368 19.0794C1.65046 19.1377 1.63944 19.1959 1.63094 19.2554C1.62496 19.3212 1.62151 19.3866 1.62056 19.453C1.62276 19.5248 1.62843 19.5959 1.63724 19.6674C1.65046 19.746 1.66746 19.8228 1.6876 19.8999C1.73795 20.0724 1.80153 20.2383 1.86731 20.4051C1.92616 20.5376 1.99068 20.6663 2.06213 20.7928C2.12161 20.892 2.18518 20.9877 2.25348 21.0808C2.31108 21.1538 2.37182 21.2231 2.43634 21.2904C2.51282 21.3647 2.59213 21.4352 2.67585 21.5013C2.75202 21.5567 2.83007 21.608 2.91158 21.6558C2.98712 21.6961 3.06392 21.7323 3.1426 21.7663C3.25874 21.8119 3.37676 21.8522 3.4973 21.885C3.59424 21.9076 3.69149 21.9252 3.79 21.9381C3.87088 21.9454 3.95146 21.9492 4.03297 21.9492C4.10662 21.9463 4.17964 21.9407 4.25265 21.9312C4.31749 21.9196 4.38138 21.9054 4.44527 21.8887C4.52301 21.8658 4.59886 21.839 4.67439 21.8088C4.7622 21.7704 4.84749 21.7285 4.93153 21.6823C5.04231 21.6149 5.14555 21.5397 5.24878 21.4623C5.31267 21.4078 5.37498 21.3531 5.43541 21.2951C5.45429 21.2744 5.47287 21.2539 5.49081 21.2325C5.49899 21.2206 5.5078 21.2089 5.51724 21.1982C5.6296 21.072 5.82694 21.0566 5.95535 21.1689C6.08156 21.2791 6.09729 21.4808 5.98493 21.607C5.89397 21.7241 5.78382 21.822 5.67115 21.9183C5.60505 21.9746 5.53266 22.0244 5.46342 22.0766C5.29252 22.205 5.09613 22.3067 4.89848 22.3869C4.69926 22.4681 4.49531 22.5223 4.28224 22.5528C4.19411 22.5654 4.10473 22.5707 4.01535 22.5707C3.87246 22.5717 3.7302 22.5578 3.59109 22.5374Z" fill="#4169E3"/>
<path d="M28.8366 22.2477C28.543 22.2055 28.2538 22.1105 27.9919 21.971C27.7577 21.8464 27.5563 21.673 27.3804 21.4757C27.2435 21.3221 27.1361 21.1477 27.0342 20.9702C26.9914 20.8959 26.9552 20.8191 26.9228 20.7395C26.8888 20.6555 26.868 20.5535 26.8998 20.4654C26.9571 20.3064 27.1264 20.2123 27.291 20.2658C27.4034 20.3027 27.4868 20.4059 27.5034 20.5198C27.5056 20.5261 27.5082 20.5324 27.5107 20.5387C27.5484 20.6205 27.5928 20.6983 27.6378 20.7763C27.6806 20.844 27.7247 20.9098 27.7725 20.974C27.8251 21.0401 27.8802 21.103 27.9387 21.1641C27.9897 21.2132 28.0426 21.2591 28.098 21.3032C28.1543 21.3438 28.2119 21.3819 28.272 21.4171C28.3312 21.448 28.3907 21.4766 28.4517 21.5034C28.542 21.5383 28.6336 21.5676 28.7274 21.5927C28.8291 21.6163 28.9307 21.6349 29.034 21.6485C29.1265 21.657 29.2181 21.662 29.3109 21.6626C29.3975 21.6598 29.4828 21.6532 29.5684 21.6425C29.6606 21.6277 29.7509 21.6085 29.8413 21.5846C29.93 21.5578 30.0172 21.527 30.1031 21.4923C30.2023 21.4486 30.2982 21.3998 30.3927 21.3463C30.478 21.2941 30.5601 21.2387 30.6397 21.1789C30.7083 21.1235 30.7744 21.0659 30.8383 21.0051C30.9173 20.9243 30.991 20.8396 31.0612 20.7505C31.1345 20.6511 31.2022 20.5485 31.2645 20.4418C31.3265 20.3294 31.3816 20.2145 31.431 20.0962C31.4709 19.992 31.5056 19.8869 31.5348 19.7789C31.5597 19.6745 31.5786 19.5693 31.5927 19.4623C31.6072 19.315 31.6088 19.1693 31.6088 19.0217C31.6038 18.9484 31.599 18.875 31.5937 18.8017C31.5893 18.741 31.5789 18.6796 31.5698 18.6188C31.5518 18.5317 31.5345 18.4442 31.5122 18.3579C31.4952 18.3029 31.476 18.249 31.4546 18.1952C31.441 18.166 31.4266 18.137 31.4108 18.109C31.4004 18.092 31.3894 18.075 31.3775 18.0589C31.3595 18.0369 31.3413 18.0158 31.3218 17.9951C31.3073 17.9818 31.2922 17.9692 31.2761 17.9573C31.2808 17.9601 31.2859 17.963 31.2906 17.9655C31.2849 17.9617 31.279 17.9582 31.273 17.9548C31.2692 17.9519 31.2654 17.9491 31.2616 17.9463C31.2648 17.9485 31.2676 17.951 31.2708 17.9532C31.2541 17.9438 31.2371 17.9353 31.2198 17.9274C31.2056 17.9224 31.1911 17.9176 31.1763 17.9132C31.16 17.9101 31.1433 17.9066 31.1273 17.9038C31.1351 17.9047 31.143 17.9057 31.1509 17.9066C31.1562 17.9079 31.1616 17.9094 31.1669 17.9107C31.1619 17.9094 31.1568 17.9079 31.1518 17.9066C31.1571 17.9072 31.1625 17.9079 31.1679 17.9085C31.1612 17.9076 31.1549 17.9066 31.1483 17.906C31.1458 17.9054 31.1436 17.9047 31.1411 17.9044C31.1433 17.905 31.1455 17.9054 31.1477 17.906C31.1263 17.9035 31.1046 17.9022 31.0832 17.9016C31.0649 17.9022 31.0467 17.9038 31.0284 17.9057C30.996 17.9113 30.9642 17.9183 30.9321 17.9261C30.9117 17.9327 30.8915 17.94 30.8717 17.9478C30.8314 17.9658 30.7924 17.9847 30.753 18.0048C30.6101 18.091 30.4732 18.1889 30.3407 18.2903C30.325 18.3025 30.3093 18.3148 30.2935 18.3265C30.2731 18.3441 30.2514 18.3601 30.2296 18.3762C30.1189 18.4659 30.0109 18.5578 29.9077 18.6563C29.8636 18.7023 29.8208 18.7488 29.7805 18.7982C29.6735 18.9292 29.4664 18.9358 29.3424 18.8272C29.2118 18.7133 29.2064 18.5203 29.3135 18.3891C29.4674 18.2006 29.6537 18.0382 29.8457 17.889C29.8419 17.8918 29.8381 17.895 29.834 17.8978C29.8633 17.8751 29.8922 17.8496 29.9231 17.8273C29.9747 17.7814 30.0377 17.743 30.0899 17.7042C30.2416 17.5925 30.3952 17.4839 30.5661 17.404C30.7304 17.3269 30.9151 17.2756 31.0977 17.2806C31.306 17.2863 31.5049 17.3511 31.6708 17.4786C31.9594 17.6998 32.0865 18.0508 32.1574 18.3948C32.1932 18.5682 32.2118 18.7425 32.2241 18.9191C32.2408 19.1649 32.2269 19.4135 32.192 19.6572C32.1303 20.0839 31.9597 20.4896 31.7391 20.8569C31.5962 21.0945 31.4168 21.3089 31.2173 21.5008C31.0083 21.702 30.7596 21.8618 30.5012 21.9918C30.2576 22.1143 29.9942 22.198 29.7261 22.2452C29.5829 22.2707 29.4384 22.2817 29.2943 22.2817C29.1413 22.2823 28.9883 22.2697 28.8366 22.2477Z" fill="#4169E3"/>
<path d="M24.4816 15.4615C24.3904 15.3252 24.4222 15.1197 24.566 15.0306C24.6258 14.9938 24.6887 14.9611 24.7501 14.9267C25.3006 14.6032 25.8136 14.2246 26.3351 13.857C26.6256 13.6524 26.9173 13.451 27.2163 13.259C27.3662 13.1624 27.5182 13.0695 27.6702 12.9764C27.8058 12.8933 27.9434 12.8105 28.0831 12.735C28.3786 12.5748 28.6754 12.4124 28.9905 12.2937C29.1557 12.2314 29.3219 12.1669 29.4931 12.1212C29.5945 12.0945 29.6949 12.0668 29.7978 12.0457C29.9938 12.006 30.1934 11.9988 30.391 12.0334C30.5714 12.0649 30.7539 12.1483 30.8952 12.2644C30.9667 12.3233 31.034 12.3884 31.0882 12.4637C31.153 12.5534 31.2008 12.6478 31.2408 12.7507C31.31 12.9298 31.3195 13.135 31.2984 13.3241C31.2745 13.5382 31.1974 13.7402 31.091 13.9262C30.8908 14.2765 30.6274 14.5912 30.3561 14.8883C30.3385 14.9079 30.3205 14.9267 30.3029 14.9459C30.188 15.0699 29.9951 15.0891 29.8648 14.9752C29.7405 14.8663 29.7203 14.6608 29.8355 14.5371C29.9935 14.3675 30.143 14.1909 30.2872 14.0096C30.3829 13.8796 30.4757 13.7497 30.5575 13.6105C30.583 13.563 30.606 13.5155 30.6271 13.4661C30.6419 13.4249 30.6551 13.3836 30.6671 13.3414C30.6727 13.316 30.6774 13.2905 30.6812 13.2647C30.6847 13.2275 30.6869 13.191 30.6878 13.1536C30.6862 13.1192 30.6834 13.0859 30.679 13.0519C30.6749 13.0305 30.6702 13.0091 30.6648 12.988C30.6589 12.9685 30.6523 12.9496 30.645 12.9307C30.6365 12.9122 30.6274 12.8939 30.6176 12.876C30.6076 12.8596 30.5969 12.8439 30.5859 12.8284C30.5739 12.814 30.5616 12.8001 30.5487 12.7866C30.5327 12.7712 30.5163 12.7567 30.499 12.7428C30.4839 12.7318 30.4685 12.7214 30.4524 12.7117C30.4241 12.6966 30.3954 12.683 30.3662 12.6701C30.3482 12.6638 30.33 12.6579 30.3117 12.6528C30.2793 12.6456 30.2472 12.6399 30.2145 12.6352C30.1817 12.633 30.1496 12.6317 30.1172 12.6314C30.0757 12.6339 30.0348 12.6377 29.9938 12.6424C29.8758 12.6619 29.7613 12.6922 29.6458 12.723C29.4859 12.7746 29.3285 12.83 29.1715 12.8895C28.9936 12.9666 28.8158 13.044 28.6455 13.1362C28.4504 13.242 28.2575 13.3509 28.0652 13.4623C28.0671 13.461 28.0693 13.4601 28.0712 13.4588C27.8061 13.6212 27.5405 13.7827 27.2831 13.9571C26.9913 14.1544 26.7033 14.3571 26.4169 14.562C26.1692 14.7392 25.9209 14.9157 25.6672 15.0844C25.536 15.1719 25.4041 15.2585 25.2691 15.34C25.1495 15.4124 25.0271 15.4804 24.9059 15.5502C24.9043 15.5512 24.9028 15.5521 24.9015 15.5527C24.8939 15.5572 24.8867 15.5612 24.8792 15.5657C24.8851 15.5622 24.8908 15.5587 24.8968 15.5553C24.8464 15.5826 24.7913 15.5965 24.7372 15.5965C24.6381 15.5962 24.5418 15.5512 24.4816 15.4615Z" fill="#4169E3"/>
<path d="M5.74821 16.3075C5.39665 15.9985 5.12725 15.5972 5.0045 15.1421C4.94911 14.935 4.92047 14.7295 4.92896 14.5145C4.93715 14.3049 5.0067 14.0975 5.0942 13.909C5.17508 13.7352 5.29122 13.5659 5.4297 13.4331C5.498 13.3673 5.56976 13.3088 5.65001 13.2578C5.73877 13.2015 5.83696 13.1687 5.93831 13.1429C6.12368 13.0954 6.33046 13.1215 6.51238 13.1722C6.72419 13.2307 6.91932 13.3239 7.10785 13.4359C7.27529 13.5357 7.43391 13.6531 7.58624 13.7739C7.64572 13.8212 7.70835 13.8665 7.76532 13.9168C7.84778 13.9902 7.93024 14.0635 8.01301 14.1371C8.13355 14.2442 8.2434 14.365 8.35701 14.4796C8.39132 14.5142 8.42185 14.5551 8.45364 14.5922C8.49802 14.6439 8.54239 14.6955 8.58677 14.7471C8.62516 14.7921 8.65947 14.8418 8.69567 14.8894C8.72997 14.9344 8.76617 14.9784 8.7989 15.0244C8.86719 15.1207 8.93612 15.2164 9.0019 15.3146C9.03715 15.3671 9.07177 15.42 9.10513 15.4741C9.12842 15.5116 9.14888 15.5519 9.17406 15.5881C9.27037 15.7269 9.2285 15.9254 9.08971 16.0189C8.94776 16.114 8.75515 16.0734 8.65884 15.9346C8.61855 15.876 8.58457 15.8121 8.54711 15.7517C8.50746 15.6878 8.46465 15.6252 8.42122 15.5641C8.32334 15.4263 8.22294 15.2916 8.12034 15.1572C8.08257 15.1131 8.04449 15.0688 8.0064 15.0244C7.96738 14.9787 7.93055 14.9296 7.88869 14.8872C7.80403 14.8022 7.71968 14.7169 7.63502 14.6319C7.53997 14.5472 7.44461 14.4626 7.34956 14.3782C7.27056 14.308 7.18401 14.2454 7.10061 14.1803C6.97786 14.095 6.85669 14.0091 6.72891 13.9319C6.65337 13.8904 6.57627 13.8529 6.49664 13.8193C6.44471 13.8004 6.39278 13.7831 6.33959 13.768C6.29678 13.7585 6.25461 13.7507 6.21086 13.7441C6.2244 13.7456 6.23793 13.7469 6.25115 13.7488C6.21622 13.7434 6.18097 13.7406 6.1454 13.7396C6.13155 13.7403 6.11739 13.7415 6.10354 13.7431C6.08591 13.7459 6.06829 13.7497 6.05098 13.7538C6.03745 13.7582 6.02423 13.7629 6.01069 13.7673C6.01699 13.7648 6.02297 13.762 6.02926 13.7595C6.03178 13.7588 6.0343 13.7579 6.03713 13.7573C6.03461 13.7579 6.03241 13.7585 6.02989 13.7592C6.03587 13.7566 6.04154 13.7541 6.04752 13.7516C6.04059 13.7541 6.03367 13.757 6.02706 13.7598C6.0129 13.7658 5.99842 13.7724 5.98489 13.7799C5.96978 13.7894 5.95499 13.7991 5.94051 13.8095C5.91061 13.8341 5.88229 13.8592 5.85427 13.8857C5.8291 13.9131 5.80486 13.9408 5.78157 13.9697C5.74947 14.015 5.71894 14.0613 5.6903 14.1088C5.66544 14.1554 5.64246 14.2023 5.62137 14.2508C5.60312 14.2999 5.58707 14.3496 5.57291 14.4003C5.56504 14.4361 5.55842 14.472 5.55276 14.5085C5.54961 14.5501 5.54772 14.5907 5.54741 14.6322C5.54961 14.6794 5.55307 14.726 5.55811 14.7729C5.5707 14.8459 5.58675 14.9177 5.60563 14.9891C5.62483 15.0518 5.64592 15.1131 5.66984 15.1742C5.6988 15.24 5.73058 15.3045 5.7652 15.3677C5.81115 15.4433 5.8612 15.5157 5.91376 15.5868C5.96537 15.6482 6.01793 15.707 6.07396 15.7643C6.10134 15.7898 6.12903 15.815 6.15704 15.8398C6.28419 15.9513 6.29804 16.1502 6.18631 16.2779C6.12588 16.3472 6.0387 16.3828 5.95152 16.3828C5.87882 16.3831 5.8058 16.3582 5.74821 16.3075Z" fill="#4169E3"/>
<path d="M15.9233 23.0924C15.5125 22.9886 15.2305 22.6524 15.0367 22.2943C14.7912 21.8411 14.7169 21.3129 14.6753 20.8056C14.6687 20.7266 14.6687 20.6467 14.669 20.5673C14.6697 20.4399 14.693 20.2948 14.8141 20.2233C14.8972 20.1742 14.9891 20.155 15.0829 20.1859C15.177 20.2164 15.245 20.2879 15.2803 20.3788C15.3017 20.4336 15.3039 20.4915 15.291 20.5459C15.2897 20.5765 15.2891 20.6067 15.2891 20.6372C15.2966 20.8021 15.313 20.9648 15.3322 21.1291C15.3567 21.2764 15.3813 21.4228 15.4184 21.5676C15.4467 21.6667 15.4798 21.7639 15.5176 21.8599C15.5516 21.9377 15.589 22.0129 15.6305 22.0869C15.663 22.1385 15.6966 22.1882 15.7332 22.237C15.7605 22.27 15.7889 22.3018 15.8184 22.3333C15.8461 22.3591 15.8741 22.3837 15.9037 22.4076C15.922 22.4208 15.9409 22.4334 15.9601 22.445C15.979 22.4551 15.9985 22.4645 16.0183 22.473C16.0051 22.468 15.9922 22.4627 15.9793 22.4573C16.0104 22.4708 16.0422 22.4822 16.0746 22.4916C16.0614 22.4881 16.0479 22.4847 16.0347 22.4815C16.0633 22.4897 16.0926 22.4966 16.1222 22.501C16.1552 22.5042 16.1879 22.5058 16.2213 22.5061C16.2408 22.5051 16.2606 22.5032 16.2802 22.501C16.3085 22.496 16.3365 22.49 16.3645 22.4831C16.3887 22.4759 16.413 22.4674 16.4369 22.4582C16.4743 22.4416 16.5109 22.4236 16.547 22.4044C16.5864 22.3799 16.6245 22.3541 16.6616 22.3267C16.7032 22.2927 16.7425 22.2574 16.7809 22.2203C16.8218 22.1769 16.8605 22.1322 16.8977 22.0859C16.9461 22.0198 16.9905 21.9522 17.0324 21.8813C17.1025 21.7529 17.1589 21.6207 17.2136 21.4857C17.3181 21.1968 17.416 20.9063 17.4938 20.6089C17.5152 20.5176 17.5344 20.4263 17.5501 20.3338C17.5781 20.1673 17.7468 20.054 17.9114 20.0842C18.0795 20.1151 18.189 20.2787 18.161 20.4455C18.1069 20.7659 18.0124 21.0797 17.9073 21.3866C17.8503 21.5528 17.7887 21.7164 17.7229 21.8791C17.5806 22.2307 17.3597 22.5586 17.0645 22.7991C16.8193 22.9986 16.5109 23.1267 16.1967 23.1267C16.1052 23.1261 16.0136 23.1154 15.9233 23.0924Z" fill="#4169E3"/>
</svg>
