<svg width="82" height="62" viewBox="0 0 82 62" fill="none" xmlns="http://www.w3.org/2000/svg">
<path d="M55.3919 17.7072C55.731 18.1613 54.5356 17.3444 54.4838 17.7072C54.3026 18.9735 54.387 18.6714 53.2892 19.6879C52.2639 20.6373 50.5118 20.7236 49.2038 20.7009C46.7002 20.6578 42.8074 19.6457 43.754 16.4548C43.8371 16.1747 43.4471 15.9231 43.2464 16.1597C40.4264 19.4818 46.1345 21.633 48.5404 21.905C50.3279 22.1071 52.5259 21.8986 53.9911 20.7531C55.2569 19.7647 56.6291 19.0248 55.3919 17.7072Z" fill="#021A1F"/>
<path d="M47.6607 15.9158C47.484 15.4695 47.2725 15.0464 47.1494 14.5801C47.0164 14.0761 47.2316 13.499 46.9342 13.0591C46.768 12.8134 46.4715 12.7812 46.2486 12.971C45.7664 13.381 45.9485 14.1474 46.0856 14.6909C46.2359 15.287 46.5546 15.8627 46.9406 16.3354C47.2075 16.6632 47.8173 16.3117 47.6607 15.9158Z" fill="#021A1F"/>
<path d="M50.9382 12.1637C50.8125 11.9322 50.5414 11.85 50.2971 11.9026C49.6506 12.0429 49.4472 12.8797 49.311 13.4287C49.1094 14.2418 49.0313 15.1567 49.2238 15.9767C49.3401 16.472 50.0974 16.3549 50.0974 15.8586C50.0974 15.0732 50.2277 14.3195 50.4833 13.5762C50.6327 13.1403 51.2002 12.6473 50.9382 12.1637Z" fill="#021A1F"/>
<path d="M75.9632 38.8986C71.481 38.4691 66.7604 38.2425 62.1052 37.6659C61.9358 37.3558 61.5299 37.3617 61.3251 37.5664C59.1989 37.2836 57.0927 36.9136 55.03 36.4168C53.5975 32.5862 51.9557 28.8136 50.3907 25.0365C50.3866 25.027 50.3802 25.022 50.3757 25.0129C52.9446 24.6574 55.4382 23.6199 57.2121 22.1648C61.0264 19.0356 61.015 15.2748 59.0473 12.1515C59.1481 12.1252 59.2461 12.0875 59.351 12.0117C59.4291 11.9554 59.4922 11.8827 59.5635 11.8187C59.6189 11.9082 59.7052 11.9863 59.8405 12.0294C62.3785 12.8426 63.0101 15.9123 63.2325 18.2655C63.2589 18.5434 63.4496 18.7927 63.7538 18.7868C70.671 18.6465 72.3622 8.03935 67.5881 4.10425C63.8836 1.05088 54.1969 2.19686 56.931 8.63141C57.0836 8.991 57.6266 8.72722 57.5408 8.37443C56.1637 2.7181 63.974 2.60868 67.0927 5.18532C70.8934 8.32495 69.3951 17.1205 64.2164 17.7112C63.9122 15.1409 63.0055 11.599 60.1429 11.0982C60.2173 10.9447 60.2741 10.7822 60.3004 10.6137C60.403 9.95629 60.1447 9.31337 59.6543 8.86979C59.2257 8.48204 58.6314 8.26637 58.0607 8.42892C57.4246 8.61053 57.1549 9.24073 57.1231 9.84777C53.1499 6.1079 46.363 4.23002 41.7046 7.6003C41.6147 7.33969 41.4049 7.09816 41.1552 6.89839C41.9498 2.5592 37.5216 -2.05787 33.3758 0.976426C31.1756 2.58688 30.6294 5.96852 30.8782 8.48658C31.1851 11.5917 33.3545 13.9931 35.9479 15.495C36.3765 15.7434 36.9436 15.3352 36.7942 14.8444C36.1332 12.6741 36.4383 10.0035 38.797 9.00918C38.8002 9.00781 38.8015 9.00555 38.8047 9.00419C39.0167 9.18943 39.2724 9.30566 39.5507 9.36151C36.8015 12.0762 39.0335 18.9207 40.7339 21.4787C41.7141 22.9539 43.0867 23.9219 44.6408 24.4976C43.7219 25.5514 43.0962 27.007 42.4011 28.178C41.7368 29.2967 41.0231 30.7482 40.4061 31.7689C39.1766 31.4384 37.7986 31.3812 36.6435 31.2813C34.451 31.0915 32.0183 31.1074 29.9615 30.208C29.9815 29.995 29.9792 29.7798 29.9515 29.5655C29.9043 29.1936 29.7826 28.8232 29.6119 28.4745C29.6428 28.4817 29.6732 28.4935 29.7041 28.4926C30.5931 28.4631 31.0639 27.3861 31.1088 26.6047C31.1561 25.7888 30.5477 25.0465 29.947 24.5775C29.0421 23.871 27.3172 23.0034 25.9188 23.0102C27.1974 22.2469 28.3088 21.2417 29.1324 19.8624C30.747 17.1581 29.8707 13.1758 27.9783 10.8566C23.8189 5.76011 15.7299 4.67906 10.9389 9.58398C5.42333 15.2312 10.5344 24.7287 17.2041 25.3784C17.1927 25.4106 17.1859 25.447 17.1878 25.4878C17.2168 26.1784 17.1346 26.8622 17.0152 27.5414C16.9698 27.8007 16.8658 28.0745 16.7955 28.3469C13.5596 28.1203 10.2737 28.1752 7.07328 28.5698C6.95704 28.5149 6.8231 28.4758 6.65965 28.4658C6.5139 28.4567 6.36997 28.5485 6.27962 28.6742C4.41082 28.9385 2.57472 29.3126 0.802631 29.8143C0.384013 29.9328 0.160629 30.439 0.393547 30.82C2.75996 34.6852 5.98223 38.5136 9.83652 41.0017C9.85604 42.1368 12.78 42.7084 13.5337 42.9358C13.9119 43.0498 14.3124 43.1497 14.7205 43.2396C14.4713 45.2646 14.2711 47.2818 13.6272 49.226C13.4869 49.6492 13.8511 49.9638 14.2261 50.0124C14.336 50.0269 14.4513 50.0414 14.5621 50.056C14.4272 50.1572 14.2938 50.2571 14.1485 50.3729C12.3251 51.8253 10.2978 52.4274 8.06125 52.8896C7.12412 53.083 6.21152 53.2428 5.31298 53.2442C4.8871 50.6648 3.39834 48.2149 0.470739 48.9468C0.191963 49.0162 0.00670549 49.2832 0.0012571 49.5629C-0.055951 52.6653 1.84373 54.2567 4.81628 54.5668C6.98564 54.7929 9.47237 53.9552 11.4774 53.2628C13.3475 52.6172 14.4922 51.3332 15.9623 50.2349C18.6034 50.5677 21.5056 50.8682 24.2452 50.6943C24.6262 54.1114 24.8141 57.4653 24.7687 60.9128C24.7651 61.2057 24.9676 61.4372 25.2355 61.5262C26.7106 62.0134 29.9079 61.5267 30.3188 59.6955C30.4841 58.9582 29.6736 58.2077 29.0148 58.0574C27.7921 57.7791 26.8137 58.1514 25.9819 58.9178C25.8788 56.1395 25.6396 53.3232 24.9889 50.6371C26.1317 50.5255 27.2382 50.3234 28.2743 49.9938C30.1894 49.3849 29.4711 47.1547 28.7392 45.7345C30.2657 45.8993 31.7917 46.0746 33.3127 46.3088C34.12 46.4332 34.9064 46.5931 35.6841 46.7692C34.4532 49.784 33.0131 52.4923 37.1329 53.8213C38.372 54.2208 39.6905 54.505 41.0245 54.7525C40.5704 55.8989 40.5722 57.2211 40.4601 58.4869C39.2401 57.9639 37.5157 57.78 36.9241 58.7884C35.8394 60.6386 40.1977 60.7203 40.8823 60.7057C41.1638 60.6998 41.4453 60.5128 41.5112 60.2272C41.5393 60.1055 41.552 59.9834 41.5725 59.8617C41.6855 59.7273 41.7155 59.5266 41.6483 59.3523C41.7959 57.8685 41.5625 56.3643 41.908 54.9118C43.311 55.1561 44.7176 55.3759 46.0565 55.6533C46.328 55.7096 46.6004 55.7614 46.8728 55.8145C46.6735 57.207 46.4674 58.6708 46.5464 60.091C46.5287 60.1886 46.5364 60.2871 46.5623 60.3802C46.5823 60.6145 46.61 60.8474 46.6481 61.0785C46.6794 61.267 46.8906 61.4822 47.0808 61.5112C48.1223 61.6688 51.7868 61.8545 50.6958 59.7051C50.2032 58.7348 48.7589 58.5909 47.6956 59.0127C47.6742 57.9947 47.7223 56.98 47.6261 55.957C50.511 56.4823 53.4214 56.7916 56.3603 56.5818C56.7708 56.5523 57.124 56.1836 56.9919 55.7523C56.6672 54.6907 56.5002 53.0067 55.7683 51.9997C58.8303 52.268 61.9849 52.1827 64.9697 52.8751C65.5127 53.0008 66.1066 53.1693 66.734 53.3564C66.8312 53.5053 67.0246 53.5775 67.1872 53.4926C71.7684 54.8814 77.9064 56.9791 79.9645 51.6456C81.7957 46.8996 82.5702 39.5311 75.9632 38.8986ZM3.45191 51.3613C3.78925 51.8816 3.95362 52.5059 4.0635 53.1257C3.58177 53.0317 3.1023 52.8787 2.62375 52.6367C0.682306 50.8569 0.95836 50.4315 3.45191 51.3613ZM27.8262 60.1745C27.3281 60.3498 26.7801 60.4474 26.2475 60.4165C27.1315 59.6688 29.9588 59.4258 27.8262 60.1745ZM49.4981 60.2476C49.5289 60.2658 49.5453 60.2703 49.5648 60.2772C49.5498 60.2785 49.5376 60.2776 49.5176 60.2853C49.064 60.4719 48.5069 60.452 47.9889 60.3929C48.4606 60.1319 48.9283 59.9121 49.4981 60.2476ZM57.6552 10.0843C57.7596 9.72291 57.9213 9.32471 58.284 9.23935C58.497 9.18986 58.8311 9.36196 59.0391 9.56264C59.2775 9.79329 59.4064 10.1265 59.3515 10.414C59.312 10.6214 59.2071 10.7958 59.065 10.9533C58.9787 11.0487 58.8797 11.1336 58.7776 11.2112C58.6877 11.2793 58.6209 11.3565 58.5574 11.4351C58.2477 11.0223 57.8981 10.6269 57.5254 10.2446C57.5835 10.2142 57.6321 10.1638 57.6552 10.0843ZM38.5736 7.06455C38.3761 7.33742 38.308 7.66932 38.3307 7.99714C36.0165 9.05503 35.1334 11.3606 35.394 13.7261C32.1068 11.1735 30.9168 6.95331 33.098 3.04546C34.1509 1.1594 36.2376 0.74079 38.0637 1.67019C39.8848 2.59733 40.5645 4.64864 40.6049 6.55512C40.4438 6.4802 40.2857 6.42572 40.1464 6.40029C39.5116 6.28315 38.9445 6.55149 38.5736 7.06455ZM39.33 8.27592C39.2006 8.05662 39.2546 7.81415 39.3954 7.59803C39.4971 7.4423 39.75 7.34514 39.9874 7.40008C40.4183 7.49815 40.6581 7.93537 41.0122 8.16557C40.9355 8.23322 40.8542 8.28999 40.7793 8.36127C40.693 8.443 40.6453 8.53063 40.6158 8.62007C40.4696 8.68409 40.3507 8.77261 40.2199 8.85025C39.8712 8.74673 39.4998 8.56423 39.33 8.27592ZM42.4951 21.619C39.7078 19.1228 38.0287 12.1611 41.0717 9.38739C41.2637 9.4455 41.4812 9.42644 41.6728 9.25481C48.2286 3.38236 62.9211 10.7141 57.6293 19.7098C54.7807 24.5521 46.471 25.18 42.4951 21.619ZM42.8161 29.9655C43.7309 28.276 44.6708 26.5266 45.4467 24.765C46.7621 25.1232 48.18 25.2163 49.5948 25.0992C49.5902 25.1468 49.5889 25.1972 49.6016 25.254C50.4325 28.9798 52.1778 32.4813 53.5635 36.0364C51.5576 35.4815 49.6002 34.7928 47.7264 33.902C47.6897 33.8847 47.6547 33.8852 47.6184 33.8747C47.7341 32.948 47.2665 32.0745 46.5319 31.5074C45.8122 30.9517 44.8338 30.9585 43.9911 31.2627C42.9691 31.0334 42.2812 31.571 41.9234 32.3991C41.8117 32.3283 41.6892 32.272 41.5698 32.2107C42.1477 31.5642 42.5704 30.4195 42.8161 29.9655ZM45.9984 34.6461C45.5298 35.353 44.1264 36.4146 43.3091 35.6482C42.6572 35.037 42.4365 33.3739 42.9119 32.39C43.024 32.6729 43.3119 32.899 43.6197 32.7709C44.3925 32.4509 45.1171 32.1013 45.8967 32.593C46.644 33.0652 46.3916 34.0527 45.9984 34.6461ZM28.6816 25.0342C29.171 25.3416 29.72 25.7843 29.9079 26.3518C30.1127 26.9698 29.4484 27.3934 29.3068 27.9528C28.9513 27.4511 28.4759 27.042 27.9288 26.829C27.9174 26.7755 27.8802 26.7301 27.8126 26.7378C27.769 26.7432 27.729 26.7473 27.6868 26.7519C27.2473 26.6315 26.7715 26.6338 26.2802 26.8136C26.1635 26.8563 26.0791 26.9339 26.0119 27.0225C25.6541 25.9505 25.4684 24.8463 25.2128 23.7521C26.4191 24.1153 27.5737 24.3387 28.6816 25.0342ZM28.6979 30.2897C28.5567 31.0833 27.8212 31.6154 26.9195 31.6014C26.0092 31.5877 25.9787 30.1598 26.0691 29.5505C26.1381 29.0865 26.3687 28.4826 26.7061 27.97C27.7204 27.9932 28.3906 28.4794 28.6693 29.5559C28.7043 29.6917 28.7197 29.822 28.7247 29.9482C28.658 30.049 28.638 30.1757 28.6979 30.2897ZM17.7903 25.4102C18.9099 25.4306 20.0636 25.2072 21.2128 24.6624C21.3263 24.716 21.457 24.7428 21.6127 24.7037C22.6484 24.4454 23.6504 24.1171 24.5939 23.6989C24.4146 24.9108 24.8541 26.2252 25.052 27.4052C25.1061 27.728 25.4062 27.8193 25.6677 27.7512C25.2677 28.2851 25.023 28.9308 24.9172 29.5837C24.9172 29.5846 24.9172 29.5855 24.9172 29.5855C24.8586 29.551 24.7996 29.5165 24.7202 29.4983C22.4822 28.9912 20.1517 28.6334 17.7871 28.4231C17.817 28.1539 17.8148 27.8751 17.8375 27.6531C17.9092 26.9353 17.9973 26.1139 17.7903 25.4102ZM12.3242 21.5232C10.1085 19.0124 9.45105 15.1032 10.849 12.0644C11.1614 11.386 11.5755 10.8062 12.054 10.3C12.1457 11.4618 12.6547 12.7912 13.4883 13.5018C13.7589 13.732 14.1525 13.4464 13.9823 13.1209C13.7253 12.6292 13.3934 12.1842 13.145 11.6848C12.8404 11.0714 12.7187 10.4176 12.6383 9.74606C13.1028 9.35923 13.6204 9.04141 14.1689 8.77534C14.3941 10.1538 14.4059 12.0176 15.5809 12.9574C15.8238 13.1518 16.1498 12.9157 16.0109 12.6251C15.6786 11.9313 15.3171 11.302 15.1128 10.5524C14.9335 9.8959 14.8359 9.22256 14.6393 8.56966C14.6384 8.56649 14.6366 8.56514 14.6356 8.56196C15.279 8.29635 15.9655 8.11608 16.6674 7.99303C16.6125 8.06432 16.5998 8.17331 16.6683 8.25821C16.8327 8.46025 16.8522 8.9188 16.9031 9.16489C17.0021 9.64616 17.0624 10.1356 17.1414 10.6201C17.2391 11.218 17.269 12.1729 17.8475 12.5257C18.1149 12.6887 18.3587 12.4221 18.3215 12.1615C18.2052 11.3452 17.8761 10.4957 17.6867 9.68524C17.5555 9.12405 17.4552 8.27907 16.9053 7.95172C16.8985 7.94718 16.8931 7.95126 16.8858 7.94809C17.5955 7.83866 18.3215 7.80645 19.0434 7.83006C18.9912 7.88954 18.9648 7.96852 19.0243 8.05932C19.4012 8.6314 19.5197 9.4396 19.6377 10.1016C19.724 10.5874 19.7122 11.1163 19.9696 11.549C20.1126 11.7892 20.4772 11.7388 20.5544 11.4727C20.7033 10.9606 20.499 10.3981 20.371 9.89953C20.1907 9.19714 19.9787 8.34992 19.4157 7.84594C19.9723 7.8809 20.5185 7.96536 21.0557 8.07251C21.0829 8.13063 21.1288 8.1792 21.21 8.19464C21.6818 8.28499 21.8134 9.58851 21.8797 9.95673C21.9546 10.3735 21.9206 10.9588 22.2529 11.2789C22.445 11.4637 22.8109 11.3243 22.8114 11.0709C22.8191 11.0342 22.8287 10.9842 22.8309 10.9697C22.8613 10.7881 22.8577 10.6346 22.8209 10.4544C22.7324 10.0208 22.6252 9.59123 22.4927 9.16943C22.4168 8.92925 22.3102 8.62142 22.158 8.34764C22.7465 8.52607 23.3145 8.73766 23.8307 9.00236C27.0843 10.6718 29.0094 14.2605 28.4568 17.8669C27.9955 20.8771 24.9558 22.3822 22.2797 23.2299C22.228 23.2322 22.173 23.244 22.1167 23.2681C22.0695 23.288 22.0227 23.3044 21.9755 23.3239C21.7422 23.3943 21.5111 23.4619 21.2868 23.5232C21.1737 23.5541 21.0915 23.6099 21.0243 23.6749C17.8034 24.7273 14.7482 24.2697 12.3242 21.5232ZM16.3982 29.8039C19.0811 29.9809 21.7526 30.3219 24.3705 30.7646C24.5794 30.8 24.7578 30.746 24.8954 30.6443C25.0298 31.743 25.6804 32.6843 26.919 32.8445C28.228 33.0134 29.2886 32.1912 29.7395 31.0951C30.9863 31.8189 32.4787 32.0704 33.9125 32.2443C36.5645 32.5657 39.0771 32.8976 41.6524 33.5705C41.5539 34.8368 41.9902 36.2534 42.9741 36.8404C44.451 37.7222 46.3575 36.391 47.1957 35.0007C51.6166 37.116 56.556 37.9283 61.4219 38.6707C61.7311 39.8725 61.7905 41.063 61.7106 42.248C61.6389 42.1386 61.5218 42.0568 61.346 42.0532C52.6463 41.8643 43.4717 40.0046 34.9713 38.248C29.8889 37.1978 24.9513 35.6109 19.9138 34.3823C18.0581 33.9301 16.2534 33.6041 14.4967 32.8536C14.3405 32.7864 14.2184 32.7424 14.1049 32.7115C15.4629 32.3669 16.4522 31.24 16.3982 29.8039ZM2.07619 30.8981C3.50003 30.5344 4.94204 30.2633 6.39494 30.0681C6.35953 31.4692 5.30391 33.003 4.13796 33.7435C3.40969 32.8232 2.71592 31.8779 2.07619 30.8981ZM9.83833 39.7626C9.85831 39.5397 9.61312 39.4734 9.45376 39.5646C7.82333 37.956 6.22923 36.287 4.76542 34.5176C5.87463 33.9215 6.70323 32.6774 7.17769 31.6027C7.34569 31.2218 7.56725 30.5471 7.6122 29.9201C10.1139 29.6577 12.6433 29.6232 15.1678 29.7398C15.2867 30.7773 14.5766 31.4025 13.0147 31.6036C12.4667 31.526 11.9087 32.1716 12.4168 32.6307C13.8497 33.9247 13.1546 35.9678 11.1314 35.897C10.5661 35.877 10.3986 36.5435 10.7083 36.9185C12.4363 39.0098 9.94503 38.5853 9.83833 39.7626ZM23.5524 49.2514C20.6743 49.3618 17.7857 49.1802 14.9262 48.8483C15.1859 47.0317 15.3521 45.2174 15.4375 43.3799C16.2216 43.5134 17.017 43.5897 17.7589 43.5642C17.7576 43.5629 17.7562 43.5606 17.7548 43.5588C17.7626 43.5588 17.7703 43.5583 17.778 43.5579C18.0895 44.8791 18.9117 46.2671 20.3823 46.3138C21.2795 46.342 22.0436 45.6882 22.6003 45.0339C24.228 45.2555 25.8602 45.4257 27.4925 45.5983C27.6196 46.372 27.9061 47.0584 28.1408 47.8049C28.658 49.4516 24.3156 49.2224 23.5524 49.2514ZM18.7201 42.8055C19.3848 42.4151 19.9156 42.0187 20.7288 41.9574C21.2618 41.9174 21.9869 42.0114 22.3038 42.4995C22.8232 43.2995 21.161 45.2114 20.2675 45.0816C19.5928 44.984 18.958 43.8693 18.7201 42.8055ZM42.5854 53.5761C40.8878 53.2051 39.1761 52.9332 37.4785 52.5691C34.584 51.9479 35.853 48.8936 36.3584 46.925C39.1239 47.6001 41.7582 48.5281 44.5314 49.3631C44.5532 49.3699 44.5709 49.3663 44.5913 49.3704C44.5478 50.8097 45.2174 52.3361 46.3957 53.1638C48.0688 54.3384 50.4002 52.7852 51.0082 51.1061C52.032 51.6292 53.385 51.7491 54.4511 51.8667C54.422 51.9947 54.4298 52.1318 54.4965 52.2567C54.9928 53.1861 55.2393 54.2626 55.509 55.3C51.1317 55.4435 46.8497 54.5082 42.5854 53.5761ZM46.3938 47.8757C46.4061 48.0814 46.5255 48.2721 46.7598 48.3574C47.1575 48.5023 47.5589 48.3738 47.9766 48.3969C48.4279 48.4224 48.911 48.6512 49.2615 48.9254C50.2218 49.6759 49.9303 50.7248 49.197 51.5166C48.4806 52.2903 47.5153 52.6113 46.7071 51.8226C45.8427 50.979 45.1566 48.4605 46.3938 47.8757ZM59.1122 51.028C57.139 50.9223 53.1775 51.2932 51.183 50.1849C51.2016 49.2891 50.7798 48.461 50.0284 47.8662C49.3555 47.3327 47.879 46.7543 46.9587 47.1633C45.918 46.9463 45.1207 47.4153 44.7748 48.3456C42.0565 46.3465 37.9529 45.8276 34.7361 45.2532C30.9463 44.5762 26.9168 44.0591 23.0611 44.4269C23.5792 43.6491 23.8725 42.7624 23.4035 41.8566C22.623 40.3488 20.2475 40.3701 18.7814 41.2137C18.904 40.988 19.0988 40.8414 19.3862 40.8255C19.6077 40.8132 19.6722 40.4823 19.4402 40.426C19.1687 40.361 19.0275 40.2543 18.721 40.3315C18.4086 40.4101 18.1884 40.6393 18.0055 40.8891C17.7126 41.2891 17.63 41.8262 17.6322 42.3406C16.7196 41.9851 15.4715 42.0541 14.5684 41.9002C13.6663 41.7463 12.7632 41.4489 11.8869 41.1914C11.5537 41.0934 11.0683 40.8237 10.6279 40.7115C10.4953 40.5844 10.3646 40.4532 10.2324 40.3251C10.4654 40.2988 10.6806 40.2448 10.7981 40.1835C11.9904 39.5615 12.4431 38.6248 12.2724 37.6214C15.3262 37.5783 18.4568 38.1403 21.5778 38.8963C22.4368 39.1533 23.3054 39.3685 24.178 39.5628C27.3222 40.4037 30.4332 41.3245 33.4231 41.9006C34.2017 42.0505 34.9822 42.1908 35.7622 42.3329C37.261 42.6412 38.7665 42.9186 40.283 43.1479C42.8165 43.6019 45.3469 44.0687 47.864 44.6235C51.8722 45.5066 55.8936 46.5454 59.9944 46.8782C60.0334 47.0426 60.2019 47.1738 60.403 47.1325C60.7022 47.0703 60.8203 46.88 60.8897 46.6526C60.8916 46.648 60.8929 46.6435 60.8943 46.6389C60.9379 46.4905 60.9624 46.327 61.001 46.1722C61.0182 46.1032 60.9946 46.055 60.9597 46.0178C61.0169 45.9597 61.0809 45.9061 61.1276 45.8421C60.7313 47.5769 60.2432 49.3114 59.978 51.0635C59.6888 51.0521 59.3969 51.0435 59.1122 51.028ZM60.4743 51.0834C61.539 47.0802 63.3329 42.9599 62.4407 38.8259C62.7735 38.8763 63.1077 38.9267 63.4391 38.978C64.882 42.6294 64.3168 47.636 62.6736 51.2024C61.9422 51.1393 61.2066 51.1102 60.4743 51.0834ZM64.8398 51.5443C64.7513 51.5234 64.6637 51.4984 64.5751 51.4776C64.1211 51.3722 63.6575 51.2991 63.1894 51.2446C64.8475 48.1336 66.2587 42.3896 64.4702 39.1397C64.8139 39.1946 65.1572 39.25 65.4991 39.3072C65.6262 39.3285 65.7479 39.3408 65.8741 39.3608C66.9397 43.4943 66.2282 47.5488 64.8398 51.5443ZM67.0859 52.1454C66.5138 51.9811 65.9409 51.8244 65.366 51.6764C66.4666 49.4984 67.016 46.9972 67.3374 44.6126C67.5272 43.206 67.7356 40.9354 66.9329 39.512C67.1849 39.546 67.4423 39.5901 67.6925 39.6205C68.8117 43.8602 68.7808 48.0564 67.0859 52.1454ZM79.7135 47.9425C79.5087 49.3009 79.0628 50.619 78.4721 51.8549C77.3371 54.2267 74.7872 53.8907 72.6746 53.5529C71.0455 53.2928 69.4551 52.8324 67.8659 52.3706C68.8094 50.4405 69.2843 48.2857 69.5586 46.1685C69.7901 44.3806 69.9786 41.4571 68.8503 39.7467C70.2196 39.8788 71.5895 39.9556 73.0297 39.9715C75.1518 39.9942 78.5471 39.8135 79.5686 42.3047C80.2578 43.9847 79.9745 46.2094 79.7135 47.9425Z" fill="#021A1F"/>
<path d="M27.5043 15.8787C27.3459 15.3897 26.4919 15.278 26.401 15.8787C26.0083 18.4726 24.7034 19.4714 22.1268 19.9836C19.9597 20.4145 17.3513 20.1303 15.4611 18.9516C15.0752 18.7109 14.6375 19.2726 14.9749 19.5822C17.0575 21.4951 20.2802 21.6204 22.9209 21.1491C25.275 20.7287 28.4142 18.6878 27.5043 15.8787Z" fill="#021A1F"/>
<path d="M23.3527 15.3601C23.0793 14.6976 22.515 14.259 21.7935 14.2254C21.482 14.2114 21.4716 14.6327 21.725 14.7317C22.1481 14.8974 22.3847 15.2924 22.4977 15.7137C22.6076 16.1224 22.3806 16.4861 22.4155 16.8911C22.4423 17.203 22.742 17.3978 23.0317 17.2447C23.6945 16.8938 23.5969 15.9517 23.3527 15.3601Z" fill="#021A1F"/>
<path d="M20.2667 17.8273C20.1164 17.0463 19.834 16.3149 19.37 15.667C19.0894 15.2752 18.4751 15.6134 18.7143 16.0502C19.0421 16.6482 19.2533 17.2756 19.3391 17.953C19.409 18.5042 19.1838 19.158 19.6374 19.5626C19.794 19.7024 20.0106 19.707 20.1668 19.5626C20.6367 19.1281 20.3743 18.388 20.2667 17.8273Z" fill="#021A1F"/>
</svg>
