<svg width="196" height="47" viewBox="0 0 196 47" fill="none" xmlns="http://www.w3.org/2000/svg">
<path d="M15.7085 22V1.23378H24.4035C26.7141 1.23378 28.4671 1.69193 29.6622 2.60824C30.8773 3.52454 31.4849 4.84919 31.4849 6.5822C31.4849 7.71762 31.1463 8.69368 30.469 9.51039C29.8116 10.3072 28.9651 10.835 27.9292 11.094C29.3635 11.4326 30.469 12.0203 31.2459 12.8569C32.0227 13.6935 32.4112 14.7692 32.4112 16.0839C32.4112 17.9962 31.7737 19.4602 30.4989 20.4761C29.2439 21.492 27.4512 22 25.1206 22H15.7085ZM20.1606 9.68967H23.8656C25.997 9.68967 27.0627 8.80324 27.0627 7.03039C27.0627 5.35715 25.997 4.52052 23.8656 4.52052H20.1606V9.68967ZM20.1606 18.7133H24.1943C25.3496 18.7133 26.2361 18.4742 26.8536 17.9962C27.4711 17.5181 27.7798 16.8309 27.7798 15.9345C27.7798 15.0381 27.4611 14.3409 26.8237 13.8429C26.2062 13.3449 25.2998 13.0959 24.1047 13.0959H20.1606V18.7133ZM53.1417 19.3706C51.1298 21.4024 48.5801 22.4183 45.4925 22.4183C42.405 22.4183 39.8553 21.4024 37.8434 19.3706C35.8315 17.3388 34.8256 14.7592 34.8256 11.6318C34.8256 8.50445 35.8315 5.92486 37.8434 3.89305C39.8553 1.84133 42.405 0.815469 45.4925 0.815469C48.5801 0.815469 51.1298 1.84133 53.1417 3.89305C55.1535 5.92486 56.1595 8.50445 56.1595 11.6318C56.1595 14.7592 55.1535 17.3388 53.1417 19.3706ZM45.4925 18.3547C47.2654 18.3547 48.7095 17.7372 49.825 16.5022C50.9405 15.2672 51.4983 13.6437 51.4983 11.6318C51.4983 9.61995 50.9405 7.9965 49.825 6.76148C48.7095 5.50654 47.2654 4.87907 45.4925 4.87907C43.7396 4.87907 42.3054 5.50654 41.1899 6.76148C40.0744 7.9965 39.5166 9.61995 39.5166 11.6318C39.5166 13.6437 40.0744 15.2672 41.1899 16.5022C42.3054 17.7372 43.7396 18.3547 45.4925 18.3547ZM74.8047 20.1774C73.2709 21.6713 71.0598 22.4183 68.1715 22.4183C65.2831 22.4183 63.0621 21.6614 61.5084 20.1475C59.9746 18.6336 59.2077 16.4823 59.2077 13.6935V1.23378H63.6597V13.1856C63.6597 14.8588 64.0382 16.1436 64.7951 17.04C65.572 17.9165 66.6974 18.3547 68.1715 18.3547C69.6256 18.3547 70.7411 17.9165 71.518 17.04C72.2949 16.1436 72.6833 14.8588 72.6833 13.1856V1.23378H77.1353V13.6935C77.1353 16.5022 76.3585 18.6635 74.8047 20.1774ZM81.1866 22V1.23378H85.6386V17.9364H95.1104V22H81.1866ZM97.5852 22V1.23378H112.525V5.08823H102.037V9.60003H110.613V13.4545H102.037V18.1456H112.674V22H97.5852ZM120.69 22L113.608 1.23378H118.27L123.678 17.4882L128.907 1.23378H133.568L126.486 22H120.69ZM147.717 22L145.984 17.0101H138.066L136.393 22H131.731L139.141 1.23378H144.968L152.378 22H147.717ZM139.231 13.5142H144.759L141.95 5.41691L139.231 13.5142ZM171.335 17.9065C171.634 17.9065 171.883 17.8766 172.082 17.8169V21.9402C171.724 22.0598 171.295 22.1195 170.797 22.1195C168.905 22.1195 167.311 21.6713 166.017 20.7749C164.742 19.8586 163.547 18.1456 162.431 15.6357L161.804 14.3509H158.995V22H154.543V1.23378H163.865C166.116 1.23378 167.929 1.82141 169.303 2.99667C170.678 4.17193 171.365 5.78542 171.365 7.83714C171.365 9.41079 170.937 10.7056 170.08 11.7215C169.224 12.7374 168.019 13.4047 166.465 13.7234C167.321 15.3568 168.128 16.4623 168.885 17.04C169.642 17.6177 170.459 17.9065 171.335 17.9065ZM158.995 5.08823V10.5263H163.387C165.598 10.5263 166.704 9.61995 166.704 7.80726C166.704 5.99457 165.578 5.08823 163.327 5.08823H158.995ZM175.056 22V1.23378H183.243C185.135 1.23378 186.878 1.62221 188.472 2.39908C190.065 3.15603 191.38 4.34124 192.416 5.95474C193.452 7.56823 193.97 9.46059 193.97 11.6318C193.97 13.8031 193.452 15.6954 192.416 17.3089C191.38 18.9025 190.065 20.0877 188.472 20.8646C186.878 21.6215 185.135 22 183.243 22H175.056ZM179.508 17.9364H182.765C184.637 17.9364 186.201 17.4284 187.456 16.4125C188.711 15.3767 189.338 13.7732 189.338 11.602C189.338 9.45063 188.711 7.86702 187.456 6.85112C186.201 5.8153 184.637 5.29739 182.765 5.29739H179.508V17.9364ZM23.537 46.4183C20.7482 46.4183 18.567 45.8307 16.9934 44.6554C15.4197 43.4602 14.6329 41.9165 14.6329 40.0241C14.6329 39.2074 14.7723 38.3608 15.0512 37.4844L19.324 38.4704C19.1646 38.8688 19.0849 39.3269 19.0849 39.8448C19.0849 40.7412 19.4933 41.4583 20.31 41.9962C21.1466 42.5141 22.2521 42.773 23.6266 42.773C24.8616 42.773 25.8377 42.5439 26.5548 42.0858C27.2719 41.6077 27.6304 40.9603 27.6304 40.1436C27.6304 38.8887 26.6942 38.0819 24.8218 37.7234L22.0729 37.2453C19.6626 36.827 17.8997 36.1099 16.7842 35.094C15.6886 34.0781 15.1408 32.7335 15.1408 31.0603C15.1408 29.2675 15.8579 27.7835 17.2922 26.6082C18.7463 25.4131 20.6685 24.8155 23.0589 24.8155C25.7879 24.8155 27.8695 25.423 29.3037 26.6381C30.7379 27.8333 31.5347 29.5663 31.6941 31.8371L27.3018 32.375C26.9831 29.7655 25.519 28.4608 22.9095 28.4608C21.9334 28.4608 21.1366 28.6799 20.5191 29.1181C19.9016 29.5364 19.5929 30.1041 19.5929 30.8212C19.5929 32.0961 20.6785 32.9327 22.8497 33.3311L25.5986 33.8092C27.8695 34.2076 29.5128 34.8948 30.5288 35.8709C31.5447 36.8469 32.0526 38.1317 32.0526 39.7253C32.0526 41.7372 31.2658 43.3606 29.6921 44.5957C28.1384 45.8108 26.0867 46.4183 23.537 46.4183ZM44.5782 46.4183C41.5703 46.4183 39.1102 45.4223 37.1979 43.4304C35.2857 41.4185 34.3295 38.819 34.3295 35.6318C34.3295 32.5044 35.3056 29.9249 37.2577 27.8931C39.2297 25.8413 41.7297 24.8155 44.7574 24.8155C47.2872 24.8155 49.3688 25.5326 51.0022 26.9668C52.6357 28.3811 53.7412 30.4029 54.3189 33.0323L49.9266 34.1677C49.09 30.642 47.3072 28.8791 44.5782 28.8791C42.9448 28.8791 41.6002 29.5065 40.5444 30.7615C39.5086 32.0164 38.9907 33.6399 38.9907 35.6318C38.9907 37.6238 39.5186 39.2472 40.5743 40.5022C41.6301 41.7372 42.9946 42.3547 44.6678 42.3547C47.357 42.3547 49.09 40.9305 49.8668 38.0819L54.4683 38.8289C53.1536 43.8885 49.8569 46.4183 44.5782 46.4183ZM57.5223 46V25.2338H61.9743V33.4208H71.2071V25.2338H75.6591V46H71.2071V37.4844H61.9743V46H57.5223ZM97.2897 43.3706C95.2778 45.4024 92.7281 46.4183 89.6406 46.4183C86.553 46.4183 84.0033 45.4024 81.9914 43.3706C79.9796 41.3388 78.9736 38.7592 78.9736 35.6318C78.9736 32.5044 79.9796 29.9249 81.9914 27.8931C84.0033 25.8413 86.553 24.8155 89.6406 24.8155C92.7281 24.8155 95.2778 25.8413 97.2897 27.8931C99.3016 29.9249 100.308 32.5044 100.308 35.6318C100.308 38.7592 99.3016 41.3388 97.2897 43.3706ZM89.6406 42.3547C91.4134 42.3547 92.8576 41.7372 93.9731 40.5022C95.0886 39.2672 95.6463 37.6437 95.6463 35.6318C95.6463 33.6199 95.0886 31.9965 93.9731 30.7615C92.8576 29.5065 91.4134 28.8791 89.6406 28.8791C87.8877 28.8791 86.4534 29.5065 85.3379 30.7615C84.2224 31.9965 83.6647 33.6199 83.6647 35.6318C83.6647 37.6437 84.2224 39.2672 85.3379 40.5022C86.4534 41.7372 87.8877 42.3547 89.6406 42.3547ZM120.925 43.3706C118.913 45.4024 116.363 46.4183 113.276 46.4183C110.188 46.4183 107.638 45.4024 105.627 43.3706C103.615 41.3388 102.609 38.7592 102.609 35.6318C102.609 32.5044 103.615 29.9249 105.627 27.8931C107.638 25.8413 110.188 24.8155 113.276 24.8155C116.363 24.8155 118.913 25.8413 120.925 27.8931C122.937 29.9249 123.943 32.5044 123.943 35.6318C123.943 38.7592 122.937 41.3388 120.925 43.3706ZM113.276 42.3547C115.049 42.3547 116.493 41.7372 117.608 40.5022C118.724 39.2672 119.281 37.6437 119.281 35.6318C119.281 33.6199 118.724 31.9965 117.608 30.7615C116.493 29.5065 115.049 28.8791 113.276 28.8791C111.523 28.8791 110.089 29.5065 108.973 30.7615C107.858 31.9965 107.3 33.6199 107.3 35.6318C107.3 37.6437 107.858 39.2672 108.973 40.5022C110.089 41.7372 111.523 42.3547 113.276 42.3547ZM127.29 46V25.2338H131.742V41.9364H141.213V46H127.29Z" fill="white"/>
<path d="M149.527 40V32.7429H154.748V34.0899H151.083V35.6667H154.08V37.0136H151.083V38.653H154.8V40H149.527ZM158.677 40.1462C157.703 40.1462 156.94 39.9408 156.39 39.5301C155.84 39.1124 155.565 38.573 155.565 37.9116C155.565 37.6262 155.614 37.3304 155.712 37.0241L157.205 37.3687C157.149 37.5079 157.121 37.668 157.121 37.849C157.121 38.1622 157.264 38.4128 157.549 38.6008C157.842 38.7818 158.228 38.8723 158.708 38.8723C159.14 38.8723 159.481 38.7922 159.732 38.6321C159.982 38.4651 160.108 38.2388 160.108 37.9534C160.108 37.5149 159.78 37.2329 159.126 37.1076L158.165 36.9406C157.323 36.7944 156.707 36.5438 156.317 36.1887C155.934 35.8337 155.743 35.3638 155.743 34.7791C155.743 34.1526 155.994 33.634 156.495 33.2233C157.003 32.8056 157.675 32.5968 158.51 32.5968C159.464 32.5968 160.191 32.8091 160.692 33.2337C161.194 33.6514 161.472 34.257 161.528 35.0506L159.993 35.2385C159.881 34.3266 159.37 33.8707 158.458 33.8707C158.117 33.8707 157.838 33.9472 157.622 34.1004C157.407 34.2466 157.299 34.445 157.299 34.6956C157.299 35.1411 157.678 35.4335 158.437 35.5727L159.398 35.7397C160.191 35.879 160.765 36.1191 161.12 36.4602C161.476 36.8013 161.653 37.2503 161.653 37.8072C161.653 38.5103 161.378 39.0776 160.828 39.5092C160.285 39.9339 159.568 40.1462 158.677 40.1462ZM164.342 40V34.163H162.108V32.7429H168.122V34.163H165.898V40H164.342ZM172.348 40V34.8209C172.014 35.0784 171.506 35.2072 170.823 35.2072V33.7767C171.902 33.8115 172.442 33.4669 172.442 32.7429H173.893V40H172.348ZM177.839 40.1462C177.011 40.1462 176.363 39.9548 175.897 39.5719C175.437 39.1821 175.169 38.6321 175.093 37.9221L176.565 37.6819C176.697 38.4616 177.119 38.8514 177.829 38.8514C178.316 38.8514 178.706 38.6286 178.998 38.1831C179.297 37.7376 179.44 37.1215 179.426 36.3349C179.078 37.0519 178.483 37.4104 177.641 37.4104C176.91 37.4104 176.304 37.2016 175.824 36.7839C175.35 36.3593 175.114 35.7885 175.114 35.0715C175.114 34.3336 175.375 33.7384 175.897 33.2859C176.426 32.8265 177.108 32.5968 177.943 32.5968C178.876 32.5968 179.611 32.917 180.147 33.5574C180.69 34.1909 180.961 35.0575 180.961 36.1574C180.961 37.3687 180.676 38.3363 180.105 39.0602C179.541 39.7842 178.786 40.1462 177.839 40.1462ZM177.025 35.865C177.268 36.0878 177.578 36.1992 177.954 36.1992C178.33 36.1992 178.636 36.0878 178.873 35.865C179.116 35.6353 179.238 35.3464 179.238 34.9984C179.238 34.6573 179.116 34.3753 178.873 34.1526C178.636 33.9298 178.33 33.8185 177.954 33.8185C177.585 33.8185 177.279 33.9333 177.035 34.163C176.791 34.3858 176.67 34.6677 176.67 35.0088C176.67 35.3569 176.788 35.6423 177.025 35.865ZM182.774 40C182.837 37.7585 183.616 35.792 185.113 34.1004H181.427V32.7429H186.606V34.1421C185.861 35.1167 185.301 36.0739 184.925 37.0136C184.549 37.9464 184.351 38.9419 184.33 40H182.774ZM190.106 40V38.4651H186.755V36.9197C187.402 36.3419 187.941 35.698 188.373 34.9879C188.805 34.2709 189.076 33.5226 189.188 32.7429H190.775C190.635 33.6201 190.336 34.445 189.877 35.2177C189.424 35.9834 188.888 36.6029 188.269 37.0763H190.106V35.7711H191.589V37.0763H192.445V38.4651H191.589V40H190.106Z" fill="#FE3B49"/>
<path d="M12 42.5489L3.00793 42.5489L3.00793 45.9913L0.820229 45.9913L0.820228 36.7257L3.00793 36.7257L3.00793 40.152L12 40.152L12 42.5489ZM12 35.2263L0.820228 35.2263L0.820228 32.8295L5.22779 32.8295L5.22779 27.859L0.820228 27.859L0.820228 25.4621L12 25.4621L12 27.859L7.41549 27.859L7.41549 32.8295L12 32.8295L12 35.2263ZM12 23.1147L0.820228 23.1147L0.820227 15.0717L2.89532 15.0717L2.89532 20.7179L5.32431 20.7179L5.32431 16.1012L7.3994 16.1012L7.3994 20.7179L9.9249 20.7179L9.9249 14.9913L12 14.9913L12 23.1147Z" fill="#4169E3"/>
</svg>
