<svg width="39" height="22" viewBox="0 0 39 22" fill="none" xmlns="http://www.w3.org/2000/svg">
<path d="M12.125 20C12.025 20.1 11.8333 20.2167 11.55 20.35C11.2667 20.4833 11.0333 20.5667 10.85 20.6C9.96667 18.5833 9.16667 16.9417 8.45 15.675C7.75 14.3917 6.93333 13.1167 6 11.85C5.46667 12.0833 4.91667 12.3 4.35 12.5C3.8 12.6833 3.23333 12.85 2.65 13C2.6 14.3333 2.54167 15.5833 2.475 16.75C2.40833 17.9167 2.325 19.0417 2.225 20.125C2.05833 20.1583 1.85 20.1667 1.6 20.15C1.35 20.15 1.16667 20.125 1.05 20.075C1.15 18.1083 1.20833 16.7667 1.225 16.05C1.25833 15.3167 1.275 14.5667 1.275 13.8C1.275 10.8833 1.23333 8.73333 1.15 7.35C1.08333 5.95 0.941667 4.275 0.725 2.325C1.44167 1.825 2.25 1.44167 3.15 1.175C4.05 0.891666 4.95 0.749999 5.85 0.749999C7.4 0.749999 8.63333 1.175 9.55 2.025C10.4833 2.875 10.95 4 10.95 5.4C10.95 6.68333 10.6333 7.80833 10 8.775C9.38333 9.74167 8.43333 10.5833 7.15 11.3C7.93333 12.25 8.74167 13.4583 9.575 14.925C10.425 16.3917 11.275 18.0833 12.125 20ZM2.325 2.775C2.45833 4.275 2.55 5.59167 2.6 6.725C2.65 7.84167 2.675 8.975 2.675 10.125C2.675 10.4083 2.675 10.6917 2.675 10.975C2.675 11.2583 2.675 11.5417 2.675 11.825C4.975 11.275 6.68333 10.5 7.8 9.5C8.91667 8.5 9.475 7.25 9.475 5.75C9.475 4.5 9.15 3.55 8.5 2.9C7.86667 2.23333 6.95 1.9 5.75 1.9C5.13333 1.9 4.525 1.975 3.925 2.125C3.34167 2.275 2.80833 2.49167 2.325 2.775ZM13.0074 13.9C13.0074 11.7667 13.4658 10.0333 14.3824 8.7C15.3158 7.35 16.5158 6.675 17.9824 6.675C19.2158 6.675 20.1908 7.16667 20.9074 8.15C21.6241 9.11667 21.9824 10.425 21.9824 12.075C21.9824 14.5083 21.5408 16.4833 20.6574 18C19.7908 19.5 18.6491 20.25 17.2324 20.25C15.9491 20.25 14.9241 19.6583 14.1574 18.475C13.3908 17.2917 13.0074 15.7667 13.0074 13.9ZM20.5074 13.075C20.5074 11.2917 20.2741 9.96667 19.8074 9.1C19.3408 8.23333 18.6241 7.8 17.6574 7.8C16.7741 7.8 16.0074 8.375 15.3574 9.525C14.7074 10.675 14.3824 12.075 14.3824 13.725C14.3824 15.2583 14.6574 16.5417 15.2074 17.575C15.7574 18.6083 16.4991 19.125 17.4324 19.125C18.2491 19.125 18.9658 18.5417 19.5824 17.375C20.1991 16.1917 20.5074 14.7583 20.5074 13.075ZM32.274 20.9C32.1407 20.95 31.974 20.9833 31.774 21C31.5907 21.0333 31.424 21.05 31.274 21.05C31.2574 20.6333 31.2324 20.15 31.199 19.6C31.1824 19.0333 31.1574 18.4 31.124 17.7C30.824 18.7333 30.4157 19.5 29.899 20C29.3824 20.5 28.7324 20.75 27.949 20.75C26.699 20.75 25.699 20.1417 24.949 18.925C24.2157 17.6917 23.849 16.0833 23.849 14.1C23.849 11.95 24.3157 10.2417 25.249 8.975C26.199 7.69167 27.474 7.05 29.074 7.05C29.3574 7.05 29.6574 7.075 29.974 7.125C30.3074 7.15833 30.6074 7.21667 30.874 7.3C30.8574 5.71667 30.8407 4.58333 30.824 3.9C30.824 3.2 30.824 2.575 30.824 2.025C30.9407 1.95833 31.074 1.90833 31.224 1.875C31.374 1.84167 31.5157 1.825 31.649 1.825C31.7824 1.825 31.9074 1.83333 32.024 1.85C32.1574 1.86667 32.2824 1.89167 32.399 1.925C32.3324 2.825 32.2824 4.05833 32.249 5.625C32.2157 7.19167 32.199 10.925 32.199 16.825C32.199 17.625 32.199 18.3167 32.199 18.9C32.2157 19.4833 32.2407 20.15 32.274 20.9ZM25.224 13.875C25.224 15.7083 25.4657 17.1333 25.949 18.15C26.449 19.15 27.1324 19.65 27.999 19.65C28.8157 19.65 29.4824 19.2083 29.999 18.325C30.5157 17.425 30.849 16.1167 30.999 14.4C30.9824 14.05 30.9657 13.6667 30.949 13.25C30.949 12.8167 30.9407 12.1667 30.924 11.3C30.924 10.4833 30.9157 9.875 30.899 9.475C30.899 9.075 30.8907 8.7 30.874 8.35C30.674 8.28333 30.4407 8.23333 30.174 8.2C29.9074 8.16667 29.6074 8.15 29.274 8.15C28.0574 8.15 27.074 8.65833 26.324 9.675C25.5907 10.6917 25.224 12.0917 25.224 13.875ZM37.5371 1.525C37.7204 1.54167 37.8704 1.56667 37.9871 1.6C38.1204 1.63333 38.2538 1.69167 38.3871 1.775C38.1871 2.19167 38.0038 2.64167 37.8371 3.125C37.6871 3.59167 37.5621 4.04167 37.4621 4.475C37.3454 4.49167 37.1788 4.5 36.9621 4.5C36.7621 4.5 36.5621 4.49167 36.3621 4.475C36.3454 4.40833 36.3371 4.34167 36.3371 4.275C36.3371 4.19167 36.3371 4.075 36.3371 3.925C36.3371 3.54167 36.3788 3.13333 36.4621 2.7C36.5454 2.26667 36.6538 1.90833 36.7871 1.625C36.9371 1.575 37.0621 1.54167 37.1621 1.525C37.2621 1.50833 37.3871 1.50833 37.5371 1.525ZM35.8621 7.55C36.0121 7.46667 36.1621 7.40833 36.3121 7.375C36.4621 7.325 36.6121 7.3 36.7621 7.3C36.8288 7.3 36.9038 7.30833 36.9871 7.325C37.0704 7.325 37.1538 7.34167 37.2371 7.375C36.9038 9.24167 36.6871 11.35 36.5871 13.7C36.4871 16.05 36.5204 18.1833 36.6871 20.1C36.5871 20.1333 36.4788 20.1583 36.3621 20.175C36.2621 20.2083 36.1538 20.225 36.0371 20.225C35.9704 20.225 35.9038 20.2167 35.8371 20.2C35.7704 20.2 35.7038 20.1917 35.6371 20.175C35.3538 18.1083 35.2371 15.9417 35.2871 13.675C35.3371 11.3917 35.5288 9.35 35.8621 7.55Z" fill="#021A1F" fill-opacity="0.8"/>
</svg>
