<svg width="135" height="22" viewBox="0 0 135 22" fill="none" xmlns="http://www.w3.org/2000/svg">
<path d="M8.35 17.925C8.01667 19.0083 7.55833 19.825 6.975 20.375C6.40833 20.925 5.725 21.2 4.925 21.2C3.84167 21.2 2.95833 20.6667 2.275 19.6C1.60833 18.5333 1.16667 16.9667 0.95 14.9C1.11667 14.8 1.3 14.7167 1.5 14.65C1.7 14.5833 1.96667 14.5083 2.3 14.425C2.55 16.475 2.86667 17.925 3.25 18.775C3.65 19.6083 4.23333 20.025 5 20.025C5.85 20.025 6.48333 19.4583 6.9 18.325C7.33333 17.1917 7.55 15.4833 7.55 13.2C7.55 11.4667 7.49167 9.7 7.375 7.9C7.25833 6.1 7.05 3.875 6.75 1.225C6.86667 1.15833 6.99167 1.1 7.125 1.05C7.275 0.999999 7.43333 0.966666 7.6 0.949998C7.71667 0.933332 7.84167 0.916666 7.975 0.899999C8.125 0.883333 8.26667 0.874999 8.4 0.874999C8.61667 2.90833 8.775 4.75833 8.875 6.425C8.99167 8.075 9.05 9.58333 9.05 10.95C9.05 12.55 8.99167 13.9167 8.875 15.05C8.75833 16.1667 8.58333 17.125 8.35 17.925ZM13.5578 11.275C14.0745 11.4917 14.6328 11.65 15.2328 11.75C15.8328 11.85 16.5245 11.9 17.3078 11.9C17.5078 11.9 17.7161 11.8917 17.9328 11.875C18.1661 11.8417 18.3328 11.8083 18.4328 11.775C18.5495 11.2917 18.6411 10.8417 18.7078 10.425C18.7745 10.0083 18.8078 9.625 18.8078 9.275C18.8078 8.475 18.6745 7.90833 18.4078 7.575C18.1411 7.225 17.7078 7.05 17.1078 7.05C16.3411 7.05 15.6328 7.44167 14.9828 8.225C14.3328 9.00833 13.8578 10.025 13.5578 11.275ZM19.6078 14.825C19.8078 14.8583 20.0078 14.9333 20.2078 15.05C20.4245 15.1667 20.6078 15.3083 20.7578 15.475C20.4578 16.4417 19.8328 17.3167 18.8828 18.1C17.9328 18.8667 16.9828 19.25 16.0328 19.25C14.7495 19.25 13.7411 18.7167 13.0078 17.65C12.2745 16.5833 11.9078 15.1583 11.9078 13.375C11.9078 11.475 12.4245 9.75833 13.4578 8.225C14.5078 6.675 15.7661 5.9 17.2328 5.9C18.1495 5.9 18.8661 6.20833 19.3828 6.825C19.9161 7.425 20.1828 8.25 20.1828 9.3C20.1828 9.88333 20.1245 10.4583 20.0078 11.025C19.9078 11.5917 19.7578 12.125 19.5578 12.625C19.2411 12.725 18.8661 12.8 18.4328 12.85C17.9995 12.9 17.4828 12.925 16.8828 12.925C16.2995 12.925 15.7078 12.875 15.1078 12.775C14.5078 12.6583 13.9245 12.5 13.3578 12.3C13.3245 12.5 13.2995 12.7 13.2828 12.9C13.2828 13.0833 13.2828 13.275 13.2828 13.475C13.2828 14.8583 13.5245 15.9833 14.0078 16.85C14.5078 17.7 15.1745 18.125 16.0078 18.125C16.7411 18.125 17.4578 17.8083 18.1578 17.175C18.8745 16.525 19.3578 15.7417 19.6078 14.825ZM25.2332 9.35C25.2665 11.2667 25.3749 13.05 25.5582 14.7C25.7415 16.35 25.9915 17.8583 26.3082 19.225C26.0082 19.325 25.7415 19.4 25.5082 19.45C25.2915 19.5 25.0915 19.525 24.9082 19.525C24.6915 18.525 24.4749 16.9833 24.2582 14.9C24.0582 12.8167 23.9499 10.9167 23.9332 9.2C23.6332 9.15 23.3499 9.1 23.0832 9.05C22.8165 8.98333 22.5832 8.90833 22.3832 8.825C22.3832 8.625 22.3915 8.44167 22.4082 8.275C22.4415 8.10833 22.4832 8 22.5332 7.95C22.6832 7.98333 22.8582 8.01667 23.0582 8.05C23.2582 8.06667 23.5499 8.09167 23.9332 8.125C23.9999 5.59167 24.2999 3.74167 24.8332 2.575C25.3832 1.40833 26.2249 0.824999 27.3582 0.824999C28.1749 0.824999 28.8165 1.10833 29.2832 1.675C29.7665 2.24167 30.0082 2.98333 30.0082 3.9C30.0082 4.16667 29.9749 4.45 29.9082 4.75C29.8415 5.05 29.7665 5.28333 29.6832 5.45C29.4665 5.45 29.2582 5.43333 29.0582 5.4C28.8582 5.35 28.6665 5.29167 28.4832 5.225C28.5665 4.94167 28.6249 4.68333 28.6582 4.45C28.7082 4.2 28.7332 3.95833 28.7332 3.725C28.7332 3.19167 28.6082 2.76667 28.3582 2.45C28.1082 2.11667 27.7749 1.95 27.3582 1.95C26.6749 1.95 26.1415 2.45833 25.7582 3.475C25.3915 4.475 25.2082 5.91667 25.2082 7.8C25.2082 7.86667 25.2082 7.94167 25.2082 8.025C25.2082 8.09167 25.2082 8.16667 25.2082 8.25C25.7082 8.26667 26.1082 8.28333 26.4082 8.3C26.7082 8.3 26.9915 8.3 27.2582 8.3C27.5415 8.3 27.8249 8.29167 28.1082 8.275C28.3915 8.24167 28.6749 8.2 28.9582 8.15C28.9582 8.3 28.9415 8.48333 28.9082 8.7C28.8915 8.9 28.8665 9.11667 28.8332 9.35C28.6499 9.38333 28.4165 9.40833 28.1332 9.425C27.8499 9.44167 27.5165 9.45 27.1332 9.45C26.7665 9.45 26.4249 9.44167 26.1082 9.425C25.7915 9.40833 25.4999 9.38333 25.2332 9.35ZM32.8748 9.35C32.9081 11.2667 33.0165 13.05 33.1998 14.7C33.3831 16.35 33.6331 17.8583 33.9498 19.225C33.6498 19.325 33.3831 19.4 33.1498 19.45C32.9331 19.5 32.7331 19.525 32.5498 19.525C32.3331 18.525 32.1165 16.9833 31.8998 14.9C31.6998 12.8167 31.5915 10.9167 31.5748 9.2C31.2748 9.15 30.9915 9.1 30.7248 9.05C30.4581 8.98333 30.2248 8.90833 30.0248 8.825C30.0248 8.625 30.0331 8.44167 30.0498 8.275C30.0831 8.10833 30.1248 8 30.1748 7.95C30.3248 7.98333 30.4998 8.01667 30.6998 8.05C30.8998 8.06667 31.1915 8.09167 31.5748 8.125C31.6415 5.59167 31.9415 3.74167 32.4748 2.575C33.0248 1.40833 33.8665 0.824999 34.9998 0.824999C35.8165 0.824999 36.4581 1.10833 36.9248 1.675C37.4081 2.24167 37.6498 2.98333 37.6498 3.9C37.6498 4.16667 37.6165 4.45 37.5498 4.75C37.4831 5.05 37.4081 5.28333 37.3248 5.45C37.1081 5.45 36.8998 5.43333 36.6998 5.4C36.4998 5.35 36.3081 5.29167 36.1248 5.225C36.2081 4.94167 36.2665 4.68333 36.2998 4.45C36.3498 4.2 36.3748 3.95833 36.3748 3.725C36.3748 3.19167 36.2498 2.76667 35.9998 2.45C35.7498 2.11667 35.4165 1.95 34.9998 1.95C34.3165 1.95 33.7831 2.45833 33.3998 3.475C33.0331 4.475 32.8498 5.91667 32.8498 7.8C32.8498 7.86667 32.8498 7.94167 32.8498 8.025C32.8498 8.09167 32.8498 8.16667 32.8498 8.25C33.3498 8.26667 33.7498 8.28333 34.0498 8.3C34.3498 8.3 34.6331 8.3 34.8998 8.3C35.1831 8.3 35.4665 8.29167 35.7498 8.275C36.0331 8.24167 36.3165 8.2 36.5998 8.15C36.5998 8.3 36.5831 8.48333 36.5498 8.7C36.5331 8.9 36.5081 9.11667 36.4748 9.35C36.2915 9.38333 36.0581 9.40833 35.7748 9.425C35.4915 9.44167 35.1581 9.45 34.7748 9.45C34.4081 9.45 34.0665 9.44167 33.7498 9.425C33.4331 9.40833 33.1415 9.38333 32.8748 9.35ZM52.1479 10.55C52.1479 11.6667 51.9979 13.1333 51.6979 14.95C51.3979 16.75 51.0395 18.3833 50.6229 19.85C50.4395 19.85 50.2395 19.825 50.0229 19.775C49.8229 19.7417 49.6145 19.6833 49.3979 19.6C49.4645 19.3333 49.5395 19 49.6229 18.6C49.7229 18.2 49.7812 17.975 49.7979 17.925C49.4479 18.2083 49.0479 18.425 48.5979 18.575C48.1479 18.725 47.6729 18.8 47.1729 18.8C46.0729 18.8 45.1812 18.5 44.4979 17.9C43.8312 17.3 43.4979 16.5167 43.4979 15.55C43.4979 14.4833 43.9562 13.675 44.8729 13.125C45.7895 12.5583 47.1229 12.275 48.8729 12.275C49.1062 12.275 49.3395 12.2833 49.5729 12.3C49.8229 12.3 50.1812 12.3083 50.6479 12.325C50.6645 12.125 50.6729 11.9083 50.6729 11.675C50.6729 11.425 50.6729 11.025 50.6729 10.475C50.6729 9.175 50.4979 8.24167 50.1479 7.675C49.7979 7.09167 49.2145 6.8 48.3979 6.8C47.5812 6.8 46.8895 7.15 46.3229 7.85C45.7729 8.55 45.4812 9.43333 45.4479 10.5C45.0812 10.4167 44.7895 10.325 44.5729 10.225C44.3729 10.1083 44.2062 9.95833 44.0729 9.775C44.2562 8.64167 44.7812 7.675 45.6479 6.875C46.5312 6.075 47.5229 5.675 48.6229 5.675C49.7895 5.675 50.6645 6.08333 51.2479 6.9C51.8479 7.71667 52.1479 8.93333 52.1479 10.55ZM44.9479 15.55C44.9479 16.2 45.1645 16.725 45.5979 17.125C46.0312 17.5083 46.5979 17.7 47.2979 17.7C47.8145 17.7 48.3062 17.625 48.7729 17.475C49.2562 17.3083 49.6895 17.075 50.0729 16.775C50.2395 15.9917 50.3562 15.3333 50.4229 14.8C50.5062 14.25 50.5645 13.7167 50.5979 13.2C48.7312 13.0833 47.3229 13.225 46.3729 13.625C45.4229 14.0083 44.9479 14.65 44.9479 15.55ZM56.3121 14.5C56.3121 15.3833 56.3288 16.3583 56.3621 17.425C56.3954 18.475 56.4454 19.225 56.5121 19.675C56.3621 19.7417 56.1704 19.7917 55.9371 19.825C55.7204 19.8583 55.5121 19.875 55.3121 19.875C55.2288 18.1917 55.1454 15.9583 55.0621 13.175C54.9954 10.3917 54.9621 8.00833 54.9621 6.025C55.0954 5.95833 55.2371 5.90833 55.3871 5.875C55.5371 5.84167 55.6954 5.825 55.8621 5.825C55.9788 5.825 56.1038 5.83333 56.2371 5.85C56.3704 5.85 56.5121 5.86667 56.6621 5.9C56.6621 5.93333 56.6371 6.3 56.5871 7C56.5371 7.7 56.5038 8.29167 56.4871 8.775C57.0371 7.825 57.6204 7.11667 58.2371 6.65C58.8538 6.16667 59.5038 5.925 60.1871 5.925C61.2038 5.925 61.9371 6.29167 62.3871 7.025C62.8371 7.75833 63.0621 8.93333 63.0621 10.55C63.0621 11.8667 62.9538 13.3333 62.7371 14.95C62.5371 16.55 62.3204 17.8 62.0871 18.7C61.8704 18.6833 61.6371 18.65 61.3871 18.6C61.1538 18.5333 60.9704 18.4667 60.8371 18.4C61.1371 16.75 61.3538 15.3083 61.4871 14.075C61.6204 12.825 61.6871 11.6167 61.6871 10.45C61.6871 9.3 61.5454 8.475 61.2621 7.975C60.9788 7.45833 60.5204 7.2 59.8871 7.2C59.2538 7.2 58.6204 7.50833 57.9871 8.125C57.3704 8.74167 56.8371 9.59167 56.3871 10.675C56.3704 11.3417 56.3538 12.0083 56.3371 12.675C56.3204 13.325 56.3121 13.9333 56.3121 14.5ZM73.8502 19.9C73.7169 19.95 73.5502 19.9833 73.3502 20C73.1669 20.0333 73.0002 20.05 72.8502 20.05C72.8335 19.6333 72.8085 19.15 72.7752 18.6C72.7585 18.0333 72.7335 17.4 72.7002 16.7C72.4002 17.7333 71.9919 18.5 71.4752 19C70.9585 19.5 70.3085 19.75 69.5252 19.75C68.2752 19.75 67.2752 19.1417 66.5252 17.925C65.7919 16.6917 65.4252 15.0833 65.4252 13.1C65.4252 10.95 65.8919 9.24167 66.8252 7.975C67.7752 6.69167 69.0502 6.05 70.6502 6.05C70.9335 6.05 71.2335 6.075 71.5502 6.125C71.8835 6.15833 72.1835 6.21667 72.4502 6.3C72.4335 4.71667 72.4169 3.58333 72.4002 2.9C72.4002 2.2 72.4002 1.575 72.4002 1.025C72.5169 0.958332 72.6502 0.908332 72.8002 0.874999C72.9502 0.841666 73.0919 0.824999 73.2252 0.824999C73.3585 0.824999 73.4835 0.833332 73.6002 0.85C73.7335 0.866666 73.8585 0.891666 73.9752 0.924999C73.9085 1.825 73.8585 3.05833 73.8252 4.625C73.7919 6.19167 73.7752 9.925 73.7752 15.825C73.7752 16.625 73.7752 17.3167 73.7752 17.9C73.7919 18.4833 73.8169 19.15 73.8502 19.9ZM66.8002 12.875C66.8002 14.7083 67.0419 16.1333 67.5252 17.15C68.0252 18.15 68.7085 18.65 69.5752 18.65C70.3919 18.65 71.0585 18.2083 71.5752 17.325C72.0919 16.425 72.4252 15.1167 72.5752 13.4C72.5585 13.05 72.5419 12.6667 72.5252 12.25C72.5252 11.8167 72.5169 11.1667 72.5002 10.3C72.5002 9.48333 72.4919 8.875 72.4752 8.475C72.4752 8.075 72.4669 7.7 72.4502 7.35C72.2502 7.28333 72.0169 7.23333 71.7502 7.2C71.4835 7.16667 71.1835 7.15 70.8502 7.15C69.6335 7.15 68.6502 7.65833 67.9002 8.675C67.1669 9.69167 66.8002 11.0917 66.8002 12.875ZM90.5305 13.5C90.7805 13.5 90.9888 13.5167 91.1555 13.55C91.3388 13.5833 91.5471 13.65 91.7805 13.75C91.6805 15.75 91.1971 17.275 90.3305 18.325C89.4805 19.3583 88.2805 19.875 86.7305 19.875C84.9638 19.875 83.5971 19.1833 82.6305 17.8C81.6638 16.4 81.1805 14.425 81.1805 11.875C81.1805 8.825 81.7805 6.36667 82.9805 4.5C84.1971 2.61667 85.7971 1.675 87.7805 1.675C89.1971 1.675 90.2305 2.14167 90.8805 3.075C91.5305 4.00833 91.8138 5.45 91.7305 7.4C91.5805 7.51667 91.3638 7.60833 91.0805 7.675C90.8138 7.74167 90.5388 7.76667 90.2555 7.75C90.3888 6 90.2388 4.75 89.8055 4C89.3888 3.23333 88.6305 2.85 87.5305 2.85C86.7471 2.85 86.0055 3.15 85.3055 3.75C84.6221 4.33333 84.0555 5.15833 83.6055 6.225C83.3055 6.95833 83.0721 7.775 82.9055 8.675C82.7555 9.575 82.6805 10.55 82.6805 11.6C82.6805 13.8833 83.0305 15.6417 83.7305 16.875C84.4471 18.0917 85.4721 18.7 86.8055 18.7C88.0055 18.7 88.9305 18.2333 89.5805 17.3C90.2471 16.3667 90.5638 15.1 90.5305 13.5ZM102.709 10.55C102.709 11.6667 102.559 13.1333 102.259 14.95C101.959 16.75 101.601 18.3833 101.184 19.85C101.001 19.85 100.801 19.825 100.584 19.775C100.384 19.7417 100.176 19.6833 99.9594 19.6C100.026 19.3333 100.101 19 100.184 18.6C100.284 18.2 100.343 17.975 100.359 17.925C100.009 18.2083 99.6094 18.425 99.1594 18.575C98.7094 18.725 98.2344 18.8 97.7344 18.8C96.6344 18.8 95.7427 18.5 95.0594 17.9C94.3927 17.3 94.0594 16.5167 94.0594 15.55C94.0594 14.4833 94.5177 13.675 95.4344 13.125C96.351 12.5583 97.6844 12.275 99.4344 12.275C99.6677 12.275 99.901 12.2833 100.134 12.3C100.384 12.3 100.743 12.3083 101.209 12.325C101.226 12.125 101.234 11.9083 101.234 11.675C101.234 11.425 101.234 11.025 101.234 10.475C101.234 9.175 101.059 8.24167 100.709 7.675C100.359 7.09167 99.776 6.8 98.9594 6.8C98.1427 6.8 97.451 7.15 96.8844 7.85C96.3344 8.55 96.0427 9.43333 96.0094 10.5C95.6427 10.4167 95.351 10.325 95.1344 10.225C94.9344 10.1083 94.7677 9.95833 94.6344 9.775C94.8177 8.64167 95.3427 7.675 96.2094 6.875C97.0927 6.075 98.0844 5.675 99.1844 5.675C100.351 5.675 101.226 6.08333 101.809 6.9C102.409 7.71667 102.709 8.93333 102.709 10.55ZM95.5094 15.55C95.5094 16.2 95.726 16.725 96.1594 17.125C96.5927 17.5083 97.1594 17.7 97.8594 17.7C98.376 17.7 98.8677 17.625 99.3344 17.475C99.8177 17.3083 100.251 17.075 100.634 16.775C100.801 15.9917 100.918 15.3333 100.984 14.8C101.068 14.25 101.126 13.7167 101.159 13.2C99.2927 13.0833 97.8844 13.225 96.9344 13.625C95.9844 14.0083 95.5094 14.65 95.5094 15.55ZM107.499 19.075C107.415 19.1083 107.315 19.1333 107.199 19.15C107.099 19.1833 106.982 19.2083 106.849 19.225C106.732 19.2417 106.632 19.2417 106.549 19.225C106.465 19.225 106.382 19.2167 106.299 19.2C105.899 17.0333 105.632 14.8167 105.499 12.55C105.365 10.2667 105.357 7.9 105.474 5.45C105.574 5.4 105.682 5.36667 105.799 5.35C105.932 5.33333 106.132 5.325 106.399 5.325C106.465 5.325 106.532 5.33333 106.599 5.35C106.665 5.35 106.807 5.375 107.024 5.425C106.924 6.24167 106.849 6.91667 106.799 7.45C106.749 7.96667 106.715 8.45 106.699 8.9C107.065 7.56667 107.574 6.5 108.224 5.7C108.874 4.9 109.54 4.5 110.224 4.5C110.84 4.5 111.282 4.71667 111.549 5.15C111.832 5.58333 111.974 6.28333 111.974 7.25C111.974 7.46667 111.965 7.7 111.949 7.95C111.932 8.2 111.915 8.45833 111.899 8.725C111.782 8.75833 111.64 8.78333 111.474 8.8C111.324 8.81667 111.099 8.825 110.799 8.825C110.832 8.55833 110.857 8.3 110.874 8.05C110.89 7.8 110.899 7.55833 110.899 7.325C110.899 6.75833 110.832 6.35 110.699 6.1C110.565 5.83333 110.357 5.7 110.074 5.7C109.457 5.7 108.84 6.31667 108.224 7.55C107.607 8.76667 107.107 10.3667 106.724 12.35C106.774 13.25 106.857 14.2417 106.974 15.325C107.107 16.4083 107.282 17.6583 107.499 19.075ZM115.799 19.075C115.716 19.1083 115.616 19.1333 115.499 19.15C115.399 19.1833 115.283 19.2083 115.149 19.225C115.033 19.2417 114.933 19.2417 114.849 19.225C114.766 19.225 114.683 19.2167 114.599 19.2C114.199 17.0333 113.933 14.8167 113.799 12.55C113.666 10.2667 113.658 7.9 113.774 5.45C113.874 5.4 113.983 5.36667 114.099 5.35C114.233 5.33333 114.433 5.325 114.699 5.325C114.766 5.325 114.833 5.33333 114.899 5.35C114.966 5.35 115.108 5.375 115.324 5.425C115.224 6.24167 115.149 6.91667 115.099 7.45C115.049 7.96667 115.016 8.45 114.999 8.9C115.366 7.56667 115.874 6.5 116.524 5.7C117.174 4.9 117.841 4.5 118.524 4.5C119.141 4.5 119.583 4.71667 119.849 5.15C120.133 5.58333 120.274 6.28333 120.274 7.25C120.274 7.46667 120.266 7.7 120.249 7.95C120.233 8.2 120.216 8.45833 120.199 8.725C120.083 8.75833 119.941 8.78333 119.774 8.8C119.624 8.81667 119.399 8.825 119.099 8.825C119.133 8.55833 119.158 8.3 119.174 8.05C119.191 7.8 119.199 7.55833 119.199 7.325C119.199 6.75833 119.133 6.35 118.999 6.1C118.866 5.83333 118.658 5.7 118.374 5.7C117.758 5.7 117.141 6.31667 116.524 7.55C115.908 8.76667 115.408 10.3667 115.024 12.35C115.074 13.25 115.158 14.2417 115.274 15.325C115.408 16.4083 115.583 17.6583 115.799 19.075ZM123.962 0.524999C124.145 0.541666 124.295 0.566666 124.412 0.599998C124.545 0.633332 124.679 0.691666 124.812 0.774999C124.612 1.19167 124.429 1.64167 124.262 2.125C124.112 2.59167 123.987 3.04167 123.887 3.475C123.77 3.49167 123.604 3.5 123.387 3.5C123.187 3.5 122.987 3.49167 122.787 3.475C122.77 3.40833 122.762 3.34167 122.762 3.275C122.762 3.19167 122.762 3.075 122.762 2.925C122.762 2.54167 122.804 2.13333 122.887 1.7C122.97 1.26667 123.079 0.908332 123.212 0.625C123.362 0.574999 123.487 0.541666 123.587 0.524999C123.687 0.508333 123.812 0.508333 123.962 0.524999ZM122.287 6.55C122.437 6.46667 122.587 6.40833 122.737 6.375C122.887 6.325 123.037 6.3 123.187 6.3C123.254 6.3 123.329 6.30833 123.412 6.325C123.495 6.325 123.579 6.34167 123.662 6.375C123.329 8.24167 123.112 10.35 123.012 12.7C122.912 15.05 122.945 17.1833 123.112 19.1C123.012 19.1333 122.904 19.1583 122.787 19.175C122.687 19.2083 122.579 19.225 122.462 19.225C122.395 19.225 122.329 19.2167 122.262 19.2C122.195 19.2 122.129 19.1917 122.062 19.175C121.779 17.1083 121.662 14.9417 121.712 12.675C121.762 10.3917 121.954 8.35 122.287 6.55ZM127.01 11.275C127.527 11.4917 128.085 11.65 128.685 11.75C129.285 11.85 129.977 11.9 130.76 11.9C130.96 11.9 131.168 11.8917 131.385 11.875C131.618 11.8417 131.785 11.8083 131.885 11.775C132.002 11.2917 132.093 10.8417 132.16 10.425C132.227 10.0083 132.26 9.625 132.26 9.275C132.26 8.475 132.127 7.90833 131.86 7.575C131.593 7.225 131.16 7.05 130.56 7.05C129.793 7.05 129.085 7.44167 128.435 8.225C127.785 9.00833 127.31 10.025 127.01 11.275ZM133.06 14.825C133.26 14.8583 133.46 14.9333 133.66 15.05C133.877 15.1667 134.06 15.3083 134.21 15.475C133.91 16.4417 133.285 17.3167 132.335 18.1C131.385 18.8667 130.435 19.25 129.485 19.25C128.202 19.25 127.193 18.7167 126.46 17.65C125.727 16.5833 125.36 15.1583 125.36 13.375C125.36 11.475 125.877 9.75833 126.91 8.225C127.96 6.675 129.218 5.9 130.685 5.9C131.602 5.9 132.318 6.20833 132.835 6.825C133.368 7.425 133.635 8.25 133.635 9.3C133.635 9.88333 133.577 10.4583 133.46 11.025C133.36 11.5917 133.21 12.125 133.01 12.625C132.693 12.725 132.318 12.8 131.885 12.85C131.452 12.9 130.935 12.925 130.335 12.925C129.752 12.925 129.16 12.875 128.56 12.775C127.96 12.6583 127.377 12.5 126.81 12.3C126.777 12.5 126.752 12.7 126.735 12.9C126.735 13.0833 126.735 13.275 126.735 13.475C126.735 14.8583 126.977 15.9833 127.46 16.85C127.96 17.7 128.627 18.125 129.46 18.125C130.193 18.125 130.91 17.8083 131.61 17.175C132.327 16.525 132.81 15.7417 133.06 14.825Z" fill="#021A1F" fill-opacity="0.8"/>
</svg>
