<svg width="50" height="50" viewBox="0 0 50 50" fill="none" xmlns="http://www.w3.org/2000/svg">
<circle cx="25" cy="25" r="24.5" fill="white" stroke="#021A1F"/>
<path d="M25.4514 34.3C24.3347 34.3 23.3264 34.1 22.4264 33.7C21.5264 33.2833 20.8014 32.6667 20.2514 31.85C19.718 31.0333 19.4347 30.0167 19.4014 28.8H21.5264C21.543 29.8 21.893 30.6667 22.5764 31.4C23.2597 32.1167 24.218 32.475 25.4514 32.475C26.6847 32.475 27.6097 32.1333 28.2264 31.45C28.8597 30.7667 29.1764 29.9417 29.1764 28.975C29.1764 28.1583 28.9764 27.4917 28.5764 26.975C28.193 26.4583 27.668 26.075 27.0014 25.825C26.3514 25.575 25.6347 25.45 24.8514 25.45H23.5514V23.675H24.8514C25.9847 23.675 26.868 23.4167 27.5014 22.9C28.1514 22.3833 28.4764 21.6583 28.4764 20.725C28.4764 19.9417 28.218 19.3 27.7014 18.8C27.2014 18.2833 26.4514 18.025 25.4514 18.025C24.4847 18.025 23.7097 18.3167 23.1264 18.9C22.543 19.4667 22.218 20.1833 22.1514 21.05H20.0264C20.0764 20.1 20.3264 19.2583 20.7764 18.525C21.243 17.7917 21.8764 17.225 22.6764 16.825C23.4764 16.4083 24.4014 16.2 25.4514 16.2C26.5847 16.2 27.5264 16.4 28.2764 16.8C29.043 17.2 29.618 17.7333 30.0014 18.4C30.4014 19.0667 30.6014 19.8 30.6014 20.6C30.6014 21.4833 30.3597 22.2917 29.8764 23.025C29.393 23.7417 28.668 24.225 27.7014 24.475C28.7347 24.6917 29.593 25.1833 30.2764 25.95C30.9597 26.7167 31.3014 27.725 31.3014 28.975C31.3014 29.9417 31.0764 30.8333 30.6264 31.65C30.193 32.45 29.543 33.0917 28.6764 33.575C27.8097 34.0583 26.7347 34.3 25.4514 34.3Z" fill="#021A1F"/>
</svg>
