<svg width="50" height="50" viewBox="0 0 50 50" fill="none" xmlns="http://www.w3.org/2000/svg">
<circle cx="25" cy="25" r="24.5" fill="white" stroke="#021A1F"/>
<path d="M19.9217 34V32.525C21.105 31.5917 22.2217 30.65 23.2717 29.7C24.3383 28.7333 25.28 27.7833 26.0967 26.85C26.93 25.9167 27.58 25 28.0467 24.1C28.53 23.2 28.7717 22.3333 28.7717 21.5C28.7717 20.8833 28.6633 20.3083 28.4467 19.775C28.2467 19.2417 27.9133 18.8167 27.4467 18.5C26.98 18.1667 26.3467 18 25.5467 18C24.78 18 24.1383 18.175 23.6217 18.525C23.105 18.8583 22.7133 19.3083 22.4467 19.875C22.1967 20.4417 22.0717 21.05 22.0717 21.7H20.0467C20.0467 20.55 20.2883 19.5667 20.7717 18.75C21.255 17.9167 21.9133 17.2833 22.7467 16.85C23.58 16.4167 24.5217 16.2 25.5717 16.2C27.1217 16.2 28.3883 16.6417 29.3717 17.525C30.3717 18.3917 30.8717 19.6917 30.8717 21.425C30.8717 22.4583 30.6133 23.4833 30.0967 24.5C29.58 25.5 28.9217 26.475 28.1217 27.425C27.3217 28.3583 26.4633 29.2333 25.5467 30.05C24.6467 30.8667 23.805 31.6 23.0217 32.25H31.4717V34H19.9217Z" fill="#021A1F"/>
</svg>
