<svg width="5" height="12" viewBox="0 0 5 12" fill="none" xmlns="http://www.w3.org/2000/svg">
<path d="M2.2267 1.11436C2.24452 1.64451 2.29111 2.27822 2.30781 2.77583C2.32493 3.27375 2.32283 3.63916 2.32283 3.63916C2.35104 3.9343 2.36675 4.2305 2.37798 4.52722C2.39721 5.32599 2.39258 6.13618 2.34304 6.93262C2.29462 7.73076 2.19933 8.52424 2.01999 9.29469C1.94799 9.59395 1.85986 9.88909 1.75321 10.1754C1.47857 9.78089 1.20408 9.38853 1.10163 9.2482C0.887202 8.95485 0.602463 8.85309 0.120132 8.72808C-0.0165541 9.09814 -0.0666542 9.33252 0.132621 9.63178C0.240539 9.79388 0.577203 10.2758 0.886782 10.7173C1.08788 11.0041 1.28 11.2778 1.4216 11.4799C1.6415 11.7835 1.78338 11.9793 1.78338 11.9793C1.78338 11.9793 1.78563 11.9823 1.78984 11.9883C1.79194 11.9912 1.79461 11.9949 1.79784 11.9993C1.80148 12.0023 1.80878 11.9944 1.81538 11.9916C1.84316 11.9755 1.88414 11.9517 1.93635 11.9213C2.04061 11.8606 2.19035 11.7735 2.37237 11.6675C2.4633 11.6151 2.56182 11.5534 2.66693 11.4902C2.71942 11.4583 2.7733 11.4253 2.82874 11.3916C2.85975 11.3722 2.89147 11.3523 2.92388 11.332C3.0398 11.2587 3.16512 11.1793 3.29339 11.0982C3.79579 10.7731 4.34393 10.4186 4.52637 10.3006C4.85868 10.0814 4.92043 9.85633 5 9.4774C4.49143 9.4402 4.16655 9.45912 3.81908 9.67141C3.69923 9.74422 3.43512 9.91393 3.13088 10.1104C3.1988 9.89618 3.25676 9.68187 3.30854 9.46799C3.50164 8.63509 3.5989 7.80462 3.64871 6.97764C3.69938 6.14864 3.7033 5.33075 3.68267 4.50271C3.67271 4.2361 3.65924 3.96907 3.63566 3.70204C3.63566 3.70204 3.60858 3.52578 3.55778 3.26466C3.50655 3.00355 3.42993 2.65822 3.34068 2.32049C3.16217 1.64451 2.94788 1.00044 2.9483 1.05877C2.54961 -0.0140013 2.10643 -0.67878 2.2267 1.11436Z" fill="#4169E3"/>
</svg>
