<svg width="52" height="44" viewBox="0 0 52 44" fill="none" xmlns="http://www.w3.org/2000/svg">
<path d="M1 29.2745C1 17.6265 8.49257 4.59197 22.0759 1.18829L22.792 3.64812C15.6043 7.02917 10.9028 13.2992 10.9028 20.8632V21.8639L11.9035 21.8632C17.6114 21.8591 21.5908 26.0994 21.5908 31.905C21.5908 37.9408 17.2139 43 11.3925 43C7.88577 43 5.33495 41.4272 3.6243 38.9591C1.88799 36.454 1 32.989 1 29.2745ZM29.0184 29.2745C29.0184 17.6262 36.5024 4.59247 50.0844 1.18853L50.7976 3.64777C43.6093 7.0294 38.9257 13.3003 38.9257 20.8632V21.8639L39.9264 21.8632C45.6381 21.8591 49.6092 26.0985 49.6092 31.905C49.6092 37.9399 45.2331 43 39.3974 43C35.8957 43 33.3483 41.4277 31.6396 38.9596C29.9054 36.4544 29.0184 32.9892 29.0184 29.2745Z" fill="white" stroke="#1D1D1B" stroke-width="2"/>
</svg>
